<svg width="85" height="85" viewBox="0 0 85 85" fill="none" xmlns="http://www.w3.org/2000/svg">
<circle cx="42.5" cy="42.5" r="42.5" fill="#70B62B"/>
<path fill-rule="evenodd" clip-rule="evenodd" d="M28.9672 20.2062C28.2749 20.5533 28.16 20.8121 28.0237 22.3322C27.8307 24.4837 27.3977 25.4909 26.1042 26.7969C25.2917 27.6172 24.4949 28.114 23.4436 28.4554C22.7287 28.6876 22.3945 28.9431 22.18 29.4213C22.0086 29.8037 22.0004 30.2818 22 39.937C21.9996 50.693 22 50.3802 22.472 52.7397C23.189 55.4529 24.7113 57.9363 26.8025 59.804C27.5454 60.4677 39.97 69.2862 40.8047 69.7424C41.4174 70.0773 42.5035 70.0871 43.1083 69.7633C43.5356 69.5346 55.4846 61.1517 56.4726 60.3876C56.7791 60.1506 57.3892 59.5884 57.8286 59.1385C60.0448 56.8685 61.4336 53.9715 61.848 50.7536C62.1118 48.7056 61.9798 40.085 61.8441 39.8281C61.5964 39.3594 60.831 39.4035 60.608 39.8994C60.5316 40.0691 60.499 41.6064 60.499 45.0355C60.499 50.5139 60.4433 51.2239 59.8758 52.9784C59.2033 55.0575 58.1035 56.8287 56.5481 58.3376C55.7951 59.0681 54.3982 60.0993 49.1706 63.7832C45.6238 66.2827 42.57 68.3904 42.3843 68.4671C42.1287 68.5728 41.9613 68.5827 41.6954 68.5077C41.501 68.453 38.9732 66.7373 36.0367 64.6669C33.1176 62.6089 30.1865 60.5459 29.523 60.0826C28.0968 59.0864 26.4063 57.4426 25.6897 56.3549C24.6103 54.7167 23.8634 52.7924 23.5941 50.9557C23.4654 50.0778 23.4436 48.486 23.4436 39.9526V29.976L23.8538 29.8643C25.2572 29.482 26.7842 28.4361 27.7482 27.1969C28.771 25.8821 29.3243 24.3606 29.4949 22.3944L29.5713 21.5148L32.1427 21.466C34.4968 21.4212 34.7312 21.4014 34.917 21.2309C35.2133 20.959 35.1884 20.4597 34.8657 20.2026C34.6227 20.0089 34.4959 20 31.9948 20.0001C29.5278 20.0002 29.3548 20.0119 28.9672 20.2062ZM37.4007 20.2026C37.0778 20.4597 37.053 20.9591 37.3495 21.2309C37.545 21.4102 37.8644 21.4189 45.962 21.466L54.3713 21.5148L54.4477 22.3944C54.6181 24.3583 55.1701 25.8779 56.1925 27.1969C57.0942 28.3601 58.4648 29.3266 59.8476 29.7745L60.499 29.9854V33.393C60.499 35.7173 60.5336 36.8775 60.608 37.0427C60.831 37.5386 61.5964 37.5827 61.8441 37.114C61.9109 36.9874 61.9457 35.6899 61.9443 33.3711C61.9424 30.1213 61.9271 29.7881 61.7626 29.4213C61.5481 28.9431 61.2139 28.6876 60.499 28.4554C59.4161 28.1037 58.6535 27.6226 57.7945 26.7492C56.5221 25.4554 56.0413 24.3039 55.9086 22.2317C55.828 20.9734 55.6459 20.5683 55.0075 20.2272C54.7283 20.078 54.4165 20 54.0999 20H46.1186C37.7022 20 37.6535 20.0012 37.4007 20.2026ZM31.9643 24.0561C31.8254 24.1546 31.6566 24.5314 31.4512 25.2011C30.6238 27.898 28.9657 29.9954 26.6017 31.3354C26.128 31.6039 25.9414 32.1188 25.9313 32.6632C25.907 33.9854 25.8645 36.8753 25.8782 41.3294L25.9068 50.6385L26.1675 51.5999C26.6933 53.5388 27.8307 55.4679 29.194 56.7331C29.743 57.2426 30.8397 58.0466 33.5118 59.8984C34.2499 60.41 34.6182 60.4798 34.9269 60.1672C35.1937 59.8971 35.1816 59.3775 34.9028 59.1253C34.7833 59.0172 33.9692 58.4298 33.0935 57.8199C30.6977 56.1515 29.961 55.542 29.269 54.6565C28.5479 53.7336 27.8864 52.4314 27.5752 51.3226L27.3559 50.5408L27.3267 41.5984L27.2977 32.6561L28.0967 32.1265C29.1582 31.4231 30.7066 29.8503 31.3969 28.7743C31.9887 27.8522 32.4889 26.8107 32.7629 25.9307L32.9357 25.3752H41.9713H51.0069L51.1798 25.9371C51.447 26.8057 51.9402 27.8308 52.543 28.7702C53.2361 29.8504 54.7824 31.4218 55.8459 32.1265L56.6449 32.6561L56.6149 41.5984C56.5867 49.9809 56.5736 50.5805 56.4048 51.176C56.1222 52.1733 55.6421 53.25 55.1331 54.0283C54.2368 55.3986 53.6793 55.8499 47.6394 60.0933L41.9718 64.0752L39.8727 62.5937C38.7183 61.779 37.6525 61.0652 37.5046 61.0078C36.9712 60.8008 36.3974 61.4219 36.6347 61.9493C36.7359 62.1742 41.4516 65.5584 41.8266 65.6752C41.9327 65.7082 42.1428 65.6705 42.2933 65.5913C42.5238 65.4702 50.2105 60.0899 53.2824 57.8998C53.7979 57.5322 54.4828 56.9848 54.8042 56.6833C56.1263 55.4438 57.2578 53.5076 57.7751 51.5999L58.0358 50.6385L58.0644 41.3294C58.0775 37.088 58.1237 34.0957 58.094 32.7044C58.0847 32.2724 57.6451 31.506 57.2691 31.293C54.9829 29.9983 53.3078 27.8623 52.4915 25.2011C52.286 24.5314 52.1172 24.1546 51.9783 24.0561C51.7973 23.9278 50.5347 23.9092 41.9713 23.9092C33.408 23.9092 32.1453 23.9278 31.9643 24.0561ZM50.5531 33.196C49.6568 33.3466 49.2644 33.6591 46.7238 36.2445C44.3143 38.6967 44.1833 38.8649 44.3472 39.2974C44.4347 39.5283 44.9363 39.7624 45.1847 39.6882C45.3015 39.6533 46.4609 38.5563 47.7612 37.2502C49.0615 35.9442 50.2319 34.8208 50.3619 34.7537C50.6899 34.5845 51.5193 34.6009 51.8646 34.7835C52.747 35.2499 53.1073 36.2516 52.7264 37.1792C52.623 37.4313 50.6643 39.4823 46.3334 43.8735C42.8993 47.3554 39.9278 50.3183 39.7299 50.4576C39.5271 50.6004 39.1793 50.7327 38.9327 50.7608C38.065 50.8598 37.9352 50.7578 34.5212 47.292C32.7867 45.5312 31.3217 43.9667 31.2655 43.8154C31.2094 43.6641 31.1635 43.3439 31.1635 43.1038C31.1635 41.7676 32.4187 40.9354 33.649 41.456C33.8762 41.5521 34.8131 42.42 36.2338 43.8504C38.1152 45.7445 38.5061 46.094 38.7429 46.094C38.9798 46.094 39.3572 45.756 41.1728 43.9171C43.0859 41.9797 43.3223 41.7055 43.3223 41.4249C43.3223 41.0141 43.0294 40.7188 42.6217 40.7188C42.3421 40.7188 42.1085 40.9202 40.5258 42.5249L38.7445 44.331L36.7557 42.3313C34.3987 39.9614 34.2829 39.888 32.9005 39.8887C32.0935 39.889 31.9259 39.9202 31.5012 40.1492C30.9206 40.4621 30.3011 41.0969 29.9915 41.6961C29.797 42.0727 29.7061 42.2671 29.7061 43.1038C29.7061 43.9946 29.7885 44.1348 30.0382 44.591C30.2264 44.9349 31.358 46.1456 33.6569 48.4626C37.4337 52.2691 37.3438 52.2029 38.7386 52.2012C40.1938 52.1992 39.8123 52.5216 47.1549 45.0924C54.5973 37.5623 54.275 37.955 54.2746 36.4187C54.2744 35.6288 54.2401 35.4251 54.0447 35.0535C53.6842 34.3677 53.4527 34.095 52.9287 33.7387C52.1944 33.2395 51.3891 33.0555 50.5531 33.196Z" fill="white"/>
</svg>
