<svg width="85" height="85" viewBox="0 0 85 85" fill="none" xmlns="http://www.w3.org/2000/svg">
<circle cx="42.5" cy="42.5" r="42.5" fill="#70B62B"/>
<path d="M62.5471 28.23L63.2401 27.7877V27.7877L62.5471 28.23ZM59.4273 23.3408L58.7342 23.783V23.783L59.4273 23.3408ZM31.2994 22.3614C31.2994 21.9074 30.9314 21.5393 30.4773 21.5393C30.0233 21.5393 29.6552 21.9074 29.6552 22.3614H31.2994ZM55.9092 28.5783C55.9092 28.1243 55.5412 27.7562 55.0871 27.7562C54.6331 27.7562 54.265 28.1243 54.265 28.5783H55.9092ZM55.8729 22.8669C55.8729 22.4129 55.5049 22.0448 55.0508 22.0448C54.5968 22.0448 54.2287 22.4129 54.2287 22.8669H55.8729ZM54.2287 25.1813C54.2287 25.6353 54.5968 26.0034 55.0508 26.0034C55.5049 26.0034 55.8729 25.6353 55.8729 25.1813H54.2287ZM43.7132 22.3614C43.7132 21.9074 43.3451 21.5393 42.8911 21.5393C42.4371 21.5393 42.069 21.9074 42.069 22.3614H43.7132ZM42.069 32.1928C42.069 32.6468 42.4371 33.0149 42.8911 33.0149C43.3451 33.0149 43.7132 32.6468 43.7132 32.1928H42.069ZM28.2504 51.7108C28.2504 51.2568 27.8824 50.8887 27.4283 50.8887C26.9743 50.8887 26.6062 51.2568 26.6062 51.7108H28.2504ZM26.6062 63.1325C26.6062 63.5866 26.9743 63.9546 27.4283 63.9546C27.8824 63.9546 28.2504 63.5866 28.2504 63.1325H26.6062ZM57.2414 63.0602C57.2414 63.5143 57.6095 63.8824 58.0635 63.8824C58.5176 63.8824 58.8856 63.5143 58.8856 63.0602H57.2414ZM26.461 48.4578C26.461 48.9119 26.8291 49.2799 27.2831 49.2799C27.7372 49.2799 28.1052 48.9119 28.1052 48.4578H26.461ZM30.9129 47.9249C30.4588 47.9249 30.0908 48.2929 30.0908 48.747C30.0908 49.201 30.4588 49.5691 30.9129 49.5691V47.9249ZM54.5789 49.5691C55.033 49.5691 55.4011 49.201 55.4011 48.747C55.4011 48.2929 55.033 47.9249 54.5789 47.9249V49.5691ZM31.2033 51.5393C30.7492 51.5393 30.3812 51.9074 30.3812 52.3614C30.3812 52.8155 30.7492 53.1836 31.2033 53.1836V51.5393ZM54.8693 53.1836C55.3234 53.1836 55.6914 52.8155 55.6914 52.3614C55.6914 51.9074 55.3234 51.5393 54.8693 51.5393V53.1836ZM31.0581 55.1538C30.604 55.1538 30.236 55.5219 30.236 55.9759C30.236 56.4299 30.604 56.798 31.0581 56.798V55.1538ZM54.7241 56.798C55.1782 56.798 55.5463 56.4299 55.5463 55.9759C55.5463 55.5219 55.1782 55.1538 54.7241 55.1538V56.798ZM30.9129 58.6237C30.4588 58.6237 30.0908 58.9917 30.0908 59.4458C30.0908 59.8998 30.4588 60.2679 30.9129 60.2679V58.6237ZM54.5789 60.2679C55.033 60.2679 55.4011 59.8998 55.4011 59.4458C55.4011 58.9917 55.033 58.6237 54.5789 58.6237V60.2679ZM22.1779 24.8916V61.1084H23.8221V24.8916H22.1779ZM25.9038 64.8221H60.0962V63.1779H25.9038V64.8221ZM63.8221 61.1084V29.7807H62.1779V61.1084H63.8221ZM63.2401 27.7877L60.1203 22.8986L58.7342 23.783L61.854 28.6722L63.2401 27.7877ZM56.9764 21.1779H25.9038V22.8221H56.9764V21.1779ZM60.1203 22.8986C59.4359 21.826 58.2496 21.1779 56.9764 21.1779V22.8221C57.6902 22.8221 58.353 23.1855 58.7342 23.783L60.1203 22.8986ZM63.8221 29.7807C63.8221 29.0746 63.6201 28.3832 63.2401 27.7877L61.854 28.6722C62.0657 29.0039 62.1779 29.3884 62.1779 29.7807H63.8221ZM60.0962 64.8221C62.1507 64.8221 63.8221 63.1627 63.8221 61.1084H62.1779C62.1779 62.2481 61.2492 63.1779 60.0962 63.1779V64.8221ZM22.1779 61.1084C22.1779 63.1627 23.8493 64.8221 25.9038 64.8221V63.1779C24.7508 63.1779 23.8221 62.2481 23.8221 61.1084H22.1779ZM23.8221 24.8916C23.8221 23.7519 24.7508 22.8221 25.9038 22.8221V21.1779C23.8493 21.1779 22.1779 22.8373 22.1779 24.8916H23.8221ZM29.6552 22.3614V29.5904H31.2994V22.3614H29.6552ZM33.3811 33.304H52.1833V31.6598H33.3811V33.304ZM55.9092 29.5904V28.5783H54.265V29.5904H55.9092ZM52.1833 33.304C54.2378 33.304 55.9092 31.6446 55.9092 29.5904H54.265C54.265 30.73 53.3363 31.6598 52.1833 31.6598V33.304ZM29.6552 29.5904C29.6552 31.6446 31.3266 33.304 33.3811 33.304V31.6598C32.2282 31.6598 31.2994 30.73 31.2994 29.5904H29.6552ZM54.2287 22.8669V25.1813H55.8729V22.8669H54.2287ZM45.7714 25.6145V28.7952H47.4156V25.6145H45.7714ZM47.3194 30.3402H50.6588V28.696H47.3194V30.3402ZM52.2069 28.7952V25.6145H50.5626V28.7952H52.2069ZM50.6588 24.0695H47.3194V25.7137H50.6588V24.0695ZM52.2069 25.6145C52.2069 24.7579 51.5105 24.0695 50.6588 24.0695V25.7137C50.609 25.7137 50.5626 25.6725 50.5626 25.6145H52.2069ZM50.6588 30.3402C51.5105 30.3402 52.2069 29.6517 52.2069 28.7952H50.5626C50.5626 28.7371 50.609 28.696 50.6588 28.696V30.3402ZM45.7714 28.7952C45.7714 29.6517 46.4677 30.3402 47.3194 30.3402V28.696C47.3692 28.696 47.4156 28.7371 47.4156 28.7952H45.7714ZM47.4156 25.6145C47.4156 25.6725 47.3692 25.7137 47.3194 25.7137V24.0695C46.4677 24.0695 45.7714 24.7579 45.7714 25.6145H47.4156ZM42.069 22.3614V32.1928H43.7132V22.3614H42.069ZM26.6062 51.7108V63.1325H28.2504V51.7108H26.6062ZM57.2414 45.2771V63.0602H58.8856V45.2771H57.2414ZM57.3376 43.7321H28.0091V45.3763H57.3376V43.7321ZM26.461 45.2771V48.4578H28.1052V45.2771H26.461ZM28.0091 43.7321C27.1574 43.7321 26.461 44.4206 26.461 45.2771H28.1052C28.1052 45.3352 28.0589 45.3763 28.0091 45.3763V43.7321ZM58.8856 45.2771C58.8856 44.4206 58.1893 43.7321 57.3376 43.7321V45.3763C57.2877 45.3763 57.2414 45.3352 57.2414 45.2771H58.8856ZM30.9129 49.5691H54.5789V47.9249H30.9129V49.5691ZM31.2033 53.1836H54.8693V51.5393H31.2033V53.1836ZM31.0581 56.798H54.7241V55.1538H31.0581V56.798ZM30.9129 60.2679H54.5789V58.6237H30.9129V60.2679Z" fill="white"/>
</svg>
