<svg width="85" height="85" viewBox="0 0 85 85" fill="none" xmlns="http://www.w3.org/2000/svg">
<circle cx="42.5" cy="42.5" r="42.5" fill="#70B62B"/>
<path d="M38.5024 42.1742C39.3964 44.19 41.3261 47.5497 42.5256 47.5497C43.8666 47.5497 45.6547 43.742 46.5487 42.1742M38.5024 42.1742C37.453 41.7535 35.5363 42.5969 35.7509 48.9336C35.7758 49.6683 36.39 50.2374 37.1251 50.2374L47.9261 50.2374C48.6612 50.2375 49.2754 49.6684 49.3003 48.9337C49.5149 42.597 47.5982 41.7535 46.5487 42.1742M38.5024 42.1742L42.0818 43.3697C42.3698 43.4659 42.6814 43.4659 42.9695 43.3697L46.5487 42.1742" stroke="white" stroke-width="1.40106" stroke-linecap="round"/>
<path d="M47.8899 35.4546C47.8899 38.4234 45.4883 40.8301 42.5257 40.8301C39.5631 40.8301 37.1615 38.4234 37.1615 35.4546C37.1615 32.4858 39.5631 30.0791 42.5257 30.0791C45.4883 30.0791 47.8899 32.4858 47.8899 35.4546ZM38.4838 35.4546C38.4838 37.6916 40.2934 39.5051 42.5257 39.5051C44.758 39.5051 46.5677 37.6916 46.5677 35.4546C46.5677 33.2176 44.758 31.4041 42.5257 31.4041C40.2934 31.4041 38.4838 33.2176 38.4838 35.4546Z" fill="white"/>
<path fill-rule="evenodd" clip-rule="evenodd" d="M30.6188 20.1938C29.9612 20.5201 29.852 20.7634 29.7225 22.1923C29.5392 24.2147 29.1279 25.1614 27.899 26.389C27.1271 27.1602 26.3701 27.6271 25.3715 27.9481C24.6922 28.1664 24.3748 28.4065 24.171 28.856C24.0082 29.2155 24.0004 29.6649 24 38.7408C23.9997 48.8514 24 48.5574 24.4484 50.7753C25.1295 53.3257 26.5758 55.6601 28.5623 57.4158C29.2681 58.0397 41.0715 66.3291 41.8645 66.7579C42.4465 67.0726 43.4783 67.0819 44.0528 66.7775C44.4589 66.5625 55.8104 58.6826 56.749 57.9643C57.0401 57.7416 57.6198 57.2131 58.0372 56.7902C60.1425 54.6564 61.4619 51.9332 61.8556 48.9084C62.1062 46.9833 61.9809 38.8799 61.8519 38.6384C61.6165 38.1979 60.8895 38.2393 60.6776 38.7054C60.605 38.865 60.574 40.31 60.574 43.5334C60.574 48.683 60.5211 49.3505 59.982 50.9997C59.3431 52.954 58.2983 54.619 56.8207 56.0373C56.1053 56.724 54.7783 57.6933 49.812 61.1562C46.4426 63.5057 43.5415 65.487 43.3651 65.5591C43.1223 65.6584 42.9632 65.6677 42.7106 65.5972C42.5259 65.5458 40.1245 63.9331 37.3348 61.9869C34.5617 60.0524 31.7771 58.1131 31.1469 57.6776C29.7919 56.7412 28.186 55.196 27.5052 54.1736C26.4798 52.6337 25.7702 50.8248 25.5144 49.0984C25.3922 48.2731 25.3715 46.7768 25.3715 38.7555V29.3775L25.7611 29.2725C27.0944 28.9131 28.545 27.9299 29.4608 26.7651C30.4325 25.5292 30.9581 24.099 31.1202 22.2507L31.1927 21.4239L33.6355 21.378C35.872 21.3359 36.0947 21.3173 36.2711 21.1571C36.5527 20.9015 36.529 20.4321 36.2224 20.1904C35.9915 20.0084 35.8711 20 33.4951 20.0001C31.1514 20.0002 30.9871 20.0112 30.6188 20.1938ZM38.6306 20.1904C38.3239 20.4321 38.3003 20.9016 38.582 21.1571C38.7678 21.3255 39.0712 21.3338 46.7639 21.378L54.7528 21.4239L54.8253 22.2507C54.9872 24.0968 55.5116 25.5252 56.4829 26.7651C57.3395 27.8585 58.6416 28.767 59.9552 29.188L60.574 29.3863V32.5894C60.574 34.7743 60.6069 35.8648 60.6776 36.0202C60.8895 36.4863 61.6165 36.5277 61.8519 36.0871C61.9154 35.9682 61.9484 34.7485 61.9471 32.5688C61.9453 29.514 61.9307 29.2008 61.7745 28.856C61.5707 28.4065 61.2532 28.1664 60.574 27.9481C59.5453 27.6175 58.8209 27.1652 58.0048 26.3442C56.796 25.1281 56.3393 24.0457 56.2131 22.0978C56.1366 20.915 55.9636 20.5342 55.3572 20.2136C55.0918 20.0733 54.7962 20 54.496 20H46.9127C38.9171 20 38.8708 20.0011 38.6306 20.1904ZM33.4661 23.8127C33.3341 23.9053 33.1738 24.2595 32.9786 24.889C32.1926 27.4241 30.6174 29.3957 28.3716 30.6552C27.9224 30.9072 27.7442 31.3938 27.7347 31.9088C27.7115 33.1542 27.6713 35.8688 27.6843 40.0496L27.7115 48.8002L27.9591 49.7039C28.4586 51.5265 29.5392 53.3399 30.8343 54.5292C31.3559 55.0081 32.3978 55.7638 34.9362 57.5045C35.6374 57.9854 35.9873 58.051 36.2806 57.7572C36.534 57.5032 36.5225 57.0149 36.2577 56.7778C36.1442 56.6762 35.3707 56.1241 34.5388 55.5507C32.2628 53.9824 31.563 53.4095 30.9056 52.5771C30.2205 51.7096 29.5921 50.4856 29.2964 49.4432L29.0881 48.7083L29.0604 40.3025L29.0328 31.8967L29.7919 31.3989C30.8003 30.7377 32.2712 29.2593 32.9271 28.2479C33.4892 27.3811 33.9645 26.4021 34.2247 25.5748L34.3889 25.0527H42.9727H51.5566L51.7208 25.5809C51.9746 26.3973 52.4432 27.361 53.0158 28.244C53.6743 29.2594 55.1433 30.7364 56.1536 31.3989L56.9127 31.8967L56.8842 40.3025C56.8574 48.182 56.8449 48.7457 56.6846 49.3054C56.4161 50.2429 55.96 51.255 55.4764 51.9866C54.625 53.2747 54.0953 53.6989 48.3575 57.6877L42.9732 61.4307L40.979 60.0381C39.8823 59.2722 38.8699 58.6013 38.7294 58.5473C38.2227 58.3527 37.6775 58.9365 37.9029 59.4324C37.9991 59.6437 42.479 62.8249 42.8352 62.9347C42.9361 62.9657 43.1356 62.9303 43.2787 62.8559C43.4976 62.742 50.8 57.6845 53.7182 55.6258C54.208 55.2803 54.8587 54.7657 55.164 54.4823C56.4199 53.3172 57.4949 51.4971 57.9864 49.7039L58.234 48.8002L58.2612 40.0496C58.2736 36.0681 58.3174 33.2574 58.2894 31.9474C58.2806 31.5366 57.8641 30.8164 57.5056 30.6155C55.3338 29.3984 53.7424 27.3906 52.9669 24.889C52.7717 24.2595 52.6114 23.9053 52.4794 23.8127C52.3075 23.6921 51.1079 23.6747 42.9727 23.6747C34.8376 23.6747 33.638 23.6921 33.4661 23.8127Z" fill="white"/>
</svg>
