<svg width="104" height="104" viewBox="0 0 104 104" fill="none" xmlns="http://www.w3.org/2000/svg">
<path d="M52 97.5C39.9327 97.5 28.3595 92.7063 19.8266 84.1734C11.2937 75.6404 6.5 64.0674 6.5 52C6.5 39.9327 11.2937 28.3595 19.8266 19.8266C28.3595 11.2937 39.9327 6.5 52 6.5C64.0674 6.5 75.6404 11.2937 84.1734 19.8266C92.7063 28.3595 97.5 39.9327 97.5 52C97.5 64.0674 92.7063 75.6404 84.1734 84.1734C75.6404 92.7063 64.0674 97.5 52 97.5ZM52 104C65.7913 104 79.0177 98.5214 88.7696 88.7696C98.5214 79.0177 104 65.7913 104 52C104 38.2087 98.5214 24.9823 88.7696 15.2304C79.0177 5.47856 65.7913 0 52 0C38.2087 0 24.9823 5.47856 15.2304 15.2304C5.47856 24.9823 0 38.2087 0 52C0 65.7913 5.47856 79.0177 15.2304 88.7696C24.9823 98.5214 38.2087 104 52 104Z" fill="white"/>
<path d="M71.305 32.3051C71.2587 32.35 71.2153 32.3978 71.175 32.4481L48.6005 61.2106L34.996 47.5996C34.0719 46.7385 32.8496 46.2697 31.5866 46.292C30.3236 46.3143 29.1186 46.8259 28.2255 47.7191C27.3323 48.6123 26.8207 49.8173 26.7984 51.0802C26.7761 52.3432 27.2449 53.5655 28.106 54.4896L45.305 71.6951C45.7683 72.1576 46.3201 72.522 46.9273 72.7667C47.5345 73.0113 48.1848 73.1311 48.8394 73.119C49.4939 73.1069 50.1393 72.963 50.737 72.6961C51.3348 72.4291 51.8726 72.0445 52.3185 71.5651L78.2665 39.1301C79.1501 38.2028 79.6331 36.9649 79.6113 35.6843C79.5895 34.4036 79.0645 33.1829 78.1499 32.2862C77.2352 31.3895 76.0044 30.8888 74.7236 30.8924C73.4427 30.8959 72.2147 31.4034 71.305 32.3051Z" fill="white"/>
</svg>
