<svg width="48" height="49" viewBox="0 0 48 49" fill="none" xmlns="http://www.w3.org/2000/svg">
<path d="M26.0595 22.1354C25.7839 22.1354 25.5605 22.3588 25.5605 22.6344C25.5605 22.91 25.7839 23.1334 26.0595 23.1334V22.1354ZM38.867 23.1334C39.1425 23.1334 39.366 22.91 39.366 22.6344C39.366 22.3588 39.1425 22.1354 38.867 22.1354V23.1334ZM26.0262 36.2234C25.7506 36.2234 25.5272 36.4468 25.5272 36.7224C25.5272 36.998 25.7506 37.2214 26.0262 37.2214V36.2234ZM38.8669 37.2214C39.1425 37.2214 39.3659 36.998 39.3659 36.7224C39.3659 36.4468 39.1425 36.2234 38.8669 36.2234V37.2214ZM31.3488 38.3525C31.0732 38.3525 30.8498 38.5759 30.8498 38.8515C30.8498 39.1271 31.0732 39.3505 31.3488 39.3505V38.3525ZM33.744 39.3505C34.0195 39.3505 34.2429 39.1271 34.2429 38.8515C34.2429 38.5759 34.0195 38.3525 33.744 38.3525V39.3505ZM33.0786 18.6922C33.0786 18.9678 33.302 19.1912 33.5776 19.1912C33.8532 19.1912 34.0766 18.9678 34.0766 18.6922H33.0786ZM24.5958 29.4704C24.8714 29.4704 25.0948 29.247 25.0948 28.9714C25.0948 28.6958 24.8714 28.4724 24.5958 28.4724V29.4704ZM8.32856 25.013C8.05297 25.013 7.82956 25.2364 7.82956 25.512C7.82956 25.7876 8.05297 26.011 8.32856 26.011V25.013ZM23.9638 26.011C24.2394 26.011 24.4628 25.7876 24.4628 25.512C24.4628 25.2364 24.2394 25.013 23.9638 25.013V26.011ZM12.3205 33.0632C12.0449 33.0632 11.8215 33.2866 11.8215 33.5621C11.8215 33.8377 12.0449 34.0611 12.3205 34.0611V33.0632ZM24.097 34.0611C24.3726 34.0611 24.596 33.8377 24.596 33.5621C24.596 33.2866 24.3726 33.0632 24.097 33.0632V34.0611ZM17.5101 29.038C17.5101 28.7624 17.2867 28.539 17.0111 28.539C16.7355 28.539 16.5121 28.7624 16.5121 29.038H17.5101ZM16.5121 33.0299C16.5121 33.3055 16.7355 33.5289 17.0111 33.5289C17.2867 33.5289 17.5101 33.3055 17.5101 33.0299H16.5121ZM23.0655 29.0047C23.0655 28.7291 22.8421 28.5057 22.5665 28.5057C22.2909 28.5057 22.0675 28.7291 22.0675 29.0047H23.0655ZM22.0675 32.9966C22.0675 33.2722 22.2909 33.4956 22.5665 33.4956C22.8421 33.4956 23.0655 33.2722 23.0655 32.9966H22.0675ZM26.0595 23.1334H38.867V22.1354H26.0595V23.1334ZM26.0262 37.2214H38.8669V36.2234H26.0262V37.2214ZM31.3488 39.3505H33.744V38.3525H31.3488V39.3505ZM6.49899 27.6408V9.37767H5.50101V27.6408H6.49899ZM7.33065 8.54602H32.247V7.54804H7.33065V8.54602ZM33.0786 9.37767V18.6922H34.0766V9.37767H33.0786ZM7.33065 29.4704H24.5958V28.4724H7.33065V29.4704ZM32.247 8.54602C32.7063 8.54602 33.0786 8.91836 33.0786 9.37767H34.0766C34.0766 8.36719 33.2575 7.54804 32.247 7.54804V8.54602ZM6.49899 9.37767C6.49899 8.91836 6.87134 8.54602 7.33065 8.54602V7.54804C6.32016 7.54804 5.50101 8.36719 5.50101 9.37767H6.49899ZM5.50101 27.6408C5.50101 28.6513 6.32016 29.4704 7.33065 29.4704V28.4724C6.87134 28.4724 6.49899 28.1001 6.49899 27.6408H5.50101ZM26.5252 39.6831V21.7859H25.5272V39.6831H26.5252ZM27.3569 20.9543H37.6694V19.9563H27.3569V20.9543ZM38.501 21.7859V39.6831H39.499V21.7859H38.501ZM37.6694 40.5148H27.3569V41.5128H37.6694V40.5148ZM38.501 39.6831C38.501 40.1424 38.1287 40.5148 37.6694 40.5148V41.5128C38.6798 41.5128 39.499 40.6936 39.499 39.6831H38.501ZM37.6694 20.9543C38.1287 20.9543 38.501 21.3266 38.501 21.7859H39.499C39.499 20.7755 38.6798 19.9563 37.6694 19.9563V20.9543ZM26.5252 21.7859C26.5252 21.3266 26.8975 20.9543 27.3569 20.9543V19.9563C26.3464 19.9563 25.5272 20.7755 25.5272 21.7859H26.5252ZM25.5272 39.6831C25.5272 40.6936 26.3464 41.5128 27.3569 41.5128V40.5148C26.8975 40.5148 26.5252 40.1424 26.5252 39.6831H25.5272ZM8.32856 26.011H23.9638V25.013H8.32856V26.011ZM12.3205 34.0611H24.097V33.0632H12.3205V34.0611ZM16.5121 29.038V33.0299H17.5101V29.038H16.5121ZM22.0675 29.0047V32.9966H23.0655V29.0047H22.0675Z" fill="#00A0DC"/>
</svg>
