<svg fill="#5bb2c1" xmlns="http://www.w3.org/2000/svg" width="247.204mm" height="238.541mm" viewBox="0 0 12526.88 12087.84">
  <g>
    <path d="M10863.15 8907.18l0 0zm0 0c7.12,-85.55 383.47,-941.51 333.86,-1138.98 -52.7,-209.69 -335.59,-261.99 -452.57,-80.73 -95.61,148.13 -132.93,900.71 -975.2,2034.18 -75.08,101.03 -260.61,354.09 -374.08,384.39l-96.65 -661.82c-72.04,-413.35 -568.63,-309.95 -499.08,81.13 44.42,249.73 155.33,825.89 155.33,1021.09 -92.3,61.81 -160.41,116.96 -254.94,185.46 -259.3,187.85 -568.15,328.09 -846.05,475.14 -94.19,-404.28 -142.87,-332.15 -227.73,-946.67 -111.8,-809.6 143.4,-1676.65 575.12,-2326.99 150.05,-226.05 342.46,-453.13 539.22,-635.18 290.68,-268.94 720.58,-531.27 1087.87,-673.72 348.1,-135.01 469.3,-161.86 807.37,-367.02 316.78,-192.23 533.52,-440.92 667.94,-530.92l237.05 350.15c80.64,135.43 146.74,253.16 207.15,404.52 272.32,682.43 361.22,1319.11 214.56,2057.13 -73.23,368.48 -169.69,612.59 -316.2,907.14 -527.43,1060.32 -1719.95,1908.37 -2960.46,1908.37 38.79,-52.95 134.71,-97.78 200.69,-141.84 283.6,-189.36 362.61,-268.42 610.34,-466.19 282.35,-225.42 677.7,-705.84 901.61,-1031.24 58.03,-84.33 55.13,-116.17 119.05,-150.08l202.12 -67c97.82,-32.48 172.69,-57.88 275.35,-91.65 177.53,-58.39 390.88,-99.99 357.55,-348.97 -43.88,-327.93 -464.23,-151.76 -489.21,-149.69zm-3767.85 929.73c0,456.36 105.04,1148.43 293.6,1541.39 -241.38,56.24 -305.69,99.44 -646.43,160.97 -159.29,28.76 -527.96,23.1 -527.96,279.43 0,169.79 160.65,269.14 195.73,269.14 721.18,0 1092.76,-334.4 1518.26,-270.62 1263.9,189.46 2506.91,-227.83 3381.66,-1068.44l451.58 -527.08c411.4,-553.26 765.13,-1429.72 765.13,-2195.31 0,-826.77 -123.64,-1495.24 -527.55,-2163.77 -100.48,-166.28 -208.43,-339.54 -325.14,-482.26 -132.24,-161.75 -263.24,-364.15 -466.32,-290.08 -100.48,36.65 -133.78,115.65 -204.05,189.71 -155.25,163.62 -179.67,220.98 -413.11,394.29 -751.17,557.67 -1271.22,445.86 -2058.18,1146.94 -525.25,467.92 -926.81,940.74 -1177.56,1660.56 -131.42,377.26 -259.66,861.98 -259.66,1355.13z"/>
    <path d="M1419.06 6460.53l0 -440.4c0,-135.83 24.47,-145.09 24.47,-269.14 252.61,0 694.14,151.97 921.41,252.98 403.31,179.25 880.63,495.85 1164.18,817.62l176.14 215.32c547.09,729.82 747.66,1329.05 747.66,2310.67 0,881.23 -280.96,700.97 -3.2,2013.01l3.2 91.11c-124.87,59.91 -669.84,39.52 -853.01,21.15 -916.87,-92.03 -1839.96,-630.43 -2383.82,-1359.57 -169.49,-227.22 -234.96,-345.59 -359.76,-594.43 -113.03,-225.34 -179.86,-401.59 -249.66,-680.08 -29.93,-119.41 -55.54,-236.7 -79.72,-385.14 -98.22,-602.71 23.25,-1368.03 280.02,-1895.67l98.3 -170.84c0,701.31 190,1426.86 443.52,2052.06 46.21,113.95 129.5,238.97 170.23,345.5 43.81,114.59 -124.42,580.76 -124.42,880.96 0,206.9 513.8,367.56 513.8,-195.73l605.52 691.21c155.5,156.18 169.12,189.59 324.21,189.59 153.12,0 249.61,-152.49 228.44,-282.45 -21.96,-134.76 -221.35,-267.45 -371.61,-455.18 -48.79,-60.95 -88.16,-86.87 -140.22,-153.38 -92.05,-117.6 -156.18,-195.53 -240.27,-322.46 -301.95,-455.78 -597.82,-984.57 -724.14,-1526.78 81.91,43.35 722,293.6 807.39,293.6 131.85,0 263.47,-157.7 231.81,-303.66 -36.29,-167.35 -169.72,-193.54 -315.53,-248.75 -146.27,-55.38 -277.71,-104.43 -409.31,-153.42 -98.55,-36.68 -346.71,-143.01 -436.7,-150.49 0,-190.96 -48.94,-358.67 -48.94,-587.2zm-1419.06 1370.13c0,1051.99 197.34,1661.31 724.15,2456.51 402.55,607.64 933.42,1000.72 1567.53,1319.51 756.28,380.22 1550.83,453.76 2399.15,327.61 584.66,-86.93 323.06,-384.61 231.53,-756.3 -209.22,-849.63 44.36,-1232.83 44.36,-1977.2 0,-896.71 -358.62,-1890.16 -912.48,-2537.31 -460.36,-537.91 -1091.23,-1007.36 -1775.56,-1233.83 -112.45,-37.22 -220.3,-79.64 -355.97,-108.89 -423.17,-91.22 -405.48,-43.96 -378.16,-174.71 5.73,-27.46 24.53,-95.12 35.65,-139.09 41.17,-162.7 254.79,-716.06 254.79,-797.35 0,-237.76 -326.76,-329.98 -455.82,-137.75 -162.89,242.62 -397.62,1282.82 -409.91,1302.75l-294.07 390.99c-322.35,484.39 -675.2,1274.33 -675.2,2065.07z"/>
    <path d="M4844.38 735.35c95.23,0 581.61,-220.2 1101,-220.2 882.25,0 1319.84,75.52 2072.05,521.4 206.4,122.35 436.25,310.88 600.95,475.57 156.21,156.21 380.1,423.04 483.17,617.82 -72.63,-19.39 -266.32,-135.47 -358.52,-179.74 -522.3,-250.77 -1094.67,-389.22 -1682.28,-470.78 -514.19,-71.38 -273.14,63.94 -605.22,-202.18 -211.62,-169.59 -329.32,-370.63 -534.63,-370.63 -125.24,0 -244.67,128.67 -244.67,244.66 0,136.06 156.25,222.56 220.2,318.07 -310.1,25.8 -636.66,101.37 -905.27,171.25 -159.75,41.56 -278.19,52.22 -321.38,219.2 -57.18,221 166.38,319.08 199.06,319.08 132.98,0 703.99,-220.19 1345.66,-220.19 379.05,0 1157.5,9.55 1443.53,146.8 -35.26,52.65 -170.66,156.15 -234.26,206.15 -165.07,129.74 -412.69,296.24 -416.28,454.62 -2.52,110.73 86.83,227.43 202.06,251.31 248.15,51.43 917.08,-716.35 1035.68,-716.35 231.19,0 1061.9,570.22 1125.46,587.2 -32.39,121.28 -131.59,192.89 -214.08,275.25 -84.96,84.8 -168.35,180.45 -257.98,255.82 -381.91,321.13 -815.36,555.87 -1305.01,701.25 -1039.49,308.61 -2159.51,90.7 -2993.84,-498.39 -127.99,-90.37 -226.59,-184.38 -352.68,-283.47 -311.76,-245.03 -961.48,-637.87 -1335.58,-646.2 31.93,-137.08 246.8,-524.37 346.1,-657.03 261.12,-348.86 9.36,-492.9 -150.37,-492.9 -84.95,0 -121.79,31.68 -166.55,78.13 -143.94,149.39 -422.29,672.34 -490.76,854.89 -330.24,880.34 29.9,460.14 926.8,901.6 182.48,89.82 311.01,166.99 471.75,286.72 511.07,380.68 709.93,633.03 1447.61,876.72 1225.66,404.87 2512.71,254.89 3556.24,-458.09 307.34,-209.99 715.48,-561.57 909.82,-851.78 461.33,308.92 722.51,1094.57 1048.54,730.39 150.09,-167.65 18.63,-315.28 -86.59,-444.56 -168.88,-207.5 -438.91,-521.79 -640.29,-680.91 -187.36,-148.06 -132.71,-116.45 -251.41,-409.18 -119.63,-295.01 -306.66,-595.38 -496.65,-849.01l-301.14 -359.47c-1085.02,-1079.57 -2499.09,-1475.61 -4024.34,-1050.94 -170.87,47.58 -538.29,149.42 -362.69,446.12 29.87,50.48 127.55,121.97 196.77,121.97z"/>
    <path d="M3645.52 980.02c0,364.51 489.33,367.52 489.33,0 0,-304.22 -489.33,-283.52 -489.33,0z"/>
  </g>
</svg>
