<svg width="98" height="39" viewBox="0 0 98 39" fill="none" xmlns="http://www.w3.org/2000/svg">
<g clip-path="url(#clip0_1250_260)">
<path d="M40.423 16.3653C40.1364 18.3848 39.1734 19.9439 37.5354 21.047C35.8975 22.1487 33.8382 22.7002 31.3605 22.7002C28.4113 22.7002 26.0869 21.9634 24.3873 20.4912C22.6877 19.019 21.8379 16.934 21.8379 14.2347C21.8379 11.5368 22.6777 9.45178 24.3572 7.97814C26.0367 6.50594 28.3296 5.76912 31.2372 5.76912C33.6333 5.76912 35.6495 6.30499 37.2889 7.37529C38.9269 8.44703 39.8785 9.95059 40.1464 11.886L35.2626 12.2565C35.0176 11.4328 34.5361 10.7943 33.8196 10.3411C33.103 9.88788 32.2418 9.66128 31.2386 9.66128C29.8873 9.66128 28.8168 10.0689 28.0286 10.8812C27.2405 11.695 26.8464 12.8123 26.8464 14.2332C26.8464 15.6541 27.2462 16.7715 28.0444 17.5853C28.8426 18.399 29.9489 18.8052 31.3619 18.8052C32.4682 18.8052 33.3782 18.5629 34.0961 18.0784C34.8127 17.5952 35.2841 16.9197 35.5091 16.0546L40.423 16.3653Z" fill="#00A0DC"/>
<path d="M58.9023 20.4285C57.1411 18.915 56.2612 16.8499 56.2612 14.2333C56.2612 11.6181 57.1411 9.55297 58.9023 8.03943C60.6635 6.52589 63.018 5.7677 65.9672 5.7677C68.9365 5.7677 71.2967 6.52447 73.0479 8.03943C74.7991 9.55297 75.6747 11.6181 75.6747 14.2333C75.6747 16.8499 74.7991 18.915 73.0479 20.4285C71.2967 21.942 68.9365 22.6988 65.9672 22.6988C63.0195 22.6988 60.6635 21.942 58.9023 20.4285ZM62.5122 10.9425C61.6824 11.7976 61.2683 12.895 61.2683 14.2333C61.2683 15.5729 61.6839 16.6689 62.5122 17.524C63.3419 18.3791 64.4941 18.8067 65.9672 18.8067C67.4418 18.8067 68.5983 18.3791 69.4381 17.524C70.2778 16.6689 70.6977 15.5729 70.6977 14.2333C70.6977 12.895 70.2778 11.7976 69.4381 10.9425C68.5983 10.0888 67.4418 9.65986 65.9672 9.65986C64.4941 9.66129 63.3419 10.0888 62.5122 10.9425Z" fill="#00A0DC"/>
<path d="M89.6512 5.7677C92.0057 5.7677 93.9317 6.52447 95.4263 8.03943C96.921 9.55297 97.669 11.6181 97.669 14.2333C97.669 16.8499 96.9267 18.915 95.4421 20.4285C93.9575 21.942 92.0472 22.6988 89.7128 22.6988C87.0717 22.6988 85.074 21.7824 83.7227 19.9496V28.5107H78.6855V6.13825H83.3859V8.98005C84.6757 6.83943 86.7636 5.7677 89.6512 5.7677ZM88.115 18.8067C89.5079 18.8067 90.6185 18.3891 91.4482 17.5553C92.2779 16.7216 92.6921 15.6143 92.6921 14.2333C92.6921 12.8537 92.2779 11.7463 91.4482 10.9126C90.6185 10.0789 89.5079 9.66129 88.115 9.66129C86.6819 9.66129 85.5555 10.0789 84.7358 10.9126C83.9161 11.7463 83.5063 12.8537 83.5063 14.2333C83.5063 15.6143 83.9161 16.7202 84.7358 17.5553C85.5555 18.3891 86.6819 18.8067 88.115 18.8067Z" fill="#00A0DC"/>
<path d="M2.6411 20.4285C0.879888 18.915 0 16.8499 0 14.2333C0 11.6181 0.879888 9.55297 2.6411 8.03943C4.40231 6.52589 6.75679 5.7677 9.70599 5.7677C12.6753 5.7677 15.0355 6.52447 16.7867 8.03943C18.5378 9.55297 19.4134 11.6181 19.4134 14.2333C19.4134 16.8499 18.5378 18.915 16.7867 20.4285C15.0355 21.942 12.6753 22.6988 9.70599 22.6988C6.75823 22.6988 4.40231 21.942 2.6411 20.4285ZM6.25093 10.9425C5.4212 11.7976 5.00705 12.895 5.00705 14.2333C5.00705 15.5729 5.42263 16.6689 6.25093 17.524C7.08066 18.3791 8.23283 18.8067 9.70599 18.8067C11.1806 18.8067 12.3371 18.3791 13.1768 17.524C14.0166 16.6689 14.4365 15.5729 14.4365 14.2333C14.4365 12.895 14.0166 11.7976 13.1768 10.9425C12.3371 10.0888 11.1806 9.65986 9.70599 9.65986C8.23283 9.66129 7.08066 10.0888 6.25093 10.9425Z" fill="#00A0DC"/>
<path d="M72.6339 0H59.3022V3.60855H72.6339V0Z" fill="#00A0DC"/>
<path d="M54.3267 7.4095V3.60855H49.9345V0H45.1424V3.17672V3.66556L42.229 3.67126V7.4095H44.8973V16.8599C44.8973 18.9606 45.3946 20.4485 46.3877 21.3249C47.3808 22.2 48.9629 22.6375 51.1339 22.6375C52.117 22.6375 53.1817 22.5449 54.3282 22.3596V18.2808C53.6117 18.4048 52.9052 18.466 52.2087 18.466C51.3073 18.466 50.704 18.2964 50.3959 17.9558C50.0892 17.6166 49.9345 17.0038 49.9345 16.1173V7.4095H54.3267Z" fill="#00A0DC"/>
<path d="M4.62132 39C3.46486 39 2.50185 38.6152 1.73517 37.847C0.967063 37.0789 0.583008 36.124 0.583008 34.9839C0.583008 33.8437 0.967063 32.8888 1.73517 32.1207C2.50328 31.3525 3.46486 30.9677 4.62132 30.9677C5.3794 30.9677 6.05866 31.1487 6.66341 31.5093C7.26672 31.8713 7.71812 32.3572 8.01476 32.9672L6.89412 33.6086C6.69923 33.201 6.39973 32.876 5.99561 32.6309C5.59149 32.3872 5.13292 32.2646 4.62132 32.2646C3.85321 32.2646 3.21121 32.524 2.69388 33.0428C2.17655 33.5615 1.9186 34.2086 1.9186 34.9824C1.9186 35.7463 2.17655 36.3876 2.69388 36.9064C3.21121 37.4252 3.85321 37.6846 4.62132 37.6846C5.13292 37.6846 5.59436 37.5648 6.00277 37.3254C6.41262 37.086 6.72503 36.7625 6.93998 36.3563L8.07638 37.0133C7.74822 37.6147 7.27818 38.095 6.66341 38.457C6.04863 38.819 5.36794 39 4.62132 39Z" fill="#00A0DC"/>
<path d="M9.396 38.8019V27.6556H10.7316V38.8019H9.396Z" fill="#00A0DC"/>
<path d="M19.2539 37.8399C18.4657 38.6138 17.5084 39 16.3821 39C15.2557 39 14.3013 38.6138 13.5188 37.8399C12.7364 37.066 12.3438 36.114 12.3438 34.9839C12.3438 33.8537 12.735 32.9017 13.5188 32.1278C14.3013 31.3539 15.2557 30.9677 16.3821 30.9677C17.5084 30.9677 18.4643 31.3539 19.2539 32.1278C20.042 32.9017 20.4361 33.8537 20.4361 34.9839C20.4361 36.114 20.0406 37.066 19.2539 37.8399ZM16.3821 37.7017C17.1502 37.7017 17.795 37.4423 18.3167 36.9235C18.8383 36.4048 19.0991 35.7577 19.0991 34.9839C19.0991 34.21 18.8383 33.5644 18.3167 33.0442C17.795 32.5254 17.1502 32.266 16.3821 32.266C15.624 32.266 14.9848 32.5254 14.4632 33.0442C13.9416 33.5629 13.6808 34.21 13.6808 34.9839C13.6808 35.7577 13.9416 36.4033 14.4632 36.9235C14.9848 37.4423 15.624 37.7017 16.3821 37.7017Z" fill="#00A0DC"/>
<path d="M27.3137 31.1672H28.6493V38.8019H27.3137V37.7031C26.7706 38.5682 25.9423 39.0014 24.826 39.0014C23.9246 39.0014 23.2038 38.7192 22.6606 38.1534C22.1175 37.5891 21.8467 36.8223 21.8467 35.8561V31.1686H23.1823V35.7805C23.1823 36.4019 23.3514 36.8822 23.6896 37.2228C24.0278 37.5634 24.4935 37.7344 25.0868 37.7344C25.7517 37.7344 26.2891 37.5278 26.699 37.1159C27.1088 36.704 27.3137 36.0698 27.3137 35.2147V31.1672V31.1672Z" fill="#00A0DC"/>
<path d="M37.0325 28.1131H38.3681V38.8019H37.0325V37.4893C36.3676 38.4969 35.4003 39.0014 34.1306 39.0014C33.0558 39.0014 32.1401 38.6124 31.382 37.8328C30.6239 37.0546 30.2456 36.1055 30.2456 34.9853C30.2456 33.8651 30.6239 32.9159 31.382 32.1378C32.1401 31.3596 33.0558 30.9691 34.1306 30.9691C35.4003 30.9691 36.3676 31.4736 37.0325 32.4812V28.1131ZM34.2997 37.7173C35.0778 37.7173 35.727 37.4551 36.2501 36.9306C36.7717 36.4062 37.0325 35.7577 37.0325 34.9839C37.0325 34.21 36.7717 33.5615 36.2501 33.0371C35.7284 32.5126 35.0778 32.2504 34.2997 32.2504C33.5316 32.2504 32.8867 32.5126 32.3651 33.0371C31.8435 33.5615 31.5826 34.21 31.5826 34.9839C31.5826 35.7577 31.8435 36.4062 32.3651 36.9306C32.8881 37.4551 33.533 37.7173 34.2997 37.7173Z" fill="#00A0DC"/>
</g>
<defs>
<clipPath id="clip0_1250_260">
<rect width="97.669" height="39" fill="white"/>
</clipPath>
</defs>
</svg>
