<svg width="18" height="12" viewBox="0 0 18 12" fill="none" xmlns="http://www.w3.org/2000/svg">
<path fill-rule="evenodd" clip-rule="evenodd" d="M2.12087 3.86636C1.85658 3.91966 1.54483 4.04945 1.27352 4.36537C0.845121 4.8642 0.599976 5.73422 0.599976 7.19665C0.599976 8.43507 0.850492 9.20149 1.30465 9.64219C1.55609 9.88617 1.79998 10.0453 2.39998 10.0453V11.5046C2.39998 11.7782 2.62714 12 2.90736 12H4.88051C5.16073 12 5.3879 11.7782 5.3879 11.5046V10.0854H12.6121V11.5046C12.6121 11.7782 12.8392 12 13.1194 12H15.0926C15.3728 12 15.6 11.7782 15.6 11.5046V10.0453C16.2 10.0453 16.4439 9.88617 16.6953 9.64219C17.1495 9.20149 17.4 8.43507 17.4 7.19665C17.4 5.73422 17.1548 4.8642 16.7264 4.36537C16.4551 4.04945 16.1434 3.91966 15.8791 3.86636C15.8464 3.6573 15.796 3.42898 15.7341 3.19744C15.6201 2.77078 15.4578 2.29814 15.262 1.85488C15.0682 1.41598 14.8316 0.983045 14.5614 0.650957C14.3123 0.344863 13.9338 0 13.4396 0H4.56038C4.06612 0 3.68762 0.344863 3.43858 0.650957C3.16839 0.983045 2.93178 1.41598 2.73793 1.85488C2.54215 2.29814 2.37984 2.77078 2.26584 3.19744C2.20398 3.42898 2.15354 3.6573 2.12087 3.86636ZM3.15763 3.82928H14.8423C14.819 3.71359 14.7891 3.58553 14.7522 3.44755C14.6504 3.06647 14.5044 2.64163 14.3302 2.24724C14.1541 1.84848 13.9591 1.50359 13.7668 1.26727C13.5591 1.01203 13.4449 0.991768 13.4397 0.990861L4.56038 0.990826C4.55526 0.991733 4.44081 1.01203 4.23314 1.26727C4.04087 1.50359 3.84586 1.84848 3.66974 2.24724C3.49555 2.64163 3.34956 3.06647 3.24774 3.44755C3.21088 3.58553 3.18094 3.71359 3.15763 3.82928ZM14.5852 10.0854H13.6268V11.0092H14.5852V10.0854ZM15.4127 9.09454C15.6634 9.09454 15.833 9.08203 15.98 8.93939C16.1424 8.78176 16.3852 8.35153 16.3852 7.19665C16.3852 5.78712 16.1371 5.22116 15.9489 5.00201C15.8002 4.8289 15.6485 4.8201 15.4127 4.8201H2.58722C2.35141 4.8201 2.19976 4.8289 2.05109 5.00201C1.86288 5.22116 1.61474 5.78712 1.61474 7.19665C1.61474 8.35153 1.85751 8.78176 2.01996 8.93939C2.16696 9.08203 2.33655 9.09454 2.58722 9.09454H15.4127ZM4.37313 10.0854H3.41474V11.0092H4.37313V10.0854ZM3.06642 7.19665C3.06642 6.92304 3.29358 6.70124 3.5738 6.70124H4.56038C4.8406 6.70124 5.06776 6.92304 5.06776 7.19665C5.06776 7.47026 4.8406 7.69206 4.56038 7.69206H3.5738C3.29358 7.69206 3.06642 7.47026 3.06642 7.19665ZM6.51944 7.19665C6.51944 6.92304 6.7466 6.70124 7.02682 6.70124H10.9731C11.2534 6.70124 11.4805 6.92304 11.4805 7.19665C11.4805 7.47026 11.2534 7.69206 10.9731 7.69206H7.02682C6.7466 7.69206 6.51944 7.47026 6.51944 7.19665ZM12.9322 7.19665C12.9322 6.92304 13.1594 6.70124 13.4396 6.70124H14.4262C14.7064 6.70124 14.9335 6.92304 14.9335 7.19665C14.9335 7.47026 14.7064 7.69206 14.4262 7.69206H13.4396C13.1594 7.69206 12.9322 7.47026 12.9322 7.19665Z" fill="#B6C3CC"/>
</svg>
