<svg width="10" height="11" viewBox="0 0 10 11" fill="none" xmlns="http://www.w3.org/2000/svg">
<path fill-rule="evenodd" clip-rule="evenodd" d="M6.00996 5.5L9.79054 1.71942C10.0698 1.44015 10.0698 0.988733 9.79054 0.709457C9.51127 0.430181 9.05986 0.430181 8.78058 0.709457L5 4.49004L1.21942 0.709457C0.940145 0.430181 0.488733 0.430181 0.209457 0.709457C-0.0698189 0.988733 -0.0698189 1.44015 0.209457 1.71942L3.99004 5.5L0.209457 9.28058C-0.0698189 9.55986 -0.0698189 10.0113 0.209457 10.2905C0.348738 10.4298 0.531588 10.4998 0.714439 10.4998C0.897289 10.4998 1.08014 10.4298 1.21942 10.2905L5 6.50996L8.78058 10.2905C8.91986 10.4298 9.10271 10.4998 9.28556 10.4998C9.46841 10.4998 9.65126 10.4298 9.79054 10.2905C10.0698 10.0113 10.0698 9.55986 9.79054 9.28058L6.00996 5.5Z" fill="black"/>
</svg>
