<svg width="17" height="8" viewBox="0 0 17 8" xmlns="http://www.w3.org/2000/svg">
<path d="M8.48667 7.00125C8.20344 7.00171 7.92896 6.92033 7.71088 6.77125L0.437897 1.77125C0.190353 1.60151 0.0346815 1.3576 0.00512927 1.09318C-0.024423 0.82875 0.0745647 0.565469 0.280316 0.361252C0.486067 0.157035 0.781727 0.0286112 1.10226 0.00423152C1.42278 -0.0201482 1.74192 0.0615132 1.98947 0.231252L8.48667 4.71125L14.9839 0.391253C15.1079 0.308187 15.2505 0.246155 15.4037 0.208723C15.5568 0.171291 15.7174 0.159198 15.8762 0.173137C16.0351 0.187076 16.189 0.226773 16.3292 0.289947C16.4693 0.35312 16.593 0.438526 16.693 0.541252C16.804 0.644074 16.8881 0.7647 16.94 0.895574C16.9918 1.02645 17.0104 1.16475 16.9945 1.30181C16.9785 1.43887 16.9285 1.57175 16.8474 1.6921C16.7663 1.81246 16.656 1.91771 16.5233 2.00125L9.25033 6.83125C9.02598 6.95677 8.7571 7.01662 8.48667 7.00125Z" fill="white"/>
</svg>
