<svg width="10" height="16" viewBox="0 0 10 16" fill="none" xmlns="http://www.w3.org/2000/svg">
<path fill-rule="evenodd" clip-rule="evenodd" d="M2.20999 0.799766C2.20999 0.501532 2.45175 0.259766 2.74999 0.259766H7.24999C7.54822 0.259766 7.78999 0.501532 7.78999 0.799766C7.78999 1.53959 7.32991 2.21852 6.82836 2.68057C6.46724 3.01323 6.00832 3.30397 5.53999 3.43988V7.67795H8.59999C8.89822 7.67795 9.13999 7.91971 9.13999 8.21795C9.13999 9.42071 8.95586 11.2351 8.38622 12.7695C7.82863 14.2715 6.80108 15.7398 4.99999 15.7398C3.1989 15.7398 2.17134 14.2715 1.61375 12.7695C1.04411 11.2351 0.859985 9.42071 0.859985 8.21795C0.859985 7.91971 1.10175 7.67795 1.39999 7.67795H4.45999V3.43988C3.99165 3.30397 3.53273 3.01323 3.17161 2.68057C2.67006 2.21852 2.20999 1.53959 2.20999 0.799766ZM4.45999 8.75795H1.95237C2.00023 9.83827 2.19236 11.225 2.62622 12.3936C3.14863 13.8008 3.92108 14.6598 4.99999 14.6598C6.0789 14.6598 6.85134 13.8008 7.37375 12.3936C7.80761 11.225 7.99975 9.83827 8.0476 8.75795H5.53999V10.3998C5.53999 10.698 5.29822 10.9398 4.99999 10.9398C4.70175 10.9398 4.45999 10.698 4.45999 10.3998V8.75795ZM3.45798 1.33977C3.56126 1.52118 3.7109 1.70895 3.90336 1.88624C4.30322 2.2546 4.74052 2.44158 4.99999 2.44158C5.25945 2.44158 5.69675 2.2546 6.09661 1.88624C6.28907 1.70895 6.43871 1.52118 6.54199 1.33977H3.45798Z" fill="#B6C3CC"/>
</svg>
