<svg width="207" height="195" viewBox="0 0 207 195" fill="none" xmlns="http://www.w3.org/2000/svg">
<path opacity="0.2" d="M132.936 96.0001C132.936 116.092 123.64 128.386 108.832 139.757C98.3223 147.828 85.1617 152.626 70.8776 152.626C65.4564 152.63 60.0578 151.929 54.8182 150.54C28.1909 143.469 8.57227 119.235 8.57227 90.4255C8.57227 56.073 36.2198 33.7993 70.6307 33.7993C105.042 33.7993 132.936 61.6476 132.936 96.0001Z" fill="#00A0DC"/>
<path d="M70.7975 62.202C71.7477 62.202 72.518 61.4321 72.518 60.4824C72.518 59.5326 71.7477 58.7627 70.7975 58.7627C69.8472 58.7627 69.0769 59.5326 69.0769 60.4824C69.0769 61.4321 69.8472 62.202 70.7975 62.202Z" fill="#F9F9F9"/>
<path d="M154.6 130.985H23.106V193.823H154.6V130.985Z" fill="#F9F9F9"/>
<path d="M154.683 193.907H23.0234V130.903H154.683V193.907ZM23.1888 193.741H154.518V131.069H23.1888V193.741Z" fill="#292929"/>
<path d="M154.693 140.349H23.1167V140.514H154.693V140.349Z" fill="#292929"/>
<path d="M150.865 137.748C152.049 137.748 153.01 136.788 153.01 135.605C153.01 134.421 152.049 133.461 150.865 133.461C149.68 133.461 148.72 134.421 148.72 135.605C148.72 136.788 149.68 137.748 150.865 137.748Z" fill="#F9F9F9"/>
<path d="M150.865 137.831C150.424 137.831 149.993 137.701 149.627 137.456C149.26 137.211 148.975 136.864 148.806 136.457C148.637 136.05 148.593 135.602 148.679 135.17C148.765 134.738 148.977 134.341 149.289 134.029C149.6 133.718 149.997 133.506 150.43 133.42C150.862 133.334 151.31 133.378 151.717 133.547C152.124 133.715 152.472 134.001 152.717 134.367C152.962 134.734 153.093 135.164 153.092 135.605C153.091 136.195 152.856 136.76 152.439 137.178C152.021 137.595 151.455 137.83 150.865 137.831ZM150.865 133.543C150.457 133.543 150.058 133.664 149.719 133.89C149.38 134.116 149.115 134.438 148.959 134.814C148.803 135.191 148.761 135.605 148.841 136.005C148.92 136.405 149.116 136.772 149.404 137.061C149.692 137.35 150.059 137.546 150.459 137.626C150.859 137.707 151.274 137.666 151.651 137.511C152.028 137.356 152.35 137.092 152.577 136.753C152.805 136.415 152.926 136.017 152.927 135.609C152.927 135.062 152.71 134.537 152.323 134.15C151.937 133.763 151.412 133.544 150.865 133.543Z" fill="#292929"/>
<path d="M144.567 137.748C145.751 137.748 146.711 136.788 146.711 135.605C146.711 134.421 145.751 133.461 144.567 133.461C143.382 133.461 142.422 134.421 142.422 135.605C142.422 136.788 143.382 137.748 144.567 137.748Z" fill="#F9F9F9"/>
<path d="M144.566 137.831C144.126 137.83 143.695 137.699 143.329 137.454C142.964 137.208 142.679 136.86 142.511 136.453C142.343 136.046 142.299 135.598 142.386 135.167C142.472 134.735 142.685 134.339 142.997 134.028C143.309 133.716 143.706 133.505 144.138 133.419C144.57 133.334 145.018 133.378 145.425 133.547C145.832 133.716 146.179 134.001 146.424 134.368C146.668 134.734 146.799 135.165 146.799 135.605C146.797 136.196 146.562 136.762 146.143 137.179C145.725 137.597 145.158 137.831 144.566 137.831ZM144.566 133.543C144.159 133.544 143.76 133.665 143.422 133.892C143.083 134.119 142.82 134.441 142.664 134.818C142.508 135.194 142.468 135.609 142.547 136.008C142.627 136.408 142.824 136.775 143.112 137.063C143.4 137.351 143.767 137.547 144.167 137.627C144.567 137.707 144.981 137.666 145.358 137.51C145.735 137.355 146.057 137.091 146.284 136.753C146.511 136.414 146.633 136.016 146.633 135.609C146.633 135.061 146.416 134.536 146.028 134.148C145.64 133.761 145.115 133.543 144.566 133.543Z" fill="#292929"/>
<path d="M138.269 137.748C139.453 137.748 140.413 136.788 140.413 135.605C140.413 134.421 139.453 133.461 138.269 133.461C137.084 133.461 136.124 134.421 136.124 135.605C136.124 136.788 137.084 137.748 138.269 137.748Z" fill="#F9F9F9"/>
<path d="M138.268 137.831C137.827 137.831 137.396 137.7 137.03 137.456C136.664 137.211 136.378 136.863 136.209 136.456C136.041 136.049 135.997 135.601 136.083 135.169C136.169 134.737 136.381 134.34 136.693 134.029C137.004 133.718 137.402 133.505 137.834 133.42C138.266 133.334 138.714 133.378 139.121 133.547C139.528 133.715 139.876 134.001 140.121 134.367C140.366 134.734 140.496 135.164 140.496 135.605C140.495 136.195 140.26 136.761 139.842 137.178C139.425 137.595 138.859 137.83 138.268 137.831ZM138.268 133.543C137.86 133.543 137.462 133.664 137.122 133.89C136.783 134.117 136.519 134.438 136.363 134.815C136.206 135.191 136.165 135.606 136.244 136.006C136.324 136.405 136.52 136.773 136.808 137.061C137.096 137.35 137.463 137.547 137.863 137.627C138.263 137.707 138.678 137.666 139.055 137.511C139.432 137.355 139.754 137.092 139.981 136.753C140.208 136.415 140.33 136.017 140.331 135.609C140.331 135.062 140.114 134.537 139.727 134.15C139.34 133.762 138.816 133.544 138.268 133.543Z" fill="#292929"/>
<path d="M141.52 146.575H123.349V164.738H141.52V146.575Z" fill="#F9F9F9"/>
<path d="M125.104 168.327C125.082 168.327 125.061 168.319 125.046 168.303C125.03 168.288 125.022 168.267 125.022 168.245V150.081C125.022 150.059 125.03 150.038 125.046 150.023C125.061 150.007 125.082 149.998 125.104 149.998L145.062 149.783C145.073 149.783 145.084 149.785 145.094 149.789C145.104 149.793 145.113 149.799 145.121 149.807C145.129 149.814 145.135 149.824 145.139 149.834C145.143 149.844 145.145 149.854 145.145 149.865V168.029C145.145 168.051 145.137 168.072 145.121 168.087C145.106 168.103 145.084 168.112 145.063 168.112L125.105 168.327H125.104ZM125.187 150.163V168.161L144.979 167.947V149.949L125.187 150.163Z" fill="#292929"/>
<path d="M148.605 153.157H130.435V171.321H148.605V153.157Z" fill="#292929"/>
<path d="M122.925 163.568C122.913 163.568 122.902 163.566 122.892 163.561C122.881 163.557 122.872 163.55 122.864 163.541C122.849 163.525 122.842 163.504 122.843 163.482C122.844 163.46 122.853 163.439 122.87 163.425L141.421 146.625C141.429 146.617 141.439 146.611 141.449 146.607C141.46 146.602 141.471 146.6 141.482 146.601C141.493 146.601 141.504 146.603 141.515 146.608C141.525 146.613 141.534 146.619 141.542 146.628C141.549 146.636 141.555 146.646 141.559 146.657C141.562 146.667 141.564 146.679 141.563 146.69C141.562 146.701 141.559 146.712 141.554 146.722C141.548 146.732 141.541 146.741 141.532 146.748L122.98 163.547C122.965 163.561 122.945 163.568 122.925 163.568Z" fill="#F9F9F9"/>
<path d="M124.986 165.078C124.97 165.078 124.953 165.072 124.94 165.063C124.926 165.054 124.915 165.04 124.909 165.025C124.903 165.009 124.902 164.992 124.906 164.976C124.91 164.96 124.919 164.945 124.931 164.934L143.483 148.135C143.5 148.12 143.521 148.112 143.543 148.113C143.565 148.114 143.585 148.124 143.6 148.14C143.607 148.148 143.613 148.158 143.617 148.168C143.621 148.178 143.622 148.189 143.622 148.2C143.621 148.211 143.618 148.222 143.614 148.232C143.609 148.242 143.602 148.25 143.594 148.258L125.039 165.056C125.025 165.069 125.006 165.077 124.986 165.078Z" fill="#F9F9F9"/>
<path d="M127.048 166.82C127.037 166.82 127.025 166.818 127.015 166.813C127.004 166.808 126.995 166.801 126.987 166.793C126.972 166.777 126.965 166.755 126.966 166.733C126.967 166.712 126.977 166.691 126.993 166.676L145.544 149.877C145.56 149.864 145.581 149.857 145.602 149.859C145.623 149.861 145.643 149.87 145.657 149.886C145.671 149.902 145.679 149.922 145.678 149.943C145.678 149.964 145.669 149.984 145.655 149.999L127.106 166.797C127.091 166.812 127.07 166.82 127.048 166.82Z" fill="#F9F9F9"/>
<path d="M129.11 168.698C129.093 168.698 129.077 168.693 129.063 168.684C129.049 168.674 129.039 168.661 129.033 168.645C129.027 168.63 129.025 168.613 129.029 168.597C129.033 168.58 129.042 168.566 129.054 168.555L147.606 151.758C147.614 151.751 147.623 151.745 147.634 151.741C147.644 151.737 147.655 151.736 147.666 151.736C147.677 151.737 147.687 151.74 147.697 151.744C147.707 151.749 147.716 151.756 147.723 151.764C147.731 151.772 147.736 151.781 147.74 151.791C147.744 151.802 147.745 151.813 147.745 151.823C147.744 151.834 147.742 151.845 147.737 151.855C147.732 151.865 147.726 151.874 147.718 151.881L129.165 168.677C129.15 168.691 129.13 168.698 129.11 168.698Z" fill="#F9F9F9"/>
<path d="M129.11 172.836C129.093 172.836 129.077 172.831 129.063 172.821C129.049 172.812 129.039 172.799 129.033 172.783C129.027 172.768 129.025 172.751 129.029 172.734C129.033 172.718 129.042 172.703 129.054 172.692L149.668 154.026C149.684 154.012 149.706 154.004 149.727 154.005C149.749 154.006 149.77 154.016 149.785 154.032C149.792 154.04 149.798 154.049 149.801 154.06C149.805 154.07 149.807 154.081 149.806 154.092C149.806 154.103 149.803 154.113 149.798 154.123C149.794 154.133 149.787 154.142 149.779 154.149L129.165 172.815C129.15 172.828 129.13 172.836 129.11 172.836Z" fill="#F9F9F9"/>
<path d="M133.233 173.147C133.221 173.147 133.21 173.145 133.199 173.14C133.189 173.136 133.179 173.129 133.172 173.12C133.164 173.112 133.159 173.103 133.155 173.092C133.151 173.082 133.149 173.071 133.15 173.06C133.151 173.049 133.153 173.039 133.158 173.029C133.163 173.019 133.169 173.01 133.177 173.003L151.729 156.204C151.737 156.197 151.747 156.191 151.757 156.188C151.767 156.184 151.778 156.182 151.789 156.183C151.8 156.183 151.811 156.186 151.821 156.191C151.83 156.195 151.839 156.202 151.847 156.21C151.861 156.226 151.869 156.248 151.868 156.27C151.867 156.291 151.857 156.312 151.841 156.327L133.288 173.126C133.273 173.14 133.253 173.147 133.233 173.147Z" fill="#F9F9F9"/>
<path d="M135.291 175.47C135.275 175.47 135.259 175.464 135.245 175.455C135.231 175.446 135.22 175.432 135.215 175.417C135.209 175.401 135.207 175.384 135.211 175.368C135.215 175.352 135.224 175.337 135.236 175.326L153.789 158.526C153.805 158.513 153.826 158.507 153.847 158.509C153.868 158.51 153.888 158.52 153.902 158.535C153.916 158.551 153.924 158.572 153.923 158.593C153.923 158.614 153.914 158.634 153.899 158.649L135.348 175.448C135.332 175.462 135.312 175.469 135.291 175.47Z" fill="#F9F9F9"/>
<path d="M137.359 177.991C137.342 177.991 137.326 177.986 137.312 177.977C137.298 177.967 137.288 177.954 137.282 177.939C137.276 177.923 137.275 177.906 137.278 177.89C137.282 177.874 137.291 177.859 137.303 177.848L155.855 161.048C155.863 161.041 155.872 161.035 155.883 161.032C155.893 161.028 155.904 161.026 155.915 161.027C155.925 161.027 155.936 161.03 155.946 161.035C155.956 161.039 155.965 161.046 155.972 161.054C155.979 161.062 155.985 161.071 155.989 161.081C155.992 161.092 155.994 161.103 155.994 161.113C155.993 161.124 155.99 161.135 155.986 161.145C155.981 161.155 155.975 161.163 155.967 161.171L137.414 177.97C137.399 177.984 137.379 177.991 137.359 177.991Z" fill="#F9F9F9"/>
<path d="M58.5386 167.03H33.2385C32.6499 167.029 32.0857 166.795 31.6695 166.379C31.2533 165.963 31.0192 165.399 31.0186 164.811V148.583C31.0192 147.994 31.2533 147.43 31.6695 147.014C32.0857 146.598 32.6499 146.364 33.2385 146.364H58.5386C59.1272 146.364 59.6915 146.598 60.1076 147.014C60.5238 147.43 60.7579 147.994 60.7586 148.583V164.814C60.7571 165.402 60.5226 165.965 60.1065 166.38C59.6904 166.795 59.1266 167.029 58.5386 167.03ZM33.2385 146.529C32.6938 146.53 32.1716 146.746 31.7864 147.131C31.4013 147.516 31.1846 148.038 31.1839 148.583V164.814C31.1844 165.359 31.401 165.881 31.7862 166.266C32.1714 166.651 32.6937 166.867 33.2385 166.868H58.5386C59.0834 166.867 59.6057 166.651 59.991 166.266C60.3762 165.881 60.5928 165.359 60.5932 164.814V148.583C60.5926 148.038 60.3759 147.516 59.9907 147.131C59.6056 146.746 59.0833 146.53 58.5386 146.529H33.2385Z" fill="#00A0DC"/>
<path d="M37.4807 154.801C36.8479 154.801 36.2292 154.613 35.703 154.262C35.1768 153.91 34.7666 153.411 34.5245 152.826C34.2823 152.242 34.219 151.599 34.3425 150.979C34.4661 150.358 34.7709 149.788 35.2185 149.341C35.6661 148.894 36.2363 148.589 36.857 148.466C37.4778 148.343 38.1211 148.406 38.7058 148.648C39.2905 148.891 39.7901 149.301 40.1416 149.827C40.4931 150.353 40.6806 150.971 40.6805 151.604C40.6794 152.451 40.3419 153.264 39.742 153.864C39.1422 154.463 38.3289 154.8 37.4807 154.801ZM37.4807 148.571C36.8806 148.571 36.2939 148.749 35.7949 149.082C35.2959 149.415 34.907 149.889 34.6773 150.443C34.4477 150.997 34.3876 151.607 34.5047 152.195C34.6218 152.784 34.9108 153.324 35.3351 153.748C35.7595 154.172 36.3002 154.461 36.8888 154.578C37.4774 154.695 38.0875 154.635 38.6419 154.406C39.1964 154.176 39.6703 153.787 40.0037 153.289C40.3371 152.79 40.5151 152.203 40.5151 151.604C40.5144 150.8 40.1945 150.029 39.6256 149.46C39.0567 148.891 38.2853 148.572 37.4807 148.571Z" fill="#00A0DC"/>
<path d="M57.6548 151.311H43.2312C43.0678 151.311 42.9112 151.247 42.7957 151.131C42.6801 151.016 42.6152 150.859 42.6152 150.696C42.6152 150.532 42.6801 150.376 42.7957 150.26C42.9112 150.145 43.0678 150.08 43.2312 150.08H57.6548C57.8181 150.08 57.9748 150.145 58.0903 150.26C58.2058 150.376 58.2707 150.532 58.2707 150.696C58.2707 150.859 58.2058 151.016 58.0903 151.131C57.9748 151.247 57.8181 151.311 57.6548 151.311ZM43.2329 150.245C43.1133 150.245 42.9987 150.293 42.9142 150.377C42.8297 150.462 42.7822 150.576 42.7822 150.696C42.7822 150.815 42.8297 150.93 42.9142 151.014C42.9987 151.099 43.1133 151.146 43.2329 151.146H57.6548C57.7743 151.146 57.8889 151.099 57.9734 151.014C58.0579 150.93 58.1054 150.815 58.1054 150.696C58.1054 150.576 58.0579 150.462 57.9734 150.377C57.8889 150.293 57.7743 150.245 57.6548 150.245H43.2329Z" fill="#00A0DC"/>
<path d="M49.9085 153.417H43.2312C43.0678 153.417 42.9112 153.352 42.7957 153.237C42.6801 153.121 42.6152 152.964 42.6152 152.801C42.6152 152.638 42.6801 152.481 42.7957 152.366C42.9112 152.25 43.0678 152.186 43.2312 152.186H49.9085C50.0718 152.186 50.2285 152.25 50.344 152.366C50.4595 152.481 50.5244 152.638 50.5244 152.801C50.5244 152.964 50.4595 153.121 50.344 153.237C50.2285 153.352 50.0718 153.417 49.9085 153.417ZM43.2312 152.351C43.1117 152.351 42.9971 152.398 42.9126 152.483C42.8281 152.567 42.7806 152.682 42.7806 152.801C42.7806 152.921 42.8281 153.035 42.9126 153.12C42.9971 153.204 43.1117 153.252 43.2312 153.252H49.9085C50.028 153.252 50.1426 153.204 50.2271 153.12C50.3116 153.035 50.3591 152.921 50.3591 152.801C50.3591 152.682 50.3116 152.567 50.2271 152.483C50.1426 152.398 50.028 152.351 49.9085 152.351H43.2312Z" fill="#00A0DC"/>
<path d="M55.3654 164.943C54.7324 164.943 54.1137 164.755 53.5874 164.404C53.061 164.053 52.6508 163.553 52.4085 162.969C52.1662 162.384 52.1028 161.741 52.2262 161.121C52.3497 160.5 52.6544 159.93 53.102 159.483C53.5495 159.036 54.1197 158.731 54.7405 158.608C55.3612 158.484 56.0047 158.548 56.5894 158.79C57.1741 159.032 57.6738 159.442 58.0253 159.968C58.3769 160.494 58.5644 161.113 58.5642 161.745C58.5631 162.593 58.2258 163.405 57.6261 164.005C57.0264 164.604 56.2134 164.941 55.3654 164.943ZM55.3654 158.712C54.7652 158.712 54.1784 158.89 53.6793 159.223C53.1802 159.556 52.7912 160.03 52.5614 160.584C52.3316 161.138 52.2714 161.748 52.3884 162.336C52.5053 162.925 52.7943 163.465 53.2186 163.889C53.6429 164.314 54.1836 164.603 54.7722 164.72C55.3609 164.837 55.971 164.777 56.5255 164.547C57.08 164.318 57.554 163.929 57.8874 163.43C58.2209 162.932 58.3989 162.345 58.3989 161.745C58.398 160.941 58.0781 160.171 57.5095 159.602C56.9408 159.033 56.1697 158.714 55.3654 158.712Z" fill="#00A0DC"/>
<path d="M49.6133 161.454H35.1914C35.028 161.454 34.8714 161.389 34.7559 161.274C34.6403 161.158 34.5754 161.002 34.5754 160.838C34.5754 160.675 34.6403 160.518 34.7559 160.403C34.8714 160.288 35.028 160.223 35.1914 160.223H49.6133C49.7767 160.223 49.9333 160.288 50.0489 160.403C50.1644 160.518 50.2293 160.675 50.2293 160.838C50.2293 161.002 50.1644 161.158 50.0489 161.274C49.9333 161.389 49.7767 161.454 49.6133 161.454ZM35.1914 160.388C35.0719 160.388 34.9573 160.435 34.8728 160.52C34.7883 160.604 34.7408 160.719 34.7408 160.838C34.7408 160.958 34.7883 161.072 34.8728 161.157C34.9573 161.241 35.0719 161.289 35.1914 161.289H49.6133C49.7328 161.289 49.8474 161.241 49.9319 161.157C50.0164 161.072 50.0639 160.958 50.0639 160.838C50.0639 160.719 50.0164 160.604 49.9319 160.52C49.8474 160.435 49.7328 160.388 49.6133 160.388H35.1914Z" fill="#00A0DC"/>
<path d="M49.6133 163.558H42.9377C42.7744 163.558 42.6177 163.494 42.5022 163.378C42.3867 163.263 42.3218 163.106 42.3218 162.943C42.3218 162.78 42.3867 162.623 42.5022 162.507C42.6177 162.392 42.7744 162.327 42.9377 162.327H49.615C49.7784 162.327 49.935 162.392 50.0505 162.507C50.1661 162.623 50.231 162.78 50.231 162.943C50.231 163.106 50.1661 163.263 50.0505 163.378C49.935 163.494 49.7784 163.558 49.615 163.558H49.6133ZM42.9361 162.492C42.8166 162.492 42.702 162.54 42.6175 162.624C42.533 162.709 42.4855 162.823 42.4855 162.943C42.4855 163.062 42.533 163.177 42.6175 163.261C42.702 163.346 42.8166 163.393 42.9361 163.393H49.6133C49.7328 163.393 49.8475 163.346 49.932 163.261C50.0165 163.177 50.0639 163.062 50.0639 162.943C50.0639 162.823 50.0165 162.709 49.932 162.624C49.8475 162.54 49.7328 162.492 49.6133 162.492H42.9361Z" fill="#00A0DC"/>
<path d="M60.676 156.614H31.1055V156.779H60.676V156.614Z" fill="#00A0DC"/>
<path d="M64.279 167.084L64.1963 146.446H64.279L86.572 146.364L86.6547 167.002H86.572L64.279 167.084ZM64.3616 146.611L64.4443 166.918L86.4902 166.835L86.4075 146.527L64.3616 146.611Z" fill="#292929"/>
<path d="M86.5035 149.487L64.2925 149.568L64.2931 149.734L86.5041 149.652L86.5035 149.487Z" fill="#292929"/>
<path d="M66.0352 163.721L84.7663 163.652C84.7663 163.652 83.4625 158.604 81.2301 158.258C78.4504 157.827 77.2615 160.936 75.4342 159.523C73.607 158.111 72.6942 154.127 70.5305 154.174C67.5862 154.236 66.0352 163.721 66.0352 163.721Z" fill="#292929"/>
<path d="M78.8502 155.382C79.423 154.809 79.423 153.881 78.8502 153.309C78.2774 152.736 77.3487 152.736 76.7759 153.309C76.2031 153.881 76.2031 154.809 76.7759 155.382C77.3487 155.954 78.2774 155.954 78.8502 155.382Z" fill="#292929"/>
<path d="M117.853 187.355H90.8235V146.544L117.853 146.445V187.355Z" fill="#292929"/>
<path d="M107.919 155.863C107.948 153.95 106.42 152.376 104.507 152.347C102.593 152.318 101.018 153.845 100.989 155.758C100.96 157.67 102.488 159.244 104.401 159.273C106.315 159.302 107.89 157.775 107.919 155.863Z" fill="#00A0DC"/>
<path d="M106.383 155.85L103.627 157.393L103.668 154.236L106.383 155.85Z" fill="#F9F9F9"/>
<path d="M95.9373 184.203L113.126 184.29L113.18 163.762L95.9918 163.675L95.9373 184.203Z" fill="#F9F9F9"/>
<path d="M113.178 167.458L95.9887 167.371C95.9668 167.371 95.9457 167.362 95.9302 167.347C95.9147 167.331 95.906 167.31 95.906 167.288C95.906 167.266 95.9147 167.245 95.9302 167.23C95.9457 167.214 95.9668 167.206 95.9887 167.206L113.178 167.292C113.2 167.292 113.221 167.301 113.236 167.317C113.252 167.332 113.261 167.353 113.261 167.375C113.261 167.397 113.252 167.418 113.236 167.433C113.221 167.449 113.2 167.458 113.178 167.458Z" fill="#292929"/>
<path d="M97.424 166.314C97.4131 166.314 97.4023 166.312 97.3923 166.308C97.3822 166.304 97.373 166.297 97.3653 166.29C97.3575 166.282 97.3514 166.273 97.3472 166.263C97.343 166.253 97.3408 166.242 97.3408 166.231C97.3408 166.22 97.343 166.209 97.3472 166.199C97.3514 166.189 97.3575 166.18 97.3653 166.172L98.6559 164.884C98.6715 164.869 98.6926 164.86 98.7146 164.86C98.7366 164.86 98.7578 164.869 98.7733 164.884C98.7889 164.9 98.7976 164.921 98.7976 164.943C98.7976 164.965 98.7889 164.986 98.7733 165.002L97.4819 166.29C97.4665 166.305 97.4457 166.314 97.424 166.314Z" fill="#F9F9F9"/>
<path d="M98.7096 166.315C98.6987 166.315 98.6879 166.313 98.6779 166.309C98.6678 166.305 98.6586 166.299 98.6509 166.291L97.362 165.002C97.3464 164.986 97.3376 164.965 97.3376 164.943C97.3376 164.921 97.3464 164.9 97.362 164.884C97.3775 164.869 97.3987 164.86 97.4207 164.86C97.4427 164.86 97.4638 164.869 97.4794 164.884L98.7683 166.174C98.78 166.186 98.7879 166.2 98.7912 166.217C98.7944 166.233 98.7928 166.249 98.7865 166.264C98.7802 166.28 98.7695 166.293 98.7558 166.302C98.7421 166.311 98.726 166.316 98.7096 166.315Z" fill="#F9F9F9"/>
<path d="M108.437 179.039C110.575 176.902 110.575 173.436 108.437 171.299C106.299 169.162 102.831 169.162 100.693 171.299C98.5544 173.436 98.5544 176.902 100.693 179.039C102.831 181.176 106.299 181.176 108.437 179.039Z" fill="#F9F9F9"/>
<path d="M101.441 178.308L107.718 178.278C107.736 177.854 107.667 177.431 107.516 177.034C107.365 176.638 107.135 176.276 106.841 175.97C106.546 175.665 106.192 175.422 105.801 175.257C105.41 175.092 104.989 175.008 104.564 175.01C104.14 175.012 103.72 175.1 103.33 175.269C102.94 175.437 102.589 175.683 102.297 175.992C102.005 176.3 101.779 176.664 101.632 177.062C101.485 177.46 101.42 177.884 101.441 178.308Z" fill="#00A0DC"/>
<path d="M105.965 173.71C106.095 172.936 105.572 172.204 104.798 172.074C104.024 171.945 103.291 172.467 103.161 173.241C103.032 174.014 103.554 174.747 104.328 174.876C105.102 175.006 105.835 174.484 105.965 173.71Z" fill="#00A0DC"/>
<path d="M149.949 187.49H149.866L121.944 187.334L122.005 176.456H122.087L150.009 176.611L149.949 187.49ZM122.111 187.169L149.784 187.324L149.843 176.777L122.169 176.622L122.111 187.169Z" fill="#F9F9F9"/>
<path d="M131.457 185.885C131.438 185.885 131.419 185.879 131.405 185.866L125.051 180.548C125.042 180.541 125.034 180.533 125.029 180.523C125.023 180.513 125.019 180.502 125.018 180.491C125.016 180.48 125.017 180.468 125.02 180.457C125.024 180.447 125.029 180.436 125.036 180.428C125.044 180.419 125.053 180.412 125.063 180.407C125.073 180.402 125.084 180.399 125.095 180.398C125.107 180.398 125.118 180.399 125.129 180.403C125.139 180.407 125.149 180.414 125.157 180.421L131.45 185.689L137.573 179.026C137.588 179.011 137.607 179.002 137.628 179C137.649 178.999 137.669 179.005 137.686 179.018L143.143 183.402L147.363 180.682C147.382 180.67 147.404 180.666 147.426 180.671C147.447 180.675 147.466 180.688 147.478 180.707C147.49 180.725 147.494 180.748 147.489 180.769C147.484 180.791 147.471 180.81 147.453 180.821L143.182 183.573C143.168 183.583 143.151 183.587 143.133 183.586C143.116 183.585 143.099 183.579 143.086 183.568L137.639 179.196L131.515 185.855C131.508 185.863 131.499 185.871 131.489 185.876C131.479 185.881 131.469 185.884 131.457 185.885Z" fill="#292929"/>
<path d="M125.115 180.83C125.272 180.83 125.4 180.702 125.4 180.545C125.4 180.388 125.272 180.261 125.115 180.261C124.958 180.261 124.831 180.388 124.831 180.545C124.831 180.702 124.958 180.83 125.115 180.83Z" fill="#292929"/>
<path d="M131.462 185.994C131.619 185.994 131.747 185.867 131.747 185.71C131.747 185.553 131.619 185.425 131.462 185.425C131.305 185.425 131.178 185.553 131.178 185.71C131.178 185.867 131.305 185.994 131.462 185.994Z" fill="#292929"/>
<path d="M137.963 179.173C137.963 179.229 137.946 179.284 137.914 179.33C137.882 179.377 137.838 179.413 137.786 179.434C137.734 179.455 137.676 179.461 137.621 179.449C137.566 179.438 137.516 179.411 137.476 179.371C137.437 179.331 137.41 179.28 137.399 179.225C137.389 179.17 137.395 179.112 137.416 179.061C137.438 179.009 137.475 178.965 137.522 178.934C137.569 178.903 137.624 178.886 137.68 178.887C137.717 178.887 137.754 178.895 137.789 178.909C137.823 178.923 137.854 178.945 137.881 178.971C137.907 178.998 137.928 179.029 137.942 179.064C137.956 179.098 137.963 179.135 137.963 179.173Z" fill="#292929"/>
<path d="M143.187 183.124C143.241 183.137 143.291 183.166 143.329 183.207C143.368 183.249 143.393 183.3 143.402 183.356C143.411 183.411 143.403 183.468 143.379 183.519C143.356 183.571 143.318 183.614 143.27 183.643C143.222 183.672 143.166 183.687 143.11 183.685C143.053 183.683 142.999 183.664 142.954 183.631C142.908 183.598 142.873 183.552 142.854 183.499C142.834 183.446 142.831 183.389 142.844 183.334C142.853 183.298 142.869 183.264 142.891 183.233C142.913 183.203 142.94 183.178 142.972 183.158C143.004 183.139 143.039 183.126 143.076 183.12C143.113 183.114 143.15 183.115 143.187 183.124Z" fill="#292929"/>
<path d="M147.477 180.524C147.532 180.537 147.581 180.566 147.619 180.607C147.658 180.649 147.683 180.7 147.692 180.756C147.701 180.811 147.693 180.868 147.67 180.919C147.646 180.97 147.608 181.013 147.56 181.043C147.512 181.072 147.457 181.087 147.401 181.085C147.344 181.083 147.29 181.064 147.244 181.031C147.199 180.998 147.164 180.952 147.144 180.9C147.125 180.847 147.121 180.79 147.134 180.735C147.152 180.662 147.198 180.598 147.262 180.559C147.326 180.519 147.403 180.507 147.477 180.524Z" fill="#292929"/>
<path d="M48.589 183.986H31.0178V174.171H31.1005L48.5229 174.197L48.589 183.986ZM31.1832 183.82H48.422L48.3591 174.362L31.1832 174.336V183.82Z" fill="#292929"/>
<path d="M39.939 178.922L31.0625 174.382L31.1377 174.235L39.9374 178.736L48.3154 174.291L48.3931 174.437L39.939 178.922Z" fill="#292929"/>
<path d="M77.4153 176.673H52.216C51.9862 176.666 51.7681 176.57 51.608 176.405C51.4479 176.24 51.3584 176.019 51.3584 175.789C51.3584 175.559 51.4479 175.338 51.608 175.173C51.7681 175.008 51.9862 174.912 52.216 174.905H77.4153C77.5337 174.902 77.6516 174.922 77.762 174.965C77.8725 175.007 77.9732 175.072 78.0582 175.154C78.1433 175.237 78.2109 175.335 78.257 175.444C78.3032 175.553 78.327 175.671 78.327 175.789C78.327 175.907 78.3032 176.025 78.257 176.134C78.2109 176.243 78.1433 176.341 78.0582 176.424C77.9732 176.506 77.8725 176.571 77.762 176.613C77.6516 176.656 77.5337 176.676 77.4153 176.673ZM52.2193 175.07C52.0329 175.077 51.8562 175.155 51.7265 175.289C51.5969 175.423 51.5244 175.603 51.5244 175.789C51.5244 175.975 51.5969 176.155 51.7265 176.289C51.8562 176.423 52.0329 176.501 52.2193 176.508H77.4153C77.5117 176.511 77.6079 176.495 77.6979 176.46C77.788 176.425 77.8702 176.373 77.9396 176.306C78.009 176.239 78.0642 176.159 78.1019 176.07C78.1396 175.981 78.159 175.885 78.159 175.789C78.159 175.693 78.1396 175.597 78.1019 175.508C78.0642 175.419 78.009 175.339 77.9396 175.272C77.8702 175.205 77.788 175.153 77.6979 175.118C77.6079 175.083 77.5117 175.067 77.4153 175.07H52.2193Z" fill="#292929"/>
<path d="M74.0155 179.901H52.216C51.9862 179.894 51.7681 179.798 51.608 179.633C51.4479 179.468 51.3584 179.247 51.3584 179.018C51.3584 178.788 51.4479 178.567 51.608 178.402C51.7681 178.237 51.9862 178.141 52.216 178.134H74.0155C74.2453 178.141 74.4634 178.237 74.6235 178.402C74.7836 178.567 74.8731 178.788 74.8731 179.018C74.8731 179.247 74.7836 179.468 74.6235 179.633C74.4634 179.798 74.2453 179.894 74.0155 179.901ZM52.216 178.299C52.0296 178.305 51.8529 178.384 51.7232 178.518C51.5936 178.652 51.5211 178.831 51.5211 179.018C51.5211 179.204 51.5936 179.383 51.7232 179.517C51.8529 179.651 52.0296 179.73 52.216 179.736H74.0155C74.2019 179.73 74.3786 179.651 74.5083 179.517C74.6379 179.383 74.7104 179.204 74.7104 179.018C74.7104 178.831 74.6379 178.652 74.5083 178.518C74.3786 178.384 74.2019 178.305 74.0155 178.299H52.216Z" fill="#292929"/>
<path d="M81.2062 183.186H52.216C51.9862 183.178 51.7681 183.082 51.608 182.917C51.4479 182.752 51.3584 182.532 51.3584 182.302C51.3584 182.072 51.4479 181.851 51.608 181.686C51.7681 181.521 51.9862 181.425 52.216 181.418H81.2062C81.3246 181.414 81.4425 181.434 81.5529 181.477C81.6634 181.52 81.7641 181.585 81.8491 181.667C81.9342 181.749 82.0018 181.848 82.0479 181.957C82.0941 182.066 82.1179 182.183 82.1179 182.302C82.1179 182.42 82.0941 182.537 82.0479 182.646C82.0018 182.755 81.9342 182.854 81.8491 182.936C81.7641 183.019 81.6634 183.083 81.5529 183.126C81.4425 183.169 81.3246 183.189 81.2062 183.186ZM52.216 181.583C52.0296 181.589 51.8529 181.668 51.7232 181.802C51.5936 181.936 51.5211 182.115 51.5211 182.302C51.5211 182.488 51.5936 182.667 51.7232 182.801C51.8529 182.935 52.0296 183.014 52.216 183.02H81.2062C81.3026 183.024 81.3988 183.007 81.4888 182.973C81.5789 182.938 81.6611 182.886 81.7305 182.819C81.7999 182.752 81.8551 182.671 81.8928 182.582C81.9305 182.494 81.9499 182.398 81.9499 182.302C81.9499 182.205 81.9305 182.11 81.8928 182.021C81.8551 181.932 81.7999 181.852 81.7305 181.785C81.6611 181.718 81.5789 181.665 81.4888 181.631C81.3988 181.596 81.3026 181.58 81.2062 181.583H52.216Z" fill="#292929"/>
<path d="M87.6951 124.008C81.7148 138.265 69.0002 169.111 69.0002 169.111L78.0951 174.069L104.794 132.057C107.003 128.697 105.322 123.554 101.243 120.957C96.6799 118.052 89.7877 119.021 87.6951 124.008Z" fill="#F9F9F9"/>
<path d="M78.1254 174.18L68.8992 169.147L68.9273 169.078C69.0546 168.77 81.708 138.07 87.6221 123.975C88.4778 121.936 90.2133 120.422 92.5101 119.7C95.3717 118.805 98.7368 119.261 101.292 120.888C103.525 122.308 105.163 124.607 105.683 127.029C106.083 128.894 105.794 130.695 104.868 132.103L78.1254 174.18ZM69.105 169.073L78.0684 173.961L104.726 132.013C105.627 130.642 105.908 128.885 105.518 127.064C105.007 124.681 103.392 122.424 101.2 121.032C98.6847 119.429 95.3725 118.981 92.5564 119.862C90.3067 120.565 88.6076 122.05 87.7709 124.044L87.6949 124.012L87.7709 124.044C81.9924 137.811 69.7797 167.436 69.105 169.073Z" fill="#292929"/>
<path d="M107.263 123.138C106.902 121.312 105.968 119.647 104.598 118.386C103.227 117.125 101.49 116.333 99.6388 116.124L81.9626 115.8L62.2186 115.438L59.3653 115.387L53.0163 115.271C51.5722 115.279 50.144 115.572 48.813 116.132C47.4821 116.692 46.2746 117.508 45.2594 118.535C44.2442 119.561 43.4413 120.778 42.8965 122.114C42.3516 123.451 42.0755 124.882 42.0839 126.325C42.0923 127.769 42.3851 129.196 42.9455 130.526C43.5059 131.857 44.323 133.063 45.35 134.078C46.3771 135.093 47.594 135.895 48.9314 136.44C50.2688 136.984 51.7004 137.26 53.1445 137.252C60.8221 137.021 71.6995 136.701 81.8138 136.335L70.222 161.704L83.4509 168.801L104.627 132.967C106.825 130.391 107.904 126.366 107.263 123.138Z" fill="#00A0DC"/>
<path d="M83.4816 168.915L70.118 161.742L81.6857 136.423C72.376 136.759 62.3097 137.06 54.9495 137.281L53.1504 137.335C50.6018 137.411 48.105 136.607 46.0805 135.058C44.056 133.508 42.6278 131.309 42.0364 128.83C41.4451 126.351 41.7267 123.745 42.834 121.449C43.9413 119.154 45.8064 117.31 48.1151 116.229C49.6482 115.508 51.3275 115.151 53.0214 115.188L99.643 116.042C101.513 116.251 103.268 117.05 104.653 118.324C106.038 119.597 106.981 121.278 107.346 123.123C107.987 126.363 106.897 130.431 104.693 133.018L83.4816 168.915ZM70.3354 161.671L83.422 168.695L104.562 132.922L104.567 132.917C106.742 130.366 107.82 126.352 107.187 123.156C106.83 121.346 105.905 119.697 104.547 118.448C103.189 117.199 101.469 116.414 99.6348 116.208L62.2228 115.522L53.0214 115.357C51.3526 115.32 49.698 115.671 48.1879 116.381C46.1137 117.352 44.3977 118.951 43.2829 120.95C42.168 122.95 41.7109 125.25 41.9761 127.523C42.0436 128.112 42.1594 128.694 42.3226 129.264C42.9898 131.598 44.4166 133.643 46.3772 135.075C48.3378 136.507 50.7204 137.246 53.1479 137.173L54.947 137.119C62.3419 136.898 72.4694 136.594 81.818 136.256L81.952 136.251L81.8966 136.372L70.3354 161.671Z" fill="#F9F9F9"/>
<path d="M76.1222 171.714C76.1495 171.726 77.761 168.739 81.093 170.849L79.2583 176.929L74.8589 173.481L76.1222 171.714Z" fill="#292929"/>
<path d="M86.8136 192.332L85.6048 194.024H84.8888L70.3239 183.922L66.3147 180.546L62.1931 178.105C62.0664 178.016 61.9586 177.903 61.8759 177.772C61.7931 177.642 61.7371 177.496 61.7111 177.343C61.685 177.191 61.6894 177.035 61.7241 176.884C61.7587 176.733 61.8228 176.591 61.9128 176.465L63.7888 173.841H64.5032L69.8237 166.404L80.2943 173.98L80.1835 176.955L83.4816 184.339C83.4816 184.339 86.9674 189.69 87.17 189.835C87.3494 189.964 86.9376 191.802 86.8351 192.243C86.8219 192.299 86.8136 192.332 86.8136 192.332Z" fill="#F9F9F9"/>
<path d="M85.647 194.105H84.8632L84.8417 194.09L70.2768 183.986L66.2668 180.61L62.151 178.172C62.0145 178.077 61.8982 177.956 61.8088 177.816C61.7195 177.676 61.6589 177.52 61.6305 177.356C61.6021 177.192 61.6065 177.025 61.6435 176.863C61.6805 176.701 61.7493 176.548 61.8459 176.413L63.7698 173.721L63.8162 173.754H64.4619L69.8063 166.28L69.8741 166.329L80.3803 173.931L80.2687 176.928L83.556 184.289C84.9385 186.411 87.0526 189.616 87.2213 189.759C87.2783 189.799 87.4544 189.925 86.9211 192.239L86.8905 192.364L86.8814 192.377L85.647 194.105ZM84.9145 193.94H85.5619L86.7376 192.296L86.7525 192.235V192.22L86.7624 192.204C87.0931 190.765 87.1807 189.999 87.1204 189.89C86.8723 189.672 83.9951 185.262 83.4163 184.376L83.4097 184.365L80.1025 176.964L80.2125 174.015L69.8452 166.514L64.5479 173.923H63.8319L61.9815 176.511C61.8977 176.628 61.838 176.76 61.8057 176.901C61.7735 177.041 61.7693 177.186 61.7936 177.328C61.8178 177.469 61.8699 177.605 61.9468 177.727C62.0238 177.848 62.1241 177.953 62.2419 178.036L66.3685 180.481L70.3777 183.857L84.9145 193.94Z" fill="#292929"/>
<path d="M81.0004 177.814C80.9832 177.814 80.9665 177.809 80.9525 177.799C79.4006 176.691 77.3691 177.572 77.3484 177.581C77.3384 177.587 77.3273 177.59 77.3159 177.591C77.3045 177.593 77.293 177.591 77.2821 177.588C77.2712 177.584 77.2612 177.578 77.2527 177.57C77.2442 177.563 77.2374 177.553 77.2327 177.543C77.2281 177.532 77.2256 177.521 77.2256 177.509C77.2255 177.498 77.2279 177.487 77.2325 177.476C77.2371 177.466 77.2438 177.456 77.2522 177.448C77.2607 177.441 77.2706 177.435 77.2815 177.431C77.3022 177.421 79.4188 176.5 81.0484 177.665C81.0625 177.675 81.073 177.689 81.0785 177.706C81.0839 177.723 81.084 177.74 81.0787 177.757C81.0733 177.774 81.0629 177.788 81.0489 177.798C81.0348 177.809 81.0179 177.814 81.0004 177.814Z" fill="#292929"/>
<path d="M81.766 179.953C81.7465 179.953 81.7276 179.947 81.7123 179.934C80.5134 178.928 78.3224 179.686 78.3042 179.694C78.2938 179.699 78.2825 179.701 78.271 179.701C78.2595 179.701 78.2482 179.699 78.2377 179.695C78.2271 179.69 78.2176 179.683 78.2098 179.675C78.202 179.667 78.196 179.657 78.1922 179.646C78.1884 179.635 78.1869 179.624 78.1877 179.612C78.1886 179.601 78.1919 179.59 78.1973 179.58C78.2027 179.569 78.2101 179.561 78.2191 179.554C78.2282 179.546 78.2385 179.541 78.2497 179.539C78.3423 179.505 80.5465 178.74 81.819 179.808C81.8355 179.822 81.8458 179.842 81.8477 179.864C81.8495 179.885 81.8428 179.907 81.8289 179.924C81.8212 179.933 81.8116 179.94 81.8007 179.945C81.7899 179.951 81.7781 179.953 81.766 179.953Z" fill="#292929"/>
<path d="M79.2609 181.994C79.2425 181.994 79.2245 181.988 79.2098 181.977C79.1951 181.966 79.1845 181.95 79.1797 181.933C79.1748 181.915 79.176 181.896 79.1831 181.879C79.1902 181.862 79.2027 181.848 79.2187 181.839C79.2369 181.828 81.0922 180.756 82.5201 181.775C82.529 181.782 82.5365 181.79 82.5423 181.799C82.5481 181.808 82.5519 181.819 82.5537 181.829C82.5555 181.84 82.5551 181.851 82.5526 181.862C82.5501 181.872 82.5455 181.882 82.5391 181.891C82.5264 181.909 82.5071 181.921 82.4856 181.924C82.4641 181.928 82.442 181.923 82.4242 181.91C81.084 180.953 79.3204 181.971 79.3022 181.982C79.2897 181.99 79.2754 181.993 79.2609 181.994Z" fill="#292929"/>
<path d="M86.8136 192.331L85.6049 194.023H84.8888L70.3239 183.921L66.3147 180.545L62.1931 178.104C62.0664 178.016 61.9586 177.902 61.8759 177.772C61.7931 177.641 61.7371 177.495 61.7111 177.343C61.685 177.19 61.6894 177.034 61.7241 176.883C61.7587 176.732 61.8228 176.59 61.9128 176.464L63.7889 173.84C63.8484 173.867 65.7533 174.7 69.3507 178.321C73.006 182.001 86.8351 192.237 86.8351 192.237C86.8219 192.298 86.8136 192.331 86.8136 192.331Z" fill="#292929"/>
<path d="M86.3687 135.978C89.5824 151.1 96.7243 183.688 96.7243 183.688L106.528 181.658L103.358 133.762C103.256 129.743 100.597 125.566 95.7644 125.755C90.3571 125.965 85.245 130.684 86.3687 135.978Z" fill="#F9F9F9"/>
<path d="M96.6608 183.786L96.6435 183.703C96.5724 183.378 89.4652 150.943 86.2886 135.993C85.8289 133.829 86.3895 131.593 87.867 129.695C89.7083 127.33 92.7327 125.788 95.7613 125.67C97.7042 125.594 99.4471 126.225 100.805 127.494C102.396 128.982 103.383 131.327 103.444 133.757L106.619 181.722L96.6608 183.786ZM86.4499 135.96C89.5495 150.548 96.3905 181.779 96.7849 183.591L106.441 181.588L103.275 133.765C103.215 131.373 102.248 129.076 100.688 127.614C99.3653 126.375 97.6654 125.761 95.7679 125.834C92.7864 125.95 89.8091 127.468 87.996 129.796C86.5499 131.658 86.0009 133.846 86.4499 135.96Z" fill="#292929"/>
<path d="M107.589 170.117L103.607 129.063L103.556 129.068C103.503 128.579 103.409 128.095 103.275 127.621C102.77 125.829 101.708 124.244 100.241 123.096C98.7752 121.947 96.9813 121.295 95.1195 121.233L48.3284 115.182C45.6292 114.803 42.8871 115.466 40.6599 117.037C38.4328 118.607 36.8879 120.967 36.3398 123.635C36.0419 125.084 36.0474 126.578 36.3559 128.025C36.6643 129.471 37.2691 130.838 38.1321 132.039C38.9951 133.24 40.0976 134.25 41.3702 135.004C42.6428 135.759 44.0579 136.242 45.5264 136.423C56.7411 137.804 74.2932 139.607 86.9152 139.39L92.7938 171.136L107.589 170.117Z" fill="#00A0DC"/>
<path d="M92.7253 171.223L86.8467 139.474C86.1696 139.484 85.4759 139.49 84.7739 139.49C71.77 139.49 54.785 137.646 45.5165 136.504C44.0918 136.341 42.7139 135.896 41.463 135.195C40.2121 134.494 39.1134 133.551 38.231 132.422C37.3485 131.292 36.7 129.998 36.3232 128.615C35.9464 127.232 35.8488 125.788 36.0363 124.367C36.2237 122.946 36.6924 121.576 37.415 120.338C38.1376 119.1 39.0995 118.019 40.2448 117.156C41.3901 116.294 42.6958 115.668 44.0856 115.315C45.4755 114.962 46.9218 114.889 48.3401 115.101L95.1304 121.151C97.0095 121.21 98.8207 121.867 100.3 123.027C101.78 124.186 102.85 125.787 103.355 127.597C103.482 128.049 103.574 128.51 103.629 128.976L103.682 128.971L107.676 170.193L107.594 170.199L92.7253 171.223ZM86.9839 139.306L92.8609 171.048L107.495 170.04L103.527 129.152L103.476 129.157L103.467 129.075C103.415 128.59 103.322 128.11 103.189 127.641C102.693 125.863 101.642 124.291 100.189 123.152C98.7353 122.014 96.9561 121.37 95.1106 121.313L48.3136 115.261C42.7683 114.483 37.5429 118.168 36.4159 123.65C36.1207 125.087 36.1264 126.57 36.4327 128.005C36.7389 129.44 37.3391 130.796 38.1955 131.988C39.0518 133.18 40.1457 134.182 41.4084 134.931C42.6711 135.679 44.0752 136.159 45.5323 136.339C55.3141 137.543 73.6973 139.532 86.9095 139.305L86.9839 139.306Z" fill="#F9F9F9"/>
<path d="M103.092 180.309C103.121 180.304 102.695 176.939 106.632 176.716L108.677 182.73L103.092 182.482V180.309Z" fill="#292929"/>
<path d="M123.784 190.869V192.947L123.201 193.361L105.475 193.609L100.249 193.195L95.476 193.609C95.3212 193.61 95.1677 193.581 95.0243 193.522C94.8809 193.464 94.7505 193.378 94.6406 193.269C94.5307 193.16 94.4434 193.03 94.3839 192.887C94.3244 192.745 94.2937 192.591 94.2937 192.437V189.214L94.8725 188.801V179.645L107.799 179.723L109.437 182.202L116.416 186.294C116.416 186.294 122.365 188.621 122.617 188.621C122.838 188.621 123.572 190.357 123.746 190.775L123.784 190.869Z" fill="#F9F9F9"/>
<path d="M105.476 193.693L100.249 193.28L95.4834 193.688C95.3172 193.691 95.1522 193.66 94.998 193.598C94.8437 193.536 94.7033 193.444 94.585 193.328C94.4666 193.211 94.3726 193.072 94.3084 192.919C94.2441 192.765 94.211 192.601 94.2109 192.435V189.129H94.268L94.7938 188.754V179.562L107.847 179.645L109.501 182.149L116.458 186.226C118.817 187.149 122.401 188.528 122.622 188.547C122.69 188.547 122.908 188.547 123.819 190.737L123.867 190.857V192.993L123.228 193.449H123.203L105.476 193.693ZM100.249 193.115H100.256L105.481 193.528L123.175 193.28L123.701 192.904V190.886L123.678 190.828L123.666 190.816V190.797C123.179 189.627 122.747 188.772 122.612 188.708C122.281 188.676 117.378 186.761 116.391 186.375L116.379 186.369L109.384 182.269L107.758 179.806L94.9592 179.729V188.834L94.3763 189.248V192.429C94.3763 192.573 94.4048 192.715 94.4601 192.848C94.5154 192.981 94.5965 193.101 94.6987 193.202C94.8008 193.304 94.9221 193.384 95.0553 193.438C95.1886 193.492 95.3313 193.519 95.4751 193.518L100.249 193.115Z" fill="#292929"/>
<path d="M107.428 184.412C107.413 184.412 107.399 184.408 107.386 184.4C107.367 184.389 107.353 184.371 107.348 184.35C107.343 184.328 107.346 184.306 107.357 184.287C107.369 184.267 108.555 182.288 110.558 182.288C110.58 182.288 110.601 182.297 110.616 182.312C110.632 182.328 110.64 182.349 110.64 182.371C110.64 182.393 110.632 182.414 110.616 182.429C110.601 182.445 110.58 182.453 110.558 182.453C108.65 182.453 107.511 184.354 107.498 184.371C107.491 184.384 107.481 184.394 107.469 184.401C107.456 184.408 107.442 184.412 107.428 184.412Z" fill="#292929"/>
<path d="M109.442 185.57C109.426 185.57 109.411 185.566 109.398 185.558C109.385 185.55 109.375 185.539 109.368 185.525C109.361 185.512 109.358 185.496 109.359 185.481C109.36 185.466 109.365 185.451 109.374 185.439C109.431 185.356 110.779 183.456 112.433 183.584C112.455 183.586 112.475 183.596 112.489 183.612C112.503 183.629 112.511 183.65 112.509 183.672C112.507 183.694 112.497 183.714 112.48 183.729C112.464 183.743 112.442 183.75 112.42 183.748C110.857 183.627 109.521 185.515 109.508 185.534C109.5 185.545 109.49 185.554 109.479 185.56C109.467 185.566 109.455 185.569 109.442 185.57Z" fill="#292929"/>
<path d="M111.576 186.865C111.565 186.865 111.554 186.862 111.543 186.857C111.533 186.853 111.524 186.847 111.517 186.839C111.509 186.831 111.503 186.822 111.499 186.812C111.496 186.801 111.494 186.791 111.494 186.78C111.494 186.769 111.497 186.758 111.501 186.748C111.51 186.728 112.395 184.777 114.147 184.777C114.169 184.777 114.19 184.786 114.205 184.802C114.221 184.817 114.229 184.838 114.229 184.86C114.229 184.882 114.221 184.903 114.205 184.918C114.19 184.934 114.169 184.943 114.147 184.943C112.5 184.943 111.657 186.796 111.649 186.815C111.643 186.829 111.633 186.842 111.62 186.85C111.607 186.859 111.592 186.864 111.576 186.865Z" fill="#292929"/>
<path d="M123.784 190.87V192.948L123.201 193.362L105.475 193.609L100.249 193.196L95.476 193.609C95.3212 193.611 95.1677 193.581 95.0243 193.523C94.8809 193.465 94.7505 193.379 94.6406 193.27C94.5307 193.161 94.4434 193.031 94.3839 192.888C94.3244 192.746 94.2937 192.592 94.2937 192.438V189.215C94.3574 189.202 96.3913 188.773 101.425 189.628C106.539 190.497 123.749 190.785 123.749 190.785L123.784 190.87Z" fill="#292929"/>
<path d="M155.045 55.96H115.581V83.05H155.045V55.96Z" fill="#00A0DC"/>
<path d="M174.543 41.354H120.377V78.4968H174.543V41.354Z" fill="#F9F9F9"/>
<path d="M174.626 78.5791H120.295V41.271H174.626V78.5791ZM120.46 78.4138H174.46V41.4363H120.46V78.4138Z" fill="#292929"/>
<path d="M143.814 47.4251H124.568C124.465 47.4251 124.364 47.4049 124.269 47.3657C124.175 47.3265 124.089 47.269 124.016 47.1965C123.944 47.1241 123.886 47.0381 123.847 46.9435C123.808 46.8488 123.788 46.7474 123.788 46.645C123.788 46.4383 123.87 46.2401 124.016 46.094C124.163 45.9478 124.361 45.8657 124.568 45.8657H143.814C144.021 45.8657 144.219 45.9478 144.366 46.0939C144.512 46.24 144.594 46.4382 144.595 46.645C144.595 46.7474 144.574 46.8489 144.535 46.9435C144.496 47.0382 144.438 47.1242 144.366 47.1966C144.293 47.269 144.207 47.3265 144.113 47.3657C144.018 47.4049 143.917 47.4251 143.814 47.4251Z" fill="#292929"/>
<path d="M163.738 47.4251H154.505C154.298 47.4251 154.099 47.3429 153.953 47.1966C153.806 47.0503 153.724 46.8519 153.724 46.645C153.724 46.4382 153.807 46.24 153.953 46.0939C154.099 45.9478 154.298 45.8657 154.505 45.8657H163.738C163.944 45.8657 164.143 45.9478 164.289 46.094C164.435 46.2401 164.517 46.4383 164.517 46.645C164.517 46.7474 164.497 46.8488 164.458 46.9435C164.419 47.0381 164.362 47.1241 164.289 47.1965C164.217 47.269 164.131 47.3265 164.036 47.3657C163.941 47.4049 163.84 47.4251 163.738 47.4251Z" fill="#292929"/>
<path d="M143.814 52.186H124.568C124.344 52.179 124.131 52.0851 123.975 51.9242C123.819 51.7632 123.731 51.5479 123.731 51.3237C123.731 51.0995 123.819 50.8841 123.975 50.7231C124.131 50.5622 124.344 50.4683 124.568 50.4614H143.814C143.93 50.4578 144.045 50.4774 144.153 50.5192C144.26 50.5609 144.359 50.6238 144.442 50.7043C144.525 50.7847 144.591 50.881 144.636 50.9874C144.681 51.0938 144.704 51.2081 144.704 51.3237C144.704 51.4392 144.681 51.5536 144.636 51.66C144.591 51.7664 144.525 51.8626 144.442 51.9431C144.359 52.0235 144.26 52.0864 144.153 52.1282C144.045 52.1699 143.93 52.1896 143.814 52.186ZM124.568 50.6266C124.387 50.6328 124.216 50.709 124.09 50.8391C123.964 50.9691 123.894 51.1428 123.894 51.3237C123.894 51.5045 123.964 51.6782 124.09 51.8083C124.216 51.9383 124.387 52.0145 124.568 52.0207H143.814C143.908 52.0239 144.001 52.0083 144.089 51.9747C144.176 51.9411 144.256 51.8903 144.323 51.8253C144.39 51.7602 144.444 51.6823 144.481 51.5961C144.517 51.5099 144.536 51.4173 144.536 51.3237C144.536 51.2301 144.517 51.1374 144.481 51.0512C144.444 50.965 144.39 50.8871 144.323 50.8221C144.256 50.757 144.176 50.7062 144.089 50.6726C144.001 50.639 143.908 50.6234 143.814 50.6266H124.568Z" fill="#00A0DC"/>
<path d="M157.474 52.186H148.241C148.125 52.1896 148.01 52.1699 147.902 52.1282C147.794 52.0864 147.696 52.0235 147.613 51.9431C147.53 51.8626 147.464 51.7664 147.419 51.66C147.374 51.5536 147.351 51.4392 147.351 51.3237C147.351 51.2081 147.374 51.0938 147.419 50.9874C147.464 50.881 147.53 50.7847 147.613 50.7043C147.696 50.6238 147.794 50.5609 147.902 50.5192C148.01 50.4774 148.125 50.4578 148.241 50.4614H157.474C157.589 50.4578 157.704 50.4774 157.812 50.5192C157.92 50.5609 158.018 50.6238 158.101 50.7043C158.184 50.7847 158.25 50.881 158.295 50.9874C158.34 51.0938 158.364 51.2081 158.364 51.3237C158.364 51.4392 158.34 51.5536 158.295 51.66C158.25 51.7664 158.184 51.8626 158.101 51.9431C158.018 52.0235 157.92 52.0864 157.812 52.1282C157.704 52.1699 157.589 52.1896 157.474 52.186ZM148.241 50.6266C148.147 50.6234 148.054 50.639 147.966 50.6726C147.879 50.7062 147.799 50.757 147.732 50.8221C147.664 50.8871 147.611 50.965 147.574 51.0512C147.538 51.1374 147.519 51.2301 147.519 51.3237C147.519 51.4173 147.538 51.5099 147.574 51.5961C147.611 51.6823 147.664 51.7602 147.732 51.8253C147.799 51.8903 147.879 51.9411 147.966 51.9747C148.054 52.0083 148.147 52.0239 148.241 52.0207H157.474C157.567 52.0239 157.661 52.0083 157.748 51.9747C157.835 51.9411 157.915 51.8903 157.982 51.8253C158.05 51.7602 158.103 51.6823 158.14 51.5961C158.177 51.5099 158.195 51.4173 158.195 51.3237C158.195 51.2301 158.177 51.1374 158.14 51.0512C158.103 50.965 158.05 50.8871 157.982 50.8221C157.915 50.757 157.835 50.7062 157.748 50.6726C157.661 50.639 157.567 50.6234 157.474 50.6266H148.241Z" fill="#00A0DC"/>
<path d="M164.323 52.186H161.418C161.303 52.1896 161.188 52.1699 161.08 52.1282C160.972 52.0864 160.874 52.0235 160.791 51.9431C160.708 51.8626 160.642 51.7664 160.597 51.66C160.552 51.5536 160.528 51.4392 160.528 51.3237C160.528 51.2081 160.552 51.0938 160.597 50.9874C160.642 50.881 160.708 50.7847 160.791 50.7043C160.874 50.6238 160.972 50.5609 161.08 50.5192C161.188 50.4774 161.303 50.4578 161.418 50.4614H164.323C164.547 50.4683 164.76 50.5622 164.916 50.7231C165.072 50.8841 165.159 51.0995 165.159 51.3237C165.159 51.5479 165.072 51.7632 164.916 51.9242C164.76 52.0851 164.547 52.179 164.323 52.186ZM161.418 50.6266C161.325 50.6234 161.231 50.639 161.144 50.6726C161.056 50.7062 160.977 50.757 160.909 50.8221C160.842 50.8871 160.788 50.965 160.752 51.0512C160.715 51.1374 160.696 51.2301 160.696 51.3237C160.696 51.4173 160.715 51.5099 160.752 51.5961C160.788 51.6823 160.842 51.7602 160.909 51.8253C160.977 51.8903 161.056 51.9411 161.144 51.9747C161.231 52.0083 161.325 52.0239 161.418 52.0207H164.323C164.504 52.0145 164.675 51.9383 164.801 51.8083C164.926 51.6782 164.997 51.5045 164.997 51.3237C164.997 51.1428 164.926 50.9691 164.801 50.8391C164.675 50.709 164.504 50.6328 164.323 50.6266H161.418Z" fill="#00A0DC"/>
<path d="M134.667 65.0142H125.435C125.004 65.0142 124.655 65.3632 124.655 65.7938C124.655 66.2244 125.004 66.5735 125.435 66.5735H134.667C135.098 66.5735 135.448 66.2244 135.448 65.7938C135.448 65.3632 135.098 65.0142 134.667 65.0142Z" fill="#292929"/>
<path d="M170.651 65.0142H143.858C143.427 65.0142 143.077 65.3632 143.077 65.7938C143.077 66.2244 143.427 66.5735 143.858 66.5735H170.651C171.082 66.5735 171.432 66.2244 171.432 65.7938C171.432 65.3632 171.082 65.0142 170.651 65.0142Z" fill="#292929"/>
<path d="M143.402 71.1469H134.169C134.054 71.1505 133.939 71.1309 133.831 71.0891C133.723 71.0474 133.625 70.9844 133.542 70.904C133.459 70.8236 133.393 70.7273 133.348 70.6209C133.303 70.5145 133.28 70.4002 133.28 70.2846C133.28 70.1691 133.303 70.0547 133.348 69.9483C133.393 69.8419 133.459 69.7456 133.542 69.6652C133.625 69.5848 133.723 69.5218 133.831 69.4801C133.939 69.4384 134.054 69.4187 134.169 69.4223H143.402C143.626 69.4292 143.839 69.5231 143.995 69.6841C144.151 69.845 144.239 70.0604 144.239 70.2846C144.239 70.5088 144.151 70.7242 143.995 70.8851C143.839 71.0461 143.626 71.14 143.402 71.1469ZM134.169 69.5876C134.076 69.5843 133.983 69.6 133.895 69.6336C133.808 69.6671 133.728 69.718 133.661 69.783C133.593 69.8481 133.54 69.926 133.503 70.0122C133.466 70.0983 133.448 70.191 133.448 70.2846C133.448 70.3782 133.466 70.4709 133.503 70.5571C133.54 70.6432 133.593 70.7212 133.661 70.7862C133.728 70.8512 133.808 70.9021 133.895 70.9357C133.983 70.9692 134.076 70.9849 134.169 70.9817H143.402C143.583 70.9754 143.754 70.8993 143.88 70.7692C144.006 70.6392 144.076 70.4654 144.076 70.2846C144.076 70.1038 144.006 69.93 143.88 69.8C143.754 69.67 143.583 69.5938 143.402 69.5876H134.169Z" fill="#292929"/>
<path d="M152.137 56.8236H132.894C132.665 56.8236 132.445 56.7327 132.283 56.5709C132.121 56.4091 132.031 56.1897 132.031 55.9609C132.031 55.7321 132.121 55.5126 132.283 55.3508C132.445 55.189 132.665 55.0981 132.894 55.0981H152.14C152.369 55.0981 152.588 55.189 152.75 55.3508C152.912 55.5126 153.003 55.7321 153.003 55.9609C153.003 56.1897 152.912 56.4091 152.75 56.5709C152.588 56.7327 152.369 56.8236 152.14 56.8236H152.137ZM132.894 55.2634C132.709 55.2634 132.531 55.3369 132.4 55.4677C132.269 55.5985 132.196 55.7759 132.196 55.9609C132.196 56.1458 132.269 56.3232 132.4 56.454C132.531 56.5848 132.709 56.6583 132.894 56.6583H152.14C152.325 56.6583 152.503 56.5848 152.633 56.454C152.764 56.3232 152.838 56.1458 152.838 55.9609C152.838 55.7759 152.764 55.5985 152.633 55.4677C152.503 55.3369 152.325 55.2634 152.14 55.2634H132.894Z" fill="#292929"/>
<path d="M165.255 70.5875H156.022C155.919 70.5875 155.818 70.5673 155.723 70.5281C155.629 70.4889 155.543 70.4315 155.47 70.359C155.398 70.2866 155.34 70.2006 155.301 70.106C155.262 70.0113 155.241 69.9099 155.241 69.8074C155.241 69.6005 155.324 69.4021 155.47 69.2558C155.616 69.1095 155.815 69.0273 156.022 69.0273H165.255C165.462 69.0276 165.66 69.1098 165.806 69.2561C165.952 69.4024 166.034 69.6007 166.034 69.8074C166.034 70.0142 165.952 70.2125 165.806 70.3588C165.66 70.505 165.462 70.5873 165.255 70.5875Z" fill="#00A0DC"/>
<path d="M152.137 75.3071H125.435C125.32 75.3107 125.204 75.291 125.097 75.2493C124.989 75.2075 124.891 75.1446 124.808 75.0642C124.725 74.9837 124.659 74.8875 124.613 74.7811C124.568 74.6747 124.545 74.5603 124.545 74.4448C124.545 74.3292 124.568 74.2149 124.613 74.1084C124.659 74.002 124.725 73.9058 124.808 73.8254C124.891 73.7449 124.989 73.682 125.097 73.6403C125.204 73.5985 125.32 73.5789 125.435 73.5824H152.137C152.252 73.5789 152.367 73.5985 152.475 73.6403C152.583 73.682 152.681 73.7449 152.764 73.8254C152.847 73.9058 152.913 74.002 152.958 74.1084C153.003 74.2149 153.027 74.3292 153.027 74.4448C153.027 74.5603 153.003 74.6747 152.958 74.7811C152.913 74.8875 152.847 74.9837 152.764 75.0642C152.681 75.1446 152.583 75.2075 152.475 75.2493C152.367 75.291 152.252 75.3107 152.137 75.3071ZM125.435 73.7477C125.341 73.7445 125.248 73.7601 125.161 73.7937C125.073 73.8273 124.994 73.8781 124.926 73.9432C124.859 74.0082 124.805 74.0861 124.769 74.1723C124.732 74.2585 124.713 74.3512 124.713 74.4448C124.713 74.5384 124.732 74.631 124.769 74.7172C124.805 74.8034 124.859 74.8813 124.926 74.9464C124.994 75.0114 125.073 75.0622 125.161 75.0958C125.248 75.1294 125.341 75.145 125.435 75.1418H152.137C152.23 75.145 152.324 75.1294 152.411 75.0958C152.498 75.0622 152.578 75.0114 152.646 74.9464C152.713 74.8813 152.766 74.8034 152.803 74.7172C152.84 74.631 152.858 74.5384 152.858 74.4448C152.858 74.3512 152.84 74.2585 152.803 74.1723C152.766 74.0861 152.713 74.0082 152.646 73.9432C152.578 73.8781 152.498 73.8273 152.411 73.7937C152.324 73.7601 152.23 73.7445 152.137 73.7477H125.435Z" fill="#292929"/>
<path d="M165.8 56.8236H156.563C156.334 56.8236 156.115 56.7327 155.953 56.5709C155.791 56.4091 155.7 56.1897 155.7 55.9609C155.7 55.7321 155.791 55.5126 155.953 55.3508C156.115 55.189 156.334 55.0981 156.563 55.0981H165.8C166.029 55.0981 166.249 55.189 166.411 55.3508C166.573 55.5126 166.664 55.7321 166.664 55.9609C166.664 56.1897 166.573 56.4091 166.411 56.5709C166.249 56.7327 166.029 56.8236 165.8 56.8236ZM156.568 55.2634C156.382 55.2634 156.205 55.3369 156.074 55.4677C155.943 55.5985 155.87 55.7759 155.87 55.9609C155.87 56.1458 155.943 56.3232 156.074 56.454C156.205 56.5848 156.382 56.6583 156.568 56.6583H165.8C165.985 56.6583 166.163 56.5848 166.294 56.454C166.425 56.3232 166.498 56.1458 166.498 55.9609C166.498 55.7759 166.425 55.5985 166.294 55.4677C166.163 55.3369 165.985 55.2634 165.8 55.2634H156.568Z" fill="#00A0DC"/>
<path d="M144.68 61.4851H125.435C125.228 61.4851 125.03 61.403 124.883 61.2567C124.737 61.1104 124.655 60.9119 124.655 60.705C124.655 60.4983 124.737 60.3001 124.883 60.154C125.03 60.0079 125.228 59.9258 125.435 59.9258H144.68C144.783 59.9257 144.884 59.9458 144.979 59.9849C145.074 60.024 145.16 60.0814 145.232 60.1537C145.305 60.2261 145.362 60.312 145.402 60.4066C145.441 60.5012 145.461 60.6026 145.461 60.705C145.461 60.8075 145.441 60.909 145.402 61.0037C145.363 61.0984 145.305 61.1844 145.233 61.2569C145.16 61.3294 145.074 61.3868 144.979 61.426C144.885 61.4651 144.783 61.4852 144.68 61.4851Z" fill="#00A0DC"/>
<path d="M158.341 61.5678H149.108C148.993 61.5714 148.878 61.5517 148.77 61.51C148.662 61.4683 148.564 61.4053 148.481 61.3249C148.398 61.2445 148.332 61.1482 148.287 61.0418C148.241 60.9354 148.218 60.821 148.218 60.7055C148.218 60.59 148.241 60.4756 148.287 60.3692C148.332 60.2628 148.398 60.1665 148.481 60.0861C148.564 60.0057 148.662 59.9427 148.77 59.901C148.878 59.8593 148.993 59.8396 149.108 59.8432H158.341C158.565 59.8501 158.778 59.944 158.934 60.105C159.09 60.2659 159.178 60.4813 159.178 60.7055C159.178 60.9297 159.09 61.1451 158.934 61.306C158.778 61.467 158.565 61.5609 158.341 61.5678ZM149.108 60.0085C149.015 60.0052 148.921 60.0209 148.834 60.0545C148.746 60.088 148.667 60.1389 148.599 60.2039C148.532 60.269 148.478 60.3469 148.442 60.4331C148.405 60.5192 148.386 60.6119 148.386 60.7055C148.386 60.7991 148.405 60.8918 148.442 60.9779C148.478 61.0641 148.532 61.142 148.599 61.2071C148.667 61.2721 148.746 61.323 148.834 61.3565C148.921 61.3901 149.015 61.4058 149.108 61.4025H158.341C158.522 61.3963 158.693 61.3202 158.819 61.1901C158.945 61.0601 159.015 60.8863 159.015 60.7055C159.015 60.5247 158.945 60.3509 158.819 60.2209C158.693 60.0908 158.522 60.0147 158.341 60.0085H149.108Z" fill="#00A0DC"/>
<path d="M170.651 61.5678H161.418C161.303 61.5714 161.188 61.5517 161.08 61.51C160.972 61.4683 160.874 61.4053 160.791 61.3249C160.708 61.2445 160.642 61.1482 160.597 61.0418C160.552 60.9354 160.528 60.821 160.528 60.7055C160.528 60.59 160.552 60.4756 160.597 60.3692C160.642 60.2628 160.708 60.1665 160.791 60.0861C160.874 60.0057 160.972 59.9427 161.08 59.901C161.188 59.8593 161.303 59.8396 161.418 59.8432H170.651C170.767 59.8396 170.882 59.8593 170.99 59.901C171.097 59.9427 171.196 60.0057 171.279 60.0861C171.362 60.1665 171.428 60.2628 171.473 60.3692C171.518 60.4756 171.541 60.59 171.541 60.7055C171.541 60.821 171.518 60.9354 171.473 61.0418C171.428 61.1482 171.362 61.2445 171.279 61.3249C171.196 61.4053 171.097 61.4683 170.99 61.51C170.882 61.5517 170.767 61.5714 170.651 61.5678ZM161.418 60.0085C161.325 60.0052 161.231 60.0209 161.144 60.0545C161.056 60.088 160.977 60.1389 160.909 60.2039C160.842 60.269 160.788 60.3469 160.752 60.4331C160.715 60.5192 160.696 60.6119 160.696 60.7055C160.696 60.7991 160.715 60.8918 160.752 60.9779C160.788 61.0641 160.842 61.142 160.909 61.2071C160.977 61.2721 161.056 61.323 161.144 61.3565C161.231 61.3901 161.325 61.4058 161.418 61.4025H170.651C170.745 61.4058 170.838 61.3901 170.925 61.3565C171.013 61.323 171.093 61.2721 171.16 61.2071C171.227 61.142 171.281 61.0641 171.318 60.9779C171.354 60.8918 171.373 60.7991 171.373 60.7055C171.373 60.6119 171.354 60.5192 171.318 60.4331C171.281 60.3469 171.227 60.269 171.16 60.2039C171.093 60.1389 171.013 60.088 170.925 60.0545C170.838 60.0209 170.745 60.0052 170.651 60.0085H161.418Z" fill="#00A0DC"/>
<path d="M163.499 193.814H0V194.024H163.499V193.814Z" fill="#292929"/>
<path d="M54.3137 67.4816C54.5122 67.2568 60.7173 57.6775 61.3242 56.9197C61.931 56.162 67.2093 64.6876 67.2093 64.6876C67.2093 64.6876 62.4238 73.624 61.8575 73.4637C61.2911 73.3034 54.3137 67.4816 54.3137 67.4816Z" fill="#F9F9F9"/>
<path d="M61.8823 73.5515C61.8663 73.5512 61.8504 73.5484 61.8352 73.5432C61.2564 73.3779 54.5461 67.7826 54.2609 67.5446L54.1956 67.4901L54.2518 67.4264C54.3287 67.3388 55.4663 65.6035 56.671 63.7664C58.5536 60.8948 60.8959 57.3207 61.2597 56.8679C61.2807 56.8399 61.3083 56.8177 61.3401 56.8033C61.3719 56.7888 61.4068 56.7826 61.4416 56.7853C62.4264 56.8448 66.7861 63.8425 67.2797 64.6399L67.3045 64.6804L67.2822 64.7225C67.2706 64.7449 66.0709 66.9835 64.8175 69.1725C62.5099 73.2102 62.0502 73.5515 61.8823 73.5515ZM54.4304 67.4669C56.4147 69.1197 61.4383 73.2573 61.8848 73.3829C61.9675 73.373 62.4305 73.0284 64.7274 69.0031C65.8667 67.0091 66.9498 64.9994 67.1185 64.6862C65.1945 61.5823 62.113 56.9902 61.4359 56.9497C61.4279 56.9481 61.4196 56.9488 61.412 56.9517C61.4043 56.9547 61.3977 56.9597 61.3929 56.9662C61.0349 57.4141 58.6942 60.984 56.8132 63.8524C55.4663 65.9059 54.642 67.1612 54.4304 67.4669Z" fill="#292929"/>
<path d="M75.727 62.0587C75.3417 61.067 75.03 59.8374 74.944 59.2804C75.0631 58.6193 75.1797 57.8971 75.2987 57.1046C76.0875 51.858 74.9936 49.9978 69.8948 48.5211C69.8121 48.4971 69.7294 48.474 69.6467 48.4517C62.8322 46.6403 61.4854 54.8544 61.2729 57.5657C61.0604 60.277 64.1419 66.0219 66.3627 67.4483C68.5347 68.8432 70.7629 69.0721 72.2668 66.6963C72.8971 65.7208 73.4236 64.6822 73.8378 63.5974C74.1128 63.5012 74.3827 63.3909 74.6464 63.2668C75.3483 62.9421 75.9428 62.6157 75.727 62.0587Z" fill="#F9F9F9"/>
<path d="M74.0255 59.1634C73.9081 59.4841 73.6435 59.6816 73.4351 59.6055C73.2268 59.5295 73.1524 59.2072 73.2698 58.8866C73.3872 58.566 73.6509 58.3685 73.8601 58.4445C74.0693 58.5205 74.1421 58.8428 74.0255 59.1634Z" fill="#292929"/>
<path d="M72.9207 57.2641L72.8794 57.1046C72.9166 57.0947 73.8162 56.8674 75.3069 57.0219L75.2895 57.1872C73.8319 57.036 72.9298 57.2616 72.9207 57.2641Z" fill="#292929"/>
<path d="M72.3719 64.8887C70.6919 63.8144 70.3306 62.8112 70.3157 62.769L70.4719 62.7153C70.4719 62.7252 70.8349 63.707 72.4612 64.749L72.3719 64.8887Z" fill="#292929"/>
<path d="M77.0102 51.911C78.9234 51.4384 80.7118 48.5345 80.4149 47.6073C79.1111 47.4891 75.6377 47.2115 73.3499 47.0288C72.2676 46.9462 71.0415 46.8437 70.2792 46.0703C68.2825 44.0448 66.6255 46.4058 66.6255 46.4058C64.604 44.0812 61.735 49.2873 61.735 49.2873C60.9032 49.003 60.3592 47.5776 59.5026 50.6277C59.4134 50.9425 59.3141 51.3136 59.2058 51.7235C58.3294 55.0785 57.978 60.8135 57.978 60.8135C60.0525 62.3555 64.1096 59.6996 64.1096 59.6996C68.2825 59.4517 69.631 53.106 69.631 53.106C69.631 53.106 69.9038 53.6638 74.7216 55.3206C77.2376 56.1859 78.7729 54.9612 79.5121 53.6679C79.8321 53.1085 80.238 51.0756 80.2694 50.6566L79.971 50.8872C79.1223 51.5425 78.0826 51.9026 77.0102 51.9127V51.911Z" fill="#292929"/>
<path d="M68.7628 57.2694C68.7628 57.2694 67.764 54.6465 65.5457 55.5448C62.4304 56.8067 63.8467 60.7633 65.7888 61.1641C67.731 61.5649 68.7628 57.2694 68.7628 57.2694Z" fill="#F9F9F9"/>
<path d="M64.6297 58.4735L64.4644 58.4661C64.5082 57.5248 64.786 56.8662 65.2912 56.5109C65.9055 56.0762 66.676 56.2158 67.0804 56.3373C67.7418 56.5373 68.0171 57.2174 68.0287 57.2463L67.8749 57.3067C67.8749 57.3 67.6178 56.672 67.0324 56.4952C66.657 56.3828 65.9443 56.2472 65.3871 56.6456C64.9249 56.972 64.6711 57.586 64.6297 58.4735Z" fill="#292929"/>
<path d="M64.7836 57.3814L64.6694 57.501L66.1107 58.8761L66.2249 58.7566L64.7836 57.3814Z" fill="#292929"/>
<path d="M69.2681 68.511C67.4045 68.511 65.4128 67.0764 63.6533 64.4618L63.7906 64.3692C65.5177 66.931 67.4616 68.3432 69.2681 68.3432H69.3169C70.4744 68.3267 71.522 67.7094 72.1933 66.65C72.8211 65.6791 73.3459 64.6456 73.7593 63.566L73.7734 63.5288L73.8106 63.5164C74.0829 63.4201 74.35 63.3098 74.6109 63.1858C75.4179 62.8148 75.823 62.5289 75.6502 62.0826C75.2839 61.1348 74.9557 59.8936 74.8631 59.287V59.273V59.2598C74.9764 58.6292 75.0921 57.9186 75.217 57.0864C75.6304 54.3354 75.4865 52.6455 74.7349 51.4373C73.9718 50.211 72.5174 49.3607 69.8725 48.5955C69.7898 48.5715 69.7072 48.5475 69.6245 48.5252L69.6675 48.3657C69.7501 48.3889 69.8378 48.412 69.9213 48.436C75.0119 49.9102 76.186 51.7753 75.384 57.1129C75.2591 57.9392 75.1442 58.6482 75.0318 59.2771C75.126 59.8795 75.4452 61.0951 75.8081 62.0248C76.0686 62.6999 75.2682 63.0685 74.6837 63.3379C74.4687 63.4362 74.1636 63.5701 73.9032 63.6593C73.4862 64.7361 72.9598 65.7673 72.3322 66.7367C71.6303 67.8441 70.5323 68.4895 69.3186 68.5068L69.2681 68.511Z" fill="#292929"/>
<path d="M78.845 116.388H109.933V114.396L78.8284 115.377C78.697 115.381 78.5724 115.436 78.481 115.53C78.3895 115.625 78.3383 115.751 78.3381 115.882C78.3381 115.949 78.3512 116.015 78.3767 116.076C78.4022 116.137 78.4396 116.193 78.4866 116.24C78.5337 116.287 78.5896 116.324 78.6511 116.35C78.7126 116.375 78.7784 116.388 78.845 116.388Z" fill="#292929"/>
<path d="M108.007 116.119L117.471 88.9685C117.518 88.8355 117.604 88.7203 117.719 88.6387C117.834 88.5571 117.971 88.5132 118.112 88.5132C118.219 88.5132 118.324 88.5384 118.419 88.5868C118.514 88.6351 118.597 88.7052 118.66 88.7913C118.723 88.8775 118.765 88.9772 118.782 89.0825C118.799 89.1879 118.791 89.2957 118.759 89.3974L110.171 116.388L108.007 116.119Z" fill="#292929"/>
<path d="M92.6235 115.231L92.6417 114.791C92.6482 114.647 92.7089 114.51 92.8116 114.407C92.9143 114.305 93.0517 114.245 93.1965 114.239L94.7989 114.182C94.8751 114.18 94.9512 114.193 95.0225 114.22C95.0939 114.247 95.1592 114.288 95.2147 114.34C95.2701 114.392 95.3147 114.455 95.3458 114.525C95.3769 114.595 95.3939 114.67 95.3958 114.746L95.4008 114.994L92.6235 115.231Z" fill="#292929"/>
<path d="M96.8782 115.083L96.8964 114.643C96.9029 114.499 96.9635 114.362 97.0662 114.26C97.169 114.157 97.3063 114.097 97.4512 114.091L99.0535 114.034C99.1297 114.032 99.2056 114.045 99.2769 114.072C99.3482 114.099 99.4133 114.14 99.4687 114.192C99.5241 114.245 99.5686 114.308 99.5997 114.377C99.6307 114.447 99.6477 114.522 99.6496 114.598L99.6546 114.846L96.8782 115.083Z" fill="#292929"/>
<path d="M101.19 114.93L101.207 114.489C101.214 114.344 101.275 114.207 101.377 114.105C101.48 114.003 101.618 113.943 101.763 113.937L103.365 113.88C103.441 113.878 103.517 113.891 103.589 113.918C103.66 113.945 103.725 113.986 103.781 114.038C103.836 114.09 103.88 114.153 103.911 114.223C103.942 114.293 103.959 114.368 103.961 114.444L103.966 114.692L101.19 114.93Z" fill="#292929"/>
<path d="M105.231 114.786L105.249 114.345C105.255 114.2 105.316 114.063 105.419 113.961C105.522 113.859 105.659 113.799 105.804 113.793L107.407 113.736C107.483 113.734 107.559 113.747 107.63 113.774C107.701 113.801 107.767 113.842 107.822 113.894C107.877 113.946 107.922 114.009 107.953 114.079C107.984 114.148 108.001 114.224 108.003 114.3L108.008 114.548L105.231 114.786Z" fill="#292929"/>
<path d="M54.699 66.2837L63.6541 70.994C63.6541 70.994 63.8699 71.1047 64.7372 73.2682C67.4722 80.094 68.7885 91.5533 68.4197 94.5414C68.0989 97.1635 69.5979 111.038 69.5979 111.038L69.7757 117.872C59.6366 124.409 46.9742 121.615 34.5672 120.147L32.845 119.943C32.845 119.943 41.3255 88.3916 43.1858 83.3177C45.0461 78.2437 51.1884 66.4878 54.699 66.2837Z" fill="#292929"/>
<path d="M54.8593 65.145C55.1413 65.0871 63.654 70.9973 63.654 70.9973L63.6796 74.7647C63.6796 74.7647 58.2269 68.1405 52.0002 68.2521C52.0002 68.2521 52.24 65.6829 54.8593 65.145Z" fill="#292929"/>
<path d="M63.7641 74.9975L63.6161 74.8181C62.5658 73.6069 61.3951 72.5055 60.122 71.5308C58.1791 70.0434 55.1943 68.2807 52.0012 68.3353H51.9094L51.9177 68.2427C51.9177 68.2171 52.1947 65.6074 54.8429 65.0628C54.9165 65.048 55.0537 65.0207 59.4093 67.9799C61.5483 69.4335 63.6798 70.9135 63.7013 70.9284L63.7368 70.9532L63.7641 74.9975ZM52.1525 68.1683C55.3349 68.1683 58.2923 69.9194 60.2254 71.4019C61.445 72.3404 62.5734 73.3918 63.5954 74.5421L63.5715 71.0433C60.2576 68.7427 55.2505 65.3289 54.8652 65.2306C52.6254 65.6967 52.1699 67.7147 52.0955 68.17L52.1525 68.1683Z" fill="#F9F9F9"/>
<path d="M93.1717 113.826C92.1324 112.397 90.3176 109.223 88.1439 109.734C86.444 110.134 82.0058 110.946 79.4501 111.404L79.4576 111.356L56.0434 99.0435L46.488 109.523C46.488 109.523 71.044 117.414 76.6233 119.192C77.6485 119.763 78.8648 120.189 80.0272 119.98C82.4175 119.549 84.6954 117.728 84.8698 117.704C86.1621 117.527 88.3424 118.49 89.0328 118.621C89.452 118.689 90.0158 118.939 90.2143 118.012C90.2189 117.904 90.1885 117.798 90.1274 117.709C90.2269 117.765 90.3392 117.794 90.4532 117.792C90.97 117.823 91.6984 117.394 90.8666 116.379C91.4073 116.818 91.9414 117.103 92.3548 116.797C92.6285 116.595 92.8104 116.086 92.3879 115.335C92.4298 115.349 92.474 115.353 92.5177 115.349C92.946 115.277 93.266 115.183 93.3528 114.914C93.4097 114.731 93.423 114.537 93.3915 114.349C93.3601 114.16 93.2848 113.981 93.1717 113.826Z" fill="#F9F9F9"/>
<path d="M79.4045 120.112C78.5495 120.112 77.6062 119.827 76.5933 119.263C71.0653 117.499 46.7119 109.677 46.4664 109.594L46.344 109.555L46.4267 109.46L56.0242 98.9316L56.0804 98.9614L79.5359 111.299C82.0676 110.845 86.4455 110.044 88.1239 109.646C90.0743 109.186 91.7164 111.572 92.8028 113.15C92.9582 113.376 93.1054 113.589 93.2377 113.771C93.3577 113.935 93.4377 114.125 93.4715 114.326C93.5052 114.527 93.4916 114.733 93.432 114.928C93.327 115.258 92.9458 115.349 92.5316 115.419C92.8854 116.142 92.6928 116.64 92.4042 116.853C92.0338 117.127 91.5849 116.963 91.1979 116.714C91.3765 117.064 91.3393 117.309 91.2599 117.465C91.1103 117.76 90.7399 117.879 90.4555 117.864C90.3965 117.868 90.3372 117.861 90.281 117.843C90.2964 117.897 90.3012 117.953 90.2951 118.008C90.1024 118.91 89.5658 118.8 89.1748 118.719C89.121 118.708 89.0689 118.698 89.0185 118.689C88.7059 118.614 88.3975 118.522 88.095 118.413C87.1185 118.091 85.7799 117.649 84.8795 117.772C84.8481 117.783 84.6861 117.889 84.5149 118.002C83.7394 118.513 81.9221 119.709 80.0411 120.048C79.8312 120.088 79.6182 120.11 79.4045 120.112ZM46.6359 109.479C48.5226 110.085 71.3382 117.413 76.6487 119.107L76.6644 119.114C77.9046 119.807 79.0357 120.07 80.013 119.893C81.8609 119.563 83.6583 118.378 84.4256 117.872C84.7175 117.68 84.8043 117.624 84.8589 117.617C85.7989 117.489 87.1574 117.937 88.1487 118.265C88.4438 118.371 88.7444 118.461 89.0491 118.535C89.0987 118.543 89.1533 118.554 89.2095 118.565C89.6039 118.648 89.9768 118.723 90.1339 117.987C90.1341 117.898 90.1073 117.812 90.0569 117.739L89.9263 117.515L90.1628 117.622C90.3364 117.705 90.4108 117.705 90.4398 117.7H90.458C90.6919 117.714 90.9962 117.624 91.1136 117.393C91.231 117.161 91.1285 116.814 90.8036 116.423L90.3075 115.814L90.9226 116.309C91.5667 116.832 91.9974 116.961 92.3108 116.723C92.5588 116.537 92.7168 116.07 92.3216 115.367L92.2248 115.195L92.415 115.247C92.4454 115.257 92.4774 115.261 92.5093 115.258C92.9441 115.185 93.2096 115.1 93.279 114.881C93.3316 114.71 93.3436 114.53 93.314 114.354C93.2845 114.178 93.2142 114.011 93.1087 113.867C92.9747 113.684 92.8276 113.47 92.6721 113.244C91.6105 111.702 90.0074 109.374 88.1669 109.807C86.462 110.208 81.9857 111.026 79.4689 111.478L79.3557 111.498L79.3714 111.394L56.0647 99.1349L46.6359 109.479Z" fill="#292929"/>
<path d="M92.3234 115.383C92.3003 115.351 89.9827 112.248 89.2585 111.848C88.4159 111.382 85.1972 111.78 85.165 111.784L85.1443 111.619C85.2791 111.601 88.4515 111.205 89.3386 111.701C90.0935 112.114 92.3598 115.153 92.4557 115.282L92.3234 115.383Z" fill="#292929"/>
<path d="M90.8096 116.436C90.7848 116.412 88.3143 114.039 87.5851 113.632C86.745 113.167 84.4639 113.625 84.4432 113.632L84.4102 113.467C84.5061 113.447 86.774 112.992 87.6669 113.486C88.416 113.9 90.8261 116.213 90.9278 116.316L90.8096 116.436Z" fill="#292929"/>
<path d="M90.1482 117.904C90.1159 117.883 86.9096 115.838 86.1729 115.425C85.3345 114.962 83.1964 115.495 83.1716 115.5L83.1311 115.339C83.2221 115.317 85.3577 114.786 86.2531 115.28C86.9972 115.693 90.2044 117.741 90.2366 117.759L90.1482 117.904Z" fill="#292929"/>
<path d="M49.1843 95.3569L61.3804 101.846L56.8438 114.267L42.7319 107.981L49.1843 95.3569Z" fill="#292929"/>
<path d="M53.7671 113.731L59.8705 115.919L64.5643 102.593L59.0346 100.134L53.7671 113.731Z" fill="#292929"/>
<path d="M56.9347 113.679C56.8348 113.678 56.7354 113.662 56.6404 113.631C56.5215 113.593 56.4114 113.532 56.3163 113.451C56.2212 113.37 56.143 113.271 56.0862 113.159C56.0294 113.048 55.9951 112.927 55.9852 112.802C55.9753 112.678 55.99 112.553 56.0286 112.434C56.1066 112.194 56.2766 111.995 56.5014 111.88C56.7262 111.766 56.9873 111.745 57.2274 111.823C57.443 111.892 57.6266 112.037 57.7452 112.23C57.8637 112.423 57.9095 112.652 57.8742 112.876C57.8389 113.099 57.7249 113.303 57.5527 113.45C57.3805 113.597 57.1613 113.678 56.9347 113.679ZM56.9347 111.943C56.8001 111.943 56.6677 111.978 56.5503 112.043C56.4328 112.109 56.3341 112.204 56.2638 112.318C56.1934 112.433 56.1537 112.564 56.1484 112.698C56.1431 112.833 56.1725 112.966 56.2336 113.086C56.2924 113.201 56.3787 113.3 56.4848 113.374C56.591 113.448 56.7137 113.494 56.8421 113.509C56.9705 113.524 57.1007 113.508 57.2211 113.46C57.3415 113.413 57.4484 113.337 57.5323 113.239C57.6162 113.14 57.6745 113.023 57.7021 112.897C57.7297 112.77 57.7258 112.639 57.6905 112.515C57.6553 112.39 57.5899 112.277 57.5002 112.184C57.4105 112.091 57.2992 112.021 57.1761 111.981C57.0982 111.956 57.0168 111.942 56.9347 111.942V111.943Z" fill="#F9F9F9"/>
<path d="M59.8451 115.997L57.077 115.099L53.6606 113.778L58.9894 100.023L61.3623 101.078L58.3908 108.508L58.237 108.447L61.1498 101.165L59.0803 100.245L53.8748 113.683L57.1324 114.944L59.8964 115.84L59.8451 115.997Z" fill="#F9F9F9"/>
<path d="M47.2719 75.0378L38.9476 99.2579C38.3668 101.001 38.4877 102.901 39.2847 104.556C40.0817 106.211 41.4922 107.491 43.2172 108.125C44.1063 108.451 45.0519 108.595 45.9978 108.549C46.9437 108.503 47.8707 108.267 48.7238 107.856C49.5768 107.445 50.3386 106.867 50.9638 106.156C51.589 105.445 52.0649 104.615 52.3633 103.717L60.647 79.4845C61.1989 77.8208 61.1105 76.0112 60.3989 74.4091C59.6874 72.8071 58.4039 71.5277 56.7991 70.8209C55.9016 70.4257 54.9315 70.2222 53.9508 70.2231C52.9701 70.2241 52.0004 70.4296 51.1037 70.8265C50.207 71.2234 49.4031 71.803 48.7433 72.5281C48.0835 73.2533 47.5823 74.1081 47.2719 75.0378Z" fill="#292929"/>
<path d="M50.4996 99.1191L50.46 98.9588L54.2575 98.0208L59.5779 82.3628L59.735 82.4157L54.3848 98.1597L50.4996 99.1191Z" fill="#F9F9F9"/>
<path d="M53.7225 113.175L43.5528 108.515C41.5892 107.606 40.0968 106.336 39.2369 104.851C38.3175 103.263 38.1621 101.462 38.7781 99.6535L46.3201 77.5654L46.4764 77.6183L38.9343 99.7064C37.7561 103.157 39.5519 106.475 43.6223 108.365L53.7919 113.025L53.7225 113.175Z" fill="#F9F9F9"/>
<path d="M54.3638 98.027L54.2861 98.1729L58.8511 100.602L58.9288 100.456L54.3638 98.027Z" fill="#F9F9F9"/>
<path opacity="0.3" d="M129.199 108.248C142.939 108.705 166.292 107.741 179.34 90.9997C194.875 71.0691 190.736 43.4945 170.806 27.9603C150.875 12.4261 122.503 15.9433 107.59 35.0766C99.5126 45.4405 96.8396 58.7354 99.0436 70.7055M129.199 108.248L140.567 101.527M129.199 108.248L136.975 116.88" stroke="#51BAE8" stroke-width="0.836313" stroke-linecap="round"/>
</svg>
