<svg width="178" height="172" viewBox="0 0 178 172" fill="none" xmlns="http://www.w3.org/2000/svg">
<circle cx="93.26" cy="84.0051" r="81.9048" transform="rotate(1.41358 93.26 84.0051)" stroke="#00A0DC" stroke-width="0.206412" stroke-dasharray="0.83 0.83"/>
<circle cx="126.725" cy="23.4668" r="1.93546" transform="rotate(1.41358 126.725 23.4668)" stroke="#00A0DC" stroke-width="0.140663" stroke-dasharray="0.56 0.56"/>
<path opacity="0.2" d="M93.9955 169.483C139.287 169.483 176.004 132.767 176.004 87.4748C176.004 42.183 139.287 5.4668 93.9955 5.4668C48.7038 5.4668 11.9875 42.183 11.9875 87.4748C11.9875 132.767 48.7038 169.483 93.9955 169.483Z" fill="#51BAE8"/>
<path d="M138.48 141.91C138.48 141.91 124.062 81.1335 115.415 67.7507C106.612 54.1271 72.2479 50.2179 54.765 69.8467C43.5767 82.4084 37.9766 149.919 37.9766 149.919L138.48 141.91Z" fill="#00A0DC"/>
<path d="M87.3209 52.1001C87.3209 52.1001 98.9663 53.5542 99.3487 58.0749C99.731 62.5956 74.0352 75.1162 74.0352 75.1162L87.3209 52.1001Z" fill="#00A0DC"/>
<path d="M171.823 65.7552C171.129 64.8773 169.793 65.6546 168.584 66.7484C168.485 66.2642 168.212 65.9075 167.795 65.8081C166.748 65.559 160.488 70.2753 160.488 70.2753C160.488 70.2753 156.3 70.6148 155.021 69.6382C153.742 68.6615 156.52 68.1786 158.675 66.3152C160.829 64.4518 160.389 62.7189 159.628 62.4673C158.866 62.2156 152.125 66.909 150.347 67.4709C149.575 67.7149 148.256 69.3394 147.011 71.1022L136.618 80.4162L132.91 84.4521C132.91 84.4521 132.565 86.0772 132.225 88.2223C132.176 88.5325 132.127 88.853 132.08 89.1817C131.481 93.3036 131.07 98.6104 132.931 98.5148C133.682 98.476 135.867 97.2044 138.341 95.5913C141.307 93.6559 150.703 82.0369 152.524 80.6474L152.636 80.5621C152.671 80.5347 152.705 80.506 152.739 80.478C155.914 79.7186 159.75 78.5884 159.75 78.5884L160.086 74.8138C161.285 74.0448 163.81 72.405 165.671 71.0512C164.859 73.1536 164.232 75.5324 164.232 75.5324C164.232 75.5324 166.748 74.4048 168.798 71.0213C170.263 68.6036 172.114 66.126 171.823 65.7552Z" fill="#F9F9F9"/>
<path d="M132.676 98.5161C132.531 98.5169 132.388 98.4864 132.256 98.4269C132.125 98.3673 132.008 98.2801 131.914 98.1712C131.026 97.2068 130.957 94.148 131.708 89.0814C131.756 88.758 131.806 88.4371 131.856 88.1277C132.196 86.0213 132.547 84.4013 132.55 84.3823C132.556 84.3546 132.569 84.3289 132.589 84.3078L136.337 80.3067L136.348 80.2959L146.841 71.0747C148.429 68.8749 149.588 67.6496 150.286 67.4336C151.094 67.181 152.995 66.0523 154.834 64.959C157.856 63.1628 159.328 62.331 159.766 62.4731C160.117 62.5874 160.382 62.9278 160.473 63.3845C160.565 63.8411 160.595 65.0841 158.857 66.5582C158.004 67.282 157.058 67.7974 156.298 68.2111C155.554 68.6166 154.912 68.969 154.895 69.2463C154.887 69.3486 154.976 69.4705 155.158 69.6063C156.318 70.4741 160.075 70.2379 160.531 70.2082C160.782 70.0244 162.243 68.9557 163.796 67.9243C167.282 65.6102 167.832 65.7378 168.012 65.7769C168.404 65.8685 168.703 66.1559 168.857 66.5784C169.878 65.7087 170.723 65.2957 171.367 65.3487C171.524 65.36 171.677 65.4043 171.816 65.4785C171.955 65.5528 172.076 65.6553 172.171 65.7795C172.427 66.0952 171.951 66.8671 170.536 69.0006C170.09 69.6745 169.583 70.4381 169.125 71.1796C167.051 74.5371 164.543 75.6639 164.437 75.7137C164.41 75.7258 164.379 75.73 164.35 75.7257C164.32 75.7214 164.292 75.7089 164.269 75.6895C164.246 75.6701 164.229 75.6448 164.22 75.6163C164.211 75.5879 164.211 75.5575 164.219 75.5287C164.224 75.5066 164.768 73.4912 165.495 71.5579C163.734 72.7907 161.565 74.1752 160.336 74.9483L160.004 78.6115C160.001 78.6431 159.988 78.6732 159.968 78.6977C159.948 78.7223 159.92 78.7402 159.89 78.7492C159.851 78.7599 155.998 79.8709 152.83 80.6168L152.82 80.6244C152.797 80.6433 152.774 80.6616 152.749 80.6799L152.637 80.7646C151.899 81.3166 149.886 83.5518 147.556 86.14C144.054 90.0294 140.085 94.4379 138.289 95.5868C135.312 97.491 133.445 98.4744 132.739 98.5104L132.676 98.5161ZM132.853 84.4903C132.795 84.7588 132.479 86.2683 132.171 88.1776C132.121 88.4858 132.072 88.8054 132.024 89.1249C131.308 93.9541 131.353 97.0906 132.152 97.9571C132.221 98.0385 132.309 98.1026 132.408 98.1442C132.507 98.1859 132.614 98.204 132.721 98.1971C133.085 98.1788 134.27 97.7809 138.111 95.324C139.871 94.1985 143.998 89.6151 147.314 85.9329C149.655 83.332 151.677 81.0854 152.439 80.5151L152.552 80.4305C152.573 80.4147 152.594 80.3983 152.616 80.3818L152.656 80.3503C152.674 80.3357 152.696 80.3253 152.719 80.3199C155.597 79.6448 159.054 78.662 159.694 78.4782L160.024 74.8434C160.026 74.8193 160.034 74.796 160.047 74.7754C160.059 74.7548 160.077 74.7374 160.098 74.7247C161.41 73.8998 163.888 72.3189 165.736 70.9983C165.764 70.9783 165.798 70.9679 165.833 70.9685C165.867 70.9691 165.9 70.9807 165.927 71.0016C165.955 71.0225 165.974 71.0516 165.983 71.0844C165.993 71.1173 165.991 71.1522 165.978 71.184C165.354 72.763 164.834 74.5264 164.626 75.2603C165.364 74.844 167.259 73.596 168.854 71.0147C169.314 70.2694 169.822 69.5033 170.271 68.8269C171.036 67.6717 171.989 66.2374 171.919 65.9696C171.851 65.881 171.764 65.8078 171.665 65.7548C171.566 65.7018 171.457 65.6701 171.345 65.662C170.76 65.614 169.909 66.0687 168.883 66.9788C168.862 66.9974 168.837 67.0102 168.809 67.0159C168.782 67.0216 168.753 67.02 168.727 67.0113C168.7 67.0026 168.676 66.9871 168.657 66.9663C168.639 66.9455 168.626 66.9202 168.62 66.8929C168.528 66.4508 168.288 66.1635 167.943 66.0833C167.225 65.9165 163.112 68.6936 160.689 70.4848C160.665 70.5026 160.636 70.5131 160.606 70.5151C160.431 70.5296 156.296 70.8454 154.97 69.8538C154.692 69.6461 154.565 69.4383 154.581 69.2191C154.614 68.7681 155.225 68.4353 156.151 67.93C156.898 67.5233 157.828 67.0167 158.656 66.3138C160.311 64.9098 160.231 63.7603 160.167 63.4413C160.099 63.1034 159.912 62.8457 159.673 62.7687C159.622 62.7541 159.354 62.7592 158.06 63.4571C157.191 63.9257 156.082 64.5864 155.006 65.2255C153.065 66.3788 151.232 67.4683 150.389 67.7304C149.956 67.8643 149.033 68.5875 147.099 71.2673C147.092 71.2769 147.084 71.2858 147.075 71.2939L136.575 80.5227L132.853 84.4903Z" fill="#292929"/>
<path d="M159.962 76.2673C159.962 76.2673 164.539 75.781 165.172 75.0272C165.806 74.2734 169.384 67.4113 169.158 66.8684C168.933 66.3256 166.885 66.942 165.827 68.6776C164.385 71.0368 161.793 72.8964 161.793 72.8964L159.962 76.2673Z" fill="#F9F9F9"/>
<path d="M159.997 76.6507L159.962 76.3325C161.816 76.1314 164.734 75.6325 165.178 75.0923C165.478 74.727 166.516 72.8167 167.493 70.8338C168.746 68.2884 169.265 66.9311 169.225 66.7078C169.193 66.6378 169.075 66.6187 169.006 66.6136C168.343 66.5633 166.932 67.2499 166.112 68.6264C164.639 71.0954 161.974 73.0706 161.947 73.0903L161.754 72.8358C161.779 72.8161 164.394 70.8784 165.833 68.466C166.73 66.9617 168.265 66.2388 169.03 66.2967C169.367 66.3221 169.486 66.4939 169.526 66.5938C169.567 66.6938 169.631 66.8535 169.078 68.1764C168.776 68.8955 168.339 69.8405 167.814 70.9089C166.925 72.7187 165.789 74.8543 165.426 75.2934C164.76 76.1124 160.483 76.5979 159.997 76.6507Z" fill="#292929"/>
<path d="M150.372 75.1621C150.372 75.1621 153.384 73.1162 158.237 75.0408C158.237 75.0408 162.144 69.1908 163.214 68.714C164.283 68.2372 164.854 69.2683 164.418 70.5149C163.981 71.7615 160.331 78.1115 159.793 78.5689L150.372 75.1621Z" fill="#F9F9F9"/>
<path d="M159.821 78.5687L159.619 78.3287C160.133 77.8803 163.708 71.4687 164.119 70.2574C164.343 69.6007 164.285 68.9673 163.977 68.6787C163.776 68.4892 163.488 68.4747 163.146 68.6313C162.318 69.0102 159.382 73.3348 158.321 74.9685L158.251 75.0758L158.134 75.0278C155.715 74.0408 153.78 74.1223 152.584 74.3641C151.288 74.6268 150.554 75.1289 150.547 75.1339L150.372 74.8737C150.403 74.8516 151.153 74.3351 152.506 74.0585C153.726 73.8059 155.687 73.7181 158.132 74.69C158.674 73.8614 162.007 68.8094 163.019 68.3459C163.476 68.1362 163.891 68.1728 164.186 68.4482C164.591 68.8271 164.68 69.5754 164.413 70.361C163.977 71.6442 160.372 78.0875 159.821 78.5687Z" fill="#292929"/>
<path d="M137.822 75.8838L151.139 83.1357L124.086 138.027L104.723 114.934L137.822 75.8838Z" fill="#00A0DC"/>
<path d="M149.446 87.0077C149.424 87.0072 149.402 87.0022 149.382 86.9931L134.346 80.0322C134.311 80.0128 134.283 79.9799 134.27 79.9402C134.256 79.9006 134.258 79.8571 134.274 79.8186C134.29 79.7801 134.32 79.7494 134.357 79.7328C134.394 79.7161 134.436 79.7148 134.474 79.729L149.509 86.6899C149.543 86.7052 149.57 86.732 149.587 86.7658C149.604 86.7996 149.609 86.8384 149.601 86.8757C149.594 86.913 149.574 86.9464 149.546 86.9705C149.518 86.9945 149.482 87.0076 149.446 87.0077Z" fill="#292929"/>
<path d="M112.936 105.805C112.899 105.804 112.863 105.791 112.834 105.767C112.803 105.74 112.783 105.701 112.78 105.658C112.776 105.616 112.789 105.574 112.816 105.542L125.925 89.7549C125.938 89.738 125.954 89.7239 125.973 89.7134C125.991 89.703 126.011 89.6965 126.032 89.6942C126.053 89.692 126.074 89.6941 126.095 89.7004C126.115 89.7067 126.133 89.717 126.15 89.7309C126.166 89.7447 126.179 89.7617 126.188 89.7808C126.198 89.8 126.203 89.8209 126.205 89.8423C126.206 89.8637 126.203 89.8852 126.196 89.9054C126.189 89.9257 126.178 89.9443 126.164 89.9601L113.055 105.75C113.04 105.768 113.022 105.782 113.001 105.791C112.981 105.8 112.958 105.805 112.936 105.805Z" fill="#292929"/>
<path d="M62.3004 139.177C62.291 139.178 62.2815 139.178 62.2721 139.177C62.2311 139.169 62.1948 139.145 62.1712 139.111C62.1476 139.076 62.1386 139.034 62.1462 138.993L72.956 79.4641C72.9637 79.4231 72.9872 79.3869 73.0214 79.3633C73.0556 79.3396 73.0978 79.3306 73.1386 79.338C73.1795 79.3454 73.2158 79.3687 73.2396 79.4029C73.2634 79.437 73.2728 79.4792 73.2657 79.5203L62.4559 139.05C62.4487 139.086 62.4293 139.118 62.4009 139.141C62.3725 139.164 62.337 139.177 62.3004 139.177Z" fill="#292929"/>
<path d="M55.6224 94.5635C55.6224 94.5635 52.6191 90.0328 47.8501 89.505C43.0811 88.9773 37.9575 89.6379 37.317 90.076C36.6765 90.5141 39.1065 95.4472 39.1065 95.4472L55.6224 94.5635Z" fill="#F9F9F9"/>
<path d="M172.235 56.7031H151.525C150.507 56.702 149.531 56.3026 148.812 55.5928C148.092 54.8829 147.688 53.9204 147.687 52.9166V32.4867C147.688 31.4829 148.092 30.5204 148.812 29.8106C149.531 29.1007 150.507 28.7014 151.525 28.7002H172.235C173.252 28.7014 174.228 29.1007 174.948 29.8105C175.667 30.5204 176.072 31.4828 176.073 32.4867V52.9166C176.072 53.9205 175.667 54.8829 174.948 55.5928C174.228 56.3027 173.252 56.702 172.235 56.7031ZM151.525 29.0139C150.591 29.0149 149.696 29.3811 149.037 30.0322C148.377 30.6833 148.006 31.566 148.005 32.4867V52.9166C148.006 53.8373 148.377 54.7199 149.037 55.371C149.697 56.022 150.591 56.3883 151.525 56.3895H172.235C173.168 56.3885 174.063 56.0223 174.723 55.3712C175.383 54.7201 175.754 53.8374 175.755 52.9166V32.4867C175.754 31.566 175.383 30.6832 174.723 30.0321C174.063 29.3811 173.168 29.0149 172.235 29.0139H151.525Z" fill="#00A0DC"/>
<path d="M170.868 27.166H150.207C148.179 27.166 146.536 28.8095 146.536 30.8368V51.4982C146.536 53.5255 148.179 55.169 150.207 55.169H170.868C172.895 55.169 174.539 53.5255 174.539 51.4982V30.8368C174.539 28.8095 172.895 27.166 170.868 27.166Z" fill="#F9F9F9"/>
<path d="M74.8022 42.8931L78.4062 64.7584L94.3659 61.9089L93.4386 55.8421L92.1786 47.6014L91.7533 44.8194L74.8022 42.8931Z" fill="#F9F9F9"/>
<path d="M80.099 51.0704C83.215 54.5941 93.5987 57.4703 93.5987 57.4703L92.2153 46.7324C86.8717 46.641 78.0216 48.7227 80.099 51.0704Z" fill="#292929"/>
<path d="M78.5041 64.7584C78.4716 64.7583 78.44 64.7483 78.4135 64.7295C78.3797 64.7048 78.3571 64.6678 78.3506 64.6266L74.8042 43.0748C74.8004 43.0509 74.8021 43.0264 74.8093 43.0033C74.8166 42.9802 74.829 42.9591 74.8458 42.9416C74.8625 42.9241 74.8831 42.9107 74.906 42.9025C74.9288 42.8942 74.9532 42.8913 74.9773 42.8941L91.6548 44.7927C91.6891 44.7966 91.7212 44.8116 91.7461 44.8354C91.771 44.8592 91.7874 44.8905 91.7927 44.9245L94.3642 61.7679C94.3703 61.8081 94.3606 61.849 94.3371 61.8822C94.3137 61.9154 94.2783 61.9383 94.2383 61.9461L78.5312 64.7559C78.5222 64.7573 78.5132 64.7581 78.5041 64.7584ZM75.1466 43.2291L78.6338 64.4189L94.03 61.665L91.5 45.0908L75.1466 43.2291Z" fill="#292929"/>
<path d="M91.7198 24.7831L91.7197 24.7831L91.7221 24.7844L91.7221 24.7844L91.7221 24.7844L91.7226 24.7847L91.7249 24.7859L91.7349 24.7916C91.7439 24.7969 91.7576 24.8051 91.7756 24.8166C91.8116 24.8395 91.8651 24.8757 91.9337 24.9277C92.0709 25.0319 92.2687 25.1997 92.5085 25.4534C92.9882 25.9606 93.6364 26.8114 94.3047 28.1822C95.6415 30.9242 97.0585 35.7468 97.3672 44.062C97.5418 48.7706 96.4117 51.4939 94.634 52.9408C92.8552 54.3886 90.4136 54.5704 87.938 54.1616C85.4635 53.7531 82.9654 52.7562 81.0845 51.8604C80.1444 51.4126 79.3591 50.9904 78.809 50.6802C78.5339 50.5251 78.3177 50.398 78.1702 50.3098C78.0965 50.2656 78.04 50.2312 78.002 50.2078L77.9593 50.1814L77.9474 50.1475L77.8962 49.9998C77.8514 49.8703 77.7861 49.6798 77.7039 49.4363C77.5395 48.9493 77.3075 48.2501 77.037 47.4015C76.4959 45.7041 75.8011 43.4093 75.1857 41.0191C74.5703 38.6284 74.0348 36.1439 73.8119 34.0666C73.7005 33.0279 73.6674 32.0928 73.7409 31.323C73.8146 30.5517 73.9947 29.9539 74.3029 29.5827C75.5697 28.0568 78.2309 25.8338 81.4241 24.5047C84.6168 23.1758 88.3331 22.7435 91.7198 24.7831Z" fill="#F9F9F9" stroke="black" stroke-width="0.1"/>
<path d="M95.604 26.4964C94.95 21.7544 90.6495 18.342 85.8266 18.7608C80.9706 19.1797 75.2488 20.3425 71.9331 23.3317C71.6331 22.6215 71.4166 21.8796 71.288 21.1205C69.1765 22.7336 69.5601 25.0581 69.5601 25.0581C66.9683 25.9631 67.1324 27.9359 67.1324 27.9359C67.8322 27.4875 68.6084 27.5058 69.3158 27.7102C65.1329 42.1027 75.1636 47.2251 75.6051 47.8798L78.0054 32.0502C84.8437 32.7634 93.0778 26.1499 93.0778 26.1499L96.6677 34.2074L95.604 26.4964Z" fill="#F9F9F9"/>
<path d="M75.671 48.2634C75.6451 48.2635 75.6195 48.2572 75.5967 48.245C75.5738 48.2327 75.5544 48.215 75.5401 48.1934C75.5023 48.1373 75.2833 47.9709 75.051 47.795C74.0315 47.0222 71.6443 45.2107 70.0092 42.0199C67.9952 38.0911 67.7434 33.3749 69.2539 28.0007C68.5327 27.8223 67.9014 27.9055 67.374 28.249C67.3512 28.2638 67.3249 28.2724 67.2978 28.2741C67.2706 28.2757 67.2436 28.2702 67.2192 28.2582C67.1948 28.2462 67.1739 28.2281 67.1585 28.2056C67.1432 28.1831 67.134 28.157 67.1317 28.1299C67.1317 28.1091 66.9939 26.0826 69.5233 25.127C69.4805 24.5994 69.4541 22.5943 71.3057 21.1609C71.3274 21.1441 71.3531 21.1333 71.3803 21.1296C71.4074 21.1258 71.4351 21.1292 71.4606 21.1395C71.486 21.1498 71.5083 21.1665 71.5253 21.188C71.5423 21.2096 71.5534 21.2352 71.5574 21.2624C71.672 21.9362 71.8544 22.5965 72.1018 23.2335C73.6035 21.9211 75.6892 20.864 78.2973 20.0913C80.4498 19.4534 82.9647 19.0058 85.7717 18.7606C88.1107 18.5565 90.4384 19.2625 92.2712 20.7321C94.1041 22.2017 95.3014 24.3219 95.6144 26.6524L96.6661 34.3809C96.6716 34.4187 96.6632 34.4573 96.6424 34.4894C96.6217 34.5215 96.59 34.5449 96.5532 34.5553C96.5165 34.5657 96.4772 34.5624 96.4428 34.546C96.4083 34.5296 96.381 34.5011 96.3659 34.466L92.8961 26.5761C91.3845 27.7364 89.7853 28.7774 88.1129 29.69C85.7213 30.9897 82.3158 32.4508 79.0771 32.4508C78.7758 32.4508 78.4765 32.4378 78.179 32.4117L75.8264 48.1297C75.8218 48.1612 75.8076 48.1905 75.7859 48.2137C75.7642 48.2369 75.736 48.2529 75.705 48.2596C75.6938 48.2624 75.6824 48.2637 75.671 48.2634ZM68.5459 27.5935C68.8659 27.597 69.1837 27.646 69.4899 27.7391C69.53 27.7507 69.5638 27.7777 69.584 27.8142C69.6041 27.8507 69.609 27.8937 69.5976 27.9339C67.1997 36.2908 69.0978 42.8885 75.238 47.5435C75.3701 47.6438 75.4746 47.7232 75.5564 47.7881L77.8851 32.2189C77.8912 32.1788 77.9124 32.1427 77.9444 32.1179C77.9764 32.0932 78.0167 32.0817 78.0569 32.0859C81.5115 32.4508 85.3475 30.8347 87.9575 29.4145C89.674 28.4811 91.3111 27.4081 92.8521 26.2061C92.8709 26.1909 92.8929 26.1802 92.9165 26.1748C92.94 26.1695 92.9645 26.1697 92.988 26.1753C93.0115 26.181 93.0334 26.192 93.0519 26.2075C93.0705 26.223 93.0852 26.2426 93.095 26.2647L96.1959 33.315L95.2953 26.6965C94.9934 24.4461 93.8376 22.3987 92.0678 20.9795C90.298 19.5603 88.0504 18.8786 85.7918 19.0758C81.4127 19.4584 75.4891 20.5564 72.1396 23.6142C72.121 23.6314 72.0987 23.6438 72.0743 23.6505C72.0499 23.6572 72.0243 23.6579 71.9996 23.6526C71.975 23.6473 71.9519 23.6361 71.9324 23.62C71.913 23.6038 71.8977 23.5833 71.8878 23.56C71.6209 22.9208 71.4191 22.2562 71.2855 21.5763C69.5271 23.1036 69.838 25.1843 69.838 25.2058C69.8439 25.2423 69.8368 25.2797 69.8179 25.3116C69.7991 25.3434 69.7696 25.3675 69.7348 25.3798C67.8649 26.0416 67.5125 27.2941 67.4495 27.8381C67.791 27.6721 68.1664 27.5884 68.5459 27.5935Z" fill="#292929"/>
<path d="M93.9326 42.1265C93.8997 42.1266 93.8676 42.1183 93.8399 42.1026C93.8122 42.0869 93.7901 42.0645 93.7764 42.0381C93.7627 42.0116 93.7578 41.9822 93.7624 41.9534C93.7669 41.9246 93.7807 41.8976 93.8022 41.8755C94.2072 41.4567 94.65 40.7255 94.7688 40.2794C94.7996 40.1644 94.7953 40.0443 94.7562 39.9314C94.7171 39.8184 94.6447 39.7168 94.5464 39.6369L92.7353 38.4298C92.7155 38.4167 92.6991 38.4 92.6872 38.3808C92.6754 38.3616 92.6684 38.3404 92.6667 38.3185L92.4484 35.384C92.4454 35.3437 92.4606 35.304 92.4906 35.2736C92.5207 35.2432 92.5632 35.2247 92.6087 35.222C92.6542 35.2194 92.699 35.2328 92.7334 35.2594C92.7677 35.286 92.7886 35.3236 92.7916 35.3639L93.0051 38.2286L94.7599 39.3986L94.7715 39.4065C94.9173 39.5229 95.0251 39.6717 95.0835 39.8376C95.142 40.0035 95.149 40.1802 95.1038 40.3493C94.9727 40.8428 94.5059 41.6159 94.0637 42.073C94.0476 42.0898 94.0275 42.1033 94.0048 42.1125C93.9822 42.1217 93.9575 42.1265 93.9326 42.1265Z" fill="#292929"/>
<path d="M88.7306 38.1425C89.087 38.0909 89.3069 37.573 89.2218 36.9856C89.1367 36.3982 88.7788 35.9639 88.4224 36.0155C88.066 36.0671 87.8461 36.585 87.9312 37.1724C88.0163 37.7598 88.3742 38.1941 88.7306 38.1425Z" fill="#292929"/>
<path d="M96.014 37.0868C96.3704 37.0353 96.5903 36.5173 96.5052 35.9299C96.4201 35.3425 96.0622 34.9082 95.7058 34.9598C95.3495 35.0114 95.1295 35.5294 95.2146 36.1167C95.2997 36.7041 95.6576 37.1384 96.014 37.0868Z" fill="#292929"/>
<path d="M84.9354 35.2215C84.9042 35.2213 84.8737 35.2118 84.8478 35.1941C84.8218 35.1764 84.8014 35.1513 84.789 35.1219C84.7767 35.0925 84.7729 35.06 84.7782 35.0285C84.7835 34.9969 84.7977 34.9676 84.8189 34.9442C86.6584 32.9429 89.4831 32.9199 89.6028 32.9199C89.6452 32.9199 89.6859 32.9372 89.7159 32.968C89.7458 32.9989 89.7627 33.0407 89.7627 33.0842C89.7627 33.1278 89.7458 33.1696 89.7159 33.2004C89.6859 33.2312 89.6452 33.2485 89.6028 33.2485C89.5746 33.2485 86.794 33.2735 85.0518 35.1696C85.0369 35.1859 85.0188 35.199 84.9988 35.2079C84.9788 35.2168 84.9572 35.2215 84.9354 35.2215Z" fill="#292929"/>
<path d="M93.7534 33.6864C93.7344 33.6891 93.7154 33.6841 93.6975 33.6717C93.6795 33.6593 93.6629 33.6396 93.6485 33.6139C93.6196 33.562 93.6019 33.4884 93.5992 33.4095C93.5966 33.3305 93.6092 33.2526 93.6343 33.1928C93.6594 33.133 93.695 33.0964 93.7332 33.0908C93.7804 33.0765 94.8994 32.7466 95.4116 33.0432C95.4298 33.0538 95.4469 33.0716 95.4618 33.0958C95.4766 33.12 95.4891 33.15 95.4984 33.1841C95.5077 33.2182 95.5136 33.2558 95.5159 33.2947C95.5181 33.3335 95.5167 33.373 95.5115 33.4107C95.5064 33.4483 95.4978 33.4836 95.4861 33.5144C95.4744 33.5452 95.4599 33.5709 95.4434 33.5901C95.4269 33.6093 95.4087 33.6216 95.3899 33.6262C95.3711 33.6309 95.352 33.6279 95.3338 33.6173C94.8803 33.3541 93.7856 33.6769 93.7747 33.6804L93.7534 33.6864Z" fill="#292929"/>
<path d="M79.7747 38.6231C79.7747 38.6231 75.1992 34.8153 72.901 38.0765C70.2445 41.8437 74.9844 45.2622 77.5477 44.2476C80.111 43.233 79.7747 38.6231 79.7747 38.6231Z" fill="#F9F9F9"/>
<path d="M74.1577 42.1262C74.1292 42.1262 74.1011 42.1194 74.0763 42.1063C74.0514 42.0933 74.0307 42.0745 74.016 42.0518C73.2931 40.9449 73.0931 39.9745 73.4202 39.1776C73.8174 38.2035 74.8866 37.7719 75.4864 37.6009C76.4795 37.3187 77.3838 37.8918 77.4215 37.9164C77.4557 37.9402 77.4785 37.9755 77.4853 38.0146C77.4921 38.0538 77.4824 38.0939 77.4581 38.1265C77.4338 38.1592 77.3969 38.1818 77.355 38.1898C77.3132 38.1977 77.2696 38.1903 77.2335 38.1691C77.2249 38.1642 76.4179 37.6569 75.5831 37.8948C75.0415 38.0492 74.0796 38.4354 73.7293 39.287C73.44 39.9911 73.6314 40.868 74.2987 41.8931C74.3138 41.9164 74.322 41.9431 74.3224 41.9703C74.3228 41.9975 74.3154 42.0243 74.301 42.048C74.2866 42.0717 74.2657 42.0915 74.2404 42.1052C74.2151 42.1189 74.1863 42.1262 74.157 42.1262H74.1577Z" fill="#292929"/>
<path d="M76.3368 41.3595L73.6516 40.5923L76.3368 41.3595Z" fill="#F9F9F9"/>
<path d="M76.1657 41.3547C76.1565 41.3553 76.1473 41.3553 76.1381 41.3547L73.4052 40.8951C73.3841 40.8925 73.3637 40.8858 73.3454 40.8754C73.3271 40.8649 73.3111 40.8511 73.2985 40.8345C73.2859 40.818 73.2769 40.7991 73.272 40.7791C73.2671 40.7591 73.2665 40.7384 73.2702 40.7181C73.2738 40.6979 73.2817 40.6785 73.2933 40.6613C73.3049 40.6441 73.32 40.6293 73.3377 40.6179C73.3553 40.6065 73.3752 40.5986 73.3961 40.5949C73.417 40.5911 73.4385 40.5915 73.4592 40.5959L76.1921 41.055C76.2338 41.0583 76.2724 41.0776 76.2994 41.1085C76.3264 41.1394 76.3396 41.1794 76.3361 41.2197C76.3326 41.26 76.3127 41.2974 76.2807 41.3235C76.2488 41.3496 76.2074 41.3623 76.1657 41.359V41.3547Z" fill="#292929"/>
<path d="M92.97 45.1954C92.0059 45.1954 90.4247 45.0085 89.0622 43.9721C89.029 43.9469 89.0061 43.908 88.9984 43.8637C88.9907 43.8195 88.9989 43.7737 89.0212 43.7363C89.0435 43.6989 89.0781 43.673 89.1173 43.6643C89.1565 43.6556 89.1972 43.6649 89.2303 43.69C91.2189 45.2009 93.7865 44.8026 93.81 44.7985C93.8496 44.792 93.8898 44.8035 93.9218 44.8305C93.9539 44.8574 93.9751 44.8977 93.9809 44.9423C93.9866 44.9869 93.9764 45.0322 93.9525 45.0684C93.9286 45.1045 93.893 45.1284 93.8534 45.1349C93.5605 45.1771 93.2653 45.1973 92.97 45.1954Z" fill="#292929"/>
<path d="M76.8237 44.8117C75.5197 44.8117 74.0369 44.0977 73.0648 42.9148C71.8412 41.4162 71.801 39.6112 72.9533 37.9613C73.6228 37.0043 74.4407 36.4722 75.3849 36.3854C77.2437 36.2138 78.906 37.8127 78.976 37.8809C79.0057 37.9109 79.0222 37.9511 79.022 37.993C79.0218 38.0348 79.005 38.0749 78.975 38.1046C78.9451 38.1343 78.9045 38.1513 78.862 38.1518C78.8196 38.1523 78.7785 38.1364 78.7479 38.1074C78.7317 38.0915 77.1199 36.5437 75.4135 36.7038C74.5709 36.7823 73.8321 37.2665 73.2203 38.1425C72.1549 39.668 72.1899 41.3326 73.3175 42.7151C74.4698 44.1271 76.4841 44.8448 77.8075 44.3159C77.8469 44.3017 77.8905 44.3031 77.9289 44.3198C77.9673 44.3365 77.9976 44.3673 78.0134 44.4056C78.0293 44.444 78.0293 44.4868 78.0136 44.5252C77.9979 44.5636 77.9677 44.5945 77.9293 44.6113C77.5773 44.7474 77.2019 44.8154 76.8237 44.8117Z" fill="#292929"/>
<path d="M94.4818 57.4046C94.4818 57.4046 90.6276 66.4543 77.6281 60.6517L76.2008 52.1001C76.2008 52.1001 46.5202 54.0138 51.605 67.1378C54.8154 75.4211 70.58 65.9391 70.58 65.9391C70.58 65.9391 83.8611 76.2001 91.5131 69.247C99.1651 62.294 94.4818 57.4046 94.4818 57.4046Z" fill="#00A0DC"/>
<path d="M65.1776 63.6078C64.9027 63.6078 64.6379 63.5998 64.3852 63.5843C62.3858 63.4603 61.0695 62.8483 60.4724 61.7615C60.1564 61.1886 60.1444 60.6139 60.4332 60.0535C61.2186 58.532 64.2493 57.1184 69.4398 55.8518C73.28 54.915 76.9419 54.4085 76.9786 54.4035C76.9994 54.4001 77.0208 54.4008 77.0413 54.4055C77.0619 54.4103 77.0813 54.4191 77.0983 54.4313C77.1154 54.4436 77.1297 54.4591 77.1406 54.4769C77.1514 54.4947 77.1585 54.5144 77.1614 54.535C77.1643 54.5555 77.163 54.5764 77.1576 54.5964C77.1521 54.6165 77.1426 54.6352 77.1296 54.6516C77.1166 54.6679 77.1004 54.6816 77.082 54.6917C77.0635 54.7018 77.0432 54.7082 77.0222 54.7104C76.8775 54.7303 62.4989 56.7384 60.7188 60.1936C60.4755 60.6641 60.4869 61.1291 60.7536 61.6146C61.4354 62.8545 63.1093 63.3003 65.1605 63.3003C70.3422 63.3003 77.9252 60.4633 78.032 60.423C78.0516 60.4143 78.0728 60.4096 78.0943 60.4093C78.1158 60.4089 78.1371 60.4129 78.157 60.4209C78.1769 60.4289 78.1949 60.4409 78.2099 60.456C78.2249 60.4711 78.2367 60.489 78.2444 60.5087C78.2521 60.5284 78.2556 60.5494 78.2547 60.5705C78.2539 60.5916 78.2486 60.6122 78.2393 60.6313C78.2301 60.6503 78.2169 60.6672 78.2007 60.6811C78.1845 60.695 78.1656 60.7054 78.1451 60.7119C78.1078 60.7261 74.3429 62.1422 70.3207 62.9829C68.3308 63.3983 66.607 63.6078 65.1776 63.6078Z" fill="#292929"/>
<path d="M79.9459 66.6759C79.9076 66.6757 79.8706 66.6614 79.842 66.6358C79.8134 66.6102 79.795 66.5751 79.7903 66.5369C79.7855 66.4987 79.7948 66.4601 79.8164 66.4282C79.8379 66.3964 79.8703 66.3735 79.9074 66.3639C80.1683 66.3004 86.268 64.782 89.4107 66.3201C90.0058 65.6383 93.5547 61.7362 96.8932 61.6899C96.9351 61.6899 96.9753 61.7066 97.0049 61.7364C97.0345 61.7661 97.0511 61.8065 97.0511 61.8485C97.0511 61.8906 97.0345 61.9309 97.0049 61.9606C96.9753 61.9904 96.9351 62.0071 96.8932 62.0071C93.4568 62.0553 89.6046 66.5738 89.5655 66.6207C89.5422 66.6482 89.5104 66.6669 89.4751 66.6738C89.4399 66.6807 89.4034 66.6754 89.3715 66.6588C86.3703 65.0826 80.0432 66.6588 79.9794 66.6721C79.9684 66.6745 79.9572 66.6758 79.9459 66.6759Z" fill="#292929"/>
<path d="M60.1785 70.8966C59.8111 70.8966 59.4691 70.8902 59.1527 70.8773C56.0431 70.7524 54.6228 70.1231 54.5635 70.0963C54.5254 70.079 54.4958 70.0474 54.4813 70.0086C54.4667 69.9697 54.4684 69.9267 54.4859 69.889C54.5034 69.8514 54.5353 69.8221 54.5746 69.8077C54.6139 69.7933 54.6573 69.7949 54.6954 69.8122C54.7093 69.8191 56.1372 70.449 59.195 70.5664C62.0204 70.675 66.852 70.3554 73.8305 68.2184C73.8705 68.2062 73.9138 68.2101 73.9508 68.2294C73.9879 68.2488 74.0157 68.2819 74.0281 68.3214C74.0405 68.361 74.0364 68.4038 74.0169 68.4405C73.9974 68.4771 73.9639 68.5046 73.9239 68.5168C67.667 70.4328 63.1163 70.8966 60.1785 70.8966Z" fill="#292929"/>
<path d="M94.1942 84.3221C94.1494 84.3221 94.1064 84.3059 94.0744 84.2769C94.0424 84.2479 94.0239 84.2085 94.023 84.1671L93.5989 66.0717C93.5984 66.0509 93.6023 66.0301 93.6104 66.0107C93.6186 65.9912 93.6308 65.9734 93.6463 65.9583C93.6619 65.9433 93.6805 65.9311 93.7012 65.9227C93.7218 65.9143 93.7441 65.9097 93.7666 65.9092H93.7708C93.8157 65.9093 93.8588 65.9257 93.8909 65.9547C93.923 65.9838 93.9415 66.0232 93.9426 66.0647L94.366 84.1602C94.3666 84.181 94.3627 84.2017 94.3545 84.2211C94.3464 84.2405 94.3342 84.2583 94.3186 84.2733C94.303 84.2883 94.2844 84.3004 94.2637 84.3088C94.2431 84.3171 94.2209 84.3217 94.1983 84.3221H94.1942Z" fill="#292929"/>
<path d="M86.5222 86.6245C86.4773 86.6245 86.4341 86.6086 86.402 86.5801C86.3699 86.5516 86.3514 86.5129 86.3505 86.4722L85.9268 68.7538C85.9259 68.7126 85.943 68.6729 85.9744 68.6431C86.0058 68.6134 86.0489 68.5962 86.0944 68.5952H86.0985C86.1434 68.5952 86.1866 68.6112 86.2187 68.6396C86.2508 68.6681 86.2693 68.7068 86.2702 68.7475L86.6939 86.466C86.6944 86.4864 86.6904 86.5067 86.6822 86.5257C86.674 86.5447 86.6617 86.5621 86.6461 86.5768C86.6304 86.5915 86.6118 86.6033 86.5911 86.6115C86.5705 86.6197 86.5482 86.6241 86.5257 86.6245H86.5222Z" fill="#292929"/>
<path d="M86.7319 89.3089C86.634 89.3115 86.5366 89.2921 86.4453 89.2517C86.354 89.2114 86.2705 89.1509 86.1997 89.0737C86.1289 88.9965 86.0721 88.9041 86.0327 88.8019C85.9932 88.6997 85.9717 88.5896 85.9696 88.4779L85.9269 86.3435C85.9225 86.1179 85.9968 85.8994 86.1335 85.7362C86.2703 85.573 86.4582 85.4785 86.656 85.4733C86.8538 85.4684 87.0451 85.5533 87.1881 85.7092C87.331 85.8652 87.4138 86.0794 87.4183 86.305L87.461 88.4394C87.4632 88.5511 87.4461 88.6622 87.4106 88.7664C87.3752 88.8705 87.3221 88.9657 87.2544 89.0465C87.1867 89.1272 87.1057 89.192 87.016 89.237C86.9264 89.282 86.8298 89.3065 86.7319 89.3089Z" fill="#292929"/>
<path d="M94.2221 86.6239C93.9747 86.629 93.7352 86.5442 93.5563 86.3882C93.3775 86.2322 93.2738 86.0177 93.2682 85.792L93.2156 83.6569C93.2102 83.4315 93.3031 83.2133 93.474 83.0505C93.6448 82.8876 93.8796 82.7933 94.1266 82.7883C94.249 82.7857 94.3709 82.8052 94.4851 82.8455C94.5993 82.8859 94.7037 82.9464 94.7923 83.0236C94.8809 83.1008 94.9519 83.1932 95.0014 83.2955C95.0508 83.3977 95.0777 83.5079 95.0805 83.6196L95.1331 85.7547C95.1383 85.9801 95.0453 86.1982 94.8746 86.3612C94.7038 86.5241 94.4691 86.6186 94.2221 86.6239Z" fill="#292929"/>
<path d="M86.5023 70.8966C86.2367 70.8966 85.9772 70.8179 85.7564 70.6704C85.5356 70.5228 85.3635 70.3132 85.2619 70.0678C85.1603 69.8225 85.1337 69.5525 85.1855 69.2921C85.2373 69.0317 85.3651 68.7924 85.5529 68.6047C85.7407 68.4169 85.9799 68.289 86.2403 68.2372C86.5008 68.1854 86.7707 68.212 87.0161 68.3136C87.2614 68.4152 87.4711 68.5873 87.6186 68.8081C87.7661 69.0289 87.8449 69.2885 87.8449 69.554C87.8444 69.91 87.7028 70.2512 87.4511 70.5029C87.1994 70.7546 86.8582 70.8962 86.5023 70.8966ZM86.5023 68.5141C86.2966 68.5141 86.0955 68.5751 85.9245 68.6893C85.7535 68.8036 85.6202 68.966 85.5415 69.1561C85.4628 69.3461 85.4422 69.5552 85.4823 69.7569C85.5224 69.9586 85.6215 70.1439 85.7669 70.2894C85.9124 70.4348 86.0977 70.5339 86.2994 70.574C86.5011 70.6141 86.7102 70.5935 86.9002 70.5148C87.0903 70.4361 87.2527 70.3028 87.367 70.1318C87.4812 69.9608 87.5422 69.7597 87.5422 69.554C87.5419 69.2783 87.4322 69.014 87.2373 68.819C87.0423 68.6241 86.778 68.5144 86.5023 68.5141Z" fill="#292929"/>
<path d="M94.1741 68.5952C93.9086 68.5952 93.649 68.5052 93.4282 68.3366C93.2074 68.168 93.0354 67.9283 92.9337 67.648C92.8321 67.3676 92.8055 67.0591 92.8573 66.7614C92.9091 66.4638 93.037 66.1904 93.2248 65.9758C93.4126 65.7612 93.6518 65.6151 93.9122 65.5559C94.1727 65.4966 94.4426 65.527 94.6879 65.6432C94.9333 65.7593 95.143 65.956 95.2905 66.2083C95.438 66.4606 95.5168 66.7573 95.5168 67.0608C95.5163 67.4676 95.3747 67.8575 95.123 68.1452C94.8713 68.4328 94.5301 68.5946 94.1741 68.5952ZM94.1741 65.8723C93.9685 65.8723 93.7674 65.942 93.5964 66.0726C93.4254 66.2032 93.2921 66.3888 93.2134 66.606C93.1347 66.8231 93.1141 67.0621 93.1542 67.2926C93.1943 67.5232 93.2934 67.735 93.4388 67.9012C93.5842 68.0674 93.7695 68.1806 93.9713 68.2264C94.173 68.2723 94.3821 68.2488 94.5721 68.1588C94.7621 68.0689 94.9246 67.9165 95.0388 67.7211C95.1531 67.5256 95.2141 67.2958 95.2141 67.0608C95.2138 66.7457 95.1041 66.4436 94.9091 66.2208C94.7142 65.998 94.4499 65.8726 94.1741 65.8723Z" fill="#292929"/>
<path d="M110.308 100.817C110.266 100.817 110.227 100.803 110.196 100.777C110.165 100.75 110.145 100.714 110.141 100.675L107.793 79.8954C107.791 79.8746 107.793 79.8535 107.799 79.8335C107.805 79.8134 107.816 79.7947 107.829 79.7784C107.843 79.7621 107.861 79.7486 107.88 79.7386C107.899 79.7286 107.921 79.7223 107.943 79.7201C107.965 79.7179 107.987 79.7198 108.008 79.7258C108.03 79.7317 108.049 79.7415 108.067 79.7547C108.084 79.7678 108.098 79.784 108.109 79.8024C108.119 79.8208 108.126 79.841 108.128 79.8618L110.476 100.642C110.481 100.684 110.468 100.726 110.44 100.759C110.412 100.791 110.371 100.812 110.327 100.817L110.308 100.817Z" fill="#292929"/>
<path d="M166.411 171.784H34.5962C33.255 171.782 31.9693 171.249 31.0209 170.301C30.0726 169.352 29.539 168.067 29.5374 166.726V103.19C29.539 101.849 30.0726 100.564 31.0209 99.6156C31.9693 98.6674 33.255 98.134 34.5962 98.1323H166.411C167.752 98.134 169.038 98.6674 169.986 99.6156C170.935 100.564 171.468 101.849 171.47 103.19V166.726C171.468 168.067 170.935 169.352 169.986 170.301C169.038 171.249 167.752 171.782 166.411 171.784ZM34.5962 98.4491C33.339 98.4504 32.1336 98.9503 31.2446 99.8392C30.3555 100.728 29.8555 101.933 29.8542 103.19V166.726C29.8555 167.983 30.3555 169.188 31.2446 170.077C32.1336 170.966 33.339 171.466 34.5962 171.467H166.411C167.668 171.466 168.874 170.966 169.763 170.077C170.652 169.188 171.152 167.983 171.153 166.726V103.19C171.152 101.933 170.652 100.728 169.763 99.8392C168.874 98.9503 167.668 98.4504 166.411 98.4491H34.5962Z" fill="#292929"/>
<path d="M162.736 94.2959H30.9831C28.2779 94.2959 26.085 96.4875 26.085 99.1909V162.669C26.085 165.372 28.2779 167.564 30.9831 167.564H162.736C165.441 167.564 167.634 165.372 167.634 162.669V99.1909C167.634 96.4875 165.441 94.2959 162.736 94.2959Z" fill="#F9F9F9"/>
<path d="M162.959 167.564H31.1438C29.8025 167.563 28.5166 167.03 27.5681 166.081C26.6197 165.133 26.0863 163.847 26.085 162.506V98.9711C26.0863 97.63 26.6197 96.3442 27.5681 95.3959C28.5165 94.4476 29.8025 93.9141 31.1438 93.9126H162.959C164.3 93.9143 165.586 94.4478 166.534 95.3961C167.483 96.3444 168.016 97.6301 168.018 98.9711V162.506C168.016 163.847 167.483 165.133 166.534 166.081C165.586 167.029 164.3 167.563 162.959 167.564ZM31.1438 94.2293C29.8865 94.2309 28.6811 94.7309 27.7921 95.6199C26.9031 96.5088 26.4031 97.714 26.4018 98.9711V162.506C26.4031 163.763 26.9032 164.968 27.7922 165.857C28.6812 166.746 29.8866 167.246 31.1438 167.247H162.959C164.216 167.246 165.421 166.746 166.31 165.857C167.199 164.968 167.699 163.763 167.701 162.506V98.9711C167.699 97.714 167.199 96.5088 166.31 95.6199C165.421 94.7309 164.216 94.2309 162.959 94.2293H31.1438Z" fill="#292929"/>
<path d="M157.66 106.955H31.8389V107.339H157.66V106.955Z" fill="#292929"/>
<path d="M140.59 103.503C140.021 103.503 139.465 103.334 138.992 103.018C138.519 102.702 138.15 102.252 137.932 101.727C137.714 101.201 137.657 100.622 137.768 100.064C137.879 99.5062 138.153 98.9935 138.556 98.5912C138.958 98.1888 139.471 97.9148 140.029 97.8038C140.587 97.6928 141.165 97.7498 141.691 97.9675C142.217 98.1853 142.666 98.554 142.982 99.0272C143.298 99.5003 143.467 100.057 143.467 100.626C143.466 101.388 143.163 102.119 142.623 102.659C142.084 103.198 141.353 103.502 140.59 103.503ZM140.59 98.0654C140.084 98.0654 139.589 98.2155 139.168 98.4969C138.747 98.7782 138.419 99.178 138.225 99.6458C138.031 100.114 137.98 100.628 138.079 101.125C138.178 101.622 138.422 102.078 138.78 102.436C139.138 102.794 139.594 103.038 140.091 103.137C140.587 103.235 141.102 103.185 141.57 102.991C142.038 102.797 142.438 102.469 142.719 102.048C143 101.627 143.15 101.132 143.15 100.626C143.149 99.9468 142.879 99.2961 142.4 98.8162C141.92 98.3362 141.269 98.0662 140.59 98.0654Z" fill="#292929"/>
<path d="M147.878 103.503C147.309 103.503 146.753 103.334 146.28 103.018C145.807 102.702 145.438 102.252 145.22 101.727C145.003 101.201 144.946 100.622 145.057 100.064C145.168 99.5062 145.442 98.9935 145.844 98.5912C146.246 98.1888 146.759 97.9148 147.317 97.8038C147.875 97.6928 148.454 97.7498 148.979 97.9675C149.505 98.1853 149.954 98.554 150.271 99.0272C150.587 99.5003 150.755 100.057 150.755 100.626C150.754 101.388 150.451 102.119 149.912 102.659C149.372 103.198 148.641 103.502 147.878 103.503ZM147.878 98.0654C147.372 98.0654 146.877 98.2155 146.456 98.4969C146.035 98.7782 145.707 99.178 145.513 99.6458C145.319 100.114 145.269 100.628 145.368 101.125C145.466 101.622 145.71 102.078 146.068 102.436C146.426 102.794 146.882 103.038 147.379 103.137C147.876 103.235 148.39 103.185 148.858 102.991C149.326 102.797 149.726 102.469 150.007 102.048C150.288 101.627 150.439 101.132 150.439 100.626C150.438 99.9468 150.168 99.296 149.688 98.816C149.208 98.336 148.557 98.0661 147.878 98.0654Z" fill="#292929"/>
<path d="M155.167 103.503C154.598 103.503 154.042 103.334 153.568 103.018C153.095 102.702 152.727 102.252 152.509 101.727C152.291 101.201 152.234 100.622 152.345 100.064C152.456 99.5062 152.73 98.9935 153.132 98.5912C153.535 98.1888 154.047 97.9148 154.606 97.8038C155.164 97.6928 155.742 97.7498 156.268 97.9675C156.794 98.1853 157.243 98.554 157.559 99.0272C157.875 99.5003 158.044 100.057 158.044 100.626C158.043 101.388 157.74 102.12 157.2 102.659C156.661 103.198 155.93 103.502 155.167 103.503ZM155.167 98.0654C154.66 98.0654 154.165 98.2155 153.744 98.4969C153.323 98.7782 152.995 99.178 152.802 99.6458C152.608 100.114 152.557 100.628 152.656 101.125C152.755 101.622 152.998 102.078 153.356 102.436C153.715 102.794 154.171 103.038 154.667 103.137C155.164 103.235 155.679 103.185 156.147 102.991C156.614 102.797 157.014 102.469 157.296 102.048C157.577 101.627 157.727 101.132 157.727 100.626C157.726 99.9468 157.456 99.296 156.976 98.816C156.496 98.336 155.846 98.0661 155.167 98.0654Z" fill="#292929"/>
<path d="M102.422 158.358H85.9268V141.863H102.422V158.358ZM86.2403 158.044H102.108V142.176H86.2403V158.044Z" fill="#292929"/>
<path d="M75.9531 114.244H36.8257V136.876H75.9531V114.244Z" fill="#292929"/>
<path d="M94.3662 119.998H43.7307V154.138H94.3662V119.998Z" fill="#00A0DC"/>
<path d="M94.3662 126.135H43.7307V126.518H94.3662V126.135Z" fill="#F9F9F9"/>
<path d="M89.1515 124.217C89.1202 124.217 89.0896 124.208 89.0637 124.192C89.0378 124.175 89.0179 124.152 89.0064 124.125C88.9949 124.097 88.9925 124.067 88.9995 124.039C89.0064 124.01 89.0224 123.985 89.0454 123.965L91.8017 121.571C91.832 121.544 91.8723 121.53 91.9137 121.532C91.9551 121.533 91.9943 121.55 92.0225 121.578C92.0507 121.606 92.0658 121.644 92.0643 121.683C92.0629 121.721 92.045 121.758 92.0147 121.784L89.2584 124.178C89.2293 124.203 89.1911 124.217 89.1515 124.217Z" fill="#F9F9F9"/>
<path d="M91.5351 124.217C91.515 124.217 91.4952 124.213 91.4768 124.205C91.4584 124.196 91.4419 124.184 91.4283 124.168L89.0305 121.406C89.0061 121.376 88.9937 121.336 88.9959 121.296C88.998 121.256 89.0146 121.218 89.0422 121.19C89.0698 121.163 89.1062 121.148 89.1438 121.148C89.1815 121.149 89.2174 121.165 89.2441 121.194L91.6419 123.954C91.6612 123.977 91.674 124.005 91.6788 124.035C91.6835 124.065 91.68 124.095 91.6687 124.123C91.6573 124.151 91.6387 124.175 91.6149 124.192C91.5912 124.208 91.5634 124.217 91.5351 124.217Z" fill="#F9F9F9"/>
<path d="M110.477 116.162H110.094V157.974H110.477V116.162Z" fill="#F9F9F9"/>
<path d="M110.381 116.162H110.19C110.137 116.162 110.094 116.232 110.094 116.32V158.2C110.094 158.287 110.137 158.358 110.19 158.358H110.381C110.434 158.358 110.477 158.287 110.477 158.2V116.32C110.477 116.232 110.434 116.162 110.381 116.162Z" fill="#292929"/>
<path d="M154.041 129.588H117.549C116.996 129.588 116.466 129.365 116.075 128.97C115.684 128.574 115.464 128.038 115.464 127.478C115.464 126.918 115.684 126.382 116.075 125.986C116.466 125.59 116.996 125.368 117.549 125.368H154.041C154.315 125.368 154.586 125.423 154.839 125.529C155.092 125.635 155.322 125.79 155.515 125.986C155.709 126.182 155.862 126.415 155.967 126.671C156.072 126.927 156.126 127.201 156.126 127.478C156.126 127.755 156.072 128.029 155.967 128.285C155.862 128.541 155.709 128.774 155.515 128.97C155.322 129.166 155.092 129.321 154.839 129.427C154.586 129.533 154.315 129.588 154.041 129.588ZM117.549 125.689C117.08 125.689 116.631 125.878 116.299 126.213C115.968 126.549 115.782 127.004 115.782 127.478C115.782 127.952 115.968 128.407 116.299 128.743C116.631 129.078 117.08 129.267 117.549 129.267H154.041C154.273 129.267 154.503 129.22 154.718 129.13C154.932 129.041 155.127 128.909 155.291 128.743C155.455 128.577 155.585 128.379 155.674 128.162C155.763 127.945 155.809 127.713 155.809 127.478C155.809 127.243 155.763 127.011 155.674 126.794C155.585 126.577 155.455 126.379 155.291 126.213C155.127 126.047 154.932 125.915 154.718 125.826C154.503 125.736 154.273 125.689 154.041 125.689H117.549Z" fill="#00A0DC"/>
<path d="M153.819 153.371H117.387C116.325 153.371 115.464 154.229 115.464 155.289C115.464 156.348 116.325 157.207 117.387 157.207H153.819C154.881 157.207 155.742 156.348 155.742 155.289C155.742 154.229 154.881 153.371 153.819 153.371Z" fill="#292929"/>
<path d="M128.746 148H117.526C116.979 148 116.455 147.778 116.068 147.382C115.681 146.987 115.464 146.45 115.464 145.891C115.464 145.331 115.681 144.794 116.068 144.399C116.455 144.003 116.979 143.781 117.526 143.781H128.746C129.293 143.781 129.817 144.003 130.204 144.399C130.591 144.794 130.808 145.331 130.808 145.891C130.808 146.45 130.591 146.987 130.204 147.382C129.817 147.778 129.293 148 128.746 148ZM117.526 144.102C117.063 144.102 116.618 144.29 116.29 144.626C115.962 144.961 115.778 145.416 115.778 145.891C115.778 146.365 115.962 146.82 116.29 147.155C116.618 147.491 117.063 147.679 117.526 147.679H128.746C129.21 147.679 129.654 147.491 129.982 147.155C130.31 146.82 130.494 146.365 130.494 145.891C130.494 145.416 130.31 144.961 129.982 144.626C129.654 144.29 129.21 144.102 128.746 144.102H117.526Z" fill="#292929"/>
<path d="M146.557 144.165H135.39C134.343 144.165 133.493 144.937 133.493 145.891C133.493 146.844 134.343 147.617 135.39 147.617H146.557C147.605 147.617 148.454 146.844 148.454 145.891C148.454 144.937 147.605 144.165 146.557 144.165Z" fill="#292929"/>
<path d="M154.946 144.165H152.319C151.244 144.165 150.372 144.937 150.372 145.891C150.372 146.844 151.244 147.617 152.319 147.617H154.946C156.021 147.617 156.893 146.844 156.893 145.891C156.893 144.937 156.021 144.165 154.946 144.165Z" fill="#292929"/>
<path d="M129.841 120.381H117.51C116.964 120.371 116.444 120.145 116.061 119.75C115.678 119.356 115.464 118.825 115.464 118.271C115.464 117.718 115.678 117.187 116.061 116.793C116.444 116.398 116.964 116.172 117.51 116.162H129.841C130.117 116.157 130.392 116.208 130.649 116.312C130.905 116.416 131.139 116.57 131.336 116.767C131.534 116.963 131.69 117.197 131.797 117.456C131.904 117.714 131.959 117.991 131.959 118.271C131.959 118.552 131.904 118.829 131.797 119.087C131.69 119.346 131.534 119.58 131.336 119.776C131.139 119.973 130.905 120.127 130.649 120.231C130.392 120.335 130.117 120.386 129.841 120.381ZM117.51 116.483C117.047 116.492 116.607 116.684 116.283 117.019C115.96 117.353 115.778 117.803 115.778 118.271C115.778 118.74 115.96 119.19 116.283 119.524C116.607 119.859 117.047 120.051 117.51 120.06H129.841C130.075 120.064 130.308 120.021 130.526 119.933C130.744 119.846 130.943 119.715 131.11 119.548C131.278 119.382 131.411 119.183 131.502 118.964C131.592 118.745 131.639 118.509 131.639 118.271C131.639 118.034 131.592 117.798 131.502 117.579C131.411 117.36 131.278 117.161 131.11 116.995C130.943 116.828 130.744 116.697 130.526 116.609C130.308 116.522 130.075 116.479 129.841 116.483H117.51Z" fill="#292929"/>
<path d="M144.297 119.998H137.65C137.407 119.998 137.165 119.948 136.94 119.852C136.715 119.756 136.511 119.614 136.338 119.436C136.166 119.258 136.029 119.047 135.936 118.814C135.843 118.581 135.795 118.332 135.795 118.08C135.795 117.828 135.843 117.579 135.936 117.346C136.029 117.113 136.166 116.902 136.338 116.723C136.511 116.545 136.715 116.404 136.94 116.308C137.165 116.211 137.407 116.162 137.65 116.162H144.297C144.789 116.162 145.261 116.364 145.609 116.723C145.957 117.083 146.152 117.571 146.152 118.08C146.152 118.332 146.104 118.581 146.011 118.814C145.918 119.047 145.781 119.258 145.609 119.436C145.436 119.614 145.232 119.756 145.007 119.852C144.782 119.948 144.541 119.998 144.297 119.998Z" fill="#00A0DC"/>
<path d="M130.789 134.575H117.401C116.331 134.575 115.464 135.519 115.464 136.685C115.464 137.85 116.331 138.794 117.401 138.794H130.789C131.859 138.794 132.726 137.85 132.726 136.685C132.726 135.519 131.859 134.575 130.789 134.575Z" fill="#00A0DC"/>
<path d="M152.891 138.794H139.799C139.527 138.799 139.256 138.748 139.004 138.644C138.751 138.54 138.521 138.386 138.326 138.189C138.132 137.993 137.978 137.759 137.873 137.5C137.767 137.242 137.713 136.965 137.713 136.685C137.713 136.404 137.767 136.127 137.873 135.869C137.978 135.61 138.132 135.376 138.326 135.18C138.521 134.983 138.751 134.829 139.004 134.725C139.256 134.621 139.527 134.57 139.799 134.575H152.889C153.161 134.57 153.432 134.621 153.685 134.725C153.938 134.829 154.168 134.983 154.362 135.18C154.556 135.376 154.71 135.61 154.816 135.869C154.921 136.127 154.975 136.404 154.975 136.685C154.975 136.965 154.921 137.242 154.816 137.5C154.71 137.759 154.556 137.993 154.362 138.189C154.168 138.386 153.938 138.54 153.685 138.644C153.432 138.748 153.161 138.799 152.889 138.794H152.891ZM139.799 134.896C139.568 134.892 139.339 134.935 139.124 135.023C138.909 135.11 138.714 135.241 138.549 135.408C138.384 135.574 138.253 135.773 138.164 135.992C138.074 136.211 138.028 136.447 138.028 136.685C138.028 136.922 138.074 137.158 138.164 137.377C138.253 137.596 138.384 137.795 138.549 137.961C138.714 138.128 138.909 138.259 139.124 138.347C139.339 138.434 139.568 138.477 139.799 138.473H152.889C153.12 138.477 153.35 138.434 153.564 138.347C153.779 138.259 153.975 138.128 154.139 137.961C154.304 137.795 154.435 137.596 154.525 137.377C154.614 137.158 154.66 136.922 154.66 136.685C154.66 136.447 154.614 136.211 154.525 135.992C154.435 135.773 154.304 135.574 154.139 135.408C153.975 135.241 153.779 135.11 153.564 135.023C153.35 134.935 153.12 134.892 152.889 134.896H139.799Z" fill="#292929"/>
<path d="M48.9703 89.618C49.4429 89.8558 49.8593 90.1826 50.194 90.5783C50.5288 90.974 50.7749 91.4303 50.9173 91.9193C51.5561 94.0486 52.5845 98.3204 50.7439 98.8506C48.2787 99.5606 45.6153 92.3569 46.6417 90.161C47.1559 89.0598 48.1267 89.2002 48.9703 89.618Z" fill="#F9F9F9"/>
<path d="M44.8196 89.6444C45.2924 89.8961 45.7062 90.237 46.0357 90.6464C46.3652 91.0558 46.6035 91.5249 46.7358 92.0251C47.3324 94.2024 48.3735 99.9005 46.4972 100.398C43.9892 101.066 41.3591 92.3569 42.4498 90.1466C42.9955 89.0421 43.9756 89.2055 44.8196 89.6444Z" fill="#F9F9F9"/>
<path d="M40.9123 89.6814C41.3513 89.9444 41.7311 90.2929 42.0283 90.7053C42.3254 91.1177 42.5337 91.5855 42.6403 92.0799C43.1236 94.2304 44.1077 99.2157 42.3095 99.6382C39.9012 100.204 37.5264 92.214 38.6449 90.0875C39.2042 89.0243 40.1284 89.2191 40.9123 89.6814Z" fill="#F9F9F9"/>
<path d="M38.5676 90.2419C38.8642 90.5494 39.1008 90.9205 39.2629 91.3323C39.4249 91.7442 39.509 92.1881 39.5099 92.6371C39.5265 94.5934 39.3733 98.4728 37.9086 98.5158C35.947 98.5739 35.5229 91.8324 36.7438 90.1858C37.3519 89.3648 38.0364 89.7026 38.5676 90.2419Z" fill="#F9F9F9"/>
<path d="M48.9443 98.5155C48.9224 98.5155 48.9006 98.5106 48.8806 98.5011C48.8606 98.4916 48.8428 98.4777 48.8283 98.4604C46.7948 96.0497 46.4312 91.5915 46.4163 91.4024C46.413 91.3595 46.4262 91.3169 46.4529 91.2841C46.4797 91.2514 46.5179 91.231 46.559 91.2276C46.6001 91.2241 46.6409 91.2379 46.6723 91.2658C46.7037 91.2938 46.7232 91.3336 46.7265 91.3765C46.7265 91.4218 47.0989 95.9163 49.0616 98.2461C49.0816 98.2694 49.0947 98.2983 49.0992 98.3292C49.1037 98.3601 49.0996 98.3917 49.0872 98.4201C49.0749 98.4486 49.0548 98.4727 49.0296 98.4895C49.0043 98.5064 48.9749 98.5151 48.945 98.5148L48.9443 98.5155Z" fill="#292929"/>
<path d="M45.4845 100.05C45.4465 100.051 45.4097 100.039 45.3803 100.016C43.5866 98.6628 42.8173 96.1701 42.4884 94.3196C42.2732 93.0927 42.1765 91.8505 42.1996 90.6077C42.2002 90.5876 42.2051 90.5678 42.2141 90.5495C42.223 90.5312 42.2358 90.5147 42.2517 90.501C42.2676 90.4873 42.2863 90.4767 42.3066 90.4697C42.327 90.4628 42.3487 90.4597 42.3704 90.4606C42.392 90.4614 42.4133 90.4661 42.433 90.4745C42.4526 90.4829 42.4703 90.4948 42.485 90.5096C42.4997 90.5243 42.5111 90.5416 42.5186 90.5604C42.5261 90.5793 42.5295 90.5993 42.5286 90.6193C42.5286 90.6853 42.2965 97.2953 45.5886 99.777C45.6148 99.7969 45.6337 99.8239 45.6427 99.8541C45.6518 99.8844 45.6505 99.9165 45.6391 99.9461C45.6277 99.9757 45.6068 100.001 45.5791 100.019C45.5514 100.038 45.5184 100.047 45.4845 100.047V100.05Z" fill="#292929"/>
<path d="M39.363 96.5974C39.3332 96.5975 39.304 96.5881 39.2794 96.5704C39.2547 96.5526 39.2358 96.5275 39.225 96.4981C37.8082 92.6468 38.551 90.2807 38.5835 90.1815C38.5963 90.1423 38.6234 90.1101 38.6587 90.092C38.694 90.0738 38.7347 90.0712 38.7719 90.0847C38.809 90.0982 38.8396 90.1267 38.8568 90.1639C38.874 90.2011 38.8765 90.2441 38.8637 90.2832C38.856 90.3069 38.1269 92.6499 39.501 96.3851C39.5151 96.4237 39.5141 96.4666 39.4982 96.5044C39.4824 96.5422 39.4529 96.5719 39.4163 96.5868C39.3994 96.594 39.3813 96.5976 39.363 96.5974Z" fill="#292929"/>
<path d="M46.1203 100.434C45.0192 100.434 44.1122 98.7605 43.5878 97.5115C43.5287 98.8748 43.1554 99.648 42.4743 99.8144C41.1623 100.132 40.1209 98.1569 39.6034 96.9048C39.2961 98.0121 38.8139 98.5813 38.1682 98.5991C37.6158 98.615 37.1312 98.2179 36.7654 97.4556C35.8 95.4468 35.8292 91.459 36.8183 90.2234C37.0224 89.9692 37.2494 89.8015 37.4939 89.7272C37.8423 89.5017 38.8718 89.325 39.4796 89.2367C39.7082 89.1358 39.9601 89.1032 40.2062 89.1427C41.3943 89.0068 44.4693 88.7387 47.7955 89.1287C50.2266 89.4134 52.114 90.738 53.2698 91.797C54.5196 92.9405 55.1865 94.0091 55.2145 94.0536C55.2294 94.0776 55.2377 94.1052 55.2386 94.1337C55.2395 94.1621 55.2329 94.1902 55.2195 94.2152C55.2061 94.2401 55.1863 94.2609 55.1624 94.2754C55.1384 94.2899 55.1111 94.2975 55.0832 94.2975H51.5125C51.7744 95.981 51.9722 98.6474 50.6926 99.0438C50.5717 99.0819 50.4459 99.1014 50.3193 99.1016C49.1728 99.1016 48.1228 97.5134 47.431 95.8133C47.6413 97.8831 47.5722 100.063 46.4282 100.387C46.3281 100.417 46.2245 100.433 46.1203 100.434ZM43.4323 96.5166C43.4642 96.5168 43.4953 96.5269 43.5214 96.5457C43.5475 96.5644 43.5674 96.5908 43.5785 96.6214C44.4276 99.0019 45.4876 100.328 46.3436 100.084C47.184 99.8449 47.4285 97.9803 47.0154 94.9703C47.0124 94.9486 47.0138 94.9264 47.0196 94.9053C47.0254 94.8841 47.0354 94.8645 47.049 94.8475C47.0627 94.8305 47.0796 94.8166 47.0988 94.8067C47.1179 94.7968 47.1389 94.7911 47.1604 94.7899L47.2643 94.7835C47.2982 94.7815 47.3319 94.7909 47.3601 94.8103C47.3883 94.8297 47.4095 94.858 47.4204 94.8909C48.1277 97.0013 49.4254 99.1067 50.603 98.7414C51.3943 98.4962 51.6083 96.786 51.1765 94.1673C51.1727 94.1445 51.1738 94.1212 51.1798 94.099C51.1857 94.0767 51.1963 94.0561 51.2109 94.0385C51.2255 94.0209 51.2437 94.0067 51.2642 93.997C51.2847 93.9873 51.307 93.9824 51.3296 93.9824H54.7865C54.1389 93.0708 51.6257 89.8975 47.7613 89.4451C44.4469 89.0563 41.3844 89.327 40.2211 89.4616C40.2077 89.4632 40.1941 89.4632 40.1807 89.4616C39.981 89.425 39.7752 89.4509 39.5903 89.536C39.5761 89.5426 39.561 89.5471 39.5455 89.5493C38.3772 89.7177 37.7944 89.8994 37.65 90.0042C37.6351 90.0152 37.6182 90.0231 37.6003 90.0277C37.4136 90.0804 37.227 90.2138 37.0591 90.4254C36.1465 91.5689 36.1378 95.4302 37.0441 97.3171C37.2594 97.7618 37.6289 98.2967 38.1595 98.2815C38.7312 98.2662 39.1549 97.6176 39.4155 96.354C39.4227 96.3206 39.4403 96.2904 39.4656 96.268C39.4909 96.2455 39.5225 96.232 39.5559 96.2293C39.5894 96.2267 39.6227 96.2351 39.6511 96.2533C39.6794 96.2715 39.7013 96.2986 39.7135 96.3305C40.5178 98.4975 41.5474 99.7134 42.4021 99.5069C43.2065 99.31 43.3215 97.8641 43.2767 96.685C43.2753 96.6473 43.287 96.6103 43.3098 96.5806C43.3326 96.5509 43.365 96.5305 43.4012 96.523C43.4113 96.5198 43.4217 96.5177 43.4323 96.5166Z" fill="#292929"/>
<path d="M85.4612 62.8405C81.121 62.8405 77.6075 60.7425 77.5687 60.7183C77.55 60.708 77.5336 60.6942 77.5205 60.6776C77.5074 60.661 77.4979 60.642 77.4925 60.6217C77.4872 60.6014 77.4861 60.5803 77.4894 60.5596C77.4927 60.5389 77.5002 60.519 77.5116 60.5012C77.5229 60.4834 77.5378 60.4681 77.5554 60.4561C77.573 60.4441 77.593 60.4357 77.614 60.4314C77.635 60.4272 77.6567 60.4271 77.6778 60.4312C77.6988 60.4354 77.7188 60.4436 77.7365 60.4555C77.7797 60.4815 82.1149 63.068 87.0601 62.4296C89.6255 62.098 91.2878 61.004 92.2302 60.14C93.2533 59.2047 93.6753 58.3357 93.6791 58.3271C93.6879 58.3086 93.7004 58.292 93.7157 58.2782C93.7311 58.2644 93.7491 58.2537 93.7688 58.2467C93.7884 58.2397 93.8092 58.2366 93.8301 58.2374C93.851 58.2383 93.8715 58.2432 93.8904 58.2518C93.9093 58.2603 93.9264 58.2725 93.9405 58.2875C93.9546 58.3025 93.9656 58.3201 93.9728 58.3392C93.9799 58.3583 93.9832 58.3787 93.9823 58.399C93.9814 58.4194 93.9764 58.4394 93.9676 58.4578C93.9498 58.495 93.5228 59.3801 92.4596 60.3557C91.4817 61.2526 89.7583 62.3936 87.1014 62.7364C86.5576 62.8062 86.0097 62.841 85.4612 62.8405Z" fill="#292929"/>
<path d="M166.205 38.7278C165.757 36.6737 163.944 35.148 161.768 35.1803C160.039 35.206 158.562 36.2135 157.838 37.6573C156.052 37.8631 154.673 39.4067 154.701 41.259C154.73 43.2297 156.364 44.8186 158.332 44.7893L166.084 44.6742C167.724 44.6498 169.046 43.286 169.022 41.6437C169.014 40.889 168.717 40.1662 168.193 39.6238C167.669 39.0814 166.957 38.7608 166.205 38.7278ZM162.802 40.5399L162.835 42.8094L160.927 42.8377L160.893 40.5682L158.866 40.5983L161.803 37.5693L164.829 40.5112L162.802 40.5399Z" fill="#00A0DC"/>
<path d="M64.9673 135.89H66.2329V143.272H64.7774V137.429L63.3853 137.82L63.0267 136.575L64.9673 135.89ZM71.1764 143.42C70.0655 143.42 69.1479 143.051 68.4237 142.313C67.6995 141.574 67.3374 140.664 67.3374 139.581C67.3374 138.491 67.6995 137.581 68.4237 136.849C69.1479 136.111 70.0655 135.742 71.1764 135.742C71.8444 135.742 72.4596 135.9 73.0221 136.217C73.5917 136.526 74.0346 136.948 74.351 137.482L73.096 138.21C72.9131 137.879 72.653 137.623 72.3155 137.44C71.978 137.25 71.5983 137.155 71.1764 137.155C70.4592 137.155 69.8792 137.38 69.4362 137.83C69.0003 138.28 68.7823 138.864 68.7823 139.581C68.7823 140.291 69.0003 140.871 69.4362 141.321C69.8792 141.771 70.4592 141.996 71.1764 141.996C71.5983 141.996 71.978 141.905 72.3155 141.722C72.66 141.532 72.9202 141.276 73.096 140.952L74.351 141.68C74.0346 142.214 73.5952 142.64 73.0327 142.956C72.4702 143.265 71.8514 143.42 71.1764 143.42Z" fill="white"/>
<circle cx="6.69434" cy="148.174" r="6.43365" transform="rotate(1.41358 6.69434 148.174)" stroke="#00A0DC" stroke-width="0.202758" stroke-dasharray="0.81 0.81"/>
</svg>
