<svg width="85" height="85" viewBox="0 0 85 85" fill="none" xmlns="http://www.w3.org/2000/svg">
<circle cx="42.5" cy="42.5" r="42.5" fill="#00A0DC"/>
<path d="M37.143 42.0294C38.2936 44.6183 40.7771 48.9332 42.3208 48.9332C44.0468 48.9332 46.348 44.043 47.4987 42.0294M37.143 42.0294C35.7723 41.4811 33.2522 42.6047 33.6158 51.0766C33.6473 51.811 34.2606 52.385 34.9957 52.385L49.646 52.3851C50.3811 52.3851 50.9944 51.8111 51.0259 51.0767C51.3895 42.6048 48.8693 41.4811 47.4987 42.0294M37.143 42.0294L41.8779 43.6076C42.1654 43.7034 42.4763 43.7034 42.7639 43.6075L47.4987 42.0294" stroke="white" stroke-width="1.40106" stroke-linecap="round"/>
<path d="M49.2248 33.3994C49.2248 37.2123 46.1339 40.3032 42.321 40.3032C38.5082 40.3032 35.4172 37.2123 35.4172 33.3994C35.4172 29.5865 38.5082 26.4956 42.321 26.4956C46.1339 26.4956 49.2248 29.5865 49.2248 33.3994ZM37.119 33.3994C37.119 36.2724 39.448 38.6014 42.321 38.6014C45.194 38.6014 47.5231 36.2724 47.5231 33.3994C47.5231 30.5264 45.194 28.1974 42.321 28.1974C39.448 28.1974 37.119 30.5264 37.119 33.3994Z" fill="white"/>
<path fill-rule="evenodd" clip-rule="evenodd" d="M26.9968 13.7997C26.1504 14.2187 26.0098 14.5312 25.8433 16.3664C25.6073 18.9637 25.0779 20.1796 23.4963 21.7563C22.5029 22.7466 21.5287 23.3463 20.2433 23.7586C19.3692 24.0389 18.9606 24.3473 18.6983 24.9246C18.4888 25.3863 18.4788 25.9635 18.4783 37.6197C18.4778 50.6048 18.4783 50.2272 19.0554 53.0756C19.932 56.3511 21.7933 59.3493 24.35 61.6041C25.2584 62.4053 40.4495 73.0514 41.4701 73.6022C42.2192 74.0064 43.5471 74.0183 44.2865 73.6274C44.8091 73.3512 59.4186 63.2311 60.6266 62.3085C61.0013 62.0224 61.7473 61.3438 62.2845 60.8006C64.9941 58.0601 66.6922 54.5627 67.1989 50.678C67.5214 48.2055 67.3601 37.7983 67.1941 37.4882C66.8912 36.9224 65.9555 36.9756 65.6828 37.5742C65.5894 37.7792 65.5495 39.6351 65.5495 43.7748C65.5495 50.3885 65.4814 51.2457 64.7875 53.3639C63.9653 55.8738 62.6206 58.0121 60.7189 59.8337C59.7982 60.7156 58.0902 61.9605 51.6987 66.4079C47.3621 69.4254 43.6284 71.97 43.4014 72.0626C43.0888 72.1901 42.8841 72.202 42.5591 72.1115C42.3214 72.0455 39.2307 69.9742 35.6403 67.4747C32.0713 64.9902 28.4875 62.4997 27.6764 61.9403C25.9326 60.7377 23.8657 58.7532 22.9896 57.4401C21.6698 55.4624 20.7566 53.1392 20.4273 50.922C20.27 49.8621 20.2433 47.9404 20.2433 37.6385V25.5943L20.7448 25.4594C22.4608 24.9979 24.3277 23.7352 25.5064 22.2392C26.7569 20.6519 27.4335 18.8151 27.642 16.4414L27.7354 15.3795L30.8793 15.3206C33.7577 15.2665 34.0443 15.2426 34.2714 15.0368C34.6337 14.7086 34.6033 14.1058 34.2086 13.7954C33.9115 13.5615 33.7565 13.5508 30.6986 13.5509C27.6822 13.551 27.4707 13.5652 26.9968 13.7997ZM37.3081 13.7954C36.9133 14.1058 36.883 14.7087 37.2455 15.0368C37.4846 15.2532 37.8751 15.2638 47.7757 15.3206L58.0574 15.3795L58.1508 16.4414C58.3591 18.8123 59.0341 20.6469 60.2842 22.2392C61.3866 23.6434 63.0624 24.8103 64.7531 25.351L65.5495 25.6056V29.7194C65.5495 32.5254 65.5918 33.926 65.6828 34.1255C65.9555 34.7242 66.8912 34.7774 67.1941 34.2116C67.2758 34.0588 67.3183 32.4924 67.3166 29.693C67.3143 25.7696 67.2955 25.3674 67.0945 24.9246C66.8322 24.3473 66.4236 24.0389 65.5495 23.7586C64.2254 23.334 63.2931 22.7531 62.2428 21.6987C60.6871 20.1368 60.0993 18.7467 59.9369 16.245C59.8384 14.7259 59.6158 14.2369 58.8353 13.8251C58.4938 13.6449 58.1134 13.5508 57.7273 13.5508H47.9672C37.6768 13.5508 37.6172 13.5522 37.3081 13.7954ZM30.6613 18.4475C30.4914 18.5664 30.285 19.0213 30.0338 19.8298C29.0222 23.0856 26.9949 25.6177 24.1046 27.2354C23.5266 27.5589 23.2971 28.1844 23.2848 28.8467C23.255 30.4467 23.2033 33.9327 23.22 39.3006L23.255 50.539L23.5737 51.6996C24.2166 54.0404 25.6073 56.3693 27.2741 57.8967C27.9454 58.5118 29.2863 59.4825 32.5533 61.718C33.4557 62.3356 33.9061 62.4199 34.2835 62.0425C34.6096 61.7164 34.5949 61.0892 34.254 60.7847C34.108 60.6542 33.1125 59.9451 32.0418 59.2087C29.1126 57.1945 28.2119 56.4587 27.3658 55.3897C26.4841 54.2756 25.6754 52.7035 25.2949 51.3649L25.0267 50.421L24.9911 39.6254L24.9555 28.8298L25.9325 28.1904C27.2303 27.3413 29.1235 25.4426 29.9675 24.1436C30.691 23.0304 31.3026 21.773 31.6376 20.7106L31.8489 20.0399H42.8964H53.9439L54.1552 20.7184C54.4819 21.7669 55.0849 23.0045 55.822 24.1386C56.6695 25.4427 58.5601 27.3397 59.8604 28.1904L60.8373 28.8298L60.8006 39.6254C60.7661 49.7451 60.7501 50.469 60.5437 51.1879C60.1982 52.3919 59.6112 53.6918 58.9888 54.6313C57.893 56.2857 57.2113 56.8304 49.8266 61.9533L42.897 66.7605L40.3305 64.9719C38.919 63.9883 37.616 63.1266 37.4351 63.0573C36.783 62.8074 36.0814 63.5572 36.3715 64.1939C36.4953 64.4654 42.2609 68.551 42.7194 68.692C42.8492 68.7319 43.1061 68.6863 43.2901 68.5908C43.5719 68.4446 52.9702 61.9492 56.726 59.3051C57.3564 58.8614 58.1937 58.2006 58.5867 57.8366C60.2031 56.3402 61.5866 54.0027 62.2191 51.6996L62.5378 50.539L62.5728 39.3006C62.5887 34.1885 62.6452 30.5793 62.6091 28.8963C62.5978 28.3674 62.062 27.4425 61.6004 27.1843C58.8052 25.6212 56.7571 23.0425 55.759 19.8298C55.5078 19.0213 55.3014 18.5664 55.1315 18.4475C54.9103 18.2926 53.3665 18.2702 42.8964 18.2702C32.4263 18.2702 30.8825 18.2926 30.6613 18.4475Z" fill="white"/>
</svg>
