<svg width="15" height="8" viewBox="0 0 15 8" fill="none" xmlns="http://www.w3.org/2000/svg">
<path d="M7.48824 7.00125C7.23833 7.00171 6.99614 6.92033 6.80372 6.77125L0.38638 1.77125C0.167959 1.60151 0.0306013 1.3576 0.00452583 1.09318C-0.0215497 0.82875 0.0657924 0.565469 0.247337 0.361252C0.428882 0.157035 0.689759 0.0286112 0.972578 0.00423152C1.2554 -0.0201482 1.53699 0.0615132 1.75541 0.231252L7.48824 4.71125L13.2211 0.391253C13.3305 0.308187 13.4563 0.246155 13.5915 0.208723C13.7266 0.171291 13.8683 0.159198 14.0084 0.173137C14.1486 0.187076 14.2844 0.226773 14.4081 0.289947C14.5318 0.35312 14.6409 0.438526 14.7291 0.541252C14.8271 0.644074 14.9013 0.7647 14.947 0.895574C14.9928 1.02645 15.0092 1.16475 14.9951 1.30181C14.9811 1.43887 14.9369 1.57175 14.8653 1.6921C14.7938 1.81246 14.6965 1.91771 14.5794 2.00125L8.16206 6.83125C7.9641 6.95677 7.72685 7.01662 7.48824 7.00125Z" fill="#5BB2C1"/>
</svg>
