<svg width="16" height="16" viewBox="0 0 16 16" fill="none" xmlns="http://www.w3.org/2000/svg">
<path fill-rule="evenodd" clip-rule="evenodd" d="M8.00041 0.870475C8.14587 0.773503 8.33613 0.776571 8.47839 0.878182L15.0238 5.55351C15.1344 5.63249 15.2 5.76002 15.2 5.89591V14.779C15.2 15.0114 15.0117 15.1998 14.7793 15.1998H1.22083C0.988438 15.1998 0.800049 15.0114 0.800049 14.779V5.89591C0.800049 5.75522 0.870362 5.62384 0.987422 5.5458L8.00041 0.870475ZM1.64161 6.1211V14.3582H4.07278V7.71929H3.55849C3.3261 7.71929 3.13771 7.5309 3.13771 7.29851C3.13771 7.06612 3.3261 6.87773 3.55849 6.87773H12.4416C12.674 6.87773 12.8624 7.06612 12.8624 7.29851C12.8624 7.5309 12.674 7.71929 12.4416 7.71929H11.9273V14.3582H14.3585V6.11245L8.22557 1.73179L1.64161 6.1211ZM11.0858 14.3582V12.3946H4.91433V14.3582H11.0858ZM4.91433 11.5531H11.0858V10.0569H4.91433V11.5531ZM4.91433 9.21539H11.0858V7.71929H4.91433V9.21539Z" fill="#B6C3CC"/>
</svg>
