<svg width="16" height="17" viewBox="0 0 16 17" fill="none" xmlns="http://www.w3.org/2000/svg">
<path fill-rule="evenodd" clip-rule="evenodd" d="M0.799988 1.14428C0.799988 0.843738 1.03396 0.600098 1.32257 0.600098H4.12481C4.41343 0.600098 4.64739 0.843738 4.64739 1.14428V10.6972C5.73049 10.9094 6.59951 11.7685 6.81663 12.8792H7.49003V3.37684C7.49003 3.0763 7.724 2.83266 8.01261 2.83266H13.5666C13.8552 2.83266 14.0892 3.0763 14.0892 3.37684V12.8792H14.6774C14.966 12.8792 15.2 13.1228 15.2 13.4234C15.2 13.7239 14.966 13.9675 14.6774 13.9675H6.81663C6.56553 15.252 5.44252 16.2001 4.12481 16.2001C2.62693 16.2001 1.38063 14.975 1.38063 13.4234C1.38063 12.0564 2.34786 10.9429 3.60223 10.6972V1.68847H1.32257C1.03396 1.68847 0.799988 1.44483 0.799988 1.14428ZM4.12481 11.735C3.16878 11.735 2.42579 12.509 2.42579 13.4234C2.42579 14.3377 3.16878 15.1117 4.12481 15.1117C5.08084 15.1117 5.82383 14.3377 5.82383 13.4234C5.82383 12.509 5.08084 11.735 4.12481 11.735ZM13.044 3.92103V7.85591H8.53519V3.92103H9.15623H10.2014H11.3778H12.423H13.044ZM13.044 12.8792V8.94428H12.423H11.3778H10.2014H9.15623H8.53519V12.8792H13.044Z" fill="#B6C3CC"/>
</svg>
