<svg width="15" height="8" viewBox="0 0 15 8" fill="none" xmlns="http://www.w3.org/2000/svg">
<path d="M7.51176 0.00265408C7.76167 0.00219774 8.00386 0.0835724 8.19628 0.232654L14.6136 5.23265C14.832 5.40239 14.9694 5.6463 14.9955 5.91073C15.0215 6.17516 14.9342 6.43844 14.7527 6.64265C14.5711 6.84687 14.3102 6.9753 14.0274 6.99967C13.7446 7.02405 13.463 6.94239 13.2446 6.77265L7.51176 2.29265L1.77894 6.61265C1.66954 6.69572 1.54366 6.75775 1.40853 6.79518C1.2734 6.83261 1.1317 6.84471 0.991553 6.83077C0.851411 6.81683 0.715595 6.77713 0.591916 6.71396C0.468236 6.65079 0.359129 6.56538 0.270866 6.46265C0.172916 6.35983 0.0987329 6.23921 0.0529633 6.10833C0.00719452 5.97746 -0.00917244 5.83916 0.00488472 5.70209C0.0189419 5.56503 0.0631208 5.43216 0.134656 5.3118C0.206191 5.19145 0.303542 5.0862 0.420606 5.00265L6.83794 0.172654C7.0359 0.0471382 7.27315 -0.0127168 7.51176 0.00265408Z" fill="#5BB2C1"/>
</svg>
