<svg width="46" height="46" viewBox="0 0 46 46" fill="none" xmlns="http://www.w3.org/2000/svg">
<path d="M23 45.9402C35.7025 45.9402 46 35.6561 46 22.9701C46 10.284 35.7025 0 23 0C10.2975 0 0 10.284 0 22.9701C0 35.6561 10.2975 45.9402 23 45.9402Z" fill="#5C9326"/>
<path d="M19.8622 34.9253C19.465 34.9253 19.0733 34.8329 18.7181 34.6555C18.3629 34.478 18.0539 34.2204 17.8157 33.903L11.5409 25.5474C11.1338 25.0053 10.9591 24.3239 11.055 23.6531C11.151 22.9822 11.5099 22.377 12.0527 21.9704C12.5956 21.5639 13.2779 21.3893 13.9496 21.4851C14.6213 21.581 15.2273 21.9394 15.6344 22.4815L19.7396 27.9475L30.2831 12.1529C30.469 11.8726 30.7085 11.6317 30.9877 11.4439C31.267 11.2562 31.5807 11.1254 31.9107 11.0589C32.2407 10.9925 32.5806 10.9917 32.9109 11.0567C33.2412 11.1217 33.5554 11.2511 33.8355 11.4376C34.1157 11.6241 34.3562 11.864 34.5433 12.1435C34.7304 12.4231 34.8604 12.7367 34.9259 13.0665C34.9914 13.3963 34.9911 13.7357 34.925 14.0654C34.8589 14.3951 34.7283 14.7085 34.5407 14.9876L21.9912 33.7874C21.7642 34.1274 21.4589 34.4081 21.1008 34.606C20.7428 34.8038 20.3424 34.913 19.9334 34.9245C19.9097 34.9249 19.886 34.9253 19.8622 34.9253Z" fill="white"/>
</svg>
