<svg width="98" height="39" viewBox="0 0 98 39" fill="none" xmlns="http://www.w3.org/2000/svg">
<g clip-path="url(#clip0_1250_503)">
<path d="M40.5602 16.3653C40.2726 18.3848 39.3064 19.9439 37.6628 21.047C36.0193 22.1487 33.9531 22.7002 31.4669 22.7002C28.5077 22.7002 26.1755 21.9634 24.4701 20.4912C22.7648 19.019 21.9121 16.934 21.9121 14.2347C21.9121 11.5368 22.7547 9.45179 24.4399 7.97816C26.1252 6.50595 28.4258 5.76913 31.3433 5.76913C33.7475 5.76913 35.7706 6.305 37.4155 7.37531C39.059 8.44704 40.0138 9.9506 40.2827 11.886L35.3823 12.2565C35.1365 11.4328 34.6533 10.7943 33.9344 10.3411C33.2154 9.8879 32.3513 9.66129 31.3447 9.66129C29.9888 9.66129 28.9147 10.0689 28.1238 10.8812C27.333 11.695 26.9376 12.8124 26.9376 14.2333C26.9376 15.6542 27.3387 16.7715 28.1396 17.5853C28.9406 18.3991 30.0506 18.8052 31.4684 18.8052C32.5784 18.8052 33.4915 18.5629 34.2119 18.0784C34.9308 17.5953 35.4039 16.9197 35.6297 16.0546L40.5602 16.3653Z" fill="white"/>
<path d="M59.102 20.4285C57.3348 18.915 56.4519 16.8499 56.4519 14.2333C56.4519 11.6181 57.3348 9.55297 59.102 8.03943C60.8691 6.52589 63.2316 5.7677 66.1908 5.7677C69.1701 5.7677 71.5383 6.52447 73.2955 8.03943C75.0526 9.55297 75.9311 11.6181 75.9311 14.2333C75.9311 16.8499 75.0526 18.915 73.2955 20.4285C71.5383 21.942 69.1701 22.6988 66.1908 22.6988C63.233 22.6988 60.8691 21.942 59.102 20.4285ZM62.724 10.9425C61.8915 11.7976 61.4759 12.895 61.4759 14.2333C61.4759 15.5729 61.8929 16.6689 62.724 17.524C63.5566 18.3791 64.7126 18.8067 66.1908 18.8067C67.6704 18.8067 68.8308 18.3791 69.6734 17.524C70.516 16.6689 70.9373 15.5729 70.9373 14.2333C70.9373 12.895 70.516 11.7976 69.6734 10.9425C68.8308 10.0888 67.6704 9.65986 66.1908 9.65986C64.7126 9.66129 63.5566 10.0888 62.724 10.9425Z" fill="white"/>
<path d="M89.9549 5.7677C92.3174 5.7677 94.25 6.52447 95.7497 8.03943C97.2494 9.55297 98 11.6181 98 14.2333C98 16.8499 97.2552 18.915 95.7655 20.4285C94.2758 21.942 92.3591 22.6988 90.0168 22.6988C87.3667 22.6988 85.3623 21.7824 84.0064 19.9496V28.5107H78.9521V6.13825H83.6685V8.98005C84.9626 6.83943 87.0576 5.7677 89.9549 5.7677ZM88.4135 18.8067C89.8112 18.8067 90.9255 18.3891 91.7581 17.5553C92.5906 16.7216 93.0062 15.6143 93.0062 14.2333C93.0062 12.8537 92.5906 11.7463 91.7581 10.9126C90.9255 10.0789 89.8112 9.66129 88.4135 9.66129C86.9756 9.66129 85.8454 10.0789 85.023 10.9126C84.2005 11.7463 83.7892 12.8537 83.7892 14.2333C83.7892 15.6143 84.2005 16.7202 85.023 17.5553C85.8454 18.3891 86.9756 18.8067 88.4135 18.8067Z" fill="white"/>
<path d="M2.65005 20.4285C0.88287 18.915 0 16.8499 0 14.2333C0 11.6181 0.88287 9.55297 2.65005 8.03943C4.41723 6.52589 6.77969 5.7677 9.73889 5.7677C12.7182 5.7677 15.0864 6.52447 16.8435 8.03943C18.6007 9.55297 19.4792 11.6181 19.4792 14.2333C19.4792 16.8499 18.6007 18.915 16.8435 20.4285C15.0864 21.942 12.7182 22.6988 9.73889 22.6988C6.78113 22.6988 4.41723 21.942 2.65005 20.4285ZM6.27212 10.9425C5.43957 11.7976 5.02402 12.895 5.02402 14.2333C5.02402 15.5729 5.44101 16.6689 6.27212 17.524C7.10466 18.3791 8.26073 18.8067 9.73889 18.8067C11.2185 18.8067 12.3789 18.3791 13.2215 17.524C14.0641 16.6689 14.4854 15.5729 14.4854 14.2333C14.4854 12.895 14.0641 11.7976 13.2215 10.9425C12.3789 10.0888 11.2185 9.65986 9.73889 9.65986C8.26073 9.66129 7.10466 10.0888 6.27212 10.9425Z" fill="white"/>
<path d="M72.88 0H59.5032V3.60855H72.88V0Z" fill="white"/>
<path d="M54.5108 7.4095V3.60855H50.1037V0H45.2953V3.17672V3.66556L42.3721 3.67126V7.4095H45.0494V16.8599C45.0494 18.9606 45.5484 20.4485 46.5449 21.3249C47.5413 22.2 49.1288 22.6375 51.3072 22.6375C52.2936 22.6375 53.3619 22.5449 54.5123 22.3596V18.2808C53.7933 18.4048 53.0844 18.466 52.3856 18.466C51.4812 18.466 50.8758 18.2964 50.5667 17.9558C50.259 17.6166 50.1037 17.0038 50.1037 16.1173V7.4095H54.5108Z" fill="white"/>
<path d="M4.6372 39C3.47682 39 2.51055 38.6152 1.74128 37.847C0.970562 37.0788 0.585205 36.124 0.585205 34.9838C0.585205 33.8437 0.970562 32.8888 1.74128 32.1207C2.51199 31.3525 3.47682 30.9677 4.6372 30.9677C5.39785 30.9677 6.07942 31.1487 6.68621 31.5093C7.29157 31.8712 7.7445 32.3572 8.04215 32.9672L6.91771 33.6085C6.72216 33.2009 6.42164 32.876 6.01615 32.6309C5.61066 32.3872 5.15053 32.2646 4.6372 32.2646C3.86649 32.2646 3.22231 32.524 2.70323 33.0427C2.18415 33.5615 1.92533 34.2085 1.92533 34.9824C1.92533 35.7463 2.18415 36.3876 2.70323 36.9064C3.22231 37.4252 3.86649 37.6845 4.6372 37.6845C5.15053 37.6845 5.61354 37.5648 6.02334 37.3254C6.43458 37.086 6.74804 36.7625 6.96373 36.3563L8.10398 37.0133C7.7747 37.6147 7.30307 38.095 6.68621 38.457C6.06935 38.819 5.38635 39 4.6372 39Z" fill="white"/>
<path d="M9.42822 38.8019V27.6556H10.7683V38.8019H9.42822Z" fill="white"/>
<path d="M19.3195 37.8399C18.5287 38.6138 17.5682 39 16.438 39C15.3078 39 14.3502 38.6138 13.5651 37.8399C12.78 37.066 12.386 36.114 12.386 34.9838C12.386 33.8537 12.7785 32.9016 13.5651 32.1278C14.3502 31.3539 15.3078 30.9677 16.438 30.9677C17.5682 30.9677 18.5273 31.3539 19.3195 32.1278C20.1104 32.9016 20.5058 33.8537 20.5058 34.9838C20.5058 36.114 20.1089 37.066 19.3195 37.8399ZM16.438 37.7017C17.2087 37.7017 17.8558 37.4423 18.3791 36.9235C18.9025 36.4047 19.1642 35.7577 19.1642 34.9838C19.1642 34.21 18.9025 33.5644 18.3791 33.0442C17.8558 32.5254 17.2087 32.266 16.438 32.266C15.6773 32.266 15.036 32.5254 14.5126 33.0442C13.9892 33.5629 13.7275 34.21 13.7275 34.9838C13.7275 35.7577 13.9892 36.4033 14.5126 36.9235C15.036 37.4423 15.6773 37.7017 16.438 37.7017Z" fill="white"/>
<path d="M27.4062 31.1672H28.7464V38.8019H27.4062V37.7031C26.8613 38.5682 26.0302 39.0014 24.91 39.0014C24.0056 39.0014 23.2823 38.7192 22.7374 38.1534C22.1924 37.5891 21.9207 36.8223 21.9207 35.8561V31.1686H23.2608V35.7805C23.2608 36.4019 23.4304 36.8822 23.7698 37.2228C24.1091 37.5634 24.5765 37.7344 25.1717 37.7344C25.8389 37.7344 26.3781 37.5278 26.7894 37.1159C27.2006 36.704 27.4062 36.0698 27.4062 35.2147V31.1672Z" fill="white"/>
<path d="M37.1581 28.1131H38.4982V38.8019H37.1581V37.4893C36.4909 38.4969 35.5203 39.0014 34.2463 39.0014C33.1679 39.0014 32.2491 38.6123 31.4884 37.8328C30.7278 37.0546 30.3481 36.1055 30.3481 34.9853C30.3481 33.8651 30.7278 32.9159 31.4884 32.1378C32.2491 31.3596 33.1679 30.9691 34.2463 30.9691C35.5203 30.9691 36.4909 31.4736 37.1581 32.4812V28.1131ZM34.416 37.7173C35.1968 37.7173 35.8481 37.4551 36.373 36.9306C36.8964 36.4062 37.1581 35.7577 37.1581 34.9838C37.1581 34.21 36.8964 33.5615 36.373 33.037C35.8496 32.5126 35.1968 32.2503 34.416 32.2503C33.6453 32.2503 32.9982 32.5126 32.4748 33.037C31.9514 33.5615 31.6897 34.21 31.6897 34.9838C31.6897 35.7577 31.9514 36.4062 32.4748 36.9306C32.9996 37.4551 33.6467 37.7173 34.416 37.7173Z" fill="white"/>
</g>
<defs>
<clipPath id="clip0_1250_503">
<rect width="98" height="39" fill="white"/>
</clipPath>
</defs>
</svg>
