<svg width="85" height="85" viewBox="0 0 85 85" fill="none" xmlns="http://www.w3.org/2000/svg">
<circle cx="42.5" cy="42.5" r="42.5" fill="#00A0DC"/>
<path d="M65.9915 25.8228L66.686 25.3828V25.3828L65.9915 25.8228ZM62.3404 20.0591L61.6459 20.4991V20.4991L62.3404 20.0591ZM29.2827 18.9046C29.2827 18.4506 28.9146 18.0825 28.4606 18.0825C28.0065 18.0825 27.6385 18.4506 27.6385 18.9046H29.2827ZM58.0833 26.2334C58.0833 25.7794 57.7152 25.4113 57.2612 25.4113C56.8071 25.4113 56.4391 25.7794 56.4391 26.2334H58.0833ZM58.0408 19.5005C58.0408 19.0464 57.6727 18.6784 57.2187 18.6784C56.7647 18.6784 56.3966 19.0464 56.3966 19.5005H58.0408ZM56.3966 22.2288C56.3966 22.6829 56.7647 23.0509 57.2187 23.0509C57.6727 23.0509 58.0408 22.6829 58.0408 22.2288H56.3966ZM43.8104 18.9046C43.8104 18.4506 43.4424 18.0825 42.9883 18.0825C42.5343 18.0825 42.1662 18.4506 42.1662 18.9046H43.8104ZM42.1662 30.4944C42.1662 30.9484 42.5343 31.3165 42.9883 31.3165C43.4424 31.3165 43.8104 30.9484 43.8104 30.4944H42.1662ZM25.7145 53.5035C25.7145 53.0495 25.3464 52.6814 24.8924 52.6814C24.4383 52.6814 24.0703 53.0495 24.0703 53.5035H25.7145ZM24.0703 66.9682C24.0703 67.4222 24.4383 67.7903 24.8924 67.7903C25.3464 67.7903 25.7145 67.4222 25.7145 66.9682H24.0703ZM59.9223 66.8829C59.9223 67.337 60.2904 67.705 60.7444 67.705C61.1985 67.705 61.5666 67.337 61.5666 66.8829H59.9223ZM23.9003 49.6687C23.9003 50.1227 24.2684 50.4908 24.7225 50.4908C25.1765 50.4908 25.5446 50.1227 25.5446 49.6687H23.9003ZM28.9703 49.1874C28.5163 49.1874 28.1482 49.5555 28.1482 50.0096C28.1482 50.4636 28.5163 50.8317 28.9703 50.8317V49.1874ZM56.6665 50.8317C57.1205 50.8317 57.4886 50.4636 57.4886 50.0096C57.4886 49.5555 57.1205 49.1874 56.6665 49.1874V50.8317ZM29.3102 53.4484C28.8561 53.4484 28.488 53.8165 28.488 54.2705C28.488 54.7246 28.8561 55.0926 29.3102 55.0926V53.4484ZM57.0063 55.0926C57.4604 55.0926 57.8284 54.7246 57.8284 54.2705C57.8284 53.8165 57.4604 53.4484 57.0063 53.4484V55.0926ZM29.1402 57.7094C28.6862 57.7094 28.3181 58.0774 28.3181 58.5315C28.3181 58.9855 28.6862 59.3536 29.1402 59.3536V57.7094ZM56.8364 59.3536C57.2904 59.3536 57.6585 58.9855 57.6585 58.5315C57.6585 58.0774 57.2904 57.7094 56.8364 57.7094V59.3536ZM28.9703 61.7999C28.5163 61.7999 28.1482 62.1679 28.1482 62.622C28.1482 63.076 28.5163 63.4441 28.9703 63.4441V61.7999ZM56.6665 63.4441C57.1205 63.4441 57.4886 63.076 57.4886 62.622C57.4886 62.1679 57.1205 61.7999 56.6665 61.7999V63.4441ZM18.8878 21.8873V64.582H20.5321V21.8873H18.8878ZM23.1083 68.8129H63.1233V67.1687H23.1083V68.8129ZM67.3437 64.582V27.6509H65.6994V64.582H67.3437ZM66.686 25.3828L63.0349 19.6192L61.6459 20.4991L65.297 26.2627L66.686 25.3828ZM59.4722 17.6564H23.1083V19.3006H59.4722V17.6564ZM63.0349 19.6192C62.261 18.3975 60.9173 17.6564 59.4722 17.6564V19.3006C60.3524 19.3006 61.1727 19.752 61.6459 20.4991L63.0349 19.6192ZM67.3437 27.6509C67.3437 26.8478 67.1156 26.0611 66.686 25.3828L65.297 26.2627C65.5598 26.6775 65.6994 27.1591 65.6994 27.6509H67.3437ZM63.1233 68.8129C65.4565 68.8129 67.3437 66.9163 67.3437 64.582H65.6994C65.6994 66.013 64.5437 67.1687 63.1233 67.1687V68.8129ZM18.8878 64.582C18.8878 66.9163 20.775 68.8129 23.1083 68.8129V67.1687C21.6879 67.1687 20.5321 66.013 20.5321 64.582H18.8878ZM20.5321 21.8873C20.5321 20.4563 21.6879 19.3006 23.1083 19.3006V17.6564C20.775 17.6564 18.8878 19.553 18.8878 21.8873H20.5321ZM27.6385 18.9046V27.4265H29.2827V18.9046H27.6385ZM31.8589 31.6574H53.8629V30.0132H31.8589V31.6574ZM58.0833 27.4265V26.2334H56.4391V27.4265H58.0833ZM53.8629 31.6574C56.1961 31.6574 58.0833 29.7608 58.0833 27.4265H56.4391C56.4391 28.8575 55.2833 30.0132 53.8629 30.0132V31.6574ZM27.6385 27.4265C27.6385 29.7608 29.5256 31.6574 31.8589 31.6574V30.0132C30.4385 30.0132 29.2827 28.8575 29.2827 27.4265H27.6385ZM56.3966 19.5005V22.2288H58.0408V19.5005H56.3966ZM46.499 22.7395V26.4891H48.1433V22.7395H46.499ZM48.1707 28.1634H52.0788V26.5192H48.1707V28.1634ZM53.7505 26.4891V22.7395H52.1062V26.4891H53.7505ZM52.0788 21.0652H48.1707V22.7094H52.0788V21.0652ZM53.7505 22.7395C53.7505 21.8172 53.0044 21.0652 52.0788 21.0652V22.7094C52.0837 22.7094 52.0864 22.7102 52.0884 22.7111C52.0909 22.7121 52.0941 22.7141 52.0973 22.7173C52.1005 22.7205 52.1027 22.724 52.1041 22.7272C52.1052 22.7298 52.1062 22.7334 52.1062 22.7395H53.7505ZM52.0788 28.1634C53.0044 28.1634 53.7505 27.4114 53.7505 26.4891H52.1062C52.1062 26.4951 52.1052 26.4988 52.1041 26.5014C52.1027 26.5046 52.1005 26.5081 52.0973 26.5113C52.0941 26.5145 52.0909 26.5164 52.0884 26.5175C52.0864 26.5183 52.0837 26.5192 52.0788 26.5192V28.1634ZM46.499 26.4891C46.499 27.4114 47.2451 28.1634 48.1707 28.1634V26.5192C48.1658 26.5192 48.1631 26.5183 48.1611 26.5175C48.1586 26.5164 48.1554 26.5145 48.1522 26.5113C48.149 26.5081 48.1468 26.5046 48.1454 26.5014C48.1443 26.4988 48.1433 26.4951 48.1433 26.4891H46.499ZM48.1433 22.7395C48.1433 22.7334 48.1443 22.7298 48.1454 22.7272C48.1468 22.724 48.149 22.7205 48.1522 22.7173C48.1554 22.7141 48.1586 22.7121 48.1611 22.7111C48.1631 22.7102 48.1658 22.7094 48.1707 22.7094V21.0652C47.2451 21.0652 46.499 21.8172 46.499 22.7395H48.1433ZM42.1662 18.9046V30.4944H43.8104V18.9046H42.1662ZM24.0703 53.5035V66.9682H25.7145V53.5035H24.0703ZM59.9223 45.919V66.8829H61.5666V45.919H59.9223ZM59.8949 44.2447H25.572V45.889H59.8949V44.2447ZM23.9003 45.919V49.6687H25.5446V45.919H23.9003ZM25.572 44.2447C24.6464 44.2447 23.9003 44.9967 23.9003 45.919H25.5446C25.5446 45.913 25.5456 45.9094 25.5467 45.9068C25.5481 45.9036 25.5503 45.9001 25.5535 45.8969C25.5567 45.8937 25.5599 45.8917 25.5624 45.8906C25.5644 45.8898 25.5671 45.889 25.572 45.889V44.2447ZM61.5666 45.919C61.5666 44.9967 60.8205 44.2447 59.8949 44.2447V45.889C59.8998 45.889 59.9025 45.8898 59.9045 45.8906C59.907 45.8917 59.9102 45.8937 59.9134 45.8969C59.9166 45.9001 59.9188 45.9036 59.9202 45.9068C59.9213 45.9094 59.9223 45.913 59.9223 45.919H61.5666ZM28.9703 50.8317H56.6665V49.1874H28.9703V50.8317ZM29.3102 55.0926H57.0063V53.4484H29.3102V55.0926ZM29.1402 59.3536H56.8364V57.7094H29.1402V59.3536ZM28.9703 63.4441H56.6665V61.7999H28.9703V63.4441Z" fill="white"/>
</svg>
