<svg width="85" height="85" viewBox="0 0 85 85" fill="none" xmlns="http://www.w3.org/2000/svg">
<circle cx="42.5" cy="42.5" r="42.5" fill="#00A0DC"/>
<path fill-rule="evenodd" clip-rule="evenodd" d="M26.6319 16.2534C25.8217 16.6553 25.6872 16.9551 25.5278 18.7153C25.3019 21.2066 24.7952 22.3729 23.2814 23.8852C22.3305 24.8352 21.398 25.4104 20.1677 25.8058C19.331 26.0747 18.94 26.3705 18.6889 26.9243C18.4883 27.3671 18.4787 27.9207 18.4783 39.1011C18.4778 51.5563 18.4783 51.194 19.0306 53.9263C19.8697 57.0681 21.6513 59.9438 24.0985 62.1066C24.968 62.8751 39.5084 73.0867 40.4853 73.6149C41.2023 74.0027 42.4733 74.0141 43.181 73.6392C43.6812 73.3742 57.665 63.6672 58.8212 62.7823C59.1799 62.5079 59.8939 61.8569 60.4081 61.3359C63.0017 58.7073 64.627 55.3526 65.112 51.6264C65.4207 49.2549 65.2663 39.2725 65.1074 38.975C64.8175 38.4323 63.9218 38.4833 63.6609 39.0576C63.5714 39.2541 63.5332 41.0343 63.5332 45.005C63.5332 51.3488 63.4681 52.171 62.8039 54.2027C62.0169 56.6102 60.7298 58.6612 58.9096 60.4085C58.0283 61.2544 56.3935 62.4484 50.2757 66.7143C46.1249 69.6086 42.5511 72.0494 42.3338 72.1382C42.0347 72.2605 41.8387 72.272 41.5276 72.1852C41.3001 72.1218 38.3418 70.1351 34.9052 67.7376C31.4891 65.3545 28.0588 62.9656 27.2824 62.4291C25.6133 61.2756 23.6349 59.3721 22.7963 58.1126C21.5331 56.2155 20.659 53.9873 20.3438 51.8605C20.1933 50.8439 20.1677 49.0006 20.1677 39.1192V27.5666L20.6477 27.4372C22.2902 26.9945 24.0772 25.7834 25.2054 24.3484C26.4023 22.8259 27.0499 21.0641 27.2495 18.7873L27.3389 17.7688L30.3481 17.7122C33.1032 17.6604 33.3775 17.6374 33.5949 17.44C33.9417 17.1252 33.9126 16.547 33.5348 16.2492C33.2505 16.0249 33.1021 16.0146 30.1751 16.0148C27.2879 16.0149 27.0856 16.0285 26.6319 16.2534ZM36.5015 16.2492C36.1236 16.547 36.0946 17.1253 36.4417 17.44C36.6705 17.6476 37.0443 17.6577 46.5208 17.7122L56.3621 17.7688L56.4514 18.7873C56.6509 21.0614 57.297 22.8211 58.4935 24.3484C59.5487 25.6953 61.1527 26.8146 62.771 27.3332L63.5332 27.5775V31.5233C63.5332 34.2148 63.5738 35.5583 63.6609 35.7496C63.9218 36.3238 64.8175 36.3749 65.1074 35.8321C65.1856 35.6856 65.2263 34.1831 65.2247 31.498C65.2225 27.7348 65.2045 27.349 65.0121 26.9243C64.761 26.3705 64.3699 26.0747 63.5332 25.8058C62.2659 25.3985 61.3735 24.8414 60.3682 23.83C58.8791 22.3319 58.3165 20.9985 58.1611 18.5989C58.0668 17.1418 57.8537 16.6727 57.1067 16.2778C56.7798 16.105 56.4156 16.0146 56.0458 16.0146H46.704C36.8544 16.0146 36.7974 16.016 36.5015 16.2492ZM30.1394 20.7115C29.9768 20.8256 29.7793 21.2618 29.5389 22.0374C28.5706 25.1603 26.6301 27.589 23.8636 29.1407C23.3102 29.4511 23.0907 30.0504 23.079 30.6849C23.0504 32.219 23.0009 35.5632 23.0169 40.7134L23.0504 51.4931L23.3554 52.6064C23.9708 54.8516 25.3019 57.0855 26.8973 58.5506C27.5399 59.1405 28.8233 60.0716 31.9504 62.2159C32.8142 62.8082 33.2453 62.8891 33.6065 62.5271C33.9187 62.2143 33.9046 61.6127 33.5783 61.3206C33.4385 61.1954 32.4857 60.5153 31.4608 59.809C28.6571 57.877 27.795 57.1713 26.9852 56.1458C26.1412 55.0772 25.3671 53.5693 25.0029 52.2853L24.7462 51.38L24.7121 41.025L24.6781 30.67L25.6132 30.0568C26.8554 29.2423 28.6675 27.4211 29.4754 26.1751C30.1679 25.1073 30.7533 23.9013 31.0739 22.8822L31.2762 22.2389H41.8505H52.4248L52.627 22.8897C52.9397 23.8954 53.5169 25.0825 54.2224 26.1703C55.0336 27.4212 56.8432 29.2407 58.0878 30.0568L59.0229 30.67L58.9878 41.025C58.9548 50.7316 58.9394 51.426 58.7419 52.1156C58.4111 53.2704 57.8493 54.5172 57.2536 55.4184C56.2047 57.0052 55.5522 57.5277 48.4838 62.4415L41.8511 67.0525L39.3945 65.337C38.0435 64.3935 36.7963 63.567 36.6231 63.5005C35.999 63.2608 35.3274 63.98 35.6051 64.5907C35.7235 64.8511 41.2422 68.77 41.6811 68.9052C41.8053 68.9434 42.0512 68.8998 42.2273 68.8081C42.497 68.6679 51.4928 62.4376 55.0877 59.9015C55.6911 59.4758 56.4926 58.842 56.8687 58.4928C58.4159 57.0575 59.7401 54.8154 60.3455 52.6064L60.6506 51.4931L60.6841 40.7134C60.6993 35.8086 60.7534 32.3463 60.7188 30.7325C60.708 30.2264 60.1949 29.3391 59.7533 29.0917C57.0779 27.5924 55.1175 25.119 54.1621 22.0374C53.9217 21.2618 53.7242 20.8256 53.5615 20.7115C53.3498 20.5629 51.8721 20.5414 41.8505 20.5414C31.8289 20.5414 30.3512 20.5629 30.1394 20.7115ZM51.8937 31.2952C50.8448 31.4696 50.3855 31.8315 47.4123 34.8253C44.5925 37.6649 44.4392 37.8597 44.631 38.3604C44.7334 38.6278 45.3204 38.8989 45.6111 38.813C45.7477 38.7726 47.1046 37.5023 48.6264 35.9899C50.1481 34.4776 51.5177 33.1767 51.67 33.099C52.0538 32.9031 53.0244 32.9221 53.4285 33.1335C54.4612 33.6735 54.8828 34.8335 54.4371 35.9077C54.316 36.1996 52.0238 38.5745 46.9554 43.6595C42.9366 47.6914 39.459 51.1224 39.2274 51.2836C38.9901 51.449 38.5831 51.6022 38.2944 51.6348C37.2789 51.7495 37.127 51.6313 33.1317 47.618C31.1018 45.579 29.3873 43.7674 29.3216 43.5922C29.256 43.417 29.2022 43.0462 29.2022 42.7681C29.2022 41.2209 30.6712 40.2573 32.111 40.8601C32.3768 40.9713 33.4733 41.9764 35.136 43.6327C37.3378 45.8261 37.7951 46.2308 38.0723 46.2308C38.3495 46.2308 38.7912 45.8393 40.916 43.7099C43.1548 41.4665 43.4315 41.149 43.4315 40.8241C43.4315 40.3484 43.0888 40.0065 42.6116 40.0065C42.2845 40.0065 42.0111 40.2396 40.1588 42.0978L38.0742 44.1892L35.7467 41.8736C32.9883 39.1294 32.8528 39.0444 31.235 39.0452C30.2905 39.0456 30.0945 39.0817 29.5975 39.3468C28.918 39.7092 28.193 40.4442 27.8307 41.1382C27.603 41.5742 27.4966 41.7993 27.4966 42.7681C27.4966 43.7997 27.5931 43.9621 27.8853 44.4903C28.1055 44.8886 29.4299 46.2905 32.1202 48.9735C36.5401 53.3813 36.435 53.3047 38.0673 53.3027C39.7703 53.3004 39.3238 53.6737 47.9168 45.0709C56.6266 36.3513 56.2494 36.8061 56.2489 35.027C56.2486 34.1123 56.2085 33.8764 55.9798 33.4462C55.5579 32.6521 55.287 32.3362 54.6738 31.9237C53.8145 31.3456 52.872 31.1326 51.8937 31.2952Z" fill="white"/>
</svg>
