<svg width="222" height="168" viewBox="0 0 222 168" fill="none" xmlns="http://www.w3.org/2000/svg">
<path opacity="0.1" d="M174.26 69.0535C174.26 91.3546 163.096 111.187 145.773 123.808C133.479 132.766 118.083 138.092 101.373 138.092C95.0312 138.097 88.7158 137.318 82.5863 135.777C51.437 127.928 28.4866 101.03 28.4866 69.0535C28.4866 30.9247 61.1182 0.0151367 101.373 0.0151367C141.628 0.0151367 174.26 30.9247 174.26 69.0535Z" fill="#00A0DC"/>
<path d="M0.145028 79.0233C0.119756 79.0239 0.0947602 79.0179 0.0725211 79.0059C0.0501759 78.993 0.0316786 78.9744 0.018933 78.952C0.00618735 78.9296 -0.000345061 78.9042 1.40464e-05 78.8784V55.5446C4.01303e-05 55.5192 0.00675539 55.4943 0.0194817 55.4723C0.0322081 55.4503 0.050498 55.432 0.0725211 55.4193C9.64853 49.7936 23.6221 44.4836 41.6053 39.6313C58.6176 35.0433 78.3729 31.0854 100.323 27.8633C100.344 27.8603 100.365 27.8618 100.385 27.8677C100.405 27.8736 100.424 27.8838 100.439 27.8976C100.455 27.9113 100.468 27.9283 100.476 27.9474C100.485 27.9665 100.489 27.9873 100.489 28.0082V49.5901C100.489 49.625 100.477 49.6589 100.454 49.6855C100.432 49.7121 100.4 49.7297 100.366 49.7349C54.2302 56.7599 17.7302 67.4263 0.226236 79.0001C0.202068 79.0157 0.1738 79.0238 0.145028 79.0233ZM0.290042 55.6308V78.6097C9.33167 72.687 22.934 67.0946 40.7272 61.9873C57.7533 57.0995 77.7617 52.8867 100.198 49.4662V28.1755C55.1779 34.7927 18.7801 44.7935 0.290042 55.6308Z" fill="white"/>
<path fill-rule="evenodd" clip-rule="evenodd" d="M91.478 29.5862C90.3652 32.0606 90.3397 37.1246 90.756 41.5524C91.1992 46.2641 91.3717 49.2786 93.1686 50.8288C96.6839 53.8585 103.753 54.031 114.163 41.1711C117.22 37.3982 118.088 27.8817 109.416 24.4189C100.744 20.9561 93.5842 24.9043 91.478 29.5862Z" fill="black"/>
<circle cx="137.486" cy="33.9421" r="5.6561" transform="rotate(1.41358 137.486 33.9421)" stroke="#00A0DC" stroke-width="0.0404647" stroke-dasharray="0.04 0.04"/>
<path fill-rule="evenodd" clip-rule="evenodd" d="M51.6018 98.2925C41.9997 101.346 34.5032 105.159 34.5032 109.301C34.5032 111.737 36.4877 114.064 40.0862 116.192C42.9597 114.496 46.8613 112.925 51.6026 111.533L51.6018 98.2925Z" fill="#00A0DC" fill-opacity="0.1"/>
<path d="M39.4723 53.1268C39.5328 53.158 39.5328 53.1581 39.5328 53.1581L39.5327 53.1583L39.5325 53.1586L39.5319 53.1598L39.5296 53.164L39.5215 53.1785C39.5145 53.1907 39.5044 53.2077 39.4915 53.2273C39.4659 53.2663 39.4283 53.3175 39.3817 53.363C39.3359 53.4078 39.2762 53.4522 39.2058 53.4689C39.131 53.4867 39.052 53.4711 38.978 53.41C38.9073 53.3515 38.8429 53.253 38.7841 53.1069C38.725 52.9599 38.6694 52.7591 38.6197 52.4896C38.5271 51.9862 38.4541 51.2363 38.4209 50.1354C38.2426 50.0335 38.0388 49.9663 37.8283 49.9409C37.3284 49.8803 36.8076 50.0568 36.5227 50.5439C36.4261 50.7094 36.3471 50.9957 36.2884 51.3982C36.23 51.7984 36.1926 52.3056 36.1748 52.9066C36.1391 54.1085 36.1815 55.6806 36.2877 57.5129C36.5 61.1773 36.9668 65.8775 37.5705 70.7285C38.1741 75.5795 38.9144 80.5802 39.6736 84.8455C40.4331 89.1125 41.2106 92.6387 41.8878 94.5434C42.5579 96.4279 43.9929 97.5123 46.0149 97.9685C48.041 98.4256 50.6533 98.2507 53.6629 97.6123C59.6601 96.3401 67.207 93.2338 74.7726 89.6781L60.8813 72.904L56.6382 75.0822L56.556 75.1243L56.54 75.0333L56.6071 75.0216C56.54 75.0333 56.54 75.0332 56.54 75.033L56.5398 75.0319L56.539 75.0275L56.5359 75.0099L56.5236 74.9405L56.4753 74.6694C56.4329 74.4317 56.3701 74.0829 56.2891 73.6382C56.1269 72.7488 55.8916 71.4758 55.5989 69.9416C55.0133 66.8732 54.198 62.7602 53.2787 58.5816C52.3593 54.4028 51.3363 50.1596 50.3354 46.8302C49.8349 45.1653 49.3405 43.7307 48.8679 42.6474C48.6316 42.1057 48.4014 41.6534 48.1795 41.3047C47.9567 40.9546 47.746 40.715 47.5508 40.5916L47.5508 40.5916C47.2295 40.3882 46.6403 40.0969 46.0787 40.2142C45.53 40.3289 44.9706 40.8446 44.7281 42.3416C44.6299 42.9524 44.7128 43.7951 44.8365 44.8301C44.8515 44.9555 44.8671 45.0836 44.883 45.2144C44.8961 45.3223 44.9095 45.4319 44.9229 45.5434C45.0582 45.699 45.1705 45.928 45.2644 46.2024C45.3616 46.4868 45.4409 46.8256 45.5049 47.1943C45.6329 47.9318 45.7005 48.7949 45.7252 49.5934L45.7252 49.5934C45.7452 50.2531 45.7358 50.8688 45.7066 51.332C45.6921 51.5635 45.6725 51.7582 45.6489 51.9018C45.6371 51.9734 45.624 52.0341 45.6094 52.081C45.6022 52.1045 45.594 52.126 45.5847 52.1444C45.576 52.1617 45.5634 52.1817 45.545 52.1964C45.5237 52.2134 45.4926 52.2242 45.4586 52.2128C45.4303 52.2034 45.412 52.1824 45.4009 52.1663C45.3781 52.1335 45.3595 52.083 45.3427 52.0217C45.3083 51.8957 45.2735 51.6918 45.2391 51.3992C45.1701 50.8125 45.1011 49.8567 45.0416 48.4244L45.0416 48.4243C44.9996 47.402 44.895 46.4544 44.7928 45.6028C44.3833 45.1708 43.5862 45.0287 42.9235 45.2425C42.5902 45.35 42.2972 45.5458 42.1082 45.8331C41.9871 46.0173 41.907 46.2416 41.8877 46.5091C41.8902 46.5111 41.8926 46.513 41.8951 46.5149C42.3338 46.8634 42.6367 47.4415 42.8468 48.1015C43.0573 48.7631 43.1772 49.5159 43.2439 50.2239C43.3106 50.9323 43.3242 51.5982 43.3211 52.0868C43.3196 52.3312 43.3139 52.5314 43.3086 52.6706C43.3059 52.7402 43.3033 52.7945 43.3014 52.8315L43.2991 52.8738L43.2985 52.8847L43.2983 52.8875L43.2983 52.8882L43.2983 52.8884L43.2303 52.8842M39.4723 53.1268L39.5328 53.158L39.541 53.1421L39.5403 53.1241L39.4723 53.1268ZM39.4723 53.1268L39.5403 53.1241L39.5403 53.124L39.5403 53.1238L39.5403 53.1229L39.5401 53.1198L39.5396 53.1075L39.5371 53.0603C39.5348 53.0194 39.531 52.9598 39.5253 52.8854C39.5139 52.7364 39.4946 52.5275 39.4631 52.2871C39.4003 51.8075 39.2886 51.1987 39.0921 50.6921C38.9896 50.426 38.7954 50.2105 38.5549 50.0572C38.5534 50.0033 38.552 49.9486 38.5506 49.893L38.5506 49.8929C38.5402 49.482 38.5602 49.071 38.6103 48.6631L38.6104 48.6623C38.8028 46.9271 39.4222 46.2845 40.0598 46.1302C40.6763 45.981 41.3464 46.2769 41.748 46.5738C41.7436 46.7129 41.754 46.8612 41.7812 47.0187L41.7812 47.019C41.7865 47.0491 41.7765 47.0887 41.751 47.154C41.7468 47.1647 41.7423 47.176 41.7375 47.1878C41.7158 47.2417 41.6896 47.3066 41.6738 47.3767L41.6738 47.3767L41.6735 47.3782C41.5107 48.1846 41.534 48.5166 41.6319 48.9375C41.65 49.0156 41.6707 49.0965 41.693 49.1842C41.7886 49.5591 41.9156 50.0573 42.0148 50.9838L42.0148 50.9839C42.1875 52.5952 42.3461 53.5256 42.488 54.0129C42.5235 54.1351 42.5586 54.2314 42.5934 54.3045C42.6276 54.3762 42.6644 54.4317 42.7066 54.4657C42.7284 54.4833 42.7535 54.4967 42.7818 54.5017C42.8107 54.5069 42.8385 54.5026 42.8636 54.4916C42.9108 54.471 42.9464 54.4278 42.9737 54.383C43.0295 54.2914 43.0762 54.1503 43.1153 53.997C43.1549 53.8417 43.1884 53.667 43.2153 53.5037C43.2423 53.3401 43.263 53.1871 43.2769 53.075C43.2839 53.0189 43.2892 52.973 43.2927 52.9411L43.2967 52.9042L43.2977 52.8945L43.298 52.8919L43.298 52.8913L43.2981 52.8911L43.2303 52.8842M43.2303 52.8842L43.2981 52.891L43.2983 52.8885L43.2303 52.8842ZM44.9573 45.833C45.0498 46.6213 45.1395 47.4894 45.1777 48.4187C45.2372 49.85 45.306 50.8017 45.3744 51.3833C45.4087 51.6747 45.4425 51.8702 45.4741 51.9858C45.4778 51.9993 45.4814 52.0113 45.4848 52.022C45.4949 51.9855 45.5049 51.938 45.5145 51.8797C45.537 51.7424 45.5563 51.5528 45.5707 51.3235L44.9573 45.833ZM44.9573 45.833C45.0214 45.948 45.0809 46.0869 45.1355 46.2465C45.2296 46.5217 45.3074 46.853 45.3707 47.2176C45.4972 47.9466 45.5644 48.8028 45.589 49.5976L44.9573 45.833ZM41.9154 46.9956C41.8966 46.8862 41.8863 46.7823 41.8838 46.6835L42.1502 50.9693C42.05 50.0324 41.9206 49.5251 41.8249 49.1498C41.8027 49.0629 41.7823 48.9831 41.7646 48.9066C41.6721 48.5091 41.6472 48.1973 41.8069 47.4059C41.82 47.3479 41.841 47.2957 41.8624 47.2424C41.8676 47.2295 41.8728 47.2166 41.8779 47.2036C41.902 47.1418 41.9282 47.0682 41.9154 46.9956ZM38.56 50.2258C38.7418 50.3599 38.8855 50.5348 38.965 50.7411L38.965 50.7412C39.1557 51.2326 39.2658 51.8288 39.328 52.3048C39.3591 52.5423 39.3782 52.7487 39.3895 52.8958C39.3951 52.9693 39.3988 53.0279 39.4011 53.0681L39.4033 53.1108C39.3975 53.121 39.3888 53.1356 39.3776 53.1525C39.355 53.1869 39.3235 53.2294 39.2865 53.2656C39.2487 53.3026 39.2103 53.3279 39.1744 53.3364C39.1428 53.3438 39.1073 53.3401 39.0649 53.305C39.0192 53.2673 38.9654 53.1926 38.9105 53.0561C38.856 52.9205 38.8024 52.7293 38.7537 52.4649C38.6654 51.9854 38.5944 51.2718 38.56 50.2258Z" fill="white" stroke="black" stroke-width="0.136225"/>
<path d="M38.3853 56.4647C38.3527 56.4655 38.3208 56.4554 38.2947 56.4359C38.2686 56.4163 38.2498 56.3886 38.2414 56.3571C38.2331 56.3257 38.2356 56.2923 38.2485 56.2624C38.2614 56.2325 38.2841 56.2078 38.3128 56.1924C38.8776 55.8882 39.4519 55.613 40.0203 55.3711C45.2764 53.126 49.0787 54.187 49.1164 54.1979C49.1534 54.2085 49.1846 54.2335 49.2033 54.2671C49.2219 54.3008 49.2264 54.3405 49.2157 54.3775C49.205 54.4145 49.1801 54.4457 49.1464 54.4643C49.1126 54.4829 49.0729 54.4874 49.0359 54.4767C48.9989 54.4659 45.2887 53.4382 40.1335 55.6355C39.5737 55.8723 39.0074 56.1424 38.4506 56.4451C38.4308 56.457 38.4083 56.4637 38.3853 56.4647Z" fill="white"/>
<path d="M45.1843 60.573C45.1646 60.573 45.1451 60.569 45.1271 60.5613C45.109 60.5536 45.0927 60.5423 45.0791 60.5281C45.061 60.5092 43.2664 58.6378 41.055 58.0071C41.0367 58.0018 41.0195 57.993 41.0046 57.9812C40.9897 57.9694 40.9772 57.9547 40.968 57.938C40.9587 57.9214 40.9528 57.9031 40.9507 57.8842C40.9485 57.8653 40.95 57.8461 40.9553 57.8278C40.9605 57.8095 40.9693 57.7924 40.9812 57.7775C40.993 57.7626 41.0077 57.7501 41.0244 57.7409C41.041 57.7316 41.0594 57.7258 41.0783 57.7236C41.0972 57.7214 41.1164 57.723 41.1347 57.7282C43.054 58.2765 44.6245 59.6836 45.1226 60.1638C46.0696 57.6514 48.0802 56.5354 48.1679 56.4876C48.1847 56.4775 48.2033 56.4709 48.2227 56.4682C48.2421 56.4655 48.2619 56.4667 48.2808 56.4718C48.2997 56.477 48.3174 56.4859 48.3327 56.498C48.3481 56.5101 48.3609 56.5252 48.3702 56.5424C48.3796 56.5596 48.3854 56.5785 48.3872 56.598C48.3891 56.6174 48.3869 56.6371 48.381 56.6557C48.375 56.6744 48.3653 56.6916 48.3525 56.7064C48.3397 56.7212 48.324 56.7332 48.3064 56.7418C48.2854 56.7534 46.1907 57.9201 45.3191 60.4752C45.3093 60.5037 45.2908 60.5285 45.2663 60.546C45.2417 60.5635 45.2123 60.5729 45.1821 60.573H45.1843Z" fill="white"/>
<path fill-rule="evenodd" clip-rule="evenodd" d="M64.9729 97.26L58.7852 73.2303L63.3973 71.4023L74.7882 89.316L64.9729 97.26Z" fill="white"/>
<path fill-rule="evenodd" clip-rule="evenodd" d="M52.0848 59.6644C52.0848 59.6644 56.2786 53.9612 56.8123 50.8405C57.3459 47.7198 53.9359 49.3073 52.3255 50.1981C50.7152 51.0889 49.5906 50.0859 49.5906 50.0859L52.0848 59.6644Z" fill="white"/>
<path fill-rule="evenodd" clip-rule="evenodd" d="M132.145 94.2138C158.271 92.1947 177.381 85.7969 177.381 78.2251C177.381 70.7149 158.605 64.362 132.833 62.2871L132.145 94.2138Z" fill="#51BAE8"/>
<path d="M132.283 104.303C132.264 104.304 132.245 104.301 132.227 104.294C132.21 104.288 132.193 104.278 132.179 104.265C132.165 104.252 132.154 104.236 132.146 104.219C132.138 104.202 132.134 104.183 132.133 104.164C132.132 104.145 132.135 104.126 132.142 104.108C132.148 104.09 132.159 104.074 132.172 104.06C132.185 104.046 132.2 104.035 132.217 104.027C132.235 104.019 132.253 104.014 132.272 104.014C145.045 103.026 156.544 100.929 164.65 98.109C168.711 96.6953 171.871 95.1324 174.037 93.4631C176.251 91.7554 177.372 89.9745 177.372 88.1697C177.372 86.3787 176.268 84.6116 174.092 82.9169C171.964 81.2599 168.857 79.7057 164.859 78.2985C156.892 75.4936 145.562 73.3905 132.956 72.3751C132.918 72.372 132.882 72.3538 132.857 72.3245C132.832 72.2952 132.82 72.2571 132.823 72.2187C132.826 72.1803 132.844 72.1446 132.873 72.1197C132.903 72.0947 132.941 72.0824 132.979 72.0854C145.608 73.0993 156.964 75.2112 164.955 78.0241C173.267 80.9499 177.661 84.4581 177.661 88.1683C177.661 90.0672 176.501 91.9255 174.211 93.6912C172.021 95.3794 168.836 96.9575 164.743 98.3813C156.614 101.209 145.089 103.312 132.292 104.301L132.283 104.303Z" fill="#FDFDFD"/>
<path fill-rule="evenodd" clip-rule="evenodd" d="M78.3346 108.675L72.6406 140.621H131.131L126.033 104.645L78.3346 108.675Z" fill="black"/>
<path d="M109.955 41.4498L96.4048 42.7744L98.105 60.125L111.655 58.8004L109.955 41.4498Z" fill="white"/>
<path fill-rule="evenodd" clip-rule="evenodd" d="M105.961 49.3013L97.6309 55.2819L97.248 50.4079L105.961 49.3013Z" fill="white"/>
<path d="M114.296 41.1667L114.296 41.1667C109.114 47.5606 104.77 50.7058 101.293 51.8798C97.8197 53.0523 95.2089 52.2594 93.4771 50.7684C92.5987 50.0116 92.1125 48.8935 91.7917 47.3703C91.5097 46.0309 91.3574 44.3882 91.1746 42.4168C91.1494 42.145 91.1236 41.867 91.0968 41.5827C90.8897 39.3818 90.7925 37.0238 90.8854 34.9093C90.9784 32.7927 91.2616 30.9282 91.8104 29.7094C93.8919 25.0877 100.984 21.1686 109.594 24.6027C113.889 26.3159 115.818 29.5232 116.298 32.7688C116.779 36.0192 115.805 39.3057 114.296 41.1667Z" fill="white" stroke="black" stroke-width="0.136225"/>
<path d="M102.03 38.139C102.009 38.1391 101.987 38.1344 101.967 38.1253C101.951 38.1166 100.26 37.3286 98.1448 38.0739C98.1085 38.0867 98.0687 38.0847 98.0339 38.0682C97.9992 38.0517 97.9724 38.0221 97.9595 37.9859C97.9467 37.9497 97.9487 37.9098 97.9652 37.8751C97.9818 37.8404 98.0114 37.8137 98.0476 37.8008C100.282 37.0129 102.02 37.8291 102.094 37.8638C102.123 37.8781 102.147 37.902 102.161 37.9315C102.175 37.9611 102.179 37.9946 102.172 38.0265C102.164 38.0585 102.146 38.087 102.121 38.1074C102.095 38.1279 102.063 38.139 102.03 38.139Z" fill="black"/>
<path d="M89.771 38.9952C89.7374 38.9952 89.7049 38.9836 89.6789 38.9623C89.653 38.941 89.6352 38.9114 89.6287 38.8784C89.6222 38.8455 89.6274 38.8114 89.6433 38.7818C89.6592 38.7523 89.6848 38.7292 89.7159 38.7164C92.3385 37.6395 93.4544 38.3116 93.5008 38.3405C93.5322 38.3614 93.5542 38.3937 93.5621 38.4306C93.5701 38.4674 93.5633 38.5059 93.5433 38.5379C93.5233 38.5698 93.4916 38.5927 93.455 38.6017C93.4183 38.6107 93.3796 38.6051 93.3471 38.5861C93.3304 38.5766 92.2826 37.9755 89.8261 38.9844C89.8086 38.9914 89.7899 38.9951 89.771 38.9952Z" fill="black"/>
<path d="M95.3519 45.0576C95.1025 45.0576 94.8705 45.0265 94.7421 44.9316C94.2868 44.5919 94.5029 43.9018 94.6936 43.2927C94.7146 43.2246 94.7356 43.1572 94.7552 43.0921C95.0807 42.0115 95.444 40.8752 95.4476 40.8644C95.4534 40.8462 95.4628 40.8294 95.4751 40.8149C95.4874 40.8004 95.5024 40.7885 95.5193 40.7797C95.5363 40.771 95.5548 40.7657 95.5737 40.7642C95.5927 40.7626 95.6118 40.7648 95.63 40.7706C95.6481 40.7764 95.6649 40.7857 95.6795 40.798C95.694 40.8103 95.706 40.8253 95.7147 40.8422C95.7234 40.8591 95.7287 40.8776 95.7303 40.8966C95.7319 40.9155 95.7297 40.9346 95.7239 40.9527C95.7203 40.9636 95.3577 42.097 95.0329 43.1761C95.0126 43.242 94.9915 43.3101 94.9698 43.3789C94.8081 43.896 94.6247 44.4826 94.9147 44.6991C95.0894 44.8273 95.8312 44.7549 96.301 44.6622C96.3388 44.6547 96.378 44.6625 96.4101 44.6839C96.4421 44.7053 96.4643 44.7385 96.4718 44.7762C96.4793 44.814 96.4715 44.8532 96.45 44.8852C96.4286 44.9171 96.3954 44.9393 96.3576 44.9468C96.0262 45.0127 95.6897 45.0498 95.3519 45.0576Z" fill="white"/>
<path fill-rule="evenodd" clip-rule="evenodd" d="M99.2831 39.974C99.2699 39.9179 99.2679 39.8597 99.2774 39.8029C99.2868 39.746 99.3075 39.6916 99.3382 39.6428C99.3689 39.594 99.409 39.5518 99.4562 39.5186C99.5034 39.4855 99.5567 39.462 99.6131 39.4496C99.6692 39.4364 99.7275 39.4344 99.7844 39.4439C99.8413 39.4533 99.8958 39.4739 99.9446 39.5046C99.9935 39.5353 100.036 39.5753 100.069 39.6225C100.102 39.6696 100.126 39.7229 100.138 39.7792C100.211 40.0927 100.305 40.5142 100.377 40.8278C100.39 40.8839 100.392 40.942 100.383 40.9987C100.373 41.0555 100.353 41.1098 100.322 41.1585C100.291 41.2073 100.251 41.2494 100.204 41.2825C100.157 41.3156 100.104 41.3391 100.047 41.3514C99.9912 41.3647 99.933 41.3667 99.8761 41.3572C99.8191 41.3478 99.7647 41.3271 99.7158 41.2965C99.667 41.2658 99.6247 41.2257 99.5915 41.1786C99.5583 41.1315 99.5348 41.0782 99.5224 41.0219C99.4506 40.712 99.3549 40.2868 99.2831 39.974Z" fill="#303032"/>
<path fill-rule="evenodd" clip-rule="evenodd" d="M92.533 41.1935C92.5198 41.1374 92.5179 41.0793 92.5274 41.0226C92.5369 40.9658 92.5576 40.9115 92.5883 40.8628C92.619 40.814 92.6591 40.7719 92.7062 40.7388C92.7534 40.7057 92.8066 40.6822 92.8629 40.6699C92.9191 40.6566 92.9773 40.6546 93.0342 40.6641C93.0911 40.6735 93.1456 40.6942 93.1944 40.7248C93.2433 40.7555 93.2855 40.7956 93.3188 40.8427C93.352 40.8898 93.3754 40.9431 93.3878 40.9994C93.4603 41.3122 93.5553 41.7345 93.6271 42.0473C93.6404 42.1034 93.6424 42.1616 93.6329 42.2184C93.6235 42.2753 93.6028 42.3297 93.5721 42.3785C93.5414 42.4273 93.5013 42.4695 93.4541 42.5027C93.4069 42.5358 93.3536 42.5593 93.2972 42.5717C93.2411 42.5848 93.1829 42.5867 93.1261 42.5772C93.0693 42.5677 93.0149 42.547 92.9661 42.5164C92.9173 42.4857 92.8751 42.4457 92.842 42.3986C92.8088 42.3515 92.7854 42.2984 92.773 42.2421C92.7005 41.9286 92.604 41.5092 92.533 41.1935Z" fill="#303032"/>
<path d="M98.2506 48.2079C98.2122 48.2112 98.174 48.1991 98.1445 48.1742C98.115 48.1493 98.0966 48.1138 98.0933 48.0754C98.09 48.037 98.1022 47.9988 98.1271 47.9694C98.1519 47.9399 98.1875 47.9215 98.226 47.9182C99.9662 47.6191 100.992 46.1243 101.002 46.1077C101.013 46.0911 101.026 46.0767 101.042 46.0655C101.058 46.0542 101.076 46.0463 101.095 46.0423C101.114 46.0382 101.134 46.038 101.153 46.0417C101.172 46.0455 101.191 46.053 101.207 46.0639C101.223 46.0749 101.237 46.089 101.247 46.1054C101.258 46.1218 101.265 46.1401 101.268 46.1594C101.272 46.1786 101.271 46.1983 101.267 46.2173C101.262 46.2363 101.254 46.2542 101.242 46.2699C101.198 46.3351 100.137 47.882 98.2753 48.2021C98.2673 48.2048 98.259 48.2067 98.2506 48.2079Z" fill="black"/>
<path fill-rule="evenodd" clip-rule="evenodd" d="M109.802 41.1472L110.527 47.1669C110.527 47.1669 118.758 44.5822 116.69 38.1547C116.69 38.1547 120.598 31.486 114.797 27.9649C113.872 22.7801 110.602 20.795 105.349 21.5294C105.349 21.5294 93.3943 22.7541 90.7478 23.0901C86.9774 23.563 87.4357 26.8133 89.3666 30.9603C91.9587 36.5317 104.794 24.9434 106.731 37.0379L109.802 41.1472Z" fill="black"/>
<path fill-rule="evenodd" clip-rule="evenodd" d="M105.184 38.9613C104.986 38.6926 108.748 35.2808 110.897 36.9849C113.202 38.8128 109.766 42.2312 108.622 42.355L105.184 38.9613Z" fill="white"/>
<path d="M108.163 39.9081C108.141 39.908 108.12 39.903 108.1 39.8935C108.081 39.884 108.064 39.8702 108.05 39.8531C108.026 39.8231 108.015 39.7848 108.019 39.7467C108.023 39.7085 108.043 39.6736 108.073 39.6496L109.413 38.5835C109.428 38.5714 109.445 38.5623 109.464 38.5568C109.482 38.5513 109.501 38.5496 109.52 38.5516C109.54 38.5536 109.558 38.5595 109.575 38.5687C109.592 38.5779 109.607 38.5904 109.618 38.6055C109.63 38.6205 109.639 38.6377 109.645 38.6562C109.65 38.6746 109.651 38.6939 109.649 38.713C109.647 38.732 109.641 38.7505 109.631 38.7671C109.622 38.7838 109.609 38.7985 109.594 38.8102L108.254 39.8763C108.228 39.8969 108.196 39.9081 108.163 39.9081Z" fill="white"/>
<path d="M126.806 95.7955L143.658 86.3827L145.684 90.6765L145.723 90.76L145.791 90.6977L145.745 90.6474L145.791 90.6977L145.791 90.6976L145.792 90.6972L145.793 90.6956L145.8 90.6893L145.828 90.6644L145.935 90.5664C146.03 90.4802 146.17 90.353 146.351 90.1888C146.713 89.8605 147.24 89.3844 147.899 88.7934C149.217 87.6113 151.063 85.9697 153.175 84.1316C155.822 81.8291 158.964 80.167 162.358 79.2743C165.736 78.3856 169.273 78.2831 172.696 78.9743L173.844 87.86C169.766 92.544 164.611 97.805 159.867 102.288C155.114 106.779 150.779 110.486 148.356 112.049L148.356 112.049C144.984 114.227 140.705 113.284 136.703 110.217C132.714 107.161 129.017 102.008 126.806 95.7955Z" fill="white" stroke="black" stroke-width="0.136225"/>
<path fill-rule="evenodd" clip-rule="evenodd" d="M145.749 90.6472L128.42 95.5958L129.991 90.0982L141.908 83.6997L146.464 86.4851L145.749 90.6472Z" fill="white"/>
<path d="M145.005 87.141L145.031 87.2171L145.102 87.1785L155.015 81.7713L163.723 99.2885L151.872 111.377C150.797 112.473 149.503 113.33 148.073 113.891C146.643 114.452 145.11 114.705 143.575 114.633C142.041 114.561 140.539 114.165 139.168 113.472C137.797 112.779 136.589 111.805 135.622 110.612L129.347 102.876L129.215 94.659L129.147 94.6601L129.079 94.6612L129.211 102.901L129.212 102.925L129.212 102.925L129.535 123.081L129.495 123.088C129.43 123.099 129.334 123.116 129.207 123.137C128.954 123.18 128.579 123.242 128.093 123.317C127.12 123.467 125.703 123.672 123.925 123.89C120.368 124.328 115.367 124.82 109.589 125.04C98.0468 125.479 83.4113 124.83 71.0011 120.489L72.3221 91.0456L72.3269 90.9379L72.2275 90.9798L53.1539 99.0288C51.894 99.5603 50.5294 99.7982 49.1638 99.7243C47.7981 99.6503 46.4673 99.2666 45.2723 98.6023C44.0772 97.9379 43.0495 97.0104 42.267 95.89C41.4845 94.7697 40.9678 93.486 40.7561 92.1365L40.6888 92.147L40.7561 92.1365L38.2608 76.2385L37.3461 70.4109L37.081 68.7224L37.0102 68.2713L36.9953 68.1761L54.4153 63.5832L57.097 74.6318L57.1223 74.7361L57.2059 74.6688L57.1631 74.6157C57.2059 74.6688 57.2059 74.6687 57.206 74.6687L57.2063 74.6684L57.2077 74.6673L57.2133 74.6628L57.2355 74.6451L57.3235 74.575C57.4014 74.5133 57.5171 74.4221 57.6684 74.3043C57.971 74.0687 58.416 73.7264 58.9855 73.3001C60.1245 72.4474 61.7611 71.2587 63.7513 69.9148C67.7321 67.2265 73.1259 63.9182 78.7809 61.4349C85.3477 58.5511 92.6961 57.984 97.4903 57.6494L111.764 57.6457L111.764 57.6458L111.771 57.6461L111.798 57.6477C111.821 57.6492 111.856 57.6514 111.903 57.6544C111.995 57.6606 112.131 57.6703 112.308 57.6843C112.66 57.7124 113.171 57.758 113.806 57.8279C115.076 57.9676 116.841 58.2044 118.819 58.5929C122.779 59.3704 127.586 60.7535 131.002 63.1742C135.61 66.4391 140.331 73.6268 145.005 87.141Z" fill="#00A0DC" stroke="black" stroke-width="0.136225"/>
<path d="M34.0356 74.0263C34.0007 74.0265 33.9668 74.014 33.9403 73.9913C33.9138 73.9685 33.8964 73.9369 33.8914 73.9023C33.8864 73.8678 33.894 73.8325 33.9129 73.8032C33.9318 73.7738 33.9607 73.7522 33.9943 73.7424L56.2417 67.0999C56.2786 67.0888 56.3184 67.0929 56.3523 67.1111C56.3862 67.1294 56.4115 67.1604 56.4226 67.1973C56.4336 67.2341 56.4296 67.2739 56.4113 67.3078C56.393 67.3417 56.362 67.3669 56.325 67.378L34.0777 74.0198C34.0641 74.024 34.0499 74.0262 34.0356 74.0263Z" fill="black"/>
<path d="M160.468 102.851C160.44 102.851 160.413 102.843 160.389 102.828C160.366 102.813 160.347 102.791 160.336 102.766L151.562 83.5683C151.554 83.551 151.55 83.5323 151.549 83.5132C151.549 83.4942 151.552 83.4753 151.558 83.4575C151.565 83.4396 151.575 83.4233 151.588 83.4094C151.601 83.3955 151.617 83.3842 151.634 83.3763C151.651 83.3684 151.67 83.364 151.689 83.3634C151.708 83.3627 151.727 83.3658 151.745 83.3724C151.763 83.3791 151.779 83.3892 151.793 83.4022C151.807 83.4151 151.818 83.4307 151.826 83.448L160.6 102.646C160.608 102.663 160.612 102.682 160.613 102.701C160.613 102.72 160.61 102.739 160.603 102.757C160.597 102.775 160.586 102.791 160.573 102.805C160.56 102.819 160.545 102.83 160.527 102.838C160.508 102.846 160.488 102.851 160.468 102.851Z" fill="black"/>
<path fill-rule="evenodd" clip-rule="evenodd" d="M97.4901 57.578L97.4263 54.6189L111.371 53.3652L111.652 57.6454L97.4901 57.578Z" fill="#00A0DC"/>
<path d="M98.3124 59.1068C98.2752 59.1068 98.2395 59.0927 98.2125 59.0672C98.1856 59.0417 98.1694 59.0069 98.1673 58.9699L97.8904 53.9191C97.8882 53.8807 97.9015 53.843 97.9272 53.8144C97.9529 53.7857 97.9889 53.7684 98.0274 53.7663C98.0659 53.7642 98.1036 53.7774 98.1323 53.8031C98.161 53.8288 98.1783 53.8648 98.1804 53.9032L98.4574 58.9539C98.4585 58.973 98.4558 58.992 98.4495 59.01C98.4431 59.028 98.4333 59.0446 98.4206 59.0588C98.4079 59.073 98.3925 59.0845 98.3753 59.0927C98.3581 59.101 98.3394 59.1057 98.3203 59.1068H98.3124Z" fill="black"/>
<path d="M100.869 59.1072C100.832 59.1073 100.796 59.0929 100.769 59.0671C100.742 59.0414 100.726 59.0062 100.724 58.9689L100.401 51.7658C100.399 51.7273 100.412 51.6898 100.438 51.6614C100.464 51.6331 100.501 51.6161 100.539 51.6144C100.577 51.6127 100.615 51.6263 100.643 51.6522C100.672 51.6782 100.689 51.7143 100.691 51.7527L101.015 58.9559C101.016 58.9749 101.013 58.9939 101.006 59.0118C101 59.0297 100.99 59.0462 100.977 59.0602C100.964 59.0743 100.948 59.0857 100.931 59.0937C100.914 59.1018 100.895 59.1064 100.876 59.1072H100.869Z" fill="black"/>
<path d="M103.496 59.1072C103.459 59.1072 103.423 59.0931 103.396 59.0676C103.369 59.0422 103.353 59.0073 103.351 58.9703L102.953 51.2856C102.952 51.2665 102.955 51.2475 102.961 51.2296C102.967 51.2117 102.977 51.1951 102.99 51.181C103.003 51.1669 103.018 51.1554 103.036 51.1473C103.053 51.1391 103.072 51.1344 103.091 51.1335C103.11 51.1325 103.129 51.1353 103.147 51.1417C103.165 51.1481 103.181 51.158 103.195 51.1708C103.209 51.1836 103.221 51.199 103.229 51.2162C103.237 51.2334 103.242 51.2521 103.243 51.2711L103.639 58.9479C103.641 58.9862 103.627 59.0237 103.602 59.0522C103.576 59.0807 103.54 59.0979 103.502 59.0999L103.496 59.1072Z" fill="black"/>
<path d="M106.124 59.1061C106.086 59.1061 106.051 59.092 106.024 59.0665C105.997 59.041 105.981 59.0062 105.979 58.9692L105.583 51.2924C105.582 51.2734 105.585 51.2544 105.591 51.2364C105.597 51.2185 105.607 51.202 105.62 51.1879C105.633 51.1737 105.648 51.1623 105.666 51.1541C105.683 51.146 105.701 51.1413 105.72 51.1403C105.739 51.1394 105.759 51.1422 105.776 51.1486C105.794 51.155 105.811 51.1648 105.825 51.1776C105.839 51.1904 105.851 51.2058 105.859 51.223C105.867 51.2402 105.872 51.2589 105.873 51.2779L106.269 58.9547C106.27 58.9737 106.267 58.9928 106.26 59.0107C106.254 59.0286 106.244 59.0452 106.231 59.0593C106.219 59.0734 106.203 59.0849 106.186 59.093C106.169 59.1012 106.15 59.1059 106.131 59.1068L106.124 59.1061Z" fill="black"/>
<path d="M108.753 59.1061C108.716 59.1061 108.681 59.092 108.654 59.0665C108.627 59.041 108.611 59.0062 108.608 58.9692L108.213 51.2924C108.212 51.2734 108.214 51.2544 108.221 51.2364C108.227 51.2185 108.237 51.202 108.25 51.1879C108.263 51.1737 108.278 51.1623 108.295 51.1541C108.313 51.146 108.331 51.1413 108.35 51.1403C108.369 51.1394 108.388 51.1422 108.406 51.1486C108.424 51.155 108.441 51.1648 108.455 51.1776C108.469 51.1904 108.481 51.2058 108.489 51.223C108.497 51.2402 108.502 51.2589 108.503 51.2779L108.898 58.9547C108.9 58.993 108.887 59.0305 108.861 59.059C108.836 59.0876 108.8 59.1047 108.761 59.1068L108.753 59.1061Z" fill="black"/>
<path d="M111.378 59.1061C111.341 59.1061 111.305 59.092 111.278 59.0665C111.251 59.041 111.235 59.0062 111.233 58.9692L110.837 51.2924C110.835 51.254 110.849 51.2164 110.874 51.1879C110.9 51.1593 110.936 51.1422 110.975 51.1403C111.013 51.1384 111.051 51.1518 111.08 51.1776C111.108 51.2034 111.125 51.2395 111.127 51.2779L111.523 58.9547C111.524 58.9737 111.521 58.9928 111.515 59.0107C111.508 59.0287 111.499 59.0452 111.486 59.0593C111.473 59.0734 111.457 59.0849 111.44 59.093C111.423 59.1012 111.404 59.1059 111.385 59.1068L111.378 59.1061Z" fill="black"/>
<path d="M70.9772 120.605H70.9707C70.9516 120.604 70.9329 120.6 70.9156 120.592C70.8984 120.583 70.8829 120.572 70.87 120.558C70.8571 120.544 70.8472 120.528 70.8407 120.51C70.8342 120.492 70.8313 120.473 70.8322 120.454L72.3077 87.7811C72.3094 87.7426 72.3264 87.7065 72.3548 87.6805C72.3688 87.6677 72.3853 87.6577 72.4032 87.6513C72.4212 87.6448 72.4402 87.6419 72.4592 87.6427C72.4783 87.6436 72.497 87.6482 72.5142 87.6562C72.5315 87.6643 72.547 87.6757 72.5599 87.6898C72.5727 87.7038 72.5827 87.7203 72.5892 87.7382C72.5957 87.7561 72.5986 87.7751 72.5977 87.7941L71.1222 120.467C71.1205 120.504 71.1045 120.539 71.0775 120.565C71.0505 120.591 71.0146 120.605 70.9772 120.605Z" fill="black"/>
<path d="M129.619 124.143C129.581 124.143 129.544 124.128 129.517 124.101C129.49 124.074 129.474 124.037 129.474 123.998L128.873 87.9472C128.873 87.9088 128.887 87.8717 128.914 87.844C128.941 87.8164 128.977 87.8005 129.016 87.7998C129.054 87.7992 129.091 87.8138 129.119 87.8405C129.147 87.8671 129.163 87.9037 129.163 87.9421L129.764 123.994C129.764 124.032 129.748 124.069 129.721 124.096C129.694 124.124 129.657 124.139 129.619 124.139L129.619 124.143Z" fill="black"/>
<path fill-rule="evenodd" clip-rule="evenodd" d="M177.408 75.1303C175.991 83.9948 148.405 91.0755 114.629 91.0755C111.08 91.0755 107.601 90.9958 104.212 90.8466V145.926C104.212 145.926 109.165 145.618 114.629 145.23C129.909 144.144 177.465 137.771 177.465 128.573V75.1201L177.408 75.1303Z" fill="#FDFDFD"/>
<path d="M111.457 101.865C106.924 101.865 104.301 101.693 104.264 101.69C104.245 101.689 104.227 101.684 104.21 101.676C104.193 101.667 104.177 101.655 104.165 101.641C104.152 101.627 104.143 101.61 104.137 101.592C104.13 101.574 104.128 101.555 104.129 101.536C104.131 101.517 104.136 101.498 104.144 101.481C104.152 101.464 104.164 101.449 104.179 101.436C104.193 101.424 104.21 101.414 104.228 101.408C104.246 101.402 104.265 101.399 104.284 101.401C104.335 101.401 109.494 101.742 117.881 101.467C129.232 101.075 140.539 99.8489 151.71 97.7984C165.566 95.2411 171.969 91.9256 174.901 89.5943C178.058 87.0842 177.96 85.1577 177.958 85.1389C177.956 85.1005 177.968 85.0625 177.993 85.0332C178.018 85.0039 178.054 84.9858 178.092 84.9829C178.131 84.9799 178.169 84.9923 178.198 85.0173C178.227 85.0424 178.246 85.0781 178.249 85.1165C178.256 85.199 178.375 87.1805 175.136 89.779C173.256 91.2869 170.619 92.6977 167.298 93.9723C163.158 95.5656 157.931 96.9416 151.764 98.083C140.578 100.137 129.256 101.365 117.889 101.757C115.458 101.836 113.3 101.865 111.457 101.865Z" fill="#51BAE8"/>
<path d="M111.359 99.8653C111.339 99.8653 111.32 99.8614 111.303 99.854C111.285 99.8465 111.269 99.8356 111.255 99.8218L107.369 95.8429C107.342 95.8158 107.327 95.7791 107.327 95.7408C107.327 95.7025 107.342 95.6658 107.369 95.6387C107.383 95.6252 107.399 95.6145 107.416 95.6072C107.434 95.5999 107.453 95.5962 107.472 95.5962C107.491 95.5962 107.51 95.5999 107.527 95.6072C107.545 95.6145 107.561 95.6252 107.575 95.6387L111.46 99.6176C111.474 99.631 111.484 99.647 111.492 99.6646C111.499 99.6822 111.503 99.701 111.503 99.72C111.503 99.7391 111.499 99.7579 111.492 99.7755C111.484 99.7931 111.474 99.8091 111.46 99.8225C111.433 99.8495 111.397 99.8649 111.359 99.8653Z" fill="#00A0DC" fill-opacity="0.3"/>
<path d="M107.473 99.8679C107.444 99.8679 107.417 99.8595 107.393 99.8437C107.369 99.8279 107.35 99.8055 107.339 99.7792C107.328 99.7529 107.325 99.7239 107.33 99.6959C107.336 99.6678 107.349 99.642 107.369 99.6216L111.255 95.6435C111.268 95.6288 111.284 95.6169 111.302 95.6086C111.319 95.6002 111.339 95.5955 111.358 95.5948C111.378 95.5941 111.397 95.5974 111.416 95.6044C111.434 95.6115 111.451 95.6222 111.465 95.6359C111.479 95.6496 111.49 95.666 111.497 95.6841C111.505 95.7022 111.509 95.7216 111.508 95.7412C111.508 95.7608 111.504 95.7802 111.496 95.7981C111.488 95.816 111.477 95.8322 111.462 95.8455L107.577 99.8237C107.563 99.8376 107.547 99.8487 107.529 99.8563C107.512 99.8638 107.492 99.8678 107.473 99.8679Z" fill="#51BAE8"/>
<path fill-rule="evenodd" clip-rule="evenodd" d="M108.835 126.846C68.359 126.846 35.406 118.93 34.6272 109.102C34.5932 111.483 34.4619 120.766 34.4619 124.829C34.4619 134.817 67.7195 142.922 108.684 142.922L108.835 126.846Z" fill="#00A0DC" fill-opacity="0.3"/>
<path d="M109.567 146.381C109.545 146.381 109.524 146.376 109.505 146.367C109.485 146.358 109.468 146.344 109.455 146.328L90.3961 123.019C90.3827 123.005 90.3725 122.988 90.366 122.969C90.3595 122.95 90.3569 122.931 90.3583 122.911C90.3597 122.891 90.3651 122.872 90.3742 122.855C90.3832 122.837 90.3958 122.822 90.411 122.809C90.4263 122.797 90.444 122.787 90.4629 122.782C90.4819 122.777 90.5018 122.775 90.5214 122.778C90.5409 122.78 90.5598 122.787 90.5768 122.797C90.5938 122.807 90.6085 122.82 90.6201 122.836L109.679 146.144C109.697 146.166 109.708 146.191 109.711 146.219C109.715 146.246 109.71 146.274 109.698 146.298C109.687 146.323 109.668 146.344 109.645 146.359C109.621 146.373 109.594 146.381 109.567 146.381Z" fill="white"/>
<path d="M99.0014 146.382C98.9799 146.382 98.9586 146.377 98.9392 146.368C98.9197 146.358 98.9026 146.345 98.889 146.328L79.8305 123.02C79.8062 122.99 79.7947 122.952 79.7986 122.914C79.8025 122.875 79.8214 122.84 79.8512 122.816C79.881 122.792 79.9192 122.78 79.9575 122.784C79.9958 122.788 80.031 122.807 80.0553 122.836L99.1138 146.145C99.1313 146.166 99.1423 146.192 99.1457 146.219C99.149 146.246 99.1446 146.274 99.1328 146.299C99.121 146.324 99.1024 146.345 99.0791 146.359C99.0559 146.374 99.0289 146.382 99.0014 146.382Z" fill="white"/>
<path d="M88.4362 146.382C88.4147 146.382 88.3934 146.377 88.374 146.368C88.3545 146.358 88.3374 146.345 88.3238 146.328L69.2653 123.02C69.2533 123.005 69.2443 122.988 69.2388 122.97C69.2333 122.952 69.2315 122.932 69.2334 122.914C69.2353 122.895 69.241 122.876 69.25 122.859C69.259 122.843 69.2713 122.828 69.286 122.816C69.3008 122.804 69.3178 122.795 69.336 122.789C69.3542 122.784 69.3734 122.782 69.3923 122.784C69.4113 122.786 69.4297 122.791 69.4465 122.801C69.4632 122.81 69.4781 122.822 69.4901 122.836L88.5486 146.145C88.5608 146.16 88.5698 146.177 88.5754 146.195C88.5809 146.213 88.5828 146.232 88.5809 146.251C88.579 146.27 88.5734 146.289 88.5644 146.305C88.5554 146.322 88.5431 146.337 88.5283 146.349C88.5023 146.37 88.4698 146.382 88.4362 146.382Z" fill="white"/>
<path d="M77.8713 146.382C77.8497 146.382 77.8285 146.377 77.809 146.368C77.7896 146.358 77.7725 146.345 77.7589 146.328L46.4924 108.089C46.4681 108.059 46.4566 108.021 46.4605 107.983C46.4643 107.945 46.4832 107.909 46.5131 107.885C46.5429 107.861 46.5811 107.849 46.6194 107.853C46.6577 107.857 46.6928 107.876 46.7172 107.906L77.9837 146.145C78.0011 146.166 78.0122 146.192 78.0156 146.219C78.0189 146.246 78.0145 146.274 78.0027 146.299C77.9909 146.324 77.9723 146.345 77.949 146.359C77.9257 146.374 77.8988 146.382 77.8713 146.382Z" fill="white"/>
<path d="M67.3061 146.382C67.2845 146.382 67.2633 146.377 67.2438 146.368C67.2244 146.358 67.2073 146.345 67.1937 146.328L35.9272 108.089C35.9029 108.059 35.8914 108.021 35.8953 107.983C35.8991 107.945 35.9181 107.909 35.9479 107.885C35.9777 107.861 36.0159 107.849 36.0542 107.853C36.0925 107.857 36.1276 107.876 36.152 107.906L67.4177 146.145C67.4352 146.166 67.4462 146.192 67.4496 146.219C67.453 146.246 67.4486 146.274 67.4369 146.299C67.4252 146.323 67.4067 146.344 67.3835 146.359C67.3604 146.374 67.3335 146.382 67.3061 146.382Z" fill="white"/>
<path d="M56.7406 146.382C56.719 146.382 56.6977 146.377 56.6783 146.367C56.6589 146.358 56.6417 146.345 56.6282 146.328L25.3624 108.089C25.3491 108.074 25.3388 108.057 25.3323 108.039C25.3258 108.02 25.3232 108 25.3246 107.981C25.326 107.961 25.3314 107.942 25.3405 107.924C25.3495 107.907 25.3621 107.891 25.3774 107.879C25.3926 107.866 25.4103 107.857 25.4293 107.852C25.4482 107.846 25.4681 107.845 25.4877 107.847C25.5073 107.85 25.5261 107.856 25.5431 107.866C25.5601 107.876 25.5748 107.89 25.5864 107.906L56.8529 146.145C56.8651 146.16 56.8742 146.176 56.8797 146.195C56.8853 146.213 56.8871 146.232 56.8853 146.251C56.8834 146.27 56.8777 146.288 56.8687 146.305C56.8597 146.322 56.8474 146.337 56.8326 146.349C56.8066 146.37 56.7741 146.382 56.7406 146.382Z" fill="white"/>
<path fill-rule="evenodd" clip-rule="evenodd" d="M127.429 162.671C135.332 161.947 143.336 161.001 148.942 159.643V109.025C142.602 110.208 135.401 111.088 127.639 111.585L127.429 162.671Z" fill="#51BAE8"/>
<path d="M189.883 122.102C189.848 122.102 189.814 122.088 189.788 122.065C189.762 122.041 189.745 122.009 189.741 121.974C189.737 121.939 189.745 121.904 189.765 121.875C189.785 121.846 189.815 121.825 189.85 121.817C194.889 120.6 202.623 118.221 209.216 115.193C212.884 113.508 215.792 111.806 217.858 110.134C220.25 108.202 221.504 106.312 221.595 104.519C221.685 102.765 220.794 100.979 218.948 99.2107C217.457 97.7818 215.344 96.3631 212.67 94.9943C208.102 92.6587 203.429 91.2645 203.383 91.2508C203.364 91.2463 203.346 91.2379 203.33 91.2262C203.314 91.2145 203.301 91.1997 203.291 91.1826C203.281 91.1656 203.274 91.1467 203.272 91.1271C203.27 91.1075 203.271 91.0876 203.277 91.0687C203.282 91.0498 203.292 91.0322 203.304 91.017C203.317 91.0019 203.333 90.9894 203.35 90.9805C203.368 90.9716 203.387 90.9663 203.407 90.9651C203.427 90.9639 203.446 90.9667 203.465 90.9734C203.512 90.9871 208.211 92.3878 212.799 94.735C215.499 96.1161 217.635 97.5515 219.148 99.0007C221.058 100.83 221.976 102.694 221.885 104.533C221.79 106.416 220.496 108.371 218.042 110.359C215.957 112.046 213.029 113.763 209.342 115.456C202.73 118.493 194.975 120.878 189.921 122.098C189.909 122.101 189.896 122.102 189.883 122.102Z" fill="black"/>
<path d="M58.9562 130.527C58.9447 130.527 58.9333 130.525 58.9221 130.522C53.8691 129.303 46.1138 126.917 39.5019 123.881C35.812 122.185 32.8841 120.471 30.801 118.784C28.3459 116.798 27.0524 114.838 26.9581 112.958C26.8646 111.116 27.7854 109.255 29.6953 107.426C31.2078 105.977 33.3438 104.541 36.0447 103.159C40.6322 100.812 45.3307 99.412 45.3778 99.3975C45.3961 99.3921 45.4153 99.3904 45.4342 99.3924C45.4532 99.3944 45.4715 99.4002 45.4883 99.4093C45.505 99.4184 45.5198 99.4307 45.5317 99.4455C45.5437 99.4604 45.5526 99.4774 45.558 99.4956C45.5634 99.5139 45.5651 99.533 45.5631 99.552C45.5611 99.5709 45.5553 99.5892 45.5462 99.6059C45.5371 99.6227 45.5247 99.6374 45.5099 99.6494C45.4951 99.6613 45.478 99.6702 45.4598 99.6756C45.4134 99.6894 40.7374 101.083 36.1731 103.419C33.499 104.787 31.3876 106.206 29.8947 107.636C28.0486 109.404 27.1582 111.19 27.2474 112.943C27.3388 114.737 28.5961 116.627 30.9852 118.559C33.0516 120.231 35.9592 121.932 39.6273 123.617C46.2196 126.646 53.954 129.025 58.9939 130.241C59.0289 130.249 59.0596 130.269 59.0803 130.299C59.1009 130.328 59.11 130.364 59.1058 130.399C59.1015 130.435 59.0843 130.467 59.0573 130.491C59.0304 130.515 58.9957 130.527 58.9599 130.527H58.9562Z" fill="black"/>
<path fill-rule="evenodd" clip-rule="evenodd" d="M184.612 88.8509C194.763 91.0069 202.188 93.8806 205.494 97.1382C208.628 91.096 208.601 83.396 208.601 80.9344C208.601 75.9633 199.222 71.513 184.47 68.54L184.612 88.8509Z" fill="#3F3D56"/>
<path d="M206.646 86.2149C206.609 86.2149 206.574 86.2011 206.547 86.1761C206.52 86.1511 206.504 86.1168 206.501 86.0802C206.501 86.0389 206.252 83.407 201.906 80.3668C194.735 75.3501 183.358 72.9732 183.244 72.95C183.225 72.9461 183.207 72.9386 183.192 72.928C183.176 72.9173 183.162 72.9036 183.152 72.8877C183.141 72.8718 183.134 72.854 183.131 72.8353C183.127 72.8166 183.127 72.7973 183.131 72.7787C183.135 72.7601 183.142 72.7424 183.153 72.7266C183.164 72.7109 183.177 72.6974 183.193 72.6869C183.209 72.6765 183.227 72.6692 183.246 72.6657C183.265 72.6621 183.284 72.6622 183.302 72.6661C183.417 72.6893 194.851 75.0777 202.073 80.1256C206.56 83.2651 206.786 85.9447 206.791 86.057C206.792 86.076 206.79 86.0951 206.784 86.1132C206.778 86.1312 206.768 86.1479 206.755 86.1622C206.743 86.1766 206.727 86.1883 206.71 86.1967C206.693 86.2051 206.675 86.21 206.655 86.2112L206.646 86.2149Z" fill="white"/>
<path fill-rule="evenodd" clip-rule="evenodd" d="M191.292 112.67C201.235 109.851 208.609 106.208 208.609 102.234C208.609 96.6037 208.569 84.1478 208.559 80.9648C207.938 84.8757 201.515 88.4301 191.292 91.1539V112.67Z" fill="#3F3D56"/>
<path d="M189.701 97.0883C189.534 97.0883 189.494 97.0535 189.473 97.0354C189.447 97.0126 189.429 96.9807 189.424 96.9459C189.419 96.9111 189.427 96.8757 189.446 96.8462C189.466 96.8168 189.495 96.7954 189.529 96.786C189.563 96.7765 189.599 96.7797 189.631 96.795C189.761 96.824 190.995 96.8978 200.131 93.4795C205.176 91.5922 207.795 88.8981 209.103 86.9702C210.521 84.883 210.75 83.2201 210.752 83.2042C210.757 83.1658 210.777 83.1309 210.808 83.1072C210.838 83.0835 210.877 83.0729 210.916 83.0778C210.954 83.0827 210.989 83.1027 211.013 83.1333C211.036 83.1639 211.047 83.2027 211.042 83.2411C211.033 83.3136 210.806 84.9793 209.356 87.1179C208.025 89.0856 205.361 91.8333 200.235 93.7518C195.021 95.7029 192.408 96.5039 191.133 96.8262C190.315 97.034 189.909 97.0883 189.701 97.0883Z" fill="white"/>
<path d="M193.999 94.3635C193.693 94.3635 193.395 94.2729 193.14 94.1033C192.886 93.9336 192.688 93.6925 192.571 93.4103C192.454 93.1282 192.423 92.8177 192.483 92.5182C192.543 92.2187 192.69 91.9436 192.906 91.7276C193.122 91.5117 193.398 91.3646 193.698 91.3051C193.998 91.2455 194.308 91.2761 194.591 91.3929C194.873 91.5098 195.115 91.7077 195.285 91.9616C195.454 92.2155 195.545 92.5141 195.545 92.8194C195.545 93.2288 195.382 93.6213 195.092 93.9108C194.802 94.2003 194.409 94.3631 193.999 94.3635ZM193.999 91.5658C193.751 91.5658 193.508 91.6394 193.301 91.7772C193.095 91.9151 192.934 92.1111 192.839 92.3403C192.744 92.5696 192.719 92.8218 192.768 93.0651C192.816 93.3085 192.936 93.532 193.111 93.7074C193.287 93.8828 193.511 94.0022 193.755 94.0505C193.998 94.0988 194.251 94.0739 194.48 93.9788C194.71 93.8838 194.906 93.7229 195.044 93.5165C195.182 93.3101 195.255 93.0676 195.255 92.8194C195.254 92.487 195.122 92.1684 194.887 91.9334C194.651 91.6984 194.332 91.5662 193.999 91.5658Z" fill="white"/>
<path d="M167.806 88.4536L167.879 88.4937C168.418 88.7889 168.832 88.8639 169.151 88.8195C169.468 88.7752 169.698 88.6111 169.867 88.4086C170.036 88.205 170.141 87.9638 170.204 87.7714C170.235 87.6756 170.255 87.5927 170.268 87.534C170.274 87.5047 170.279 87.4815 170.281 87.4657L170.284 87.4479L170.285 87.4436L170.285 87.4426L170.285 87.4425L170.285 87.4424L170.285 87.4424L170.298 87.3529L170.38 87.3896C170.925 87.6318 171.358 87.6589 171.701 87.5707C172.044 87.4823 172.305 87.2761 172.501 87.0368C172.698 86.797 172.828 86.5261 172.909 86.3138C172.95 86.2079 172.978 86.1172 172.996 86.0532C173.005 86.0212 173.011 85.9959 173.015 85.9788L173.02 85.9594L173.021 85.9547L173.021 85.9536L173.021 85.9534L173.021 85.9534L173.021 85.9534L173.035 85.8859L173.102 85.9007C174.066 86.1118 174.642 85.9574 174.963 85.6118C175.288 85.2625 175.374 84.6958 175.302 84.0309C175.159 82.7043 174.395 81.0623 173.845 80.2485C173.437 79.6457 173.108 79.2758 172.76 79.1317C172.42 78.9913 172.044 79.0597 171.52 79.3895C171.144 79.6262 171.06 80.0447 171.076 80.4226C171.084 80.61 171.116 80.7827 171.147 80.9087C171.163 80.9716 171.178 81.0226 171.188 81.0577C171.194 81.0753 171.198 81.0888 171.202 81.0979L171.205 81.108L171.206 81.1105L171.206 81.111L171.206 81.111L171.206 81.1111L171.205 81.1113L171.081 81.1627L171.08 81.163L171.08 81.1629L171.08 81.1627L171.08 81.1618L171.078 81.1577L171.07 81.141C171.063 81.1263 171.052 81.1046 171.037 81.0772C171.008 81.0222 170.965 80.9442 170.908 80.8527C170.794 80.6693 170.627 80.433 170.411 80.2191C170.196 80.005 169.935 79.8158 169.635 79.7222C169.337 79.6292 168.995 79.6292 168.614 79.7989L168.614 79.7989C168.141 80.0092 167.845 80.2738 167.664 80.5491C167.483 80.8247 167.415 81.1154 167.405 81.382C167.394 81.6491 167.443 81.8912 167.494 82.067C167.519 82.1548 167.545 82.2256 167.565 82.2742C167.575 82.2985 167.583 82.3172 167.588 82.3297L167.594 82.3411L167.595 82.3436L167.806 88.4536ZM167.806 88.4536L167.782 88.5331C167.695 88.81 167.538 89.0596 167.325 89.2571C167.113 89.4547 166.852 89.5934 166.569 89.6594C166.287 89.7255 165.991 89.7167 165.713 89.6339C165.435 89.551 165.183 89.397 164.983 89.1871L164.983 89.1871C164.119 88.2828 163.191 87.2012 162.628 86.2276C162.346 85.7403 162.159 85.2857 162.113 84.8974C162.068 84.5122 162.163 84.1982 162.439 83.9749L162.439 83.9748C162.842 83.6463 163.199 83.4972 163.505 83.4542C163.81 83.4113 164.07 83.4734 164.281 83.5756C164.493 83.6781 164.657 83.8211 164.768 83.9393C164.778 83.9499 164.787 83.9602 164.796 83.9702M167.806 88.4536L164.796 83.9702M170.999 80.8701C170.674 80.3288 169.816 79.1897 168.586 79.7367C167.189 80.3579 167.263 81.4622 167.412 82.0258L170.999 80.8701ZM170.999 80.8701C171.004 80.8951 171.009 80.9188 171.015 80.9411C171.031 81.0071 171.047 81.0609 171.058 81.0983C171.064 81.117 171.069 81.1317 171.073 81.1418L171.077 81.1534L171.078 81.1566L171.078 81.1575L171.078 81.1577L171.078 81.1578L171.142 81.1345L171.204 81.1059L171.204 81.1058L171.204 81.1054L171.203 81.1041L171.201 81.0992L171.192 81.081C171.184 81.0652 171.173 81.0424 171.158 81.0137C171.135 80.9697 171.103 80.912 171.063 80.8448M170.999 80.8701L171.063 80.8448M171.063 80.8448C170.975 80.4338 170.913 79.6916 171.484 79.3319C172.547 78.6627 173.087 79.0067 173.901 80.2103L171.063 80.8448ZM164.796 83.9702C164.828 84.0143 164.856 84.0514 164.879 84.0806C164.898 84.1045 164.913 84.1231 164.924 84.1359L164.937 84.1505L164.94 84.1544L164.941 84.1555L164.941 84.1558L164.942 84.1559L164.992 84.1103M164.796 83.9702L167.465 82.3879C167.459 82.3755 167.45 82.3571 167.437 82.3339C167.412 82.2874 167.375 82.2217 167.327 82.1453C167.229 81.9921 167.085 81.7979 166.9 81.6302C166.714 81.4624 166.49 81.3237 166.231 81.276C165.974 81.2286 165.675 81.2696 165.337 81.4731C164.902 81.7344 164.672 82.0256 164.566 82.3112C164.46 82.5974 164.475 82.8858 164.545 83.1462C164.615 83.407 164.739 83.637 164.847 83.8025C164.867 83.8323 164.885 83.8599 164.903 83.8852C164.945 83.9325 164.978 83.9743 165.003 84.0065C165.018 84.027 165.029 84.0436 165.037 84.0552L165.046 84.0688L165.049 84.0726L165.05 84.0737L165.05 84.074L165.05 84.0742L164.992 84.1103M164.992 84.1103L164.942 84.156L165.05 84.0742L164.992 84.1103Z" fill="white" stroke="black" stroke-width="0.136225"/>
<path d="M167.847 88.6303H167.847C167.861 88.6303 167.875 88.6261 167.888 88.6184C167.888 88.6184 167.888 88.6184 167.888 88.6183L167.847 88.6303ZM167.847 88.6303C167.834 88.6303 167.821 88.627 167.809 88.6207C167.798 88.6145 167.789 88.6055 167.782 88.5946L164.787 83.869L164.787 83.869M167.847 88.6303L164.787 83.869M164.787 83.869C164.782 83.8605 164.778 83.851 164.776 83.8411C164.775 83.8311 164.775 83.821 164.777 83.8112C164.779 83.8014 164.783 83.792 164.789 83.7838C164.795 83.7756 164.802 83.7685 164.811 83.7631C164.819 83.7577 164.829 83.7541 164.839 83.7523C164.849 83.7506 164.859 83.7509 164.869 83.7531C164.879 83.7553 164.888 83.7594 164.896 83.7652C164.905 83.771 164.912 83.7784 164.917 83.7869C164.917 83.7869 164.917 83.7869 164.917 83.7869L167.912 88.5125L167.912 88.5125M164.787 83.869L167.912 88.5125M167.912 88.5125C167.917 88.521 167.921 88.5305 167.922 88.5404C167.924 88.5503 167.924 88.5605 167.922 88.5703C167.919 88.5802 167.915 88.5895 167.91 88.5977L167.965 88.637L167.912 88.5125Z" fill="white" stroke="black" stroke-width="0.136225"/>
<path d="M170.366 87.3511L170.366 87.3511C170.352 87.3512 170.339 87.3477 170.327 87.3409C170.316 87.3342 170.306 87.3245 170.299 87.3128C170.299 87.3128 170.299 87.3128 170.299 87.3127L167.429 82.3071L167.429 82.3071L167.429 82.307C167.424 82.2982 167.421 82.2886 167.42 82.2785C167.418 82.2685 167.419 82.2583 167.422 82.2486C167.424 82.2389 167.429 82.2297 167.435 82.2217C167.441 82.2137 167.449 82.207 167.458 82.2019C167.466 82.1969 167.476 82.1936 167.486 82.1923C167.496 82.191 167.506 82.1917 167.516 82.1943C167.526 82.1969 167.535 82.2014 167.543 82.2076C167.551 82.2137 167.558 82.2214 167.563 82.2301C167.563 82.2301 167.563 82.2302 167.563 82.2302L170.433 87.2359L170.433 87.2361C170.439 87.2477 170.443 87.261 170.443 87.2744C170.443 87.2878 170.439 87.301 170.433 87.3127C170.426 87.3244 170.416 87.3341 170.405 87.3408C170.393 87.3476 170.38 87.3511 170.366 87.3511Z" fill="white" stroke="black" stroke-width="0.136225"/>
<path d="M173.164 85.856H173.164C173.175 85.8561 173.186 85.8539 173.196 85.8496C173.215 85.8411 173.229 85.8259 173.236 85.8071C173.243 85.7881 173.242 85.7671 173.234 85.7485L173.234 85.7482L171.065 80.8395C171.065 80.8394 171.065 80.8394 171.065 80.8394C171.057 80.8208 171.042 80.8062 171.023 80.7989C171.004 80.7915 170.982 80.792 170.964 80.8003C170.945 80.8086 170.93 80.8239 170.923 80.8429C170.916 80.8618 170.916 80.883 170.925 80.9016L170.925 80.9017L173.093 85.8104L173.164 85.856ZM173.164 85.856C173.149 85.8561 173.134 85.8517 173.122 85.8436M173.164 85.856L173.122 85.8436M173.122 85.8436C173.109 85.8355 173.099 85.824 173.093 85.8104L173.122 85.8436Z" fill="white" stroke="black" stroke-width="0.136225"/>
<path fill-rule="evenodd" clip-rule="evenodd" d="M84.5361 42.0916C51.4323 39.7017 22.8906 34.5047 3.06934 27.5615V51.2987C23.0813 58.1788 51.9485 63.3136 84.5361 65.6325V42.0916Z" fill="#00A0DC" fill-opacity="0.3"/>
<g opacity="0.71">
<path opacity="0.71" d="M35.1928 54.3483C35.1837 54.3494 35.1744 54.3494 35.1653 54.3483L31.4261 53.6321C31.3924 53.6257 31.3621 53.6077 31.3405 53.5812C31.3188 53.5547 31.3073 53.5214 31.3079 53.4872V40.7184C31.3075 40.6968 31.3119 40.6753 31.3209 40.6556C31.3299 40.6359 31.3432 40.6185 31.3598 40.6046C31.3764 40.5907 31.396 40.5807 31.417 40.5753C31.438 40.5699 31.4599 40.5694 31.4812 40.5736L35.2204 41.2978C35.2539 41.3043 35.284 41.3224 35.3055 41.3489C35.327 41.3753 35.3384 41.4086 35.3378 41.4427V54.1998C35.3378 54.2212 35.333 54.2422 35.3239 54.2615C35.3147 54.2808 35.3014 54.2978 35.2849 54.3114C35.2595 54.3341 35.2269 54.3472 35.1928 54.3483ZM31.5979 53.367L35.0478 54.0282V41.5658L31.5979 40.8944V53.367Z" fill="white"/>
</g>
<g opacity="0.71">
<path opacity="0.71" d="M29.3632 53.0965C29.3541 53.0976 29.3448 53.0976 29.3357 53.0965L25.5958 52.3802C25.5622 52.3738 25.5321 52.3557 25.5106 52.3292C25.4891 52.3027 25.4777 52.2695 25.4783 52.2354V43.9756C25.4779 43.954 25.4823 43.9326 25.4913 43.913C25.5002 43.8934 25.5135 43.876 25.53 43.8621C25.5465 43.8482 25.566 43.8382 25.5869 43.8328C25.6078 43.8273 25.6297 43.8267 25.6509 43.8308L29.3908 44.555C29.4243 44.5615 29.4545 44.5795 29.476 44.606C29.4974 44.6325 29.5089 44.6657 29.5082 44.6998V52.9516C29.5082 52.9901 29.493 53.0269 29.4658 53.0541C29.4386 53.0812 29.4017 53.0965 29.3632 53.0965ZM25.7683 52.1152L29.2182 52.7764V44.8222L25.7683 44.1516V52.1152Z" fill="white"/>
</g>
<g opacity="0.71">
<path opacity="0.71" d="M23.5329 51.9475C23.524 51.9486 23.515 51.9486 23.5061 51.9475L19.7662 51.2313C19.7327 51.2248 19.7025 51.2067 19.681 51.1802C19.6595 51.1537 19.6481 51.1205 19.6487 51.0864V40.6685C19.6483 40.6469 19.6528 40.6255 19.6617 40.6059C19.6706 40.5862 19.6839 40.5688 19.7004 40.5549C19.7169 40.5411 19.7364 40.5311 19.7573 40.5256C19.7782 40.5202 19.8001 40.5195 19.8213 40.5236L23.5612 41.2515C23.5946 41.2581 23.6246 41.2762 23.6459 41.3027C23.6673 41.3292 23.6786 41.3623 23.678 41.3963V51.8027C23.678 51.8411 23.6627 51.878 23.6355 51.9051C23.6083 51.9323 23.5714 51.9475 23.5329 51.9475ZM19.9387 50.9662L23.3879 51.6274V41.5158L19.9387 40.8445V50.9662Z" fill="white"/>
</g>
<g opacity="0.71">
<path opacity="0.71" d="M17.7041 50.8771C17.6949 50.8778 17.6857 50.8778 17.6765 50.8771L13.9373 50.1601C13.9037 50.1538 13.8733 50.1358 13.8517 50.1092C13.8301 50.0827 13.8185 50.0494 13.8191 50.0152V34.9347C13.8187 34.9131 13.8232 34.8916 13.8321 34.8719C13.8411 34.8522 13.8544 34.8348 13.871 34.8209C13.8877 34.807 13.9072 34.797 13.9282 34.7916C13.9492 34.7863 13.9712 34.7857 13.9924 34.7899L17.7316 35.5141C17.7651 35.5206 17.7953 35.5387 17.8168 35.5652C17.8383 35.5917 17.8497 35.6249 17.8491 35.659V50.7293C17.849 50.7507 17.8443 50.7717 17.8351 50.791C17.826 50.8103 17.8127 50.8273 17.7961 50.8409C17.7707 50.8633 17.7381 50.8762 17.7041 50.8771ZM14.1091 49.8958L17.559 50.5562V35.7821L14.1091 35.1107V49.8958Z" fill="white"/>
</g>
<g opacity="0.71">
<path opacity="0.71" d="M53.8452 56.3693H53.8292C49.8892 55.929 46.2218 55.3981 42.6175 54.7471C42.5837 54.7409 42.5532 54.7229 42.5314 54.6964C42.5096 54.6699 42.498 54.6365 42.4986 54.6022L42.5094 44.9787C42.5094 44.9567 42.5145 44.9351 42.5241 44.9153C42.5338 44.8956 42.5478 44.8783 42.5651 44.8647C42.5824 44.8512 42.6026 44.8418 42.6241 44.8372C42.6456 44.8326 42.6679 44.8329 42.6892 44.8382C45.3068 45.49 53.6951 46.4735 53.7828 46.4837C53.8183 46.4878 53.8511 46.5048 53.8747 46.5315C53.8984 46.5583 53.9114 46.5928 53.9112 46.6285L53.9931 56.2237C53.9931 56.2622 53.9778 56.299 53.9506 56.3262C53.9234 56.3533 53.8865 56.3686 53.8481 56.3686L53.8452 56.3693ZM42.7886 54.4863C46.2986 55.1178 49.8703 55.6349 53.6987 56.0659L53.619 46.7618C52.5756 46.6379 45.4213 45.7783 42.7987 45.1685L42.7886 54.4863Z" fill="white"/>
</g>
<g opacity="0.71">
<path opacity="0.71" d="M53.7801 49.104H53.7656C53.4197 49.0707 45.2554 48.2661 42.5995 47.2833C42.5675 47.2674 42.5424 47.2402 42.5293 47.207C42.5161 47.1738 42.5156 47.1369 42.5281 47.1034C42.5405 47.0699 42.5648 47.0421 42.5965 47.0255C42.6282 47.0088 42.6649 47.0044 42.6996 47.0132C45.3185 47.9829 53.7069 48.8093 53.7931 48.8172C53.8316 48.8191 53.8678 48.8361 53.8937 48.8645C53.9196 48.893 53.9331 48.9305 53.9313 48.969C53.9294 49.0074 53.9124 49.0435 53.8839 49.0694C53.8554 49.0952 53.8178 49.1088 53.7794 49.1069L53.7801 49.104Z" fill="white"/>
</g>
<g opacity="0.71">
<path opacity="0.71" d="M43.9206 46.9954C43.7861 46.9954 43.6546 46.9555 43.5427 46.8809C43.4309 46.8062 43.3437 46.7001 43.2922 46.576C43.2408 46.4519 43.2273 46.3153 43.2535 46.1835C43.2798 46.0517 43.3446 45.9307 43.4397 45.8357C43.5348 45.7407 43.656 45.676 43.7879 45.6498C43.9198 45.6236 44.0566 45.637 44.1809 45.6884C44.3051 45.7398 44.4114 45.8269 44.4861 45.9386C44.5608 46.0503 44.6007 46.1817 44.6007 46.316C44.6003 46.4961 44.5285 46.6687 44.4011 46.796C44.2736 46.9233 44.1008 46.995 43.9206 46.9954ZM43.9206 45.9264C43.8434 45.9264 43.768 45.9493 43.7039 45.9921C43.6397 46.0349 43.5897 46.0957 43.5602 46.1669C43.5307 46.2381 43.5229 46.3165 43.538 46.3921C43.5531 46.4676 43.5902 46.5371 43.6448 46.5916C43.6993 46.646 43.7688 46.6832 43.8445 46.6982C43.9202 46.7132 43.9986 46.7055 44.0699 46.676C44.1411 46.6465 44.2021 46.5966 44.2449 46.5325C44.2878 46.4684 44.3107 46.3931 44.3107 46.316C44.3105 46.2128 44.2693 46.1138 44.1962 46.0407C44.1231 45.9677 44.024 45.9266 43.9206 45.9264Z" fill="white"/>
</g>
<path d="M76.5204 60.4583H76.5095C76.4239 60.4518 67.8732 59.8253 64.0086 59.1684C63.9745 59.1626 63.9437 59.1448 63.9216 59.1182C63.8995 59.0916 63.8877 59.0581 63.8882 59.0236V43.6954C63.888 43.6747 63.8923 43.6542 63.9007 43.6352C63.9092 43.6163 63.9216 43.5994 63.9371 43.5857C63.9526 43.572 63.9709 43.5617 63.9908 43.5557C64.0106 43.5496 64.0315 43.5479 64.0521 43.5505C67.7013 44.0372 72.3461 44.4037 76.0788 44.6977L76.532 44.7339C76.5684 44.7368 76.6024 44.7534 76.6271 44.7802C76.6518 44.8071 76.6655 44.8423 76.6654 44.8788V60.3127C76.6654 60.3327 76.6613 60.3525 76.6533 60.3708C76.6453 60.3891 76.6337 60.4056 76.619 60.4192C76.5922 60.4442 76.557 60.4582 76.5204 60.4583ZM64.1782 58.9034C67.7884 59.5009 75.208 60.0701 76.3754 60.1577V45.0135L76.0563 44.9881C72.3759 44.6984 67.8094 44.3363 64.1782 43.8605V58.9034Z" fill="white"/>
<path d="M75.6293 50.2062C75.5924 50.2062 75.5569 50.1923 75.5299 50.1671L72.7377 47.5642L71.5841 48.8461C71.5705 48.8612 71.5538 48.8732 71.5352 48.8815C71.5166 48.8897 71.4964 48.8939 71.4761 48.8939C71.4557 48.8939 71.4356 48.8897 71.4169 48.8815C71.3983 48.8732 71.3817 48.8612 71.368 48.8461L69.4009 46.6669L67.6723 48.5977C67.6577 48.6139 67.6397 48.6266 67.6194 48.6349C67.5992 48.6432 67.5774 48.6468 67.5556 48.6455C67.5338 48.6442 67.5125 48.638 67.4934 48.6273C67.4744 48.6166 67.4579 48.6018 67.4454 48.5839L64.8141 44.8404C64.8024 44.8249 64.7939 44.8072 64.7892 44.7883C64.7845 44.7695 64.7837 44.7499 64.7867 44.7307C64.7897 44.7115 64.7966 44.6932 64.8068 44.6767C64.8171 44.6602 64.8306 44.6459 64.8465 44.6348C64.8624 44.6236 64.8804 44.6157 64.8994 44.6116C64.9184 44.6076 64.938 44.6073 64.9571 44.611C64.9762 44.6146 64.9944 44.6221 65.0106 44.6329C65.0267 44.6437 65.0405 44.6576 65.0512 44.6738L67.5781 48.2689L69.2921 46.3548C69.3057 46.3395 69.3224 46.3273 69.341 46.319C69.3596 46.3106 69.3798 46.3063 69.4002 46.3062C69.4205 46.3062 69.4407 46.3104 69.4593 46.3186C69.4779 46.3269 69.4946 46.3389 69.5082 46.354L71.4761 48.5332L72.621 47.2615C72.6338 47.2472 72.6494 47.2355 72.6668 47.2273C72.6842 47.2191 72.7031 47.2144 72.7223 47.2135C72.7415 47.2126 72.7608 47.2156 72.7788 47.2222C72.7969 47.2288 72.8135 47.239 72.8276 47.2521L75.7279 49.9563C75.7491 49.9761 75.7638 50.0019 75.7702 50.0302C75.7766 50.0585 75.7744 50.088 75.7637 50.115C75.7531 50.142 75.7346 50.1652 75.7106 50.1816C75.6867 50.198 75.6583 50.2068 75.6293 50.2069V50.2062Z" fill="white"/>
<path d="M121.007 115.151C120.521 115.151 120.045 115.007 119.641 114.738C119.237 114.468 118.922 114.084 118.736 113.635C118.549 113.187 118.501 112.693 118.596 112.216C118.69 111.74 118.925 111.303 119.268 110.959C119.612 110.616 120.05 110.382 120.527 110.287C121.004 110.192 121.499 110.241 121.948 110.427C122.397 110.613 122.781 110.927 123.051 111.331C123.322 111.735 123.466 112.21 123.466 112.696C123.465 113.347 123.206 113.971 122.745 114.431C122.284 114.892 121.659 115.151 121.007 115.151ZM121.007 110.529C120.578 110.529 120.159 110.656 119.802 110.895C119.446 111.133 119.168 111.471 119.003 111.867C118.839 112.262 118.796 112.698 118.88 113.118C118.964 113.538 119.17 113.924 119.474 114.227C119.777 114.53 120.163 114.737 120.584 114.82C121.005 114.904 121.441 114.861 121.837 114.697C122.233 114.533 122.572 114.255 122.81 113.899C123.049 113.543 123.176 113.124 123.176 112.696C123.176 112.121 122.947 111.57 122.54 111.163C122.134 110.757 121.582 110.528 121.007 110.527V110.529Z" fill="white"/>
<path d="M43.302 155.544C42.9881 155.544 42.6812 155.451 42.4202 155.277C42.1592 155.103 41.9558 154.855 41.8357 154.566C41.7155 154.276 41.6841 153.957 41.7453 153.65C41.8066 153.342 41.9577 153.06 42.1797 152.838C42.4017 152.616 42.6845 152.465 42.9924 152.404C43.3003 152.343 43.6194 152.374 43.9094 152.494C44.1994 152.614 44.4473 152.817 44.6217 153.078C44.7961 153.339 44.8892 153.645 44.8892 153.959C44.8886 154.379 44.7212 154.782 44.4237 155.079C44.1262 155.376 43.7228 155.544 43.302 155.544ZM43.302 152.663C43.0455 152.663 42.7947 152.739 42.5814 152.882C42.3681 153.024 42.2018 153.226 42.1036 153.463C42.0054 153.7 41.9798 153.96 42.0298 154.212C42.0799 154.463 42.2034 154.694 42.3848 154.875C42.5662 155.056 42.7973 155.18 43.049 155.23C43.3006 155.28 43.5614 155.254 43.7984 155.156C44.0355 155.058 44.238 154.892 44.3806 154.679C44.5231 154.466 44.5992 154.215 44.5992 153.959C44.5988 153.615 44.462 153.286 44.2188 153.043C43.9757 152.8 43.6459 152.664 43.302 152.663Z" fill="white"/>
<path d="M24.2523 166.732C24.0687 166.732 23.8891 166.678 23.7364 166.576C23.5837 166.474 23.4646 166.329 23.3943 166.16C23.3239 165.991 23.3055 165.804 23.3413 165.624C23.3771 165.444 23.4655 165.279 23.5953 165.149C23.7252 165.02 23.8906 164.931 24.0707 164.896C24.2508 164.86 24.4375 164.878 24.6071 164.949C24.7767 165.019 24.9216 165.138 25.0235 165.29C25.1255 165.443 25.1798 165.622 25.1797 165.806C25.1795 166.051 25.0817 166.287 24.9078 166.46C24.734 166.634 24.4982 166.732 24.2523 166.732ZM24.2523 165.168C24.1261 165.168 24.0026 165.205 23.8976 165.275C23.7926 165.345 23.7107 165.445 23.6623 165.561C23.6139 165.678 23.6011 165.806 23.6257 165.93C23.6502 166.053 23.7109 166.167 23.8001 166.256C23.8893 166.345 24.003 166.406 24.1268 166.431C24.2506 166.455 24.3789 166.443 24.4956 166.395C24.6122 166.346 24.7119 166.265 24.782 166.16C24.8522 166.055 24.8896 165.932 24.8896 165.806C24.8896 165.637 24.8225 165.475 24.703 165.355C24.5835 165.236 24.4214 165.169 24.2523 165.168Z" fill="white"/>
<path d="M111.049 163.093C104.457 163.093 98.4697 162.571 93.2412 161.539C93.2218 161.536 93.2031 161.529 93.1863 161.519C93.1695 161.509 93.155 161.495 93.1436 161.479C93.1323 161.463 93.1243 161.445 93.1202 161.426C93.116 161.407 93.1159 161.387 93.1197 161.368C93.1234 161.348 93.1311 161.33 93.1422 161.314C93.1533 161.298 93.1676 161.284 93.1842 161.273C93.2008 161.263 93.2193 161.256 93.2387 161.253C93.2581 161.249 93.278 161.25 93.2971 161.255C105.467 163.657 119.494 162.808 129.116 161.674C139.549 160.442 147.2 158.622 147.276 158.604C147.294 158.599 147.313 158.598 147.332 158.601C147.351 158.604 147.369 158.611 147.385 158.621C147.402 158.631 147.416 158.644 147.427 158.659C147.438 158.675 147.446 158.692 147.451 158.71C147.455 158.729 147.456 158.748 147.453 158.767C147.45 158.786 147.444 158.804 147.434 158.82C147.424 158.836 147.411 158.85 147.395 158.862C147.38 158.873 147.362 158.881 147.344 158.885C147.268 158.903 139.602 160.729 129.153 161.96C123.016 162.685 117.132 163.065 111.666 163.092L111.049 163.093Z" fill="white"/>
<path d="M111.988 167.983C105.396 167.983 99.4087 167.461 94.1802 166.429C94.1607 166.426 94.142 166.42 94.1253 166.409C94.1085 166.399 94.094 166.386 94.0826 166.369C94.0712 166.353 94.0633 166.335 94.0591 166.316C94.055 166.297 94.0548 166.277 94.0586 166.258C94.0624 166.239 94.0701 166.22 94.0812 166.204C94.0923 166.188 94.1065 166.174 94.1231 166.163C94.1397 166.153 94.1583 166.146 94.1777 166.143C94.1971 166.14 94.2169 166.14 94.236 166.145C106.406 168.547 120.433 167.698 130.055 166.564C140.488 165.333 148.139 163.512 148.215 163.494C148.252 163.485 148.291 163.491 148.324 163.511C148.357 163.531 148.381 163.563 148.39 163.601C148.399 163.638 148.393 163.677 148.373 163.71C148.352 163.743 148.32 163.766 148.283 163.776C148.21 163.794 140.542 165.619 130.093 166.851C123.955 167.576 118.071 167.955 112.605 167.982C112.401 167.983 112.194 167.983 111.988 167.983Z" fill="#F2B596"/>
</svg>
