<svg width="199" height="31" viewBox="0 0 199 31" fill="none" xmlns="http://www.w3.org/2000/svg">
<path d="M0 17.8734V25.2721L18.2014 16.574V9.17542L0 17.8734Z" fill="#70B62C"/>
<path d="M0 8.77762V16.1763L18.2014 7.47822V0.0795898L0 8.77762Z" fill="#70B62C"/>
<path d="M0 25.2721L6.97411 31V23.5219L0 25.2721Z" fill="white"/>
<path d="M30.0363 27.5261V6.7887H44.0373V10.3156H34.1045V15.6724H42.3466V18.9341H34.0781V27.5261H30.0363V27.5261Z" fill="white"/>
<path d="M53.0455 27.8178C51.8039 27.8178 50.668 27.6056 49.6642 27.2078C48.6603 26.7835 47.815 26.2267 47.1281 25.4841C46.4413 24.7416 45.9129 23.9196 45.5167 22.9649C45.1468 22.0102 44.9619 21.029 44.9619 19.9948C44.9619 18.9341 45.1468 17.9264 45.5167 16.9983C45.8865 16.0436 46.4149 15.2215 47.1281 14.479C47.815 13.7365 48.6603 13.1796 49.6642 12.7553C50.668 12.331 51.7775 12.1454 53.0455 12.1454C54.2872 12.1454 55.4231 12.3575 56.4005 12.7553C57.378 13.1796 58.2233 13.7365 58.9366 14.479C59.6498 15.2215 60.1782 16.0436 60.548 16.9983C60.9178 17.9529 61.1028 18.9341 61.1028 19.9948C61.1028 21.029 60.9178 22.0367 60.548 22.9649C60.1782 23.9196 59.6498 24.7416 58.963 25.4841C58.2761 26.2267 57.4308 26.7835 56.4269 27.2078C55.4231 27.6056 54.2872 27.8178 53.0455 27.8178ZM49.0301 19.9948C49.0301 20.8699 49.2151 21.639 49.5585 22.3284C49.9019 23.0179 50.3774 23.5483 50.985 23.9196C51.5926 24.2908 52.2795 24.503 53.0455 24.503C53.7852 24.503 54.4721 24.3173 55.0797 23.9196C55.6873 23.5218 56.1628 22.9914 56.5326 22.3284C56.9024 21.639 57.0874 20.8699 57.0874 19.9948C57.0874 19.1462 56.9024 18.3507 56.5326 17.6612C56.1628 16.9717 55.6873 16.4414 55.0797 16.0701C54.4721 15.6989 53.8116 15.4867 53.0455 15.4867C52.2795 15.4867 51.5926 15.6723 50.985 16.0701C50.3774 16.4679 49.9019 16.9983 49.5585 17.6877C49.2151 18.3242 49.0301 19.1197 49.0301 19.9948Z" fill="white"/>
<path d="M72.9376 15.6193C71.7488 15.6193 70.6657 15.858 69.7411 16.3088C68.7901 16.7596 68.1297 17.4226 67.707 18.2712V27.5261H63.7709V12.3576H67.39V15.4867C67.9448 14.426 68.6316 13.6039 69.477 12.994C70.3223 12.3841 71.2205 12.0659 72.1451 12.0128C72.3564 12.0128 72.5149 12.0128 72.647 12.0128C72.7527 12.0128 72.8584 12.0128 72.9376 12.0393V15.6193Z" fill="white"/>
<path d="M84.1121 27.8178C82.9498 27.8178 81.8931 27.5526 80.9685 27.0223C80.0439 26.4919 79.3306 25.7759 78.8023 24.8743V27.5261H75.368V6.20532H79.3042V15.089C79.859 14.1608 80.5722 13.4448 81.4704 12.941C82.3686 12.4106 83.3988 12.1454 84.5876 12.1454C85.5915 12.1454 86.4896 12.3576 87.3086 12.7554C88.1275 13.1797 88.8408 13.7365 89.4484 14.4791C90.056 15.2216 90.505 16.0436 90.822 16.9983C91.1391 17.953 91.2976 18.9607 91.2976 20.0214C91.2976 21.1087 91.1126 22.1164 90.7428 23.0445C90.373 23.9992 89.871 24.8212 89.237 25.5372C88.603 26.2532 87.8369 26.8101 86.9652 27.2079C86.0934 27.6057 85.1424 27.8178 84.1121 27.8178ZM83.029 24.4765C83.663 24.4765 84.2178 24.3704 84.7461 24.1052C85.2745 23.8666 85.7235 23.5484 86.0934 23.1506C86.4632 22.7528 86.7802 22.2755 86.9652 21.7451C87.1765 21.1882 87.2822 20.6313 87.2822 20.0479C87.2822 19.2259 87.1237 18.4568 86.7802 17.7673C86.4368 17.0779 85.9613 16.521 85.3801 16.0967C84.7725 15.6724 84.0857 15.4602 83.2932 15.4602C82.7384 15.4602 82.1837 15.5928 81.6553 15.858C81.127 16.1232 80.6779 16.4679 80.2816 16.8922C79.8854 17.343 79.5684 17.8204 79.3306 18.3773V21.9572C79.4363 22.3285 79.6476 22.6732 79.9118 22.9915C80.176 23.3097 80.493 23.5483 80.8364 23.787C81.1798 23.9992 81.5496 24.1848 81.9459 24.2909C82.2629 24.4235 82.6327 24.4765 83.029 24.4765Z" fill="white"/>
<path d="M93.9657 27.5261V12.1985H97.9018V27.5261H93.9657Z" fill="white"/>
<path d="M108.627 27.8178C107.385 27.8178 106.25 27.6056 105.246 27.2078C104.242 26.7835 103.396 26.2267 102.71 25.4841C102.023 24.7416 101.494 23.9196 101.098 22.9649C100.728 22.0102 100.543 21.029 100.543 19.9948C100.543 18.9341 100.728 17.9264 101.098 16.9983C101.468 16.0436 101.996 15.2215 102.71 14.479C103.396 13.7365 104.242 13.1796 105.246 12.7553C106.25 12.331 107.359 12.1454 108.627 12.1454C109.869 12.1454 111.005 12.3575 111.982 12.7553C112.959 13.1796 113.805 13.7365 114.518 14.479C115.231 15.2215 115.76 16.0436 116.13 16.9983C116.499 17.9529 116.684 18.9341 116.684 19.9948C116.684 21.029 116.499 22.0367 116.13 22.9649C115.76 23.9196 115.231 24.7416 114.545 25.4841C113.858 26.2267 113.012 26.7835 112.008 27.2078C111.005 27.6056 109.869 27.8178 108.627 27.8178ZM104.612 19.9948C104.612 20.8699 104.797 21.639 105.14 22.3284C105.483 23.0179 105.959 23.5483 106.567 23.9196C107.174 24.2908 107.861 24.503 108.627 24.503C109.367 24.503 110.054 24.3173 110.661 23.9196C111.269 23.5218 111.744 22.9914 112.114 22.3284C112.484 21.639 112.669 20.8699 112.669 19.9948C112.669 19.1462 112.484 18.3507 112.114 17.6612C111.744 16.9717 111.269 16.4414 110.661 16.0701C110.054 15.6989 109.393 15.4867 108.627 15.4867C107.861 15.4867 107.174 15.6723 106.567 16.0701C105.959 16.4679 105.483 16.9983 105.14 17.6877C104.77 18.3242 104.612 19.1197 104.612 19.9948Z" fill="white"/>
<path d="M133.512 27.5261H129.576V19.0667C129.576 17.8469 129.365 16.9718 128.942 16.4149C128.519 15.858 127.912 15.5928 127.146 15.5928C126.617 15.5928 126.089 15.7254 125.534 15.9906C125.006 16.2558 124.504 16.627 124.081 17.0778C123.658 17.5552 123.341 18.0855 123.13 18.6955V27.5261H119.194V12.3576H122.734V15.195C123.13 14.5321 123.632 13.9752 124.24 13.5244C124.847 13.0736 125.534 12.7288 126.327 12.4902C127.119 12.2515 127.964 12.1189 128.836 12.1189C129.787 12.1189 130.58 12.278 131.187 12.6227C131.795 12.9675 132.27 13.4183 132.587 13.9752C132.904 14.5321 133.142 15.195 133.274 15.8845C133.406 16.6005 133.459 17.3165 133.459 18.059V27.5261H133.512V27.5261Z" fill="white"/>
<path d="M97.9018 6.3114H93.9657V10.2361H97.9018V6.3114Z" fill="#70B62C"/>
<path d="M141.173 18.1916V12.0128H143.788C144.079 12.0128 144.316 12.0659 144.554 12.1984C144.792 12.3045 145.003 12.4636 145.162 12.6493C145.347 12.8349 145.479 13.047 145.558 13.2857C145.664 13.5244 145.69 13.763 145.69 14.0282C145.69 14.373 145.611 14.6912 145.452 15.0094C145.294 15.3276 145.083 15.5663 144.792 15.7519C144.501 15.9375 144.184 16.0436 143.815 16.0436H142.124V18.1916H141.173ZM142.15 15.195H143.762C143.947 15.195 144.105 15.142 144.264 15.0359C144.396 14.9298 144.501 14.7972 144.581 14.6116C144.66 14.426 144.686 14.2404 144.686 14.0282C144.686 13.7896 144.633 13.6039 144.554 13.4183C144.449 13.2327 144.343 13.1001 144.184 13.0205C144.026 12.9144 143.867 12.8879 143.709 12.8879H142.124L142.15 15.195Z" fill="white"/>
<path d="M148.834 18.2977C148.464 18.2977 148.147 18.2447 147.856 18.1121C147.566 17.9795 147.328 17.8204 147.117 17.6083C146.905 17.3961 146.747 17.1309 146.641 16.8657C146.535 16.574 146.483 16.2823 146.483 15.9641C146.483 15.5398 146.588 15.142 146.773 14.7973C146.985 14.4526 147.249 14.1609 147.619 13.9487C147.988 13.7366 148.385 13.6305 148.887 13.6305C149.362 13.6305 149.785 13.7366 150.128 13.9487C150.472 14.1609 150.736 14.4526 150.947 14.7973C151.132 15.142 151.238 15.5133 151.238 15.9376C151.238 16.0171 151.238 16.0702 151.238 16.1232C151.238 16.1763 151.238 16.2293 151.211 16.2823H147.539C147.566 16.5475 147.619 16.7862 147.751 16.9718C147.883 17.1574 148.041 17.3166 148.253 17.4491C148.464 17.5552 148.675 17.6083 148.913 17.6083C149.177 17.6083 149.415 17.5552 149.653 17.4226C149.89 17.29 150.049 17.1309 150.128 16.9188L150.947 17.1574C150.841 17.3696 150.709 17.5817 150.498 17.7674C150.287 17.953 150.049 18.0856 149.785 18.1917C149.441 18.2447 149.151 18.2977 148.834 18.2977ZM147.434 15.6194H150.207C150.181 15.3542 150.128 15.142 149.996 14.9299C149.864 14.7443 149.706 14.5852 149.494 14.4791C149.283 14.373 149.072 14.32 148.834 14.32C148.596 14.32 148.385 14.373 148.173 14.4791C147.962 14.5852 147.804 14.7443 147.671 14.9299C147.539 15.142 147.46 15.3542 147.434 15.6194Z" fill="white"/>
<path d="M152.189 18.1916V13.657H153.166V17.343H154.804V13.657H155.781V17.343H157.419V13.657H158.397V18.1916H152.189Z" fill="white"/>
<path d="M161.831 18.2977C161.461 18.2977 161.144 18.2447 160.854 18.1121C160.563 17.9795 160.325 17.8204 160.114 17.6083C159.903 17.3961 159.744 17.1309 159.638 16.8657C159.533 16.574 159.48 16.2823 159.48 15.9641C159.48 15.5398 159.586 15.142 159.771 14.7973C159.982 14.4526 160.246 14.1609 160.616 13.9487C160.986 13.7366 161.382 13.6305 161.884 13.6305C162.359 13.6305 162.782 13.7366 163.126 13.9487C163.469 14.1609 163.733 14.4526 163.944 14.7973C164.129 15.142 164.235 15.5133 164.235 15.9376C164.235 16.0171 164.235 16.0702 164.235 16.1232C164.235 16.1763 164.235 16.2293 164.209 16.2823H160.537C160.563 16.5475 160.616 16.7862 160.748 16.9718C160.88 17.1574 161.039 17.3166 161.25 17.4491C161.461 17.5552 161.673 17.6083 161.91 17.6083C162.175 17.6083 162.412 17.5552 162.65 17.4226C162.888 17.29 163.046 17.1309 163.126 16.9188L163.944 17.1574C163.839 17.3696 163.707 17.5817 163.495 17.7674C163.284 17.953 163.046 18.0856 162.782 18.1917C162.465 18.2447 162.175 18.2977 161.831 18.2977ZM160.457 15.6194H163.231C163.205 15.3542 163.152 15.142 163.02 14.9299C162.888 14.7443 162.729 14.5852 162.518 14.4791C162.307 14.373 162.095 14.32 161.858 14.32C161.62 14.32 161.408 14.373 161.197 14.4791C160.986 14.5852 160.827 14.7443 160.695 14.9299C160.563 15.142 160.484 15.3542 160.457 15.6194Z" fill="white"/>
<path d="M165.212 18.1916V13.657H166.19V15.4602H168.33V13.657H169.307V18.1916H168.33V16.2823H166.19V18.1916H165.212Z" fill="white"/>
<path d="M170.654 18.1916V13.6835H171.632V16.9187L173.956 13.657H174.828V18.1916H173.851V15.0094L171.552 18.1916H170.654Z" fill="white"/>
<path d="M175.911 18.1916L177.153 16.4149C176.862 16.3353 176.625 16.2027 176.466 15.9906C176.308 15.7784 176.202 15.4867 176.202 15.1155C176.202 14.8238 176.255 14.5851 176.387 14.373C176.519 14.1608 176.704 14.0017 176.942 13.8691C177.179 13.7365 177.47 13.6835 177.787 13.6835H179.795V18.2181H178.817V16.6005H178.051L176.915 18.2181L175.911 18.1916ZM177.893 15.8845H178.844V14.426H177.945C177.708 14.426 177.496 14.479 177.364 14.6116C177.232 14.7442 177.153 14.9033 177.153 15.1155C177.153 15.3276 177.206 15.5132 177.338 15.6458C177.47 15.8049 177.655 15.8845 177.893 15.8845Z" fill="white"/>
<path d="M141.331 28.2951V26.3593H141.437C141.569 26.3593 141.675 26.3328 141.78 26.2532C141.886 26.1736 141.992 26.0676 142.071 25.8819C142.15 25.7228 142.229 25.4842 142.282 25.1659C142.335 24.8477 142.362 24.4765 142.388 24.0257L142.441 22.6732H145.717V26.3593H146.351V28.2951H145.505V27.2079H142.203V28.2951H141.331ZM142.705 26.3593H144.713V23.5218H143.26L143.233 24.1582C143.207 24.5825 143.181 24.9538 143.154 25.272C143.101 25.5637 143.048 25.8024 142.969 25.988C142.89 26.1471 142.811 26.2797 142.705 26.3593Z" fill="white"/>
<path d="M146.985 27.2079V26.3593C147.143 26.3593 147.275 26.3328 147.381 26.2532C147.487 26.1736 147.592 26.0676 147.698 25.8819C147.777 25.7228 147.856 25.4842 147.909 25.1659C147.962 24.8477 147.988 24.4765 148.015 24.0257L148.068 22.6732H151.343V27.1548H150.392V23.5218H148.939L148.913 24.1317C148.887 24.7417 148.834 25.219 148.755 25.6168C148.675 26.0145 148.543 26.3328 148.385 26.5449C148.226 26.7836 148.041 26.9427 147.804 27.0488C147.566 27.1548 147.302 27.2079 146.985 27.2079Z" fill="white"/>
<path d="M152.427 27.2078L153.668 25.4311C153.378 25.3515 153.14 25.219 152.981 25.0068C152.823 24.7947 152.717 24.503 152.717 24.1317C152.717 23.84 152.77 23.6013 152.902 23.3892C153.034 23.177 153.219 23.0179 153.457 22.8853C153.695 22.7527 153.985 22.6997 154.302 22.6997H156.31V27.2344H155.332V25.6167H154.619L153.483 27.2344H152.427V27.2078ZM154.408 24.8742H155.359V23.4157H154.461C154.223 23.4157 154.012 23.4687 153.879 23.6013C153.747 23.7339 153.668 23.893 153.668 24.1052C153.668 24.3173 153.721 24.503 153.853 24.6356C153.985 24.8212 154.17 24.8742 154.408 24.8742Z" fill="white"/>
<path d="M162.042 27.1018V20.923H166.428V21.7716H163.02V23.4953H164.843C165.53 23.4953 166.058 23.6544 166.401 23.9726C166.745 24.2908 166.93 24.7151 166.93 25.2455C166.93 25.5902 166.85 25.9084 166.718 26.2001C166.56 26.4653 166.348 26.704 166.058 26.8631C165.767 27.0222 165.397 27.1018 164.948 27.1018H162.042ZM163.02 26.2267H164.763C165.028 26.2267 165.239 26.1736 165.424 26.0675C165.582 25.9615 165.714 25.8554 165.794 25.6963C165.873 25.5372 165.899 25.3781 165.899 25.219C165.899 25.0598 165.873 24.9007 165.794 24.7416C165.741 24.609 165.609 24.4764 165.45 24.3969C165.292 24.3173 165.054 24.2643 164.763 24.2643H163.02V26.2267Z" fill="white"/>
<path d="M167.933 27.1018V22.5937H168.911V25.8289L171.235 22.5671H172.107V27.1018H171.13V23.9196L168.832 27.1018H167.933V27.1018Z" fill="white"/>
<path d="M175.013 27.1813C174.538 27.1813 174.141 27.1017 173.824 26.9161C173.507 26.757 173.27 26.5183 173.085 26.2001L173.877 25.8554C173.983 26.0145 174.115 26.1471 174.3 26.2532C174.485 26.3592 174.696 26.3858 174.96 26.3858C175.277 26.3858 175.515 26.3327 175.674 26.2001C175.832 26.0675 175.938 25.9084 175.938 25.6963C175.938 25.5106 175.859 25.3515 175.726 25.2455C175.594 25.1394 175.383 25.0598 175.119 25.0598H174.643V24.4499H175.145C175.251 24.4499 175.357 24.4234 175.462 24.3704C175.542 24.3173 175.621 24.2378 175.674 24.1582C175.726 24.0787 175.753 23.9726 175.753 23.84C175.753 23.6544 175.7 23.5218 175.568 23.4157C175.436 23.3096 175.251 23.2566 174.987 23.2566C174.749 23.2566 174.564 23.3096 174.432 23.3892C174.273 23.4687 174.168 23.6013 174.062 23.7604L173.322 23.3892C173.481 23.0975 173.692 22.8853 173.983 22.7262C174.273 22.5671 174.617 22.4875 175.013 22.4875C175.33 22.4875 175.594 22.5406 175.832 22.6201C176.07 22.7262 176.255 22.8588 176.413 23.0444C176.545 23.2301 176.625 23.4422 176.625 23.7074C176.625 23.9195 176.572 24.1052 176.466 24.2908C176.36 24.4764 176.202 24.609 175.991 24.6886C176.281 24.7681 176.493 24.9007 176.625 25.1129C176.757 25.325 176.836 25.5372 176.836 25.8289C176.836 26.094 176.757 26.3327 176.598 26.5449C176.44 26.757 176.228 26.8896 175.964 26.9957C175.674 27.1283 175.357 27.1813 175.013 27.1813Z" fill="white"/>
<path d="M177.946 27.1018V22.5671H178.923V24.3704H181.063V22.5671H182.04V27.1018H181.036V25.1925H178.897V27.1018H177.946Z" fill="white"/>
<path d="M185.474 27.1814C185.105 27.1814 184.788 27.1284 184.497 26.9958C184.206 26.8632 183.969 26.7041 183.757 26.4919C183.546 26.2798 183.387 26.0146 183.282 25.7494C183.176 25.4577 183.123 25.166 183.123 24.8478C183.123 24.4235 183.229 24.0257 183.414 23.681C183.625 23.3362 183.889 23.0445 184.259 22.8324C184.629 22.6202 185.025 22.5142 185.527 22.5142C186.003 22.5142 186.425 22.6202 186.769 22.8324C187.112 23.0445 187.376 23.3362 187.588 23.681C187.773 24.0257 187.878 24.397 187.878 24.8213C187.878 24.9008 187.878 24.9539 187.878 25.0069C187.878 25.0599 187.878 25.113 187.852 25.166H184.18C184.206 25.4312 184.259 25.6698 184.391 25.8555C184.523 26.0411 184.682 26.2002 184.893 26.3328C185.105 26.4389 185.316 26.4919 185.554 26.4919C185.818 26.4919 186.056 26.4389 186.293 26.3063C186.531 26.1737 186.69 26.0146 186.769 25.8024L187.588 26.0411C187.482 26.2533 187.35 26.4654 187.139 26.651C186.927 26.8367 186.69 26.9692 186.425 27.0753C186.082 27.1284 185.791 27.1814 185.474 27.1814ZM184.101 24.503H186.875C186.848 24.2379 186.795 24.0257 186.663 23.8136C186.531 23.6279 186.373 23.4688 186.161 23.3627C185.95 23.2567 185.739 23.2036 185.501 23.2036C185.263 23.2036 185.052 23.2567 184.84 23.3627C184.629 23.4688 184.471 23.6279 184.338 23.8136C184.18 24.0257 184.101 24.2644 184.101 24.503Z" fill="white"/>
<path d="M190.916 27.1814C190.546 27.1814 190.229 27.1284 189.939 26.9958C189.648 26.8632 189.411 26.7041 189.199 26.4919C188.988 26.2798 188.829 26.0146 188.724 25.7494C188.618 25.4577 188.565 25.166 188.565 24.8478C188.565 24.4235 188.671 24.0257 188.856 23.681C189.041 23.3362 189.331 23.0445 189.675 22.8324C190.018 22.6202 190.441 22.5142 190.943 22.5142C191.418 22.5142 191.814 22.6202 192.158 22.8324C192.501 23.0445 192.766 23.3097 192.924 23.6544L191.973 23.9462C191.867 23.7605 191.709 23.6014 191.524 23.4953C191.339 23.3893 191.128 23.3362 190.89 23.3362C190.626 23.3362 190.388 23.3893 190.203 23.5219C189.992 23.6544 189.833 23.8401 189.701 24.0522C189.569 24.2909 189.516 24.5296 189.516 24.8478C189.516 25.1395 189.569 25.4047 189.701 25.6168C189.833 25.8555 189.992 26.0411 190.203 26.1737C190.414 26.3063 190.652 26.3858 190.89 26.3858C191.048 26.3858 191.207 26.3593 191.339 26.3063C191.497 26.2533 191.63 26.1737 191.735 26.0676C191.841 25.9616 191.92 25.8555 191.973 25.7494L192.924 26.0411C192.818 26.2798 192.686 26.4654 192.475 26.651C192.29 26.8367 192.052 26.9692 191.788 27.0753C191.55 27.1284 191.233 27.1814 190.916 27.1814Z" fill="white"/>
<path d="M193.637 25.7758C193.637 25.4841 193.716 25.2455 193.875 25.0333C194.033 24.8212 194.271 24.6621 194.562 24.5295C194.852 24.4234 195.196 24.3438 195.592 24.3438C195.803 24.3438 196.015 24.3704 196.226 24.3969C196.437 24.4234 196.622 24.4764 196.781 24.5295V24.2378C196.781 23.9195 196.675 23.6809 196.49 23.4952C196.305 23.3096 196.015 23.2301 195.645 23.2301C195.381 23.2301 195.143 23.2831 194.905 23.3627C194.667 23.4422 194.43 23.5748 194.166 23.7339L193.849 23.0975C194.166 22.8853 194.456 22.7527 194.773 22.6467C195.09 22.5406 195.407 22.4875 195.751 22.4875C196.358 22.4875 196.86 22.6467 197.204 22.9649C197.547 23.2831 197.732 23.7339 197.732 24.3173V25.988C197.732 26.094 197.758 26.1736 197.785 26.2266C197.811 26.2797 197.89 26.3062 197.97 26.3062V27.0752C197.89 27.1017 197.811 27.1017 197.732 27.1017C197.653 27.1017 197.6 27.1017 197.547 27.1017C197.336 27.1017 197.177 27.0487 197.071 26.9426C196.966 26.8366 196.913 26.7305 196.887 26.5979L196.86 26.3327C196.649 26.5979 196.411 26.7835 196.094 26.9161C195.777 27.0487 195.46 27.1283 195.143 27.1283C194.826 27.1283 194.562 27.0752 194.324 26.9426C194.086 26.81 193.901 26.6509 193.769 26.4388C193.69 26.2797 193.637 26.041 193.637 25.7758ZM196.543 26.041C196.622 25.9615 196.675 25.8819 196.702 25.8289C196.754 25.7493 196.754 25.6963 196.754 25.6432V25.1129C196.596 25.0598 196.411 25.0068 196.226 24.9803C196.041 24.9538 195.856 24.9272 195.698 24.9272C195.354 24.9272 195.064 25.0068 194.852 25.1394C194.641 25.272 194.535 25.4576 194.535 25.6963C194.535 25.8289 194.562 25.9615 194.641 26.0675C194.72 26.2001 194.826 26.2797 194.958 26.3592C195.09 26.4388 195.275 26.4653 195.46 26.4653C195.671 26.4653 195.883 26.4123 196.068 26.3327C196.279 26.2797 196.437 26.1736 196.543 26.041Z" fill="white"/>
</svg>
