<svg id="Layer_1" data-name="Layer 1" xmlns="http://www.w3.org/2000/svg" viewBox="0 0 142.69 38.47"><defs><style>.cls-1{fill:#1b94a8;}.cls-2{fill:#4c4c4c;}</style></defs><path class="cls-1" d="M-361.13,425.05l3.33,7.51h3.18L-365,409.33h-4v1.56h1.4l-9.22,21.65,2.82,0c0-2,.47-3.85,2-7.51Zm-5.53-12.45,4.82,10.86h-9.44Zm-24.17-1.71h3.72c5.18,0,7.59,12-3.72,12Zm5.26-1.56h-9.62v1.56h1.49v21.67h2.87v-8.13c14.73,0,12-15.1,5.26-15.1m-33.29,2.79c4.3-2.71,10.36-1,13.53,3.91s2.25,11-2,13.74-10.36,1-13.53-3.91-2.26-11,2-13.74m-6.37,8.82a12,12,0,0,0,12.12,11.93A12,12,0,0,0-401,420.94,12,12,0,0,0-413.11,409a12,12,0,0,0-12.12,11.92m-15.83-10.05h3.73c5.17,0,7.59,12-3.73,12Zm5.27-1.56h-9.62v1.56h1.49v21.67h2.86v-8.13c14.73,0,12-15.1,5.27-15.1m-28.92,1.56h5.29a4.26,4.26,0,0,1,4.25,4.25,4.26,4.26,0,0,1-4.25,4.25h-5.29Zm0,20.11V420.94h5.19a5,5,0,0,1,5,5,5,5,0,0,1-5,5Zm-4.35-21.67v1.56h1.49v21.67h9.74a6.22,6.22,0,0,0,6.2-6.2,6,6,0,0,0-5.51-6.2c2-.44,4.68-2.43,4.68-5.41a5.44,5.44,0,0,0-5.42-5.42Zm-11.63,15.72,3.34,7.51h3.17l-10.34-23.23h-4v1.56h1.4l-9.22,21.65,2.83,0c0-2,.46-3.85,2-7.51Zm-5.52-12.45,4.82,10.86h-9.45Z" transform="translate(496.62 -409.02)"/><path class="cls-2" d="M-495.82,444v3.33h-.8v-7h.8v3h1.68l1.93-3h1l-2.19,3.36,2.37,3.67H-492l-2.12-3.33Z" transform="translate(496.62 -409.02)"/><path class="cls-2" d="M-489.87,446.36a4.12,4.12,0,0,1-.77-2.53,4,4,0,0,1,.77-2.54,3,3,0,0,1,2.49-1.11,3.16,3.16,0,0,1,2.5,1.11,4.17,4.17,0,0,1,.77,2.54,4.1,4.1,0,0,1-.77,2.53,3.07,3.07,0,0,1-2.5,1.13A3,3,0,0,1-489.87,446.36Zm4.34-.48a3.35,3.35,0,0,0,.57-2.05,3.25,3.25,0,0,0-.57-2,2.2,2.2,0,0,0-1.85-.86,2.28,2.28,0,0,0-1.85.86,3.39,3.39,0,0,0-.57,2,3.35,3.35,0,0,0,.57,2.05,2.24,2.24,0,0,0,1.85.85A2.24,2.24,0,0,0-485.53,445.88Z" transform="translate(496.62 -409.02)"/><path class="cls-2" d="M-475.66,447.34h-.8v-5.27l-2.44,5.28h-.47l-2.44-5.28v5.28h-.8v-7h.79l2.69,5.75,2.67-5.75h.8Z" transform="translate(496.62 -409.02)"/><path class="cls-2" d="M-468.11,447.35h-.79v-6.24H-473v6.24h-.79v-7h5.65Z" transform="translate(496.62 -409.02)"/><path class="cls-2" d="M-460.77,447.35h-.79v-6.27h-2.86l-.46,4c-.16,1.34-.54,2.38-1.92,2.31v-.74c.86,0,1.06-.65,1.18-1.71l.55-4.58h4.3Z" transform="translate(496.62 -409.02)"/><path class="cls-2" d="M-458.09,441.11v2.32h3v.8h-3v2.33h3.58v.79h-4.37v-7h4.37v.79Z" transform="translate(496.62 -409.02)"/><path class="cls-2" d="M-452,444v3.33h-.8v-7h.8v3h1.68l1.93-3h1l-2.19,3.36,2.37,3.67h-.95l-2.12-3.33Z" transform="translate(496.62 -409.02)"/><path class="cls-2" d="M-440.51,445.26a3.32,3.32,0,0,1-.56,1.11,3.1,3.1,0,0,1-2.49,1.12,3.07,3.07,0,0,1-2.48-1.12,4,4,0,0,1-.78-2.54,4,4,0,0,1,.78-2.54,3,3,0,0,1,2.48-1.12,3.09,3.09,0,0,1,2.49,1.12,3.25,3.25,0,0,1,.61,1.29l-.82.14a2.29,2.29,0,0,0-.42-.94,2.33,2.33,0,0,0-1.86-.85,2.25,2.25,0,0,0-1.85.85,3.36,3.36,0,0,0-.56,2.05,3.41,3.41,0,0,0,.56,2.06,2.3,2.3,0,0,0,1.85.84,2.29,2.29,0,0,0,1.86-.84,2.61,2.61,0,0,0,.4-.86Z" transform="translate(496.62 -409.02)"/><path class="cls-2" d="M-430.09,446h-3.28l-.46,1.35h-.83l2.4-7h1.07l2.39,7h-.83Zm-.26-.75-1.39-4.07-1.37,4.07Z" transform="translate(496.62 -409.02)"/><path class="cls-2" d="M-422,447.35h-.79v-6.24h-4.07v6.24h-.79v-7H-422Z" transform="translate(496.62 -409.02)"/><path class="cls-2" d="M-416.25,446h-3.28l-.46,1.35h-.83l2.4-7h1.07l2.39,7h-.83Zm-.26-.75-1.39-4.07-1.37,4.07Z" transform="translate(496.62 -409.02)"/><path class="cls-2" d="M-408.62,442.51a2.22,2.22,0,0,1-.52,1.4,2.21,2.21,0,0,1-1.7.8H-413v2.64h-.79v-7h3a2.36,2.36,0,0,1,.75.12,2.09,2.09,0,0,1,.89.61A2.2,2.2,0,0,1-408.62,442.51Zm-.82,0a1.45,1.45,0,0,0-.41-1,1.36,1.36,0,0,0-1-.44H-413V444h2.16a1.41,1.41,0,0,0,1.08-.53A1.42,1.42,0,0,0-409.44,442.51Z" transform="translate(496.62 -409.02)"/><path class="cls-2" d="M-402.24,441.11h-2.42v6.24h-.79v-6.24h-2.44v-.79h5.65Z" transform="translate(496.62 -409.02)"/><path class="cls-2" d="M-397.39,446h-3.28l-.46,1.35H-402l2.4-7h1.07l2.39,7h-.83Zm-.26-.75-1.39-4.07-1.37,4.07Z" transform="translate(496.62 -409.02)"/><path class="cls-2" d="M-388,447.34h-.8v-5.27l-2.44,5.28h-.47l-2.44-5.28v5.28h-.8v-7h.79l2.68,5.75,2.68-5.75h.8Z" transform="translate(496.62 -409.02)"/><path class="cls-2" d="M-385.29,441.11v2.32h3v.8h-3v2.33h3.57v.79h-4.37v-7h4.37v.79Z" transform="translate(496.62 -409.02)"/><path class="cls-2" d="M-374.64,440.32v7h-.79v-2.61h-3.8v2.61H-380v-7h.79v3.62h3.8v-3.62Z" transform="translate(496.62 -409.02)"/><path class="cls-2" d="M-367.78,441.11h-2.42v6.24h-.8v-6.24h-2.43v-.79h5.65Z" transform="translate(496.62 -409.02)"/><path class="cls-2" d="M-366.19,446.36a4.05,4.05,0,0,1-.77-2.53,4,4,0,0,1,.77-2.54,3,3,0,0,1,2.49-1.11,3.12,3.12,0,0,1,2.49,1.11,4.1,4.1,0,0,1,.77,2.54,4,4,0,0,1-.77,2.53,3,3,0,0,1-2.49,1.13A3,3,0,0,1-366.19,446.36Zm4.34-.48a3.34,3.34,0,0,0,.56-2.05,3.25,3.25,0,0,0-.56-2,2.21,2.21,0,0,0-1.85-.86,2.28,2.28,0,0,0-1.85.86,3.39,3.39,0,0,0-.57,2,3.35,3.35,0,0,0,.57,2.05,2.24,2.24,0,0,0,1.85.85A2.26,2.26,0,0,0-361.85,445.88Z" transform="translate(496.62 -409.02)"/><path class="cls-2" d="M-353.93,445.36a2.13,2.13,0,0,1-.44,1.22,2.26,2.26,0,0,1-1.06.67,3.31,3.31,0,0,1-.94.1h-2.56v-7h2.43a3.25,3.25,0,0,1,.85.07,1.91,1.91,0,0,1,1,.62,1.87,1.87,0,0,1,.42,1.11,1.68,1.68,0,0,1-.38,1.13,1.75,1.75,0,0,1-.29.32,2,2,0,0,1,.61.56A1.89,1.89,0,0,1-353.93,445.36Zm-4.2-4.29v2.21h1.91a1.18,1.18,0,0,0,.91-.47,1.14,1.14,0,0,0,.22-.69,1,1,0,0,0-.29-.7,1,1,0,0,0-.84-.35Zm3.39,4.29a1.35,1.35,0,0,0-.29-.83,1.25,1.25,0,0,0-1-.49h-2.09v2.55h1.75c.56,0,.93,0,1.28-.4A1.18,1.18,0,0,0-354.74,445.36Z" transform="translate(496.62 -409.02)"/></svg>