<svg width="309" height="49" viewBox="0 0 309 49" fill="none" xmlns="http://www.w3.org/2000/svg">
<path d="M0 27.7143V39.2183L28.4095 25.6939V14.1899L0 27.7143Z" fill="#70B62C"/>
<path d="M0 13.5713V25.0753L28.4095 11.5509V0.046875L0 13.5713Z" fill="#70B62C"/>
<path d="M0 39.2182L10.8855 48.1245V36.4968L0 39.2182Z" fill="black"/>
<path d="M46.8819 42.7232V10.479H68.7354V15.963H53.2318V24.292H66.0965V29.3637H53.1906V42.7232H46.8819Z" fill="black"/>
<path d="M82.7957 43.1765C80.8577 43.1765 79.0847 42.8467 77.5178 42.2282C75.951 41.5685 74.6315 40.7026 73.5595 39.548C72.4874 38.3935 71.6628 37.1153 71.0443 35.6309C70.467 34.1465 70.1784 32.6209 70.1784 31.0128C70.1784 29.3635 70.467 27.7966 71.0443 26.3535C71.6215 24.8691 72.4462 23.5909 73.5595 22.4364C74.6315 21.2818 75.951 20.4159 77.5178 19.7562C79.0847 19.0965 80.8165 18.8079 82.7957 18.8079C84.7336 18.8079 86.5066 19.1377 88.0322 19.7562C89.5579 20.4159 90.8773 21.2818 91.9906 22.4364C93.1039 23.5909 93.9286 24.8691 94.5058 26.3535C95.0831 27.8379 95.3717 29.3635 95.3717 31.0128C95.3717 32.6209 95.0831 34.1878 94.5058 35.6309C93.9286 37.1153 93.1039 38.3935 92.0318 39.548C90.9598 40.7026 89.6403 41.5685 88.0735 42.2282C86.5066 42.8467 84.7336 43.1765 82.7957 43.1765ZM76.5283 31.0128C76.5283 32.3735 76.8169 33.5693 77.3529 34.6413C77.8889 35.7134 78.6311 36.538 79.5795 37.1153C80.5278 37.6926 81.5999 38.0224 82.7957 38.0224C83.9502 38.0224 85.0222 37.7338 85.9706 37.1153C86.919 36.4968 87.6611 35.6721 88.2384 34.6413C88.8157 33.5693 89.1043 32.3735 89.1043 31.0128C89.1043 29.6934 88.8157 28.4564 88.2384 27.3843C87.6611 26.3123 86.919 25.4876 85.9706 24.9103C85.0222 24.3331 83.9914 24.0032 82.7957 24.0032C81.5999 24.0032 80.5278 24.2918 79.5795 24.9103C78.6311 25.5288 77.8889 26.3535 77.3529 27.4255C76.8169 28.4151 76.5283 29.6521 76.5283 31.0128Z" fill="black"/>
<path d="M113.844 24.2097C111.989 24.2097 110.298 24.5808 108.855 25.2818C107.371 25.9827 106.34 27.0136 105.68 28.333V42.7233H99.5363V19.1381H105.185V24.0036C106.051 22.3543 107.123 21.076 108.443 20.1277C109.762 19.1793 111.164 18.6845 112.607 18.6021C112.937 18.6021 113.184 18.6021 113.391 18.6021C113.555 18.6021 113.72 18.6021 113.844 18.6433V24.2097Z" fill="black"/>
<path d="M131.286 43.1764C129.471 43.1764 127.822 42.7641 126.379 41.9394C124.936 41.1147 123.822 40.0015 122.998 38.5995V42.7228H117.638V9.57153H123.781V23.3846C124.647 21.9414 125.76 20.8281 127.162 20.0447C128.564 19.22 130.172 18.8077 132.028 18.8077C133.595 18.8077 134.997 19.1376 136.275 19.7561C137.553 20.4158 138.666 21.2817 139.615 22.4362C140.563 23.5907 141.264 24.869 141.759 26.3533C142.254 27.8377 142.501 29.4046 142.501 31.0539C142.501 32.7444 142.212 34.3113 141.635 35.7545C141.058 37.2388 140.274 38.5171 139.285 39.6304C138.295 40.7436 137.099 41.6095 135.739 42.228C134.378 42.8465 132.894 43.1764 131.286 43.1764ZM129.595 37.981C130.585 37.981 131.451 37.8161 132.275 37.4038C133.1 37.0327 133.801 36.5379 134.378 35.9194C134.955 35.3009 135.45 34.5587 135.739 33.734C136.069 32.8681 136.234 32.0023 136.234 31.0951C136.234 29.8169 135.986 28.6212 135.45 27.5491C134.914 26.477 134.172 25.6112 133.265 24.9514C132.316 24.2917 131.244 23.9618 130.007 23.9618C129.142 23.9618 128.276 24.168 127.451 24.5803C126.626 24.9927 125.925 25.5287 125.307 26.1884C124.688 26.8894 124.194 27.6316 123.822 28.4975V34.0639C123.987 34.6412 124.317 35.1772 124.73 35.672C125.142 36.1668 125.637 36.5379 126.173 36.909C126.709 37.2388 127.286 37.5275 127.905 37.6924C128.399 37.8986 128.977 37.981 129.595 37.981Z" fill="black"/>
<path d="M146.665 42.723V18.8904H152.809V42.723H146.665Z" fill="black"/>
<path d="M169.55 43.1765C167.612 43.1765 165.839 42.8467 164.272 42.2282C162.705 41.5685 161.386 40.7026 160.314 39.548C159.242 38.3935 158.417 37.1153 157.799 35.6309C157.221 34.1465 156.933 32.6209 156.933 31.0128C156.933 29.3635 157.221 27.7966 157.799 26.3535C158.376 24.8691 159.201 23.5909 160.314 22.4364C161.386 21.2818 162.705 20.4159 164.272 19.7562C165.839 19.0965 167.571 18.8079 169.55 18.8079C171.488 18.8079 173.261 19.1377 174.787 19.7562C176.312 20.4159 177.632 21.2818 178.745 22.4364C179.858 23.5909 180.683 24.8691 181.26 26.3535C181.838 27.8379 182.126 29.3635 182.126 31.0128C182.126 32.6209 181.838 34.1878 181.26 35.6309C180.683 37.1153 179.858 38.3935 178.786 39.548C177.714 40.7026 176.395 41.5685 174.828 42.2282C173.261 42.8467 171.488 43.1765 169.55 43.1765ZM163.283 31.0128C163.283 32.3735 163.571 33.5693 164.107 34.6413C164.643 35.7134 165.386 36.538 166.334 37.1153C167.282 37.6926 168.354 38.0224 169.55 38.0224C170.705 38.0224 171.777 37.7338 172.725 37.1153C173.673 36.4968 174.416 35.6721 174.993 34.6413C175.57 33.5693 175.859 32.3735 175.859 31.0128C175.859 29.6934 175.57 28.4564 174.993 27.3843C174.416 26.3123 173.673 25.4876 172.725 24.9103C171.777 24.3331 170.746 24.0032 169.55 24.0032C168.354 24.0032 167.282 24.2918 166.334 24.9103C165.386 25.5288 164.643 26.3535 164.107 27.4255C163.53 28.4151 163.283 29.6521 163.283 31.0128Z" fill="black"/>
<path d="M208.391 42.7227H202.248V29.5694C202.248 27.6727 201.918 26.312 201.258 25.4461C200.598 24.5802 199.65 24.1679 198.454 24.1679C197.63 24.1679 196.805 24.374 195.939 24.7864C195.114 25.1987 194.331 25.776 193.671 26.4769C193.012 27.2191 192.517 28.0438 192.187 28.9921V42.7227H186.043V19.1375H191.568V23.5494C192.187 22.5186 192.97 21.6527 193.919 20.9517C194.867 20.2507 195.939 19.7147 197.176 19.3436C198.413 18.9725 199.732 18.7664 201.093 18.7664C202.578 18.7664 203.815 19.0138 204.763 19.5498C205.711 20.0858 206.453 20.7868 206.948 21.6527C207.443 22.5186 207.814 23.5494 208.02 24.6214C208.226 25.7347 208.309 26.848 208.309 28.0025V42.7227H208.391Z" fill="black"/>
<path d="M152.809 9.73633H146.665V15.8388H152.809V9.73633Z" fill="#70B62C"/>
<path d="M220.349 28.2093V18.6021H224.431C224.885 18.6021 225.256 18.6845 225.627 18.8907C225.998 19.0556 226.328 19.303 226.575 19.5916C226.864 19.8803 227.07 20.2101 227.194 20.5812C227.359 20.9523 227.4 21.3234 227.4 21.7358C227.4 22.2718 227.276 22.7666 227.029 23.2614C226.781 23.7562 226.451 24.1273 225.998 24.4159C225.544 24.7045 225.049 24.8695 224.472 24.8695H221.833V28.2093H220.349ZM221.875 23.55H224.39C224.678 23.55 224.926 23.4675 225.173 23.3026C225.379 23.1377 225.544 22.9315 225.668 22.6429C225.792 22.3542 225.833 22.0656 225.833 21.7358C225.833 21.3647 225.75 21.076 225.627 20.7874C225.462 20.4988 225.297 20.2926 225.049 20.1689C224.802 20.004 224.555 19.9627 224.307 19.9627H221.833L221.875 23.55Z" fill="black"/>
<path d="M232.306 28.3739C231.729 28.3739 231.234 28.2915 230.781 28.0853C230.327 27.8791 229.956 27.6317 229.626 27.3019C229.296 26.972 229.049 26.5597 228.884 26.1474C228.719 25.6938 228.637 25.2402 228.637 24.7454C228.637 24.0857 228.802 23.4672 229.09 22.9312C229.42 22.3952 229.832 21.9416 230.41 21.6117C230.987 21.2819 231.605 21.1169 232.389 21.1169C233.131 21.1169 233.791 21.2819 234.327 21.6117C234.863 21.9416 235.275 22.3952 235.605 22.9312C235.894 23.4672 236.059 24.0445 236.059 24.7042C236.059 24.8279 236.059 24.9104 236.059 24.9928C236.059 25.0753 236.059 25.1578 236.017 25.2402H230.286C230.327 25.6526 230.41 26.0237 230.616 26.3123C230.822 26.6009 231.069 26.8483 231.399 27.0545C231.729 27.2194 232.059 27.3019 232.43 27.3019C232.842 27.3019 233.214 27.2194 233.585 27.0133C233.956 26.8071 234.203 26.5597 234.327 26.2298L235.605 26.6009C235.44 26.9308 235.234 27.2607 234.904 27.5493C234.574 27.8379 234.203 28.0441 233.791 28.209C233.255 28.2915 232.801 28.3739 232.306 28.3739ZM230.121 24.2094H234.451C234.409 23.7971 234.327 23.4672 234.121 23.1374C233.915 22.8487 233.667 22.6013 233.337 22.4364C233.007 22.2715 232.678 22.189 232.306 22.189C231.935 22.189 231.606 22.2715 231.276 22.4364C230.946 22.6013 230.698 22.8487 230.492 23.1374C230.286 23.4672 230.162 23.7971 230.121 24.2094Z" fill="black"/>
<path d="M237.543 28.209V21.1582H239.069V26.8896H241.625V21.1582H243.151V26.8896H245.707V21.1582H247.233V28.209H237.543Z" fill="black"/>
<path d="M252.593 28.3739C252.016 28.3739 251.521 28.2915 251.068 28.0853C250.614 27.8791 250.243 27.6317 249.913 27.3019C249.583 26.972 249.336 26.5597 249.171 26.1474C249.006 25.6938 248.924 25.2402 248.924 24.7454C248.924 24.0857 249.089 23.4672 249.377 22.9312C249.707 22.3952 250.119 21.9416 250.697 21.6117C251.274 21.2819 251.892 21.1169 252.676 21.1169C253.418 21.1169 254.078 21.2819 254.614 21.6117C255.15 21.9416 255.562 22.3952 255.892 22.9312C256.181 23.4672 256.346 24.0445 256.346 24.7042C256.346 24.8279 256.346 24.9104 256.346 24.9928C256.346 25.0753 256.346 25.1578 256.304 25.2402H250.573C250.614 25.6526 250.697 26.0237 250.903 26.3123C251.109 26.6009 251.356 26.8483 251.686 27.0545C252.016 27.2194 252.346 27.3019 252.717 27.3019C253.129 27.3019 253.501 27.2194 253.872 27.0133C254.243 26.8071 254.49 26.5597 254.614 26.2298L255.892 26.6009C255.727 26.9308 255.521 27.2607 255.191 27.5493C254.861 27.8379 254.49 28.0441 254.078 28.209C253.583 28.2915 253.129 28.3739 252.593 28.3739ZM250.449 24.2094H254.779C254.737 23.7971 254.655 23.4672 254.449 23.1374C254.243 22.8487 253.995 22.6013 253.665 22.4364C253.336 22.2715 253.006 22.189 252.635 22.189C252.264 22.189 251.934 22.2715 251.604 22.4364C251.274 22.6013 251.027 22.8487 250.82 23.1374C250.614 23.4672 250.491 23.7971 250.449 24.2094Z" fill="black"/>
<path d="M257.871 28.209V21.1582H259.397V23.962H262.736V21.1582H264.262V28.209H262.736V25.2403H259.397V28.209H257.871Z" fill="black"/>
<path d="M266.365 28.209V21.1994H267.891V26.2299L271.519 21.1582H272.88V28.209H271.354V23.2611L267.767 28.209H266.365Z" fill="black"/>
<path d="M274.57 28.2093L276.508 25.4467C276.055 25.323 275.684 25.1168 275.436 24.787C275.189 24.4571 275.024 24.0035 275.024 23.4263C275.024 22.9727 275.106 22.6016 275.313 22.2718C275.519 21.9419 275.807 21.6945 276.178 21.4883C276.549 21.2822 277.003 21.1997 277.498 21.1997H280.632V28.2505H279.106V25.7353H277.91L276.137 28.2505L274.57 28.2093ZM277.663 24.622H279.147V22.3542H277.745C277.374 22.3542 277.044 22.4367 276.838 22.6429C276.632 22.849 276.508 23.0964 276.508 23.4263C276.508 23.7562 276.591 24.0448 276.797 24.2509C277.003 24.4983 277.292 24.622 277.663 24.622Z" fill="black"/>
<path d="M220.597 43.9191V40.9091H220.762C220.968 40.9091 221.133 40.8679 221.298 40.7442C221.463 40.6205 221.627 40.4556 221.751 40.1669C221.875 39.9195 221.999 39.5484 222.081 39.0536C222.163 38.5588 222.205 37.9816 222.246 37.2806L222.328 35.1777H227.441V40.9091H228.431V43.9191H227.111V42.2286H221.957V43.9191H220.597ZM222.741 40.9091H225.874V36.4972H223.607L223.565 37.4868C223.524 38.1465 223.483 38.7238 223.442 39.2186C223.359 39.6721 223.277 40.0432 223.153 40.3319C223.029 40.5793 222.906 40.7854 222.741 40.9091Z" fill="black"/>
<path d="M229.42 42.2286V40.9091C229.668 40.9091 229.874 40.8679 230.039 40.7442C230.204 40.6205 230.369 40.4556 230.533 40.1669C230.657 39.9195 230.781 39.5484 230.863 39.0536C230.946 38.5588 230.987 37.9816 231.028 37.2806L231.111 35.1777H236.224V42.1461H234.739V36.4972H232.471L232.43 37.4455C232.389 38.3939 232.307 39.1361 232.183 39.7546C232.059 40.3731 231.853 40.8679 231.606 41.1977C231.358 41.5688 231.07 41.8162 230.698 41.9812C230.327 42.1461 229.915 42.2286 229.42 42.2286Z" fill="black"/>
<path d="M237.914 42.2281L239.852 39.4655C239.399 39.3418 239.028 39.1356 238.78 38.8058C238.533 38.4759 238.368 38.0223 238.368 37.4451C238.368 36.9915 238.45 36.6204 238.656 36.2906C238.863 35.9607 239.151 35.7133 239.522 35.5071C239.893 35.301 240.347 35.2185 240.842 35.2185H243.976V42.2693H242.45V39.7541H241.337L239.564 42.2693H237.914V42.2281ZM241.007 38.5996H242.491V36.3318H241.089C240.718 36.3318 240.388 36.4143 240.182 36.6204C239.976 36.8266 239.852 37.074 239.852 37.4039C239.852 37.7337 239.935 38.0223 240.141 38.2285C240.347 38.5171 240.636 38.5996 241.007 38.5996Z" fill="black"/>
<path d="M252.923 42.0633V32.4561H259.768V33.7755H254.449V36.4556H257.294C258.366 36.4556 259.191 36.703 259.727 37.1978C260.263 37.6926 260.551 38.3524 260.551 39.177C260.551 39.7131 260.428 40.2079 260.221 40.6614C259.974 41.0737 259.644 41.4448 259.191 41.6922C258.737 41.9396 258.16 42.0633 257.459 42.0633H252.923ZM254.449 40.7026H257.17C257.582 40.7026 257.912 40.6202 258.201 40.4552C258.448 40.2903 258.655 40.1254 258.778 39.878C258.902 39.6306 258.943 39.3832 258.943 39.1358C258.943 38.8884 258.902 38.641 258.778 38.3936C258.696 38.1874 258.49 37.9813 258.242 37.8576C257.995 37.7339 257.624 37.6514 257.17 37.6514H254.449V40.7026Z" fill="black"/>
<path d="M262.118 42.0633V35.0537H263.644V40.0841L267.272 35.0125H268.633V42.0633H267.107V37.1153L263.52 42.0633H262.118Z" fill="black"/>
<path d="M273.169 42.1869C272.426 42.1869 271.808 42.0632 271.313 41.7746C270.818 41.5272 270.447 41.1561 270.159 40.6613L271.396 40.1253C271.56 40.3727 271.767 40.5788 272.055 40.7437C272.344 40.9087 272.674 40.9499 273.086 40.9499C273.581 40.9499 273.952 40.8674 274.199 40.6613C274.447 40.4551 274.612 40.2077 274.612 39.8779C274.612 39.5892 274.488 39.3418 274.282 39.1769C274.076 39.012 273.746 38.8883 273.334 38.8883H272.591V37.9399H273.375C273.54 37.9399 273.705 37.8987 273.87 37.8162C273.993 37.7337 274.117 37.61 274.199 37.4863C274.282 37.3626 274.323 37.1977 274.323 36.9916C274.323 36.7029 274.241 36.4968 274.034 36.3318C273.828 36.1669 273.54 36.0844 273.127 36.0844C272.756 36.0844 272.468 36.1669 272.261 36.2906C272.014 36.4143 271.849 36.6205 271.684 36.8679L270.53 36.2906C270.777 35.837 271.107 35.5072 271.56 35.2598C272.014 35.0124 272.55 34.8887 273.169 34.8887C273.663 34.8887 274.076 34.9711 274.447 35.0948C274.818 35.2598 275.107 35.4659 275.354 35.7546C275.56 36.0432 275.684 36.3731 275.684 36.7854C275.684 37.1153 275.601 37.4039 275.436 37.6925C275.271 37.9811 275.024 38.1873 274.694 38.311C275.148 38.4347 275.478 38.6409 275.684 38.9707C275.89 39.3006 276.014 39.6305 276.014 40.084C276.014 40.4964 275.89 40.8674 275.643 41.1973C275.395 41.5272 275.065 41.7333 274.653 41.8983C274.199 42.1044 273.705 42.1869 273.169 42.1869Z" fill="black"/>
<path d="M277.745 42.0633V35.0125H279.271V37.8163H282.611V35.0125H284.137V42.0633H282.57V39.0945H279.23V42.0633H277.745Z" fill="black"/>
<path d="M289.497 42.1869C288.919 42.1869 288.425 42.1045 287.971 41.8983C287.518 41.6921 287.146 41.4447 286.817 41.1149C286.487 40.785 286.239 40.3727 286.074 39.9604C285.909 39.5068 285.827 39.0532 285.827 38.5584C285.827 37.8987 285.992 37.2802 286.281 36.7442C286.61 36.2082 287.023 35.7546 287.6 35.4247C288.177 35.0949 288.796 34.9299 289.579 34.9299C290.321 34.9299 290.981 35.0949 291.517 35.4247C292.053 35.7546 292.465 36.2082 292.795 36.7442C293.084 37.2802 293.249 37.8575 293.249 38.5172C293.249 38.6409 293.249 38.7234 293.249 38.8058C293.249 38.8883 293.249 38.9708 293.208 39.0532H287.476C287.518 39.4656 287.6 39.8367 287.806 40.1253C288.012 40.4139 288.26 40.6613 288.59 40.8675C288.919 41.0324 289.249 41.1149 289.62 41.1149C290.033 41.1149 290.404 41.0324 290.775 40.8262C291.146 40.6201 291.393 40.3727 291.517 40.0428L292.795 40.4139C292.63 40.7438 292.424 41.0736 292.094 41.3623C291.765 41.6509 291.393 41.8571 290.981 42.022C290.445 42.1045 289.991 42.1869 289.497 42.1869ZM287.353 38.0224H291.682C291.641 37.6101 291.558 37.2802 291.352 36.9503C291.146 36.6617 290.899 36.4143 290.569 36.2494C290.239 36.0845 289.909 36.002 289.538 36.002C289.167 36.002 288.837 36.0845 288.507 36.2494C288.177 36.4143 287.93 36.6617 287.724 36.9503C287.476 37.2802 287.353 37.6513 287.353 38.0224Z" fill="black"/>
<path d="M297.991 42.1869C297.413 42.1869 296.918 42.1045 296.465 41.8983C296.011 41.6921 295.64 41.4447 295.31 41.1149C294.981 40.785 294.733 40.3727 294.568 39.9604C294.403 39.5068 294.321 39.0532 294.321 38.5584C294.321 37.8987 294.486 37.2802 294.774 36.7442C295.063 36.2082 295.517 35.7546 296.053 35.4247C296.589 35.0949 297.248 34.9299 298.032 34.9299C298.774 34.9299 299.392 35.0949 299.928 35.4247C300.465 35.7546 300.877 36.1669 301.124 36.7029L299.64 37.1565C299.475 36.8679 299.228 36.6205 298.939 36.4555C298.65 36.2906 298.32 36.2082 297.949 36.2082C297.537 36.2082 297.166 36.2906 296.877 36.4968C296.547 36.7029 296.3 36.9916 296.094 37.3214C295.888 37.6925 295.805 38.0636 295.805 38.5584C295.805 39.012 295.888 39.4243 296.094 39.7542C296.3 40.1253 296.547 40.4139 296.877 40.6201C297.207 40.8262 297.578 40.9499 297.949 40.9499C298.197 40.9499 298.444 40.9087 298.65 40.8262C298.898 40.7438 299.104 40.6201 299.269 40.4551C299.434 40.2902 299.557 40.1253 299.64 39.9604L301.124 40.4139C300.959 40.785 300.753 41.0736 300.423 41.3623C300.135 41.6509 299.764 41.8571 299.351 42.022C298.98 42.1045 298.485 42.1869 297.991 42.1869Z" fill="black"/>
<path d="M302.238 40.0016C302.238 39.548 302.362 39.1769 302.609 38.847C302.856 38.5172 303.227 38.2698 303.681 38.0636C304.135 37.8987 304.671 37.775 305.289 37.775C305.619 37.775 305.949 37.8162 306.279 37.8574C306.608 37.8987 306.897 37.9811 307.145 38.0636V37.61C307.145 37.1153 306.98 36.7442 306.691 36.4555C306.402 36.1669 305.949 36.0432 305.371 36.0432C304.959 36.0432 304.588 36.1257 304.217 36.2494C303.846 36.3731 303.475 36.5792 303.062 36.8266L302.568 35.837C303.062 35.5072 303.516 35.301 304.011 35.1361C304.506 34.9711 305 34.8887 305.536 34.8887C306.485 34.8887 307.268 35.1361 307.804 35.6309C308.34 36.1257 308.629 36.8266 308.629 37.7337V40.3314C308.629 40.4964 308.67 40.6201 308.711 40.7025C308.753 40.785 308.876 40.8262 309 40.8262V42.022C308.876 42.0632 308.753 42.0632 308.629 42.0632C308.505 42.0632 308.423 42.0632 308.34 42.0632C308.01 42.0632 307.763 41.9807 307.598 41.8158C307.433 41.6509 307.351 41.4859 307.309 41.2798L307.268 40.8674C306.938 41.2798 306.567 41.5684 306.072 41.7746C305.578 41.9807 305.083 42.1044 304.588 42.1044C304.093 42.1044 303.681 42.022 303.31 41.8158C302.939 41.6096 302.65 41.3622 302.444 41.0324C302.32 40.785 302.238 40.4139 302.238 40.0016ZM306.773 40.4139C306.897 40.2902 306.98 40.1665 307.021 40.084C307.103 39.9603 307.103 39.8779 307.103 39.7954V38.9707C306.856 38.8883 306.567 38.8058 306.279 38.7646C305.99 38.7233 305.701 38.6821 305.454 38.6821C304.918 38.6821 304.464 38.8058 304.134 39.012C303.805 39.2181 303.64 39.5068 303.64 39.8779C303.64 40.084 303.681 40.2902 303.805 40.4551C303.928 40.6613 304.093 40.785 304.299 40.9087C304.506 41.0324 304.794 41.0736 305.083 41.0736C305.413 41.0736 305.743 40.9911 306.031 40.8674C306.361 40.785 306.608 40.62 306.773 40.4139Z" fill="black"/>
</svg>
