<svg width="380" height="60" viewBox="0 0 380 60" fill="none" xmlns="http://www.w3.org/2000/svg">
<path d="M0 34.0245V48.1718L34.9373 31.5399V17.3926L0 34.0245Z" fill="#70B62C"/>
<path d="M0 16.632V30.7793L34.9373 14.1473V0L0 16.632Z" fill="#70B62C"/>
<path d="M0 48.1719L13.3867 59.1246V44.8252L0 48.1719Z" fill="black"/>
<path d="M57.6541 52.4821V12.8291H84.5289V19.5732H65.463V29.816H81.2836V36.053H65.4123V52.4821H57.6541Z" fill="black"/>
<path d="M101.82 53.0392C99.4366 53.0392 97.2562 52.6336 95.3293 51.873C93.4025 51.0617 91.7798 49.9968 90.4615 48.577C89.1431 47.1572 88.1289 45.5853 87.3683 43.7598C86.6584 41.9344 86.3035 40.0582 86.3035 38.0806C86.3035 36.0523 86.6584 34.1255 87.3683 32.3507C88.0782 30.5252 89.0924 28.9533 90.4615 27.5335C91.7798 26.1137 93.4025 25.0489 95.3293 24.2376C97.2562 23.4262 99.3859 23.0713 101.82 23.0713C104.203 23.0713 106.384 23.4769 108.26 24.2376C110.136 25.0489 111.758 26.1137 113.128 27.5335C114.497 28.9533 115.511 30.5252 116.221 32.3507C116.931 34.1762 117.286 36.0523 117.286 38.0806C117.286 40.0582 116.931 41.9851 116.221 43.7598C115.511 45.5853 114.497 47.1572 113.178 48.577C111.86 49.9968 110.237 51.0617 108.31 51.873C106.384 52.6336 104.203 53.0392 101.82 53.0392ZM94.1124 38.0806C94.1124 39.754 94.4673 41.2245 95.1265 42.5429C95.7857 43.8612 96.6984 44.8754 97.8647 45.5853C99.031 46.2952 100.349 46.7008 101.82 46.7008C103.24 46.7008 104.558 46.3459 105.724 45.5853C106.891 44.8247 107.803 43.8105 108.513 42.5429C109.223 41.2245 109.578 39.754 109.578 38.0806C109.578 36.458 109.223 34.9368 108.513 33.6184C107.803 32.3 106.891 31.2859 105.724 30.576C104.558 29.8661 103.29 29.4604 101.82 29.4604C100.349 29.4604 99.031 29.8153 97.8647 30.576C96.6984 31.3366 95.7857 32.3507 95.1265 33.6691C94.4673 34.8861 94.1124 36.4073 94.1124 38.0806Z" fill="black"/>
<path d="M140.003 29.7145C137.721 29.7145 135.642 30.1709 133.867 31.0329C132.041 31.8949 130.774 33.1626 129.962 34.7853V52.4821H122.407V23.4776H129.354V29.461C130.419 27.4327 131.737 25.8608 133.36 24.6945C134.982 23.5283 136.707 22.9198 138.481 22.8184C138.887 22.8184 139.191 22.8184 139.445 22.8184C139.648 22.8184 139.85 22.8184 140.003 22.8691V29.7145Z" fill="black"/>
<path d="M161.452 53.0397C159.22 53.0397 157.192 52.5327 155.417 51.5185C153.643 50.5044 152.274 49.1353 151.259 47.4112V52.482H144.667V11.7134H152.223V28.7003C153.288 26.9255 154.657 25.5564 156.381 24.593C158.105 23.5789 160.082 23.0718 162.364 23.0718C164.291 23.0718 166.015 23.4774 167.587 24.2381C169.159 25.0494 170.528 26.1142 171.694 27.534C172.861 28.9538 173.723 30.5257 174.331 32.3512C174.94 34.1767 175.244 36.1035 175.244 38.1318C175.244 40.2108 174.889 42.1377 174.179 43.9124C173.469 45.7379 172.506 47.3098 171.289 48.6789C170.072 50.048 168.601 51.1129 166.928 51.8735C165.255 52.6341 163.429 53.0397 161.452 53.0397ZM159.373 46.6506C160.59 46.6506 161.654 46.4478 162.669 45.9407C163.683 45.4844 164.545 44.8759 165.255 44.1153C165.965 43.3547 166.573 42.4419 166.928 41.4278C167.334 40.3629 167.536 39.2981 167.536 38.1825C167.536 36.6106 167.232 35.1401 166.573 33.8217C165.914 32.5033 165.001 31.4385 163.886 30.6272C162.719 29.8158 161.401 29.4102 159.88 29.4102C158.815 29.4102 157.75 29.6637 156.736 30.1708C155.722 30.6779 154.86 31.3371 154.099 32.1484C153.338 33.0104 152.73 33.9231 152.274 34.988V41.8335C152.476 42.5434 152.882 43.2025 153.389 43.811C153.896 44.4195 154.505 44.8759 155.164 45.3322C155.823 45.7379 156.533 46.0929 157.294 46.2957C157.902 46.5492 158.612 46.6506 159.373 46.6506Z" fill="black"/>
<path d="M180.365 52.4816V23.1729H187.921V52.4816H180.365Z" fill="black"/>
<path d="M208.508 53.0392C206.125 53.0392 203.945 52.6336 202.018 51.873C200.091 51.0617 198.468 49.9968 197.15 48.577C195.831 47.1572 194.817 45.5853 194.057 43.7598C193.347 41.9344 192.992 40.0582 192.992 38.0806C192.992 36.0523 193.347 34.1255 194.057 32.3507C194.767 30.5252 195.781 28.9533 197.15 27.5335C198.468 26.1137 200.091 25.0489 202.018 24.2376C203.945 23.4262 206.074 23.0713 208.508 23.0713C210.891 23.0713 213.072 23.4769 214.948 24.2376C216.824 25.0489 218.447 26.1137 219.816 27.5335C221.185 28.9533 222.199 30.5252 222.909 32.3507C223.619 34.1762 223.974 36.0523 223.974 38.0806C223.974 40.0582 223.619 41.9851 222.909 43.7598C222.199 45.5853 221.185 47.1572 219.867 48.577C218.548 49.9968 216.926 51.0617 214.999 51.873C213.072 52.6336 210.891 53.0392 208.508 53.0392ZM200.801 38.0806C200.801 39.754 201.156 41.2245 201.815 42.5429C202.474 43.8612 203.387 44.8754 204.553 45.5853C205.719 46.2952 207.038 46.7008 208.508 46.7008C209.928 46.7008 211.246 46.3459 212.413 45.5853C213.579 44.8247 214.492 43.8105 215.202 42.5429C215.911 41.2245 216.266 39.754 216.266 38.0806C216.266 36.458 215.911 34.9368 215.202 33.6184C214.492 32.3 213.579 31.2859 212.413 30.576C211.246 29.8661 209.979 29.4604 208.508 29.4604C207.038 29.4604 205.719 29.8153 204.553 30.576C203.387 31.3366 202.474 32.3507 201.815 33.6691C201.105 34.8861 200.801 36.4073 200.801 38.0806Z" fill="black"/>
<path d="M256.274 52.4814H248.719V36.3058C248.719 33.9733 248.313 32.2999 247.502 31.2351C246.69 30.1702 245.524 29.6631 244.054 29.6631C243.039 29.6631 242.025 29.9167 240.961 30.4238C239.946 30.9308 238.983 31.6407 238.172 32.5028C237.36 33.4155 236.752 34.4296 236.346 35.5959V52.4814H228.791V23.4769H235.586V28.9025C236.346 27.6349 237.31 26.57 238.476 25.708C239.642 24.846 240.961 24.1868 242.482 23.7304C244.003 23.274 245.626 23.0205 247.299 23.0205C249.124 23.0205 250.646 23.3247 251.812 23.9839C252.978 24.6431 253.891 25.5052 254.499 26.57C255.108 27.6349 255.564 28.9025 255.818 30.2209C256.071 31.59 256.173 32.9591 256.173 34.3789V52.4814H256.274Z" fill="black"/>
<path d="M187.921 11.916H180.365V19.4207H187.921V11.916Z" fill="#70B62C"/>
<path d="M270.979 34.6336V22.8188H275.999C276.557 22.8188 277.013 22.9203 277.47 23.1738C277.926 23.3766 278.332 23.6809 278.636 24.0358C278.991 24.3908 279.245 24.7964 279.397 25.2528C279.599 25.7092 279.65 26.1655 279.65 26.6726C279.65 27.3318 279.498 27.9403 279.194 28.5488C278.89 29.1572 278.484 29.6136 277.926 29.9686C277.368 30.3235 276.76 30.5263 276.05 30.5263H272.805V34.6336H270.979ZM272.855 28.9037H275.949C276.303 28.9037 276.608 28.8023 276.912 28.5995C277.166 28.3966 277.368 28.1431 277.52 27.7882C277.673 27.4332 277.723 27.0783 277.723 26.6726C277.723 26.2162 277.622 25.8613 277.47 25.5063C277.267 25.1514 277.064 24.8978 276.76 24.7457C276.456 24.5429 276.151 24.4922 275.847 24.4922H272.805L272.855 28.9037Z" fill="black"/>
<path d="M285.684 34.8361C284.974 34.8361 284.366 34.7347 283.808 34.4811C283.25 34.2276 282.794 33.9234 282.388 33.5177C281.983 33.112 281.678 32.605 281.476 32.0979C281.273 31.5401 281.171 30.9823 281.171 30.3739C281.171 29.5625 281.374 28.8019 281.729 28.1427C282.135 27.4835 282.642 26.9258 283.352 26.5201C284.062 26.1144 284.822 25.9116 285.786 25.9116C286.698 25.9116 287.51 26.1144 288.169 26.5201C288.828 26.9258 289.335 27.4835 289.741 28.1427C290.096 28.8019 290.299 29.5118 290.299 30.3231C290.299 30.4753 290.299 30.5767 290.299 30.6781C290.299 30.7795 290.299 30.8809 290.248 30.9823H283.2C283.25 31.4894 283.352 31.9458 283.605 32.3007C283.859 32.6557 284.163 32.9599 284.569 33.2135C284.974 33.4163 285.38 33.5177 285.836 33.5177C286.344 33.5177 286.8 33.4163 287.256 33.1627C287.713 32.9092 288.017 32.605 288.169 32.1993L289.741 32.6557C289.538 33.0613 289.285 33.467 288.879 33.8219C288.473 34.1769 288.017 34.4304 287.51 34.6333C286.851 34.7347 286.293 34.8361 285.684 34.8361ZM282.997 29.7147H288.321C288.27 29.2076 288.169 28.8019 287.915 28.3963C287.662 28.0413 287.358 27.7371 286.952 27.5342C286.546 27.3314 286.141 27.23 285.684 27.23C285.228 27.23 284.822 27.3314 284.417 27.5342C284.011 27.7371 283.707 28.0413 283.453 28.3963C283.2 28.8019 283.048 29.2076 282.997 29.7147Z" fill="black"/>
<path d="M292.124 34.6333V25.9624H294V33.0107H297.144V25.9624H299.02V33.0107H302.164V25.9624H304.04V34.6333H292.124Z" fill="black"/>
<path d="M310.633 34.8361C309.923 34.8361 309.314 34.7347 308.756 34.4811C308.199 34.2276 307.742 33.9234 307.337 33.5177C306.931 33.112 306.627 32.605 306.424 32.0979C306.221 31.5401 306.12 30.9823 306.12 30.3739C306.12 29.5625 306.322 28.8019 306.677 28.1427C307.083 27.4835 307.59 26.9258 308.3 26.5201C309.01 26.1144 309.771 25.9116 310.734 25.9116C311.647 25.9116 312.458 26.1144 313.117 26.5201C313.776 26.9258 314.283 27.4835 314.689 28.1427C315.044 28.8019 315.247 29.5118 315.247 30.3231C315.247 30.4753 315.247 30.5767 315.247 30.6781C315.247 30.7795 315.247 30.8809 315.196 30.9823H308.148C308.199 31.4894 308.3 31.9458 308.554 32.3007C308.807 32.6557 309.111 32.9599 309.517 33.2135C309.923 33.4163 310.328 33.5177 310.785 33.5177C311.292 33.5177 311.748 33.4163 312.204 33.1627C312.661 32.9092 312.965 32.605 313.117 32.1993L314.689 32.6557C314.486 33.0613 314.233 33.467 313.827 33.8219C313.421 34.1769 312.965 34.4304 312.458 34.6333C311.85 34.7347 311.292 34.8361 310.633 34.8361ZM307.996 29.7147H313.32C313.269 29.2076 313.168 28.8019 312.914 28.3963C312.661 28.0413 312.357 27.7371 311.951 27.5342C311.545 27.3314 311.14 27.23 310.683 27.23C310.227 27.23 309.821 27.3314 309.416 27.5342C309.01 27.7371 308.706 28.0413 308.452 28.3963C308.199 28.8019 308.047 29.2076 307.996 29.7147Z" fill="black"/>
<path d="M317.123 34.6333V25.9624H318.999V29.4105H323.106V25.9624H324.982V34.6333H323.106V30.9824H318.999V34.6333H317.123Z" fill="black"/>
<path d="M327.569 34.6333V26.0131H329.445V32.1994L333.907 25.9624H335.58V34.6333H333.704V28.5485L329.293 34.6333H327.569Z" fill="black"/>
<path d="M337.659 34.6334L340.042 31.236C339.485 31.0839 339.028 30.8304 338.724 30.4247C338.42 30.0191 338.217 29.4613 338.217 28.7514C338.217 28.1936 338.318 27.7372 338.572 27.3316C338.825 26.9259 339.18 26.6217 339.637 26.3681C340.093 26.1146 340.651 26.0132 341.259 26.0132H345.113V34.6841H343.237V31.591H341.766L339.586 34.6841L337.659 34.6334ZM341.462 30.2219H343.288V27.433H341.564C341.107 27.433 340.702 27.5344 340.448 27.7879C340.195 28.0415 340.042 28.3457 340.042 28.7514C340.042 29.157 340.144 29.512 340.397 29.7655C340.651 30.0698 341.006 30.2219 341.462 30.2219Z" fill="black"/>
<path d="M271.284 53.953V50.2514H271.487C271.74 50.2514 271.943 50.2007 272.146 50.0486C272.349 49.8965 272.551 49.6936 272.703 49.3387C272.856 49.0345 273.008 48.5781 273.109 47.9696C273.211 47.3611 273.261 46.6512 273.312 45.7892L273.413 43.2031H279.701V50.2514H280.918V53.953H279.295V51.8741H272.957V53.953H271.284ZM273.92 50.2514H277.774V44.8258H274.985L274.935 46.0427C274.884 46.854 274.833 47.5639 274.783 48.1724C274.681 48.7302 274.58 49.1866 274.428 49.5415C274.275 49.8458 274.123 50.0993 273.92 50.2514Z" fill="black"/>
<path d="M282.135 51.8741V50.2514C282.439 50.2514 282.693 50.2007 282.896 50.0486C283.098 49.8965 283.301 49.6936 283.504 49.3387C283.656 49.0345 283.808 48.5781 283.91 47.9696C284.011 47.3611 284.062 46.6512 284.113 45.7892L284.214 43.2031H290.502V51.7726H288.676V44.8258H285.887L285.837 45.992C285.786 47.1583 285.684 48.071 285.532 48.8316C285.38 49.5922 285.127 50.2007 284.822 50.6064C284.518 51.0627 284.163 51.367 283.707 51.5698C283.251 51.7726 282.743 51.8741 282.135 51.8741Z" fill="black"/>
<path d="M292.581 51.8736L294.964 48.4763C294.406 48.3241 293.95 48.0706 293.646 47.6649C293.341 47.2593 293.139 46.7015 293.139 45.9916C293.139 45.4338 293.24 44.9775 293.494 44.5718C293.747 44.1661 294.102 43.8619 294.558 43.6084C295.015 43.3548 295.573 43.2534 296.181 43.2534H300.035V51.9243H298.159V48.8312H296.79L294.609 51.9243H292.581V51.8736ZM296.384 47.4114H298.209V44.6225H296.485C296.029 44.6225 295.623 44.7239 295.37 44.9775C295.116 45.231 294.964 45.5352 294.964 45.9409C294.964 46.3466 295.065 46.7015 295.319 46.955C295.573 47.31 295.927 47.4114 296.384 47.4114Z" fill="black"/>
<path d="M311.038 51.6707V39.856H319.455V41.4786H312.914V44.7746H316.413C317.731 44.7746 318.746 45.0788 319.405 45.6873C320.064 46.2958 320.419 47.1071 320.419 48.1212C320.419 48.7804 320.267 49.3889 320.013 49.9467C319.709 50.4538 319.303 50.9101 318.746 51.2144C318.188 51.5186 317.478 51.6707 316.616 51.6707H311.038ZM312.914 49.9974H316.261C316.768 49.9974 317.174 49.896 317.529 49.6932C317.833 49.4903 318.086 49.2875 318.238 48.9833C318.391 48.679 318.441 48.3748 318.441 48.0705C318.441 47.7663 318.391 47.462 318.238 47.1578C318.137 46.9043 317.884 46.6507 317.579 46.4986C317.275 46.3465 316.819 46.2451 316.261 46.2451H312.914V49.9974Z" fill="black"/>
<path d="M322.346 51.6709V43.0507H324.222V49.237L328.684 43H330.357V51.6709H328.481V45.5861L324.07 51.6709H322.346Z" fill="black"/>
<path d="M335.936 51.8228C335.023 51.8228 334.262 51.6707 333.654 51.3158C333.045 51.0115 332.589 50.5552 332.234 49.9467L333.755 49.2875C333.958 49.5917 334.211 49.8452 334.566 50.0481C334.921 50.2509 335.327 50.3016 335.834 50.3016C336.443 50.3016 336.899 50.2002 337.203 49.9467C337.507 49.6931 337.71 49.3889 337.71 48.9832C337.71 48.6283 337.558 48.324 337.305 48.1212C337.051 47.9184 336.645 47.7663 336.138 47.7663H335.226V46.6H336.189C336.392 46.6 336.595 46.5493 336.798 46.4479C336.95 46.3465 337.102 46.1943 337.203 46.0422C337.305 45.8901 337.355 45.6873 337.355 45.4337C337.355 45.0788 337.254 44.8252 337 44.6224C336.747 44.4196 336.392 44.3182 335.885 44.3182C335.428 44.3182 335.073 44.4196 334.82 44.5717C334.516 44.7238 334.313 44.9774 334.11 45.2816L332.69 44.5717C332.994 44.0139 333.4 43.6083 333.958 43.304C334.516 42.9998 335.175 42.8477 335.936 42.8477C336.544 42.8477 337.051 42.9491 337.507 43.1012C337.964 43.304 338.319 43.5576 338.623 43.9125C338.877 44.2675 339.029 44.6731 339.029 45.1802C339.029 45.5858 338.927 45.9408 338.724 46.2957C338.522 46.6507 338.217 46.9042 337.812 47.0564C338.369 47.2085 338.775 47.462 339.029 47.8677C339.282 48.2733 339.434 48.679 339.434 49.2368C339.434 49.7438 339.282 50.2002 338.978 50.6059C338.674 51.0115 338.268 51.2651 337.761 51.4679C337.203 51.7214 336.595 51.8228 335.936 51.8228Z" fill="black"/>
<path d="M341.564 51.6709V43H343.44V46.4481H347.547V43H349.424V51.6709H347.497V48.02H343.389V51.6709H341.564Z" fill="black"/>
<path d="M356.015 51.8229C355.305 51.8229 354.697 51.7215 354.139 51.468C353.581 51.2144 353.125 50.9102 352.719 50.5045C352.314 50.0989 352.01 49.5918 351.807 49.0847C351.604 48.5269 351.502 47.9692 351.502 47.3607C351.502 46.5494 351.705 45.7887 352.06 45.1296C352.466 44.4704 352.973 43.9126 353.683 43.5069C354.393 43.1013 355.153 42.8984 356.117 42.8984C357.03 42.8984 357.841 43.1013 358.5 43.5069C359.159 43.9126 359.666 44.4704 360.072 45.1296C360.427 45.7887 360.63 46.4986 360.63 47.31C360.63 47.4621 360.63 47.5635 360.63 47.6649C360.63 47.7663 360.63 47.8677 360.579 47.9692H353.531C353.581 48.4762 353.683 48.9326 353.936 49.2875C354.19 49.6425 354.494 49.9467 354.9 50.2003C355.305 50.4031 355.711 50.5045 356.168 50.5045C356.675 50.5045 357.131 50.4031 357.587 50.1496C358.044 49.896 358.348 49.5918 358.5 49.1861L360.072 49.6425C359.869 50.0482 359.616 50.4538 359.21 50.8088C358.804 51.1637 358.348 51.4172 357.841 51.6201C357.182 51.7215 356.624 51.8229 356.015 51.8229ZM353.379 46.7015H358.703C358.652 46.1944 358.551 45.7887 358.297 45.3831C358.044 45.0281 357.739 44.7239 357.334 44.5211C356.928 44.3182 356.522 44.2168 356.066 44.2168C355.61 44.2168 355.204 44.3182 354.798 44.5211C354.393 44.7239 354.088 45.0281 353.835 45.3831C353.531 45.7887 353.379 46.2451 353.379 46.7015Z" fill="black"/>
<path d="M366.461 51.8229C365.751 51.8229 365.143 51.7215 364.585 51.468C364.027 51.2144 363.571 50.9102 363.165 50.5045C362.759 50.0989 362.455 49.5918 362.252 49.0847C362.049 48.5269 361.948 47.9692 361.948 47.3607C361.948 46.5494 362.151 45.7887 362.506 45.1296C362.861 44.4704 363.419 43.9126 364.078 43.5069C364.737 43.1013 365.548 42.8984 366.512 42.8984C367.424 42.8984 368.185 43.1013 368.844 43.5069C369.503 43.9126 370.01 44.4197 370.315 45.0788L368.489 45.6366C368.286 45.2817 367.982 44.9774 367.627 44.7746C367.272 44.5718 366.867 44.4704 366.41 44.4704C365.903 44.4704 365.447 44.5718 365.092 44.8253C364.686 45.0788 364.382 45.4338 364.128 45.8395C363.875 46.2958 363.773 46.7522 363.773 47.3607C363.773 47.9184 363.875 48.4255 364.128 48.8312C364.382 49.2875 364.686 49.6425 365.092 49.896C365.498 50.1496 365.954 50.3017 366.41 50.3017C366.714 50.3017 367.019 50.251 367.272 50.1496C367.576 50.0482 367.83 49.896 368.033 49.6932C368.236 49.4904 368.388 49.2875 368.489 49.0847L370.315 49.6425C370.112 50.0989 369.858 50.4538 369.453 50.8088C369.098 51.1637 368.641 51.4172 368.134 51.6201C367.678 51.7215 367.069 51.8229 366.461 51.8229Z" fill="black"/>
<path d="M371.684 49.1353C371.684 48.5776 371.836 48.1212 372.14 47.7155C372.445 47.3099 372.901 47.0056 373.459 46.7521C374.017 46.5493 374.676 46.3972 375.436 46.3972C375.842 46.3972 376.248 46.4479 376.653 46.4986C377.059 46.5493 377.414 46.6507 377.718 46.7521V46.1943C377.718 45.5858 377.515 45.1295 377.16 44.7745C376.806 44.4196 376.248 44.2675 375.538 44.2675C375.031 44.2675 374.574 44.3689 374.118 44.521C373.662 44.6731 373.205 44.9266 372.698 45.2309L372.09 44.0139C372.698 43.6083 373.256 43.3547 373.864 43.1519C374.473 42.9491 375.081 42.8477 375.741 42.8477C376.907 42.8477 377.87 43.1519 378.53 43.7604C379.189 44.3689 379.544 45.2309 379.544 46.3464V49.541C379.544 49.7438 379.594 49.896 379.645 49.9974C379.696 50.0988 379.848 50.1495 380 50.1495V51.62C379.848 51.6707 379.696 51.6707 379.544 51.6707C379.392 51.6707 379.29 51.6707 379.189 51.6707C378.783 51.6707 378.479 51.5693 378.276 51.3665C378.073 51.1636 377.972 50.9608 377.921 50.7073L377.87 50.2002C377.465 50.7073 377.008 51.0622 376.4 51.3158C375.791 51.5693 375.183 51.7214 374.574 51.7214C373.966 51.7214 373.459 51.62 373.002 51.3665C372.546 51.1129 372.191 50.8087 371.938 50.403C371.785 50.0988 371.684 49.6424 371.684 49.1353ZM377.262 49.6424C377.414 49.4903 377.515 49.3382 377.566 49.2368C377.668 49.0846 377.668 48.9832 377.668 48.8818V47.8677C377.363 47.7663 377.008 47.6648 376.653 47.6141C376.298 47.5634 375.943 47.5127 375.639 47.5127C374.98 47.5127 374.422 47.6648 374.017 47.9184C373.611 48.1719 373.408 48.5269 373.408 48.9832C373.408 49.2368 373.459 49.4903 373.611 49.6931C373.763 49.9467 373.966 50.0988 374.219 50.2509C374.473 50.403 374.828 50.4537 375.183 50.4537C375.589 50.4537 375.994 50.3523 376.349 50.2002C376.755 50.0988 377.059 49.896 377.262 49.6424Z" fill="black"/>
</svg>
