<svg width="253" height="39" viewBox="0 0 253 39" fill="none" xmlns="http://www.w3.org/2000/svg">
<path d="M0 22.4859V31.7939L23.1404 20.8512V11.5432L0 22.4859Z" fill="#70B62C"/>
<path d="M0 11.0428V20.3507L23.1404 9.40805V0.100098L0 11.0428Z" fill="#70B62C"/>
<path d="M0 31.7938L8.86659 39V29.5919L0 31.7938Z" fill="white"/>
<path d="M38.1868 34.6296V8.54065H55.9871V12.9778H43.3589V19.7169H53.8376V23.8204H43.3254V34.6296H38.1868V34.6296Z" fill="white"/>
<path d="M67.4398 34.9965C65.8613 34.9965 64.4171 34.7296 63.1408 34.2292C61.8646 33.6954 60.7898 32.9948 59.9166 32.0607C59.0434 31.1265 58.3717 30.0923 57.8679 28.8913C57.3977 27.6903 57.1626 26.4559 57.1626 25.1548C57.1626 23.8203 57.3977 22.5525 57.8679 21.3849C58.3381 20.1839 59.0098 19.1496 59.9166 18.2155C60.7898 17.2814 61.8646 16.5808 63.1408 16.047C64.4171 15.5132 65.8277 15.2797 67.4398 15.2797C69.0183 15.2797 70.4625 15.5466 71.7051 16.047C72.9478 16.5808 74.0226 17.2814 74.9294 18.2155C75.8362 19.1496 76.5079 20.1839 76.9781 21.3849C77.4483 22.5859 77.6834 23.8203 77.6834 25.1548C77.6834 26.4559 77.4483 27.7236 76.9781 28.8913C76.5079 30.0923 75.8362 31.1265 74.9629 32.0607C74.0897 32.9948 73.015 33.6954 71.7387 34.2292C70.4625 34.7296 69.0183 34.9965 67.4398 34.9965ZM62.3348 25.1548C62.3348 26.2557 62.5699 27.2232 63.0065 28.0906C63.4431 28.958 64.0476 29.6253 64.8201 30.0923C65.5926 30.5594 66.4658 30.8263 67.4398 30.8263C68.3802 30.8263 69.2534 30.5928 70.0259 30.0923C70.7983 29.5919 71.4029 28.9247 71.8731 28.0906C72.3433 27.2232 72.5784 26.2557 72.5784 25.1548C72.5784 24.0872 72.3433 23.0863 71.8731 22.2189C71.4029 21.3515 70.7983 20.6843 70.0259 20.2172C69.2534 19.7502 68.4138 19.4833 67.4398 19.4833C66.4658 19.4833 65.5926 19.7168 64.8201 20.2172C64.0476 20.7176 63.4431 21.3849 63.0065 22.2523C62.5699 23.053 62.3348 24.0538 62.3348 25.1548Z" fill="white"/>
<path d="M92.7297 19.6501C91.2184 19.6501 89.8414 19.9504 88.6659 20.5175C87.4568 21.0847 86.6171 21.9187 86.0798 22.9863V34.6296H81.0755V15.5466H85.6768V19.4833C86.3821 18.1488 87.2553 17.1146 88.33 16.3473C89.4048 15.58 90.5467 15.1796 91.7222 15.1129C91.9908 15.1129 92.1924 15.1129 92.3603 15.1129C92.4946 15.1129 92.629 15.1129 92.7297 15.1463V19.6501Z" fill="white"/>
<path d="M106.936 34.9965C105.459 34.9965 104.115 34.6629 102.94 33.9957C101.764 33.3285 100.857 32.4277 100.186 31.2934V34.6296H95.8196V7.80664H100.824V18.9829C101.529 17.8152 102.436 16.9144 103.578 16.2806C104.72 15.6133 106.03 15.2797 107.541 15.2797C108.817 15.2797 109.959 15.5466 111 16.047C112.041 16.5808 112.948 17.2814 113.721 18.2155C114.493 19.1497 115.064 20.1839 115.467 21.3849C115.87 22.5859 116.072 23.8537 116.072 25.1882C116.072 26.556 115.837 27.8238 115.366 28.9914C114.896 30.1924 114.258 31.2267 113.452 32.1274C112.646 33.0282 111.672 33.7288 110.564 34.2292C109.455 34.7297 108.246 34.9965 106.936 34.9965ZM105.559 30.793C106.365 30.793 107.071 30.6595 107.742 30.3259C108.414 30.0256 108.985 29.6253 109.455 29.1249C109.926 28.6244 110.329 28.0239 110.564 27.3567C110.832 26.6561 110.967 25.9555 110.967 25.2215C110.967 24.1873 110.765 23.2198 110.329 22.3524C109.892 21.485 109.287 20.7844 108.549 20.2506C107.776 19.7168 106.903 19.4499 105.895 19.4499C105.19 19.4499 104.485 19.6167 103.813 19.9504C103.141 20.284 102.57 20.7177 102.066 21.2515C101.563 21.8186 101.16 22.4191 100.857 23.1197V27.6236C100.992 28.0906 101.26 28.5243 101.596 28.9247C101.932 29.325 102.335 29.6253 102.772 29.9255C103.208 30.1924 103.679 30.426 104.182 30.5594C104.585 30.7262 105.056 30.793 105.559 30.793Z" fill="white"/>
<path d="M119.464 34.6296V15.3464H124.468V34.6296H119.464Z" fill="white"/>
<path d="M138.104 34.9965C136.525 34.9965 135.081 34.7296 133.805 34.2292C132.529 33.6954 131.454 32.9948 130.581 32.0607C129.707 31.1265 129.036 30.0923 128.532 28.8913C128.062 27.6903 127.827 26.4559 127.827 25.1548C127.827 23.8203 128.062 22.5525 128.532 21.3849C129.002 20.1839 129.674 19.1496 130.581 18.2155C131.454 17.2814 132.529 16.5808 133.805 16.047C135.081 15.5132 136.492 15.2797 138.104 15.2797C139.682 15.2797 141.127 15.5466 142.369 16.047C143.612 16.5808 144.687 17.2814 145.593 18.2155C146.5 19.1496 147.172 20.1839 147.642 21.3849C148.112 22.5859 148.347 23.8203 148.347 25.1548C148.347 26.4559 148.112 27.7236 147.642 28.8913C147.172 30.0923 146.5 31.1265 145.627 32.0607C144.754 32.9948 143.679 33.6954 142.403 34.2292C141.127 34.7296 139.682 34.9965 138.104 34.9965ZM132.999 25.1548C132.999 26.2557 133.234 27.2232 133.671 28.0906C134.107 28.958 134.712 29.6253 135.484 30.0923C136.257 30.5594 137.13 30.8263 138.104 30.8263C139.044 30.8263 139.917 30.5928 140.69 30.0923C141.462 29.5919 142.067 28.9247 142.537 28.0906C143.007 27.2232 143.242 26.2557 143.242 25.1548C143.242 24.0872 143.007 23.0863 142.537 22.2189C142.067 21.3515 141.462 20.6843 140.69 20.2172C139.917 19.7502 139.078 19.4833 138.104 19.4833C137.13 19.4833 136.257 19.7168 135.484 20.2172C134.712 20.7176 134.107 21.3849 133.671 22.2523C133.2 23.053 132.999 24.0538 132.999 25.1548Z" fill="white"/>
<path d="M169.741 34.6296H164.737V23.9871C164.737 22.4525 164.468 21.3516 163.931 20.651C163.394 19.9504 162.621 19.6167 161.647 19.6167C160.976 19.6167 160.304 19.7835 159.599 20.1172C158.927 20.4508 158.289 20.9179 157.751 21.485C157.214 22.0855 156.811 22.7528 156.542 23.5201V34.6296H151.538V15.5466H156.038V19.1163C156.542 18.2823 157.18 17.5817 157.953 17.0145C158.725 16.4474 159.599 16.0137 160.606 15.7134C161.614 15.4131 162.688 15.2463 163.797 15.2463C165.006 15.2463 166.013 15.4465 166.786 15.8802C167.558 16.3139 168.163 16.8811 168.566 17.5817C168.969 18.2823 169.271 19.1163 169.439 19.9837C169.607 20.8845 169.674 21.7853 169.674 22.7194V34.6296H169.741V34.6296Z" fill="white"/>
<path d="M124.468 7.94006H119.464V12.8776H124.468V7.94006Z" fill="#70B62C"/>
<path d="M179.481 22.8862V15.1129H182.806C183.176 15.1129 183.478 15.1796 183.78 15.3464C184.082 15.4799 184.351 15.6801 184.553 15.9136C184.788 16.1471 184.956 16.414 185.056 16.7143C185.191 17.0145 185.224 17.3148 185.224 17.6484C185.224 18.0821 185.124 18.4825 184.922 18.8828C184.721 19.2831 184.452 19.5834 184.082 19.8169C183.713 20.0505 183.31 20.1839 182.84 20.1839H180.69V22.8862H179.481ZM180.724 19.1163H182.773C183.008 19.1163 183.209 19.0496 183.411 18.9162C183.579 18.7827 183.713 18.6159 183.814 18.3824C183.914 18.1488 183.948 17.9153 183.948 17.6484C183.948 17.3482 183.881 17.1146 183.78 16.8811C183.646 16.6476 183.511 16.4808 183.31 16.3807C183.108 16.2472 182.907 16.2139 182.705 16.2139H180.69L180.724 19.1163Z" fill="white"/>
<path d="M189.221 23.0196C188.751 23.0196 188.348 22.9529 187.978 22.7861C187.609 22.6193 187.307 22.4191 187.038 22.1522C186.769 21.8853 186.568 21.5517 186.433 21.2181C186.299 20.8511 186.232 20.4841 186.232 20.0838C186.232 19.55 186.366 19.0496 186.601 18.6159C186.87 18.1822 187.206 17.8152 187.676 17.5483C188.146 17.2814 188.65 17.1479 189.288 17.1479C189.893 17.1479 190.43 17.2814 190.867 17.5483C191.303 17.8152 191.639 18.1822 191.908 18.6159C192.143 19.0496 192.277 19.5166 192.277 20.0504C192.277 20.1505 192.277 20.2172 192.277 20.284C192.277 20.3507 192.277 20.4174 192.244 20.4841H187.575C187.609 20.8178 187.676 21.118 187.844 21.3515C188.012 21.5851 188.213 21.7852 188.482 21.9521C188.751 22.0855 189.019 22.1522 189.322 22.1522C189.658 22.1522 189.96 22.0855 190.262 21.9187C190.564 21.7519 190.766 21.5517 190.867 21.2848L191.908 21.5851C191.773 21.852 191.606 22.1189 191.337 22.3524C191.068 22.5859 190.766 22.7527 190.43 22.8862C189.993 22.9529 189.624 23.0196 189.221 23.0196ZM187.441 19.6501H190.967C190.934 19.3165 190.867 19.0496 190.699 18.7827C190.531 18.5491 190.329 18.349 190.061 18.2155C189.792 18.0821 189.523 18.0154 189.221 18.0154C188.919 18.0154 188.65 18.0821 188.381 18.2155C188.113 18.349 187.911 18.5491 187.743 18.7827C187.575 19.0496 187.475 19.3165 187.441 19.6501Z" fill="white"/>
<path d="M193.486 22.8863V17.1814H194.729V21.8187H196.811V17.1814H198.054V21.8187H200.136V17.1814H201.379V22.8863H193.486Z" fill="white"/>
<path d="M205.745 23.0196C205.275 23.0196 204.872 22.9529 204.502 22.7861C204.133 22.6193 203.831 22.4191 203.562 22.1522C203.293 21.8853 203.092 21.5517 202.957 21.2181C202.823 20.8511 202.756 20.4841 202.756 20.0838C202.756 19.55 202.89 19.0496 203.125 18.6159C203.394 18.1822 203.73 17.8152 204.2 17.5483C204.67 17.2814 205.174 17.1479 205.812 17.1479C206.417 17.1479 206.954 17.2814 207.391 17.5483C207.827 17.8152 208.163 18.1822 208.432 18.6159C208.667 19.0496 208.801 19.5166 208.801 20.0504C208.801 20.1505 208.801 20.2172 208.801 20.284C208.801 20.3507 208.801 20.4174 208.768 20.4841H204.099C204.133 20.8178 204.2 21.118 204.368 21.3515C204.536 21.5851 204.738 21.7852 205.006 21.9521C205.275 22.0855 205.544 22.1522 205.846 22.1522C206.182 22.1522 206.484 22.0855 206.786 21.9187C207.089 21.7519 207.29 21.5517 207.391 21.2848L208.432 21.5851C208.298 21.852 208.13 22.1189 207.861 22.3524C207.592 22.5859 207.29 22.7527 206.954 22.8862C206.551 22.9529 206.182 23.0196 205.745 23.0196ZM203.999 19.6501H207.525C207.492 19.3165 207.424 19.0496 207.256 18.7827C207.089 18.5491 206.887 18.349 206.618 18.2155C206.35 18.0821 206.081 18.0154 205.779 18.0154C205.476 18.0154 205.208 18.0821 204.939 18.2155C204.67 18.349 204.469 18.5491 204.301 18.7827C204.133 19.0496 204.032 19.3165 203.999 19.6501Z" fill="white"/>
<path d="M210.044 22.8863V17.1814H211.287V19.45H214.007V17.1814H215.25V22.8863H214.007V20.4842H211.287V22.8863H210.044Z" fill="white"/>
<path d="M216.963 22.8863V17.2148H218.205V21.2849L221.161 17.1814H222.269V22.8863H221.027V18.8829L218.105 22.8863H216.963Z" fill="white"/>
<path d="M223.646 22.8862L225.225 20.651C224.855 20.5509 224.553 20.3841 224.352 20.1172C224.15 19.8503 224.016 19.4833 224.016 19.0163C224.016 18.6493 224.083 18.349 224.251 18.0821C224.419 17.8152 224.654 17.6151 224.956 17.4483C225.258 17.2814 225.628 17.2147 226.031 17.2147H228.583V22.9196H227.341V20.8845H226.367L224.922 22.9196L223.646 22.8862ZM226.165 19.9838H227.374V18.1489H226.232C225.93 18.1489 225.661 18.2156 225.493 18.3824C225.326 18.5492 225.225 18.7494 225.225 19.0163C225.225 19.2832 225.292 19.5167 225.46 19.6835C225.628 19.8837 225.863 19.9838 226.165 19.9838Z" fill="white"/>
<path d="M179.683 35.5971V33.1617H179.817C179.985 33.1617 180.119 33.1283 180.254 33.0283C180.388 32.9282 180.522 32.7947 180.623 32.5612C180.724 32.361 180.825 32.0608 180.892 31.6604C180.959 31.2601 180.993 30.793 181.026 30.2259L181.093 28.5244H185.258V33.1617H186.064V35.5971H184.989V34.2293H180.791V35.5971H179.683ZM181.429 33.1617H183.982V29.592H182.134L182.101 30.3927C182.067 30.9265 182.034 31.3935 182 31.7939C181.933 32.1609 181.866 32.4611 181.765 32.6946C181.664 32.8948 181.564 33.0616 181.429 33.1617Z" fill="white"/>
<path d="M186.87 34.2293V33.1617C187.072 33.1617 187.239 33.1283 187.374 33.0283C187.508 32.9282 187.643 32.7947 187.777 32.5612C187.878 32.361 187.978 32.0608 188.046 31.6604C188.113 31.2601 188.146 30.793 188.18 30.2259L188.247 28.5244H192.412V34.1626H191.203V29.592H189.355L189.322 30.3593C189.288 31.1266 189.221 31.7272 189.12 32.2276C189.02 32.728 188.852 33.1283 188.65 33.3952C188.449 33.6955 188.213 33.8957 187.911 34.0291C187.609 34.1626 187.273 34.2293 186.87 34.2293Z" fill="white"/>
<path d="M193.789 34.2293L195.367 31.994C194.998 31.8939 194.695 31.7271 194.494 31.4602C194.292 31.1933 194.158 30.8263 194.158 30.3593C194.158 29.9923 194.225 29.692 194.393 29.4251C194.561 29.1583 194.796 28.9581 195.098 28.7913C195.401 28.6245 195.77 28.5577 196.173 28.5577H198.726V34.2626H197.483V32.2275H196.576L195.132 34.2626H193.789V34.2293ZM196.308 31.2934H197.517V29.4585H196.375C196.072 29.4585 195.804 29.5252 195.636 29.692C195.468 29.8589 195.367 30.059 195.367 30.3259C195.367 30.5928 195.434 30.8263 195.602 30.9932C195.77 31.2267 196.005 31.2934 196.308 31.2934Z" fill="white"/>
<path d="M206.014 34.0958V26.3225H211.589V27.3901H207.256V29.5586H209.574C210.447 29.5586 211.119 29.7588 211.555 30.1591C211.992 30.5595 212.227 31.0933 212.227 31.7605C212.227 32.1942 212.126 32.5945 211.958 32.9615C211.757 33.2951 211.488 33.5954 211.119 33.7956C210.749 33.9957 210.279 34.0958 209.708 34.0958H206.014ZM207.256 32.9949H209.473C209.809 32.9949 210.078 32.9282 210.313 32.7947C210.514 32.6613 210.682 32.5278 210.783 32.3276C210.884 32.1275 210.917 31.9273 210.917 31.7271C210.917 31.527 210.884 31.3268 210.783 31.1266C210.716 30.9598 210.548 30.793 210.346 30.6929C210.145 30.5928 209.843 30.5261 209.473 30.5261H207.256V32.9949Z" fill="white"/>
<path d="M213.503 34.0957V28.4242H214.746V32.4944L217.702 28.3909H218.81V34.0957H217.567V30.0923L214.645 34.0957H213.503V34.0957Z" fill="white"/>
<path d="M222.504 34.1959C221.9 34.1959 221.396 34.0959 220.993 33.8623C220.59 33.6621 220.288 33.3619 220.053 32.9616L221.06 32.5278C221.194 32.728 221.362 32.8948 221.597 33.0283C221.833 33.1617 222.101 33.1951 222.437 33.1951C222.84 33.1951 223.142 33.1284 223.344 32.9616C223.545 32.7947 223.68 32.5946 223.68 32.3277C223.68 32.0941 223.579 31.894 223.411 31.7605C223.243 31.6271 222.974 31.527 222.639 31.527H222.034V30.7597H222.672C222.807 30.7597 222.941 30.7263 223.075 30.6596C223.176 30.5929 223.277 30.4928 223.344 30.3927C223.411 30.2926 223.445 30.1592 223.445 29.9923C223.445 29.7588 223.378 29.592 223.21 29.4586C223.042 29.3251 222.807 29.2584 222.471 29.2584C222.168 29.2584 221.933 29.3251 221.765 29.4252C221.564 29.5253 221.43 29.6921 221.295 29.8923L220.355 29.4252C220.556 29.0582 220.825 28.7913 221.194 28.5911C221.564 28.391 222.001 28.2909 222.504 28.2909C222.907 28.2909 223.243 28.3576 223.545 28.4577C223.848 28.5912 224.083 28.758 224.284 28.9915C224.452 29.225 224.553 29.4919 224.553 29.8255C224.553 30.0924 224.486 30.326 224.351 30.5595C224.217 30.793 224.016 30.9598 223.747 31.0599C224.116 31.16 224.385 31.3268 224.553 31.5937C224.721 31.8606 224.822 32.1275 224.822 32.4945C224.822 32.8281 224.721 33.1284 224.519 33.3953C224.318 33.6621 224.049 33.829 223.713 33.9624C223.344 34.1292 222.941 34.1959 222.504 34.1959Z" fill="white"/>
<path d="M226.232 34.0957V28.3909H227.475V30.6595H230.195V28.3909H231.438V34.0957H230.162V31.6937H227.441V34.0957H226.232Z" fill="white"/>
<path d="M235.804 34.1959C235.334 34.1959 234.931 34.1292 234.562 33.9624C234.192 33.7956 233.89 33.5954 233.621 33.3285C233.352 33.0616 233.151 32.728 233.017 32.3944C232.882 32.0274 232.815 31.6604 232.815 31.2601C232.815 30.7263 232.949 30.2258 233.184 29.7921C233.453 29.3584 233.789 28.9915 234.259 28.7246C234.729 28.4577 235.233 28.3242 235.871 28.3242C236.476 28.3242 237.013 28.4577 237.45 28.7246C237.886 28.9915 238.222 29.3584 238.491 29.7921C238.726 30.2258 238.86 30.6929 238.86 31.2267C238.86 31.3268 238.86 31.3935 238.86 31.4602C238.86 31.527 238.86 31.5937 238.827 31.6604H234.158C234.192 31.994 234.259 32.2943 234.427 32.5278C234.595 32.7613 234.797 32.9615 235.065 33.1283C235.334 33.2618 235.603 33.3285 235.905 33.3285C236.241 33.3285 236.543 33.2618 236.845 33.095C237.148 32.9282 237.349 32.728 237.45 32.4611L238.491 32.7613C238.357 33.0282 238.189 33.2951 237.92 33.5287C237.651 33.7622 237.349 33.929 237.013 34.0625C236.577 34.1292 236.207 34.1959 235.804 34.1959ZM234.058 30.8264H237.584C237.551 30.4927 237.483 30.2258 237.316 29.9589C237.148 29.7254 236.946 29.5252 236.677 29.3918C236.409 29.2583 236.14 29.1916 235.838 29.1916C235.535 29.1916 235.267 29.2583 234.998 29.3918C234.729 29.5252 234.528 29.7254 234.36 29.9589C234.158 30.2258 234.058 30.5261 234.058 30.8264Z" fill="white"/>
<path d="M242.723 34.1959C242.253 34.1959 241.85 34.1292 241.48 33.9624C241.111 33.7956 240.808 33.5954 240.54 33.3285C240.271 33.0616 240.07 32.728 239.935 32.3944C239.801 32.0274 239.734 31.6604 239.734 31.2601C239.734 30.7263 239.868 30.2258 240.103 29.7921C240.338 29.3584 240.708 28.9915 241.144 28.7246C241.581 28.4577 242.118 28.3242 242.756 28.3242C243.361 28.3242 243.865 28.4577 244.301 28.7246C244.738 28.9915 245.074 29.3251 245.275 29.7588L244.066 30.1258C243.932 29.8922 243.73 29.6921 243.495 29.5586C243.26 29.4252 242.991 29.3584 242.689 29.3584C242.353 29.3584 242.051 29.4252 241.816 29.592C241.547 29.7588 241.346 29.9923 241.178 30.2592C241.01 30.5595 240.943 30.8597 240.943 31.2601C240.943 31.627 241.01 31.9607 241.178 32.2276C241.346 32.5278 241.547 32.7613 241.816 32.9282C242.085 33.095 242.387 33.195 242.689 33.195C242.891 33.195 243.092 33.1617 243.26 33.095C243.462 33.0282 243.63 32.9282 243.764 32.7947C243.898 32.6613 243.999 32.5278 244.066 32.3944L245.275 32.7613C245.141 33.0616 244.973 33.2951 244.704 33.5287C244.469 33.7622 244.167 33.929 243.831 34.0625C243.529 34.1292 243.126 34.1959 242.723 34.1959Z" fill="white"/>
<path d="M246.182 32.4278C246.182 32.0608 246.283 31.7605 246.484 31.4936C246.686 31.2267 246.988 31.0266 247.358 30.8598C247.727 30.7263 248.164 30.6262 248.667 30.6262C248.936 30.6262 249.205 30.6596 249.474 30.6929C249.742 30.7263 249.977 30.793 250.179 30.8598V30.4928C250.179 30.0924 250.044 29.7922 249.809 29.5586C249.574 29.3251 249.205 29.225 248.735 29.225C248.399 29.225 248.097 29.2917 247.794 29.3918C247.492 29.4919 247.19 29.6587 246.854 29.8589L246.451 29.0582C246.854 28.7913 247.223 28.6245 247.626 28.4911C248.029 28.3576 248.432 28.2909 248.869 28.2909C249.641 28.2909 250.28 28.4911 250.716 28.8914C251.153 29.2917 251.388 29.8589 251.388 30.5929V32.6947C251.388 32.8281 251.421 32.9282 251.455 32.9949C251.489 33.0616 251.589 33.095 251.69 33.095V34.0625C251.589 34.0959 251.489 34.0959 251.388 34.0959C251.287 34.0959 251.22 34.0959 251.153 34.0959C250.884 34.0959 250.683 34.0291 250.548 33.8957C250.414 33.7622 250.347 33.6288 250.313 33.462L250.28 33.1284C250.011 33.462 249.709 33.6955 249.306 33.8623C248.903 34.0291 248.5 34.1292 248.097 34.1292C247.693 34.1292 247.358 34.0625 247.055 33.8957C246.753 33.7289 246.518 33.5287 246.35 33.2618C246.249 33.0616 246.182 32.7614 246.182 32.4278ZM249.877 32.7614C249.977 32.6613 250.044 32.5612 250.078 32.4945C250.145 32.3944 250.145 32.3277 250.145 32.261V31.5937C249.944 31.527 249.709 31.4603 249.474 31.4269C249.238 31.3935 249.003 31.3602 248.802 31.3602C248.365 31.3602 247.996 31.4603 247.727 31.6271C247.458 31.7939 247.324 32.0274 247.324 32.3277C247.324 32.4945 247.358 32.6613 247.458 32.7947C247.559 32.9616 247.693 33.0616 247.861 33.1617C248.029 33.2618 248.264 33.2952 248.5 33.2952C248.768 33.2952 249.037 33.2284 249.272 33.1284C249.541 33.0616 249.742 32.9282 249.877 32.7614Z" fill="white"/>
</svg>
