<svg width="50" height="50" viewBox="0 0 50 50" fill="none" xmlns="http://www.w3.org/2000/svg">
<path d="M0 25C0 11.1929 11.1929 0 25 0C38.8071 0 50 11.1929 50 25C50 38.8071 38.8071 50 25 50C11.1929 50 0 38.8071 0 25Z" fill="#F6914C"/>
<path fill-rule="evenodd" clip-rule="evenodd" d="M20.7338 18.0811V24.325H29.2662V18.0811L29.2661 18.0765C29.2658 18.0694 29.2652 18.0558 29.2638 18.0367C29.261 17.9982 29.2551 17.9387 29.2426 17.8654C29.2172 17.7158 29.1676 17.5264 29.0751 17.345C28.9841 17.1665 28.8575 17.0065 28.6784 16.8894C28.5029 16.7747 28.2375 16.675 27.8236 16.675H22.1764C21.7625 16.675 21.4971 16.7747 21.3216 16.8894C21.1425 17.0065 21.0159 17.1665 20.9249 17.345C20.8324 17.5264 20.7828 17.7158 20.7574 17.8654C20.7449 17.9387 20.739 17.9982 20.7362 18.0367C20.7348 18.0558 20.7342 18.0694 20.7339 18.0765L20.7338 18.0811ZM29.9412 18.0769C30.6162 18.0769 30.6162 18.0765 30.6162 18.0762L30.6162 18.0738L30.6162 18.0699L30.616 18.0598L30.6153 18.0306C30.6145 18.0073 30.613 17.9763 30.6103 17.9386C30.6048 17.8635 30.5942 17.7608 30.5736 17.6393C30.5328 17.3994 30.4501 17.0696 30.2779 16.7318C30.1042 16.3911 29.8337 16.0318 29.4172 15.7595C28.9971 15.4848 28.4684 15.325 27.8236 15.325H22.1764C21.5316 15.325 21.0029 15.4848 20.5828 15.7595C20.1663 16.0318 19.8958 16.3911 19.7222 16.7318C19.55 17.0696 19.4672 17.3994 19.4264 17.6393C19.4058 17.7608 19.3952 17.8635 19.3897 17.9386C19.387 17.9763 19.3855 18.0073 19.3847 18.0306L19.384 18.0598L19.3839 18.0699L19.3838 18.0738L19.3838 18.0754C19.3838 18.0758 19.3838 18.0769 20.0588 18.0769L19.3838 18.0754L19.3838 24.4694C19.1006 24.5998 18.8727 24.8085 18.7064 25.0532C18.4373 25.449 18.325 25.9358 18.325 26.3846C18.3249 26.8333 18.4373 27.3201 18.7064 27.7159C18.9892 28.132 19.45 28.4442 20.0588 28.4442H24.325V31.248H20.7657C20.3929 31.248 20.0898 31.5502 20.0898 31.923V33.9999C20.0898 34.3727 20.392 34.6749 20.7648 34.6749C21.1375 34.6749 21.4398 34.3727 21.4398 33.9999V32.598H28.5603V33.999C28.5603 34.3718 28.8625 34.6749 29.2353 34.6749C29.6081 34.6749 29.9103 34.3727 29.9103 33.9999V31.923C29.9103 31.5502 29.6081 31.248 29.2353 31.248H25.675V28.4442H29.9411C30.5499 28.4442 31.0107 28.132 31.2935 27.716C31.5626 27.3201 31.675 26.8333 31.675 26.3846C31.675 25.9359 31.5627 25.4491 31.2936 25.0532C31.1273 24.8085 30.8995 24.5998 30.6162 24.4694V18.0762L29.9412 18.0769ZM19.8229 26.957C19.893 27.0602 19.9617 27.0942 20.0588 27.0942H29.9411C30.0382 27.0942 30.1069 27.0602 30.177 26.957C30.2609 26.8336 30.325 26.6281 30.325 26.3845C30.325 26.141 30.2609 25.9355 30.1771 25.8121C30.1069 25.7089 30.0383 25.6749 29.9412 25.6749H20.0588C19.9617 25.6749 19.8931 25.7089 19.8229 25.8121C19.7391 25.9355 19.675 26.141 19.675 26.3846C19.6749 26.6282 19.739 26.8337 19.8229 26.957Z" fill="#030E06"/>
</svg>
