<svg width="50" height="50" viewBox="0 0 50 50" fill="none" xmlns="http://www.w3.org/2000/svg">
<path d="M0 25C0 11.1929 11.1929 0 25 0C38.8071 0 50 11.1929 50 25C50 38.8071 38.8071 50 25 50C11.1929 50 0 38.8071 0 25Z" fill="#F6914C"/>
<path fill-rule="evenodd" clip-rule="evenodd" d="M25.0005 16.0883C25.1823 15.9671 25.4201 15.971 25.5979 16.098L33.7797 21.9421C33.918 22.0409 34 22.2003 34 22.3701V33.474C34 33.7645 33.7645 34 33.474 34H16.526C16.2355 34 16 33.7645 16 33.474V22.3701C16 22.1943 16.0879 22.03 16.2342 21.9325L25.0005 16.0883ZM17.0519 22.6516V32.9481H20.0909V24.6494H19.4481C19.1576 24.6494 18.9221 24.4139 18.9221 24.1234C18.9221 23.8329 19.1576 23.5974 19.4481 23.5974H30.5519C30.8424 23.5974 31.0779 23.8329 31.0779 24.1234C31.0779 24.4139 30.8424 24.6494 30.5519 24.6494H29.9091V32.9481H32.9481V22.6408L25.2819 17.165L17.0519 22.6516ZM28.8571 32.9481V30.4935H21.1429V32.9481H28.8571ZM21.1429 29.4416H28.8571V27.5714H21.1429V29.4416ZM21.1429 26.5195H28.8571V24.6494H21.1429V26.5195Z" fill="#030E06"/>
</svg>
