<svg fill="#5bb2c1" xmlns="http://www.w3.org/2000/svg" width="108.383mm" height="108.383mm" viewBox="0 0 2075.36 2075.36">
  <g>
    <path d="M-0 149.98c0,295.6 52.04,552.73 176.99,820.16 47.64,101.97 103.19,201.46 169.27,292.82 23.46,32.43 75.54,104.07 100.63,130.41l111.35 123.75 121.71 109.33c32.92,30.6 122.18,95.71 163.13,124.66 268.77,190.07 688.4,324.25 1013.38,324.25l52.93 0c41.84,-1.3 78.26,-9.17 117.53,-48.43 10.06,-10.06 23.49,-27.99 30.98,-41.98 6.57,-12.25 17.45,-42.88 17.45,-59.57l0 -413.45c0,-45.48 -36.97,-96.82 -75.25,-123.37 -42.1,-29.21 -104.28,-29.75 -172.17,-30.5 -129.38,-1.42 -300.25,-65.01 -340.33,-65.01 -67.72,0 -102.26,35.18 -144.19,66.59l-204.41 152.3c-14.23,-7.53 -29.27,-16.36 -43.81,-25.1 -16.16,-9.71 -30.23,-16.75 -46.16,-26.81 -46.81,-29.55 -63.83,-38.78 -106.31,-72.04 -8.11,-6.35 -12.78,-9.24 -20.9,-15.58l-132.39 -118.92c-46.66,-50.91 -74.2,-78.79 -116.57,-138.8l-109.45 -178.34c25.57,-48.33 140.47,-185.02 182.47,-243.14 71.7,-99.25 18.97,-164.94 -1.1,-266.55 -11.25,-56.94 -22.26,-114.87 -27.12,-175.55 -7.01,-87.48 12.43,-162.41 -78.92,-225.08 -14.29,-9.8 -53.63,-26.02 -75.31,-26.02l-413.45 0c-16.04,0 -46.23,10.59 -56.92,16.04 -47.99,24.48 -93.06,82.38 -93.06,133.94z"/>
  </g>
</svg>
