<svg fill="#5bb2c1" xmlns="http://www.w3.org/2000/svg" width="101.587mm" height="135.45mm" viewBox="0 0 2424.99 3233.32">
  <g>
    <path d="M-0 1174.6c0,303.32 49.73,473.38 156.13,721.67 144.62,337.49 391.85,676.94 634.78,950.31 113.3,127.5 168.82,181.32 290.56,303.06 49.32,49.32 83.91,77.44 116.93,83.68l28.05 0c32.03,-6.03 66.07,-32.65 113.94,-80.52l195.8 -195.74c20.66,-20.42 28.37,-34.33 47.21,-53.83 154.35,-159.84 362.81,-434.51 476.57,-615.93 26.08,-41.6 47.89,-80.42 73.4,-122.37 141.7,-233.09 291.64,-621.63 291.64,-901.91 0,-215.81 -25.59,-379.54 -111.48,-557.92 -52.59,-109.22 -97.19,-175.34 -169.02,-266.72 -97.86,-124.49 -227.76,-220.63 -365.64,-297.44 -161.99,-90.24 -337.51,-135.4 -515.97,-140.94l-75.57 0c-128.76,3.97 -258.26,28.03 -384.56,70.2 -53.25,17.78 -101.47,41.43 -148.07,66.64 -298.49,161.52 -460.56,362.38 -583.44,666.94 -39,96.66 -71.24,259.97 -71.24,370.82zm1212.49 -639.89c372.07,0 673.69,301.62 673.69,673.69 0,372.07 -301.62,673.69 -673.69,673.69 -372.07,0 -673.69,-301.62 -673.69,-673.69 0,-372.07 301.62,-673.69 673.69,-673.69z"/>
  </g>
</svg>