<svg fill="#5bb2c1" xmlns="http://www.w3.org/2000/svg" width="278.565mm" height="269.105mm" viewBox="0 0 28739.28 27763.33">
  <g>
    <path d="M4349.45 13159.15l254.62 0 0 -1879.12 -86.22 0c-177.7,0 -323.07,-145.38 -323.07,-323.07l0 -0.01c0,-177.7 145.38,-323.07 323.07,-323.07l687.95 0c-0.8,-30.57 -1.21,-57.67 -1.21,-81.19 0,-735.51 182.09,-1407.35 476.47,-1898.93 322.66,-538.8 783.86,-872.08 1307.08,-872.08 523.22,0 984.42,333.27 1307.07,872.08 294.37,491.58 476.47,1163.42 476.47,1898.93 0,23.52 -0.4,50.63 -1.21,81.19l596.97 0c177.7,0 323.07,145.38 323.07,323.07l0 0.01c0,177.7 -145.38,323.07 -323.07,323.07l-68.03 0 0 1879.12 1514.67 0 0 -3365.5 -15.02 -178c-10.36,-122.83 -18.82,-260.12 -25.24,-412.33 -6.36,-150.74 -9.62,-288.22 -9.62,-411.53 0,-1605.86 389.42,-3065.91 1019,-4128.28 397.6,-670.92 892.72,-1186.97 1450.86,-1490.13 -12.91,-165.96 13.86,-366.26 13.86,-496.56l0 -644.61c0,-209.49 85.49,-399.73 223.19,-537.43 137.7,-137.7 327.93,-223.19 537.43,-223.19l69.5 0 0 -885.88c0,-212.15 173.56,-385.72 385.72,-385.72l0.02 0c212.15,0 385.72,173.57 385.72,385.72l0 885.88 72.22 0c209.49,0 399.73,85.49 537.43,223.19 137.7,137.7 223.19,327.93 223.19,537.43l0 644.61 3.37 566.26c508.7,309.57 961.1,798.47 1329.68,1420.43 629.58,1062.38 1019,2522.42 1019,4128.28 0,123.31 -3.26,260.79 -9.62,411.53 -1.27,30.09 -2.62,59.61 -4.04,88.55l0 3867.27 1378.25 0 0 -1879.18c-175.51,-2.59 -318.29,-146.91 -318.29,-323.01l0 -0.01c0,-177.7 145.38,-323.07 323.07,-323.07l596.95 0c-0.8,-30.57 -1.21,-57.67 -1.21,-81.19 0,-735.51 182.09,-1407.35 476.47,-1898.93 322.66,-538.8 783.86,-872.08 1307.08,-872.08 523.22,0 984.42,333.27 1307.07,872.08 294.37,491.58 476.47,1163.42 476.47,1898.93 0,23.52 -0.4,50.63 -1.21,81.19l505.96 0c177.7,0 323.07,145.38 323.07,323.07l0 0.01c0,169.97 -133.02,310.35 -300.1,322.24l0 1879.96 582.32 0 0 2256.82 -596 0 0 1036.89 4622.26 0 0 1802.74 0 543.91 0 1093.91 0 708.83 0 4876.75 36.4 0 0 2284.08c-9579.76,0.32 -19159.52,0.32 -28739.28,0l0 -1665.07 0 -619.01 0 -4876.75 0 -708.83 0 -1093.91 0 -543.91 0 -1802.74 309.51 0 4312.75 0 0 -1036.89 -582.32 0 0 -2256.82 309.51 0zm10572.25 -11268.53l-913.18 0c-38.62,0 -73.96,16.03 -99.76,41.84 -25.8,25.8 -41.84,61.15 -41.84,99.76l0 644.61c0,38.62 16.03,73.96 41.84,99.76 25.8,25.8 61.15,41.84 99.76,41.84l913.18 0c38.62,0 73.96,-16.03 99.76,-41.84 25.8,-25.8 41.84,-61.15 41.84,-99.76l0 -644.61c0,-38.62 -16.03,-73.96 -41.84,-99.76 -25.8,-25.8 -61.15,-41.84 -99.76,-41.84zm-3530.76 7364.91l1239.92 0 -1.19 -59.48c-3.23,-174.67 -4.9,-310.37 -4.9,-404.25 0,-1575.09 168.3,-3006.89 440.38,-4048.48 94.62,-362.2 205.45,-681.2 330.31,-948.63 -407.61,257.22 -777.13,665.47 -1085.38,1185.6 -574.58,969.56 -929.99,2316.69 -929.99,3811.51 0,145.34 2.46,274.25 7.21,387.35 1.04,24.89 2.26,50.36 3.64,76.38zm4012.19 -5460.83c124.87,267.42 235.69,586.43 330.31,948.63 272.08,1041.59 440.38,2473.38 440.38,4048.48 0,93.87 -1.67,229.58 -4.9,404.25l-1.19 59.48 1239.91 0c1.38,-26.02 2.6,-51.48 3.64,-76.38 4.76,-113.09 7.21,-242 7.21,-387.35 0,-1494.81 -355.4,-2841.92 -929.99,-3811.51 -308.24,-520.13 -677.77,-928.37 -1085.37,-1185.6zm1998.57 6105.08l-1255.03 0 -3494.76 0 -1218.83 0 0 3259.38 5968.62 0 0 -3259.38zm-4157.09 -644.25l2309.37 0 1.45 -69.15c1.64,-89.15 2.5,-219.83 2.5,-394.57 0,-1525.59 -160.02,-2900.95 -418.71,-3891.31 -228.12,-873.29 -492.81,-1413.46 -739.92,-1413.46 -247.12,0 -511.8,540.16 -739.93,1413.46 -258.69,990.35 -418.71,2365.73 -418.71,3891.31 0,174.74 0.86,305.42 2.5,394.57l1.45 69.15zm2883.39 1419.62l-0.01 0c-235.22,0 -427.65,192.43 -427.65,427.65l0 855.3c0,235.22 192.43,427.65 427.65,427.65l0.01 0c235.22,0 427.65,-192.43 427.65,-427.65l0 -855.3c0,-235.22 -192.43,-427.65 -427.65,-427.65zm-1765.19 0l-0.01 0c-235.22,0 -427.65,192.43 -427.65,427.65l0 855.3c0,235.22 192.43,427.65 427.65,427.65l0.01 0c235.22,0 427.65,-192.43 427.65,-427.65l0 -855.3c0,-235.22 -192.43,-427.65 -427.65,-427.65zm-1710.59 0l-0.01 0c-235.22,0 -427.65,192.43 -427.65,427.65l0 855.3c0,235.22 192.43,427.65 427.65,427.65l0.01 0c235.22,0 427.65,-192.43 427.65,-427.65l0 -855.3c0,-235.22 -192.43,-427.65 -427.65,-427.65zm9048.88 11009.73l-0.01 0c-235.22,0 -427.65,192.43 -427.65,427.65l0 855.3c0,235.22 192.43,427.65 427.65,427.65l0.01 0c235.22,0 427.65,-192.43 427.65,-427.65l0 -855.3c0,-235.22 -192.43,-427.65 -427.65,-427.65zm0 -5004.42l-0.01 0c-235.22,0 -427.65,192.43 -427.65,427.65l0 855.3c0,235.22 192.43,427.65 427.65,427.65l0.01 0c235.22,0 427.65,-192.43 427.65,-427.65l0 -855.3c0,-235.22 -192.43,-427.65 -427.65,-427.65zm-14699.31 5004.42l0.01 0c235.22,0 427.65,192.43 427.65,427.65l0 855.3c0,235.22 -192.43,427.65 -427.65,427.65l-0.01 0c-235.22,0 -427.65,-192.43 -427.65,-427.65l0 -855.3c0,-235.22 192.43,-427.65 427.65,-427.65zm0 -5004.42l0.01 0c235.22,0 427.65,192.43 427.65,427.65l0 855.3c0,235.22 -192.43,427.65 -427.65,427.65l-0.01 0c-235.22,0 -427.65,-192.43 -427.65,-427.65l0 -855.3c0,-235.22 192.43,-427.65 427.65,-427.65zm16473.5 -5400.42l-3457.31 0 0 1879.12 3457.31 0 0 -1879.12zm-14794.89 0l-3457.31 0 0 1879.12 3457.31 0 0 -1879.12zm19439.87 14817.99l-4658.66 0 -18220.33 0 -4622.26 0 0 1046.06 27501.25 0 0 -1046.06zm-8625.8 -619.01l0 -10063.03 -10286.05 0 0 10063.03 2256.24 0 0 -1983.28 0 -682.69 0 -2020.09c-6.81,-64.94 -12.36,-133.3 -16.57,-205.1 -5.31,-90.77 -8.05,-174.46 -8.05,-250.53 0,-979.64 330.1,-1870.11 863.78,-2517.85 547.47,-664.45 1307.84,-1075.44 2151.33,-1075.44 843.49,0 1603.86,410.99 2151.31,1075.45 533.68,647.73 863.78,1538.19 863.78,2517.84 0,9.24 -0.03,18.61 -0.11,28.08l36.51 0 0 2447.63 0 682.69 0 1983.28 1987.82 0zm3967.14 -10063.03l-3348.12 0 0 9981.16 3348.12 0 0 -4794.87 0 -708.83 0 -1093.91 0 -543.91 0 -1802.74 0 -1036.89zm619.01 5186.29l0 4876.75 4003.25 0 0 -4876.75 -4003.25 0zm0 -708.83l4003.25 0 0 -1018.8 -4003.25 0 0 1018.8zm4003.25 -2821.55l-4003.25 0 0 1108.62 4003.25 0 0 -1108.62zm-19494.47 -1655.9l-3348.12 0 0 1036.89 0 1802.74 0 543.91 0 1093.91 0 708.83 0 4794.87 3348.12 0 0 -9981.16zm-7970.38 4477.45l4003.25 0 0 -1018.8 -4003.25 0 0 1018.8zm0 708.83l0 4876.75 4003.25 0 0 -4876.75 -4003.25 0zm4003.25 -3530.38l-4003.25 0 0 1108.62 4003.25 0 0 -1108.62zm7461.41 5741.16l4803.96 0 0 -1699.18 -4803.96 0 0 1699.18zm0 682.69l0 1828.62 4803.96 0 0 -1828.62 -4803.96 0zm-24.53 -3130.32l4792.01 0 0.08 -28.08c0,-833.94 -275.59,-1585.39 -721.12,-2126.13 -431.75,-524.03 -1024.19,-848.15 -1674.96,-848.15 -650.77,0 -1243.22,324.13 -1674.98,848.14 -445.54,540.75 -721.12,1292.2 -721.12,2126.14l0.08 28.08zm10888.31 -9772.16l0.1 -40.57c0,-623.94 -147.9,-1182.88 -387,-1582.16 -210.83,-352.06 -486.67,-569.83 -777.52,-569.83 -290.85,0 -566.71,217.78 -777.53,569.83 -239.09,399.27 -387,958.22 -387,1582.16l0.1 40.57 2328.84 0zm-14794.89 0l0.1 -40.57c0,-623.94 -147.9,-1182.88 -387,-1582.16 -210.83,-352.06 -486.67,-569.83 -777.52,-569.83 -290.85,0 -566.71,217.78 -777.53,569.83 -239.09,399.27 -387,958.22 -387,1582.16l0.1 40.57 2328.84 0zm15905.04 3184.92l-4658.64 0 -1378.25 0 -7206.64 0 -1514.67 0 -4640.45 0 0 1018.79 272.81 0 4276.64 0 10286.05 0 309.51 0 4253.63 0 0 -1018.79z"/>
  </g>
</svg>
