<svg xmlns="http://www.w3.org/2000/svg" viewBox="0 0 1591.9 558.4">
  <style>#logo30_main .st1{fill:#334047}#logo30_main .st3{fill:#a68cd1}</style>
    <path fill="#00adc7" d="M1520.3 536.8H730.9l71.6-234h789.4l-71.6 234z">
      </path>
        <path class="st1" d="M1067.7 215.1V68.8h64.3v48.5h29.6V68.8h64.3v146.3h-64.3v-48.5H1132v48.5h-64.3zm318.3-81.4l24.4-65h-62.7l-19.5 48.5h-11.5V68.8h-64.3v146.3h64.3v-48.5h15.4l19.5 48.5h64.2l-29.8-81.4zm120.8 36.8c-15.5 0-19.2-12.1-19.2-21.6 0-9.4 3.6-21.3 19.2-21.3 15.2 0 18.9 11.9 18.9 21.3-.1 9.5-3.7 21.6-18.9 21.6zm23.1-85.5c-19.5 0-32.9 7.6-42 17.3.3-12.5 9.4-25.6 21.9-30.7 21.6-9.1 46.5-2.7 64.2-18.3V0s-15.1 6.2-42.9 9.5c-16.7 2-40.4 7.3-61.4 20.5-26.2 16.4-44.7 43.5-44.7 98.3 0 71.5 41.4 91.6 84 91.6 42 0 79.4-21.3 79.4-68.1-.1-45.2-26.9-66.8-58.5-66.8zm-573 83.4c-8.8 0-16.2-5.2-18.9-10.4v-32.3c3-5.2 10.1-10.4 18.9-10.4 15.5 0 22.2 13.4 22.2 26.5 0 1.6-.1 3.3-.3 4.9-1.4 11.5-8.3 21.7-21.9 21.7zm88.4-26.5c0-36-16.3-70-53.2-76.8-.8-.2-1.7-.3-2.5-.4-2.2-.3-4.4-.6-6.7-.7-1.5-.1-3.1-.1-4.7-.1-1.4 0-2.7 0-4 .1h-.2c-11.8.7-22.1 4.4-30 9.9-5.4 3.6-10 8-13.7 12.5L925 68.8h-51v204.8h64.3v-67.3c4.5 4 10.2 7.5 17 10 6.4 2.6 13.7 3.8 22.9 3.8 46.7-.1 67.1-37.9 67.1-78.2z">
        </path>
        <linearGradient id="logo30_main_SVGID_1_" gradientUnits="userSpaceOnUse" x1="60.467" y1="199.168" x2="60.467" y2="58.618">
          <stop offset="0" stop-color="#ffa700"></stop>
          <stop offset=".157" stop-color="#ff9e01"></stop>
          <stop offset=".418" stop-color="#ff8503"></stop>
          <stop offset=".747" stop-color="#ff5c06"></stop>
          <stop offset="1" stop-color="#ff3809"></stop>
        </linearGradient>
        <path d="M114.5 58.6c-13 2.5-25.2 6.6-36.6 12.5-19.9 10.2-35.4 24.2-46.5 42-11.1 17.8-19.4 41.6-25 71.3l79.3 14.8S21.9 99.5 114.5 58.6z" fill="url(#logo30_main_SVGID_1_)">
        </path>
        <path class="st3" d="M83.3 408.3L0 419.4c4.3 41.4 19.8 74.9 46.5 100.5 26.7 25.6 60.4 38.4 101 38.4 1.5 0 2.9 0 4.4-.1-126.1-33-68.6-149.9-68.6-149.9z"></path><linearGradient id="logo30_main_SVGID_2_" gradientUnits="userSpaceOnUse" x1="184.207" y1="558.301" x2="184.207" y2="283.176"><stop offset="0" stop-color="#ffa700"></stop><stop offset=".157" stop-color="#ff9e01"></stop><stop offset=".418" stop-color="#ff8503"></stop><stop offset=".747" stop-color="#ff5c06"></stop><stop offset="1" stop-color="#ff3809"></stop></linearGradient><path d="M275.1 326.1c-15.4-21-36-34.6-61.7-40.6-84.2-14.1-102.9 42.6-102.9 42.6 15.3-4.7 28.5-7 39.5-7 16.7 0 30.9 6.9 42.6 20.8 11.6 13.9 17.5 32.7 17.5 56.4 0 25.1-6.1 45-18.2 59.8-12.1 14.8-27.1 22.2-44.8 22.2-16.5 0-30.6-6.2-42.2-18.5-11.6-12.3-18.8-30.1-21.4-53.4 0 0-57.4 116.9 68.7 150 40.9-1 75.3-16.2 103.1-45.6 28.8-30.4 43.2-67.2 43.2-110.4-.3-29.9-8-55.3-23.4-76.3z" fill="url(#logo30_main_SVGID_2_)"></path><linearGradient id="logo30_main_SVGID_3_" gradientUnits="userSpaceOnUse" x1="171.138" y1="328.073" x2="171.138" y2="55.828"><stop offset="0" stop-color="#00a600"></stop><stop offset="1" stop-color="#002f26"></stop></linearGradient><path d="M213.4 285.4C256.5 259.7 278 225.2 278 182c0-30.4-10.5-57.7-31.5-81.9-25.5-29.5-59.4-44.3-101.6-44.3-10.5 0-20.6.9-30.3 2.8-92.7 40.9-28.9 140.6-28.9 140.6 2.2-21.5 8.6-37.8 19-49 10.4-11.2 23-16.8 37.7-16.8 14.9 0 26.8 4.9 35.8 14.8 9 9.9 13.5 23.1 13.5 39.6 0 19.5-6.1 35.1-18.4 46.8-12.2 11.7-30 17.3-53.3 16.6l-9.5 76.9s18.7-56.8 102.9-42.7z" fill="url(#logo30_main_SVGID_3_)"></path><g><path class="st3" d="M688.1 372.3c0 107-64.1 174-171.7 174-104.5 0-191.9-80.6-213.2-188.3 5.8 7.2 11.6 13.9 17.3 20.4 2.3 2.6 4.6 5.1 6.9 7.5 17.1 18.4 33.9 33.6 50.3 46 2.2 1.7 4.4 3.3 6.5 4.8 6.9 5 13.8 9.4 20.5 13.4 1.7 1 3.5 2 5.2 3 1.8 1 3.5 1.9 5.2 2.8 1.8.9 3.5 1.8 5.3 2.7 1.7.9 3.5 1.7 5.2 2.5 5.2 2.4 10.3 4.6 15.4 6.5 3.1 1.1 6.1 2.2 9.1 3.2 5 1.6 10 3 14.9 4.1 2 .5 3.9.9 5.8 1.3 11.7 2.3 23 3.4 33.9 3.4 2.5 0 4.9-.1 7.4-.2.7 0 1.4-.1 2.2-.1.9-.1 1.8-.1 2.7-.2.8-.1 1.6-.1 2.4-.2.8-.1 1.6-.1 2.4-.2 5.2-.5 10.3-1.3 15.4-2.2.6-.1 1.2-.2 1.7-.3.7-.1 1.4-.3 2.1-.4.6-.1 1.2-.2 1.7-.4.8-.2 1.5-.3 2.3-.5.5-.1 1.1-.3 1.6-.4 4.1-1 8-2.1 11.9-3.4 1.3-.4 2.6-.9 3.9-1.3 1.5-.5 3-1.1 4.5-1.6.6-.2 1.2-.5 1.8-.7.9-.3 1.7-.7 2.6-1 .5-.2 1-.4 1.6-.6 3.4-1.4 6.8-2.9 10.1-4.4 1.9-.9 3.8-1.8 5.6-2.7.7-.4 1.4-.7 2.1-1.1 1.3-.7 2.5-1.3 3.8-2 3.8-2 7.4-4.1 11-6.3.6-.4 1.2-.7 1.8-1.1.6-.4 1.2-.7 1.8-1.1 1.7-1.1 3.5-2.2 5.2-3.4 1.1-.8 2.3-1.5 3.4-2.3 2.2-1.5 4.4-3.1 6.5-4.7.5-.4 1.1-.8 1.6-1.2 1.3-1 2.6-1.9 3.8-2.9.8-.6 1.6-1.2 2.4-1.9l1.5-1.2c1-.8 2-1.6 2.9-2.4 1-.8 1.9-1.6 2.9-2.4 2.5-2.1 4.9-4.2 7.2-6.3.8-.7 1.5-1.4 2.3-2.1.4-.4.9-.8 1.3-1.2.4-.4.8-.8 1.3-1.2 1.3-1.2 2.5-2.3 3.7-3.5.8-.7 1.5-1.5 2.2-2.2 1.2-1.2 2.3-2.3 3.4-3.5.7-.8 1.4-1.5 2.1-2.2.7-.7 1.4-1.4 2-2.1l.1-.1c.6-.7 1.3-1.4 1.9-2 .4-.4.8-.8 1.1-1.2.6-.6 1.1-1.2 1.6-1.8.3-.4.7-.7 1-1.1.3-.3.6-.7.9-1 .6-.7 1.1-1.3 1.7-1.9.3-.3.6-.6.8-.9 3.5-4 6.3-7.6 8.6-10.4.5-.6.9-1.2 1.3-1.7.2-.3.4-.5.6-.8.3-.3.5-.7.7-1 .7-.9 1.2-1.6 1.7-2.3.2-.3.4-.5.5-.7.1-.1.2-.2.2-.3.1-.1.1-.2.2-.3.1-.1.1-.2.2-.2.2-.2.3-.4.4-.5-.3.1-.3.1-.2 0z"></path><linearGradient id="logo30_main_SVGID_4_" gradientUnits="userSpaceOnUse" x1="426.127" y1="154.415" x2="426.13" y2="154.415"><stop offset="0" stop-color="#ff4909"></stop><stop offset=".059" stop-color="#ff5708"></stop><stop offset=".21" stop-color="#ff7405"></stop><stop offset=".371" stop-color="#ff8a03"></stop><stop offset=".544" stop-color="#ff9a01"></stop><stop offset=".739" stop-color="#ffa400"></stop><stop offset="1" stop-color="#ffa700"></stop></linearGradient><path fill="url(#logo30_main_SVGID_4_)" d="M426.1 154.4z"></path><path d="M518.4 67.9c-14.8.1-28.4 2.3-40.9 6.4-8.3 2.8-16.1 6.4-23.4 10.9-2.9 2.1-5.6 4.4-8.1 6.9-4.8 4.7-8.9 10.2-12.1 16.3-7.1 13.5-9.5 29.2-7.7 46 1.1 10.3 3.7 21 7.8 31.9-33.5 27.5-55.1 71.4-55.1 120.8 0 19.1 3.2 37.3 9.1 54.1 1.9 5.3 4 10.5 6.3 15.5-26.1-51.3-35.9-95.2-35.9-132.4 0-116.7 97.5-166.7 98.6-167.3 18.9-5.9 38.8-9 59.5-9h1.9z" fill="#26406b"></path><linearGradient id="logo30_main_SVGID_5_" gradientUnits="userSpaceOnUse" x1="434.972" y1="169.536" x2="553.594" y2="555.812"><stop offset="0" stop-color="#ffa700"></stop><stop offset=".097" stop-color="#fd9b07"></stop><stop offset=".508" stop-color="#f56a20"></stop><stop offset=".823" stop-color="#f14c30"></stop><stop offset="1" stop-color="#ef4136"></stop></linearGradient><path d="M687.3 373.4c-.1.1-.1.2-.2.3-.2.2-.3.5-.5.7-.5.6-1 1.4-1.7 2.3-.2.3-.5.6-.7 1-.2.3-.4.5-.6.8-.4.5-.9 1.1-1.3 1.7-2.2 2.9-5.1 6.4-8.6 10.4-.3.3-.5.6-.8.9-.5.6-1.1 1.3-1.7 1.9-.3.3-.6.7-.9 1-.3.4-.6.7-1 1.1-.5.6-1.1 1.2-1.6 1.8-.4.4-.7.8-1.1 1.2-.6.7-1.2 1.4-1.9 2l-.1.1c-.7.7-1.3 1.4-2 2.1-.7.7-1.4 1.5-2.1 2.2-1.1 1.1-2.3 2.3-3.4 3.5l-2.2 2.2c-1.2 1.2-2.4 2.3-3.7 3.5-.4.4-.8.8-1.3 1.2-.4.4-.8.8-1.3 1.2-.8.7-1.5 1.4-2.3 2.1-2.3 2.1-4.7 4.2-7.2 6.3-1 .8-1.9 1.6-2.9 2.4-1 .8-2 1.6-2.9 2.4l-1.5 1.2c-.8.6-1.6 1.2-2.4 1.9-1.2 1-2.5 1.9-3.8 2.9-.5.4-1.1.8-1.6 1.2-2.1 1.6-4.3 3.1-6.5 4.7-1.1.8-2.2 1.5-3.4 2.3-1.7 1.1-3.4 2.3-5.2 3.4-.6.4-1.2.7-1.8 1.1-.6.4-1.2.7-1.8 1.1-3.6 2.2-7.2 4.3-11 6.3-1.3.7-2.5 1.4-3.8 2-.7.4-1.4.7-2.1 1.1-1.9.9-3.7 1.9-5.6 2.7-3.3 1.5-6.7 3-10.1 4.4-.5.2-1 .4-1.6.6-.9.3-1.7.7-2.6 1-.6.2-1.2.5-1.8.7-1.5.6-3 1.1-4.5 1.6-1.3.5-2.6.9-3.9 1.3-3.9 1.2-7.9 2.4-11.9 3.4-.5.1-1.1.3-1.6.4-.8.2-1.5.4-2.3.5-.6.1-1.2.3-1.7.4-.7.2-1.4.3-2.1.4-.6.1-1.1.2-1.7.3-5 1-10.1 1.7-15.4 2.2-.8.1-1.6.2-2.4.2-.8.1-1.6.1-2.4.2-.9.1-1.8.1-2.7.2-.7 0-1.4.1-2.2.1-2.4.1-4.9.2-7.4.2-10.9 0-22.3-1.1-33.9-3.4-1.9-.4-3.9-.8-5.8-1.3-4.9-1.1-9.9-2.5-14.9-4.1-3-1-6-2-9.1-3.2-5.1-1.9-10.2-4.1-15.4-6.5-1.7-.8-3.5-1.6-5.2-2.5-1.7-.9-3.5-1.8-5.3-2.7-1.7-.9-3.5-1.9-5.2-2.8-1.7-1-3.4-2-5.2-3-6.8-4-13.6-8.5-20.5-13.4-2.2-1.6-4.3-3.2-6.5-4.8-16.4-12.4-33.2-27.6-50.3-46l-6.9-7.5c-5.7-6.4-11.5-13.2-17.3-20.4-3.3-16.4-5-33.4-5-50.9 0-109.5 67.1-201.8 158.7-230.2-1.2.6-98.6 50.6-98.6 167.3 0 37.2 9.9 81.1 35.9 132.4v.1c22.9 48.3 69 81.3 122.1 81.3 60.7-.2 125.7-22.5 171.2-84.7z" fill="url(#logo30_main_SVGID_5_)"></path><linearGradient id="logo30_main_SVGID_6_" gradientUnits="userSpaceOnUse" x1="438.857" y1="92.881" x2="744.756" y2="204.244"><stop offset="0" stop-color="#ff3809"></stop><stop offset=".253" stop-color="#ff5c06"></stop><stop offset=".582" stop-color="#ff8503"></stop><stop offset=".843" stop-color="#ff9e01"></stop><stop offset="1" stop-color="#ffa700"></stop></linearGradient><path d="M745.5 202.1S557.4 50.2 426.1 154.4c-1.8-16.8.6-32.5 7.7-46 3.2-6.1 7.3-11.6 12.1-16.3 2.5-2.5 5.2-4.8 8.1-6.9 7.3-4.5 15.1-8.2 23.4-10.9 12.5-4.1 26.2-6.3 40.9-6.4 3.4 0 6.9.2 10.3.4 7.2.5 14.7 1.5 22.3 2.9 11.1 2 22.6 5 34.3 9 22 7.4 44.6 18.1 66.9 32.2 40.2 25.2 72.4 57.2 93.4 89.7z" fill="url(#logo30_main_SVGID_6_)"></path></g><path d="M213.4 285.4C256.5 259.7 278 225.2 278 182c0-30.4-10.5-57.7-31.5-81.9-25.5-29.5-59.4-44.3-101.6-44.3-10.5 0-20.6.9-30.3 2.8-92.7 40.9-28.9 140.6-28.9 140.6 2.2-21.5 8.6-37.8 19-49 10.4-11.2 23-16.8 37.7-16.8 14.9 0 26.8 4.9 35.8 14.8 9 9.9 13.5 23.1 13.5 39.6 0 19.5-6.1 35.1-18.4 46.8-12.2 11.7-30 17.3-53.3 16.6l-9.5 76.9s18.7-56.8 102.9-42.7z" fill="#b0d100"></path><g><path class="st1" d="M438.6 335.6c-5.6 0-9.6-.7-12.1-2.1V310c1.6.6 3.4 1 5.3 1 4.3 0 7.2-2.6 8.8-7.9 1.7-5.5 2.6-14.8 2.7-28.1l.3-22.2H518v81.7h-28.5v-58.8h-19.3c-.2 10.3-.5 18.1-1 23.3-.9 10.7-3.8 19.5-8.8 26.4-4.7 6.7-12 10.2-21.8 10.2zM567.7 336.5c-12.6 0-23.4-3.9-32.3-11.6-8.8-7.8-13.2-18.3-13.2-31.3 0-12.1 4-22.3 11.9-30.5 7.9-8.3 18.4-12.4 31.3-12.4 11.7 0 21.1 4 28.3 12.1 7.4 7.8 11.1 18.1 11.1 30.7v7.1h-54.7c1.2 4.1 3.9 7.2 8.2 9.4 4.3 2.2 9.5 3.3 15.6 3.3 8.9 0 17.6-2.4 26.2-7.1V328c-7.8 5.7-18.6 8.5-32.4 8.5zM550 285.4h27c-.1-4.1-1.4-7.4-3.9-10-2.5-2.6-5.5-3.9-9-3.9-3.8 0-6.9 1.2-9.5 3.7-2.5 2.6-4 5.9-4.6 10.2zM659.8 334.5h-28.5v-58.8h-23.6v-22.8h75.9v22.8h-23.8v58.8z">
    </path>
  </g>
</svg>