<svg width="48" height="49" viewBox="0 0 48 49" fill="none" xmlns="http://www.w3.org/2000/svg">
<path d="M34.7509 15.488L35.1729 15.2199V15.2199L34.7509 15.488ZM33.035 12.7876L32.613 13.0557V13.0557L33.035 12.7876ZM17.6125 12.2467C17.6125 11.9705 17.3887 11.7467 17.1125 11.7467C16.8364 11.7467 16.6125 11.9705 16.6125 12.2467H17.6125ZM31.1479 15.6804C31.1479 15.4043 30.9241 15.1804 30.6479 15.1804C30.3718 15.1804 30.1479 15.4043 30.1479 15.6804H31.1479ZM31.1279 12.5258C31.1279 12.2497 30.9041 12.0258 30.6279 12.0258C30.3518 12.0258 30.1279 12.2497 30.1279 12.5258H31.1279ZM30.1279 13.8041C30.1279 14.0803 30.3518 14.3041 30.6279 14.3041C30.9041 14.3041 31.1279 14.0803 31.1279 13.8041H30.1279ZM24.4401 12.2467C24.4401 11.9705 24.2163 11.7467 23.9401 11.7467C23.664 11.7467 23.4401 11.9705 23.4401 12.2467H24.4401ZM23.4401 17.6768C23.4401 17.9529 23.664 18.1768 23.9401 18.1768C24.2163 18.1768 24.4401 17.9529 24.4401 17.6768H23.4401ZM15.9356 28.4572C15.9356 28.181 15.7117 27.9572 15.4356 27.9572C15.1594 27.9572 14.9356 28.181 14.9356 28.4572H15.9356ZM14.9356 34.7657C14.9356 35.0419 15.1594 35.2657 15.4356 35.2657C15.7117 35.2657 15.9356 35.0419 15.9356 34.7657H14.9356ZM31.7849 34.7258C31.7849 35.0019 32.0088 35.2258 32.2849 35.2258C32.5611 35.2258 32.7849 35.0019 32.7849 34.7258H31.7849ZM14.8557 26.6605C14.8557 26.9366 15.0796 27.1605 15.3557 27.1605C15.6319 27.1605 15.8557 26.9366 15.8557 26.6605H14.8557ZM17.3521 26.3202C17.0759 26.3202 16.8521 26.544 16.8521 26.8202C16.8521 27.0963 17.0759 27.3202 17.3521 27.3202V26.3202ZM30.3684 27.3202C30.6446 27.3202 30.8684 27.0963 30.8684 26.8202C30.8684 26.544 30.6446 26.3202 30.3684 26.3202V27.3202ZM17.5118 28.3165C17.2357 28.3165 17.0118 28.5404 17.0118 28.8165C17.0118 29.0927 17.2357 29.3165 17.5118 29.3165V28.3165ZM30.5281 29.3165C30.8043 29.3165 31.0281 29.0927 31.0281 28.8165C31.0281 28.5404 30.8043 28.3165 30.5281 28.3165V29.3165ZM17.4319 30.3129C17.1558 30.3129 16.9319 30.5368 16.9319 30.8129C16.9319 31.0891 17.1558 31.3129 17.4319 31.3129V30.3129ZM30.4483 31.3129C30.7244 31.3129 30.9483 31.0891 30.9483 30.8129C30.9483 30.5368 30.7244 30.3129 30.4483 30.3129V31.3129ZM17.3521 32.2294C17.0759 32.2294 16.8521 32.4533 16.8521 32.7294C16.8521 33.0056 17.0759 33.2294 17.3521 33.2294V32.2294ZM30.3684 33.2294C30.6446 33.2294 30.8684 33.0056 30.8684 32.7294C30.8684 32.4533 30.6446 32.2294 30.3684 32.2294V33.2294ZM12.5 13.6441V33.6478H13.5V13.6441H12.5ZM14.5971 35.7449H33.4029V34.7449H14.5971V35.7449ZM35.5 33.6478V16.3445H34.5V33.6478H35.5ZM35.1729 15.2199L33.457 12.5194L32.613 13.0557L34.3289 15.7562L35.1729 15.2199ZM31.687 11.547H14.5971V12.547H31.687V11.547ZM33.457 12.5194C33.0722 11.9138 32.4045 11.547 31.687 11.547V12.547C32.0624 12.547 32.4117 12.7389 32.613 13.0557L33.457 12.5194ZM35.5 16.3445C35.5 15.9462 35.3865 15.5561 35.1729 15.2199L34.3289 15.7562C34.4406 15.9321 34.5 16.1362 34.5 16.3445H35.5ZM33.4029 35.7449C34.5611 35.7449 35.5 34.8059 35.5 33.6478H34.5C34.5 34.2537 34.0088 34.7449 33.4029 34.7449V35.7449ZM12.5 33.6478C12.5 34.8059 13.4389 35.7449 14.5971 35.7449V34.7449C13.9912 34.7449 13.5 34.2537 13.5 33.6478H12.5ZM13.5 13.6441C13.5 13.0382 13.9912 12.547 14.5971 12.547V11.547C13.4389 11.547 12.5 12.4859 12.5 13.6441H13.5ZM16.6125 12.2467V16.2394H17.6125V12.2467H16.6125ZM18.7096 18.3365H29.0508V17.3365H18.7096V18.3365ZM31.1479 16.2394V15.6804H30.1479V16.2394H31.1479ZM29.0508 18.3365C30.209 18.3365 31.1479 17.3976 31.1479 16.2394H30.1479C30.1479 16.8453 29.6567 17.3365 29.0508 17.3365V18.3365ZM16.6125 16.2394C16.6125 17.3976 17.5514 18.3365 18.7096 18.3365V17.3365C18.1037 17.3365 17.6125 16.8453 17.6125 16.2394H16.6125ZM30.1279 12.5258V13.8041H31.1279V12.5258H30.1279ZM25.4764 14.0434V15.8002H26.4764V14.0434H25.4764ZM26.3757 16.6995H28.2123V15.6995H26.3757V16.6995ZM29.1116 15.8002V14.0434H28.1116V15.8002H29.1116ZM28.2123 13.1441H26.3757V14.1441H28.2123V13.1441ZM29.1116 14.0434C29.1116 13.5467 28.709 13.1441 28.2123 13.1441V14.1441C28.1567 14.1441 28.1116 14.099 28.1116 14.0434H29.1116ZM28.2123 16.6995C28.709 16.6995 29.1116 16.2969 29.1116 15.8002H28.1116C28.1116 15.7446 28.1567 15.6995 28.2123 15.6995V16.6995ZM25.4764 15.8002C25.4764 16.2969 25.879 16.6995 26.3757 16.6995V15.6995C26.4313 15.6995 26.4764 15.7446 26.4764 15.8002H25.4764ZM26.4764 14.0434C26.4764 14.099 26.4313 14.1441 26.3757 14.1441V13.1441C25.879 13.1441 25.4764 13.5467 25.4764 14.0434H26.4764ZM23.4401 12.2467V17.6768H24.4401V12.2467H23.4401ZM14.9356 28.4572V34.7657H15.9356V28.4572H14.9356ZM31.7849 24.9037V34.7258H32.7849V24.9037H31.7849ZM31.8857 24.0044H15.755V25.0044H31.8857V24.0044ZM14.8557 24.9037V26.6605H15.8557V24.9037H14.8557ZM15.755 24.0044C15.2583 24.0044 14.8557 24.407 14.8557 24.9037H15.8557C15.8557 24.9593 15.8106 25.0044 15.755 25.0044V24.0044ZM32.7849 24.9037C32.7849 24.407 32.3823 24.0044 31.8857 24.0044V25.0044C31.83 25.0044 31.7849 24.9593 31.7849 24.9037H32.7849ZM17.3521 27.3202H30.3684V26.3202H17.3521V27.3202ZM17.5118 29.3165H30.5281V28.3165H17.5118V29.3165ZM17.4319 31.3129H30.4483V30.3129H17.4319V31.3129ZM17.3521 33.2294H30.3684V32.2294H17.3521V33.2294Z" fill="#00A0DC"/>
</svg>
