<svg width="48" height="49" viewBox="0 0 48 49" fill="none" xmlns="http://www.w3.org/2000/svg">
<path d="M14.1655 15.7192H21.49" stroke="#00A0DC" stroke-linecap="round"/>
<path d="M26.2883 13.9093V11.9731" stroke="#00A0DC" stroke-linecap="round"/>
<path d="M33.3596 16.6692L34.8429 15.4246" stroke="#00A0DC" stroke-linecap="round"/>
<path d="M36.3062 23.8429H38.2424" stroke="#00A0DC" stroke-linecap="round"/>
<path d="M33.4438 30.9986L34.7301 32.4458" stroke="#00A0DC" stroke-linecap="round"/>
<path d="M26.2883 35.8812V33.945" stroke="#00A0DC" stroke-linecap="round"/>
<path d="M14.1658 31.9246H21.4902" stroke="#00A0DC" stroke-width="1.16" stroke-linecap="round"/>
<path d="M28.1404 21.9067L31.5919 18.6235" stroke="#00A0DC" stroke-linecap="round"/>
<path d="M23.8469 26.2843L24.7729 25.4424" stroke="#00A0DC" stroke-linecap="round"/>
<path d="M10.0405 19.8442H20.5643" stroke="#00A0DC" stroke-linecap="round"/>
<path d="M10.0408 27.8838H20.5646" stroke="#00A0DC" stroke-linecap="round"/>
<path d="M6 23.8429L19.6378 23.8429" stroke="#00A0DC" stroke-linecap="round"/>
<path d="M20.0346 13.1548C19.886 12.892 19.9797 12.5574 20.2496 12.4224C22.091 11.5009 24.1311 11.0283 26.1995 11.0476C28.4512 11.0686 30.6582 11.6719 32.6019 12.7977C34.5456 13.9234 36.1585 15.5326 37.2807 17.4657C38.403 19.3988 38.9956 21.5888 38.9999 23.8185C39.0042 26.0483 38.42 28.2405 37.3052 30.1778C36.1904 32.1151 34.5838 33.7304 32.6444 34.8635C30.7051 35.9966 28.5004 36.6082 26.2488 36.6377C24.1805 36.6649 22.1386 36.1999 20.2936 35.2854C20.0232 35.1514 19.9283 34.8172 20.0758 34.5539V34.5539C20.2217 34.2936 20.5495 34.2009 20.8172 34.3325C22.497 35.1586 24.3538 35.5783 26.2343 35.5537C28.2951 35.5267 30.313 34.9669 32.088 33.9298C33.8631 32.8927 35.3336 31.4143 36.3539 29.6411C37.3743 27.8679 37.909 25.8614 37.905 23.8206C37.9011 21.7798 37.3587 19.7754 36.3315 18.006C35.3044 16.2367 33.8282 14.7639 32.0491 13.7335C30.2701 12.7031 28.2501 12.1509 26.1892 12.1317C24.3086 12.1142 22.4535 12.5409 20.7768 13.3733C20.5096 13.506 20.1814 13.4145 20.0346 13.1548V13.1548Z" fill="#00A0DC"/>
<path d="M28.982 23.7167C28.982 25.1347 27.7948 26.2843 26.3303 26.2843C24.8657 26.2843 23.6785 25.1347 23.6785 23.7167C23.6785 22.2986 24.8657 21.1491 26.3303 21.1491C27.7948 21.1491 28.982 22.2986 28.982 23.7167ZM24.6011 23.7167C24.6011 24.6413 25.3753 25.3909 26.3303 25.3909C27.2852 25.3909 28.0594 24.6413 28.0594 23.7167C28.0594 22.7921 27.2852 22.0425 26.3303 22.0425C25.3753 22.0425 24.6011 22.7921 24.6011 23.7167Z" fill="#00A0DC"/>
</svg>
