
<svg fill="#5bb2c1" xmlns="http://www.w3.org/2000/svg" width="219.585mm" height="202.824mm" viewBox="0 0 5582.76 5156.63">
  <g>
    <path d="M1112.19 3078.21l-1014.05 0c-60.6,0 -93.29,46.16 -98.14,96.01l0 26.06c4.84,49.84 37.54,96.01 98.14,96.01l2213.48 0c131.72,0 131.72,-218.08 0,-218.08l-970.44 0c0,-257.82 137.25,-573.34 283.37,-763.39 247.11,-321.41 588.4,-522.4 995.11,-575.05l481.63 25.39c423.4,84.1 791.05,382.29 987.84,756.77 65.24,124.13 152.47,368.65 152.47,556.28l-970.44 0c-131.72,0 -131.72,218.08 0,218.08l2213.48 0c60.6,0 93.29,-46.16 98.13,-96.01l0 -26.06c-4.84,-49.84 -37.54,-96.01 -98.14,-96.01l-1014.05 0c0,-194.02 -87.42,-455.54 -167.12,-628.86 -37.47,-81.48 -99.37,-177.35 -149.08,-243.45 -91.78,-122.04 -80.72,-107.96 -188.1,-215.34 -284.88,-284.88 -699.77,-482.49 -1109.47,-482.49 -367.91,0 -581.73,47.74 -901.28,221.82 -43.39,23.64 -82.82,47.04 -120.71,75.56 -95.88,72.17 -133.51,100.3 -218.32,185.12 -74.8,74.81 -118.37,122.34 -183.43,209.11 -170.48,227.37 -320.87,596.88 -320.87,878.55z"/>
    <path d="M1275.75 4005.03c-296.46,0 -260.08,-152.65 -414.34,-152.65 -116.9,0 -180.24,190.78 135.3,322.66 458.44,191.6 713.07,-148.81 805.74,-199.4 114.22,-62.34 144.32,-57.83 258.38,-57.83 256.31,0 342.54,316.32 730.55,316.32 388.01,0 474.24,-316.32 730.56,-316.32 185.01,0 236.69,27.04 379.06,155.22 178.86,161.03 466.25,201.45 678.62,106.48 291,-130.13 312.73,-327.12 98.12,-327.12 -30.86,0 -270.3,275.86 -573.71,93.93 -31.57,-18.93 -47.67,-33.97 -72.29,-58.55 -235.72,-235.33 -597.95,-269.68 -874.48,-62.04 -62.78,47.14 -76.18,81.13 -151.31,121.28 -144.28,77.1 -277.65,78.85 -421.95,3.72 -132.13,-68.79 -216.6,-261.9 -577.69,-261.9 -293.21,0 -440.46,205.26 -527.58,257.5 -44.47,26.66 -136.62,58.72 -202.98,58.72z"/>
    <path d="M2039.02 4931.86c-126.49,0 -226.2,-42.42 -296.85,-106.59 -41.15,-37.38 -67.85,-61.7 -129.15,-47.24 -72.96,17.21 -147.22,117.51 5.17,236.65 50.79,39.71 84.06,55.23 144.42,84.56 217.03,105.44 490.5,60.58 677.4,-93.51 172.38,-142.12 179.86,-161.1 405.9,-161.1 201.21,0 303.2,250.51 592.97,301.14 130.76,22.85 273.77,4.13 373.97,-42.94 58.56,-27.52 243.38,-129.3 243.38,-203.68 0,-97.03 -102.34,-179.85 -210.1,-79.26 -130.02,121.37 -343.56,150.6 -505.35,53.25 -130.05,-78.25 -222,-257.49 -560.29,-257.49 -160.19,0 -294.09,64.14 -388.17,135.21 -50.89,38.45 -86.88,82.19 -143.61,118.08 -45.04,28.5 -139.45,62.92 -209.68,62.92z"/>
    <path d="M4132.55 1726.13c0,84.96 34.99,119.95 119.94,119.95 60.56,0 164.53,-126.37 226.25,-188.09 73.54,-73.54 139.09,-139.09 212.62,-212.63l310.76 -310.76c31.27,-31.23 89.96,-75.17 89.96,-128.12 0,-68.43 -51.51,-119.94 -119.94,-119.94 -65.56,0 -376,337.84 -438.88,400.71l-310.76 310.76c-32.99,32.96 -89.96,70.22 -89.96,128.12z"/>
    <path d="M490.68 995.58c0,66.52 43.28,92.54 79.04,128.12l528.84 528.83c99.3,99.3 160.79,193.55 253.51,193.55 69.77,0 98.13,-53.27 98.13,-119.95 0,-56.23 -52.47,-90.69 -84.5,-122.67l-523.38 -523.38c-42.94,-42.93 -170.08,-193.54 -231.71,-193.54 -62.47,0 -119.94,50.48 -119.94,109.04z"/>
    <path d="M2682.34 101.47l0 1046.77c0,131.72 218.08,131.72 218.08,0l0 -1046.77c0,-135.28 -218.08,-135.28 -218.08,0z"/>
    <path d="M1701 799.31c0,79.05 44.97,162.99 84.17,253.85 22,50.99 86.11,266.24 223.63,152.08 85.75,-71.19 4.93,-190.36 -49.17,-315.64 -37.88,-87.73 -45.73,-177.52 -149.59,-177.52 -58.89,0 -109.04,53.97 -109.04,87.23z"/>
    <path d="M3532.84 1126.43c0,85.17 143.29,166.66 211.34,47.78 19.79,-34.58 34.77,-78.84 50.07,-113.49 21.7,-49.17 87.51,-194.29 87.51,-239.6 0,-66.54 -48.65,-109.04 -119.94,-109.04 -90.36,0 -108.6,107.86 -138.69,177.52 -18.52,42.88 -90.29,197.81 -90.29,236.83z"/>
    <path d="M316.21 2195c0,111.17 73.44,120.62 176.13,161.89 46.47,18.67 193.16,88.9 238.22,88.9 77.54,0 190.43,-150.78 10.9,-228.97 -44.42,-19.35 -282.9,-119.95 -316.2,-119.95 -55.11,0 -109.04,39.34 -109.04,98.13z"/>
    <path d="M4852.2 2227.71c53.9,0 76.77,-18.24 116.89,-35.76 41.45,-18.1 73.84,-29.6 116.83,-46.73 91.97,-36.67 180.63,-56.12 180.63,-157.39 0,-55.81 -57.35,-109.04 -109.04,-109.04 -30.44,0 -265.71,103.46 -313.44,122.71 -173.81,70.1 -81.65,226.21 8.14,226.21z"/>
    <path d="M2682.34 3176.35c0,163.08 218.08,163.08 218.08,0 0,-131.72 -218.08,-131.72 -218.08,0z"/>
  </g>
</svg>
