<svg fill="#5bb2c1" xmlns="http://www.w3.org/2000/svg" width="124.648mm" height="223.054mm" viewBox="0 0 2073.09 3709.75">
  <g id="_1415375751280">
    <path class="fil0" d="M354.87 2289.61c-21.64,5.78 -52.88,30.67 -70.32,45.61l-121.28 125.07c-238.35,316 -212.31,750.04 55.68,1015.85 62.57,62.07 133.19,117.53 213,156.52 92.66,45.27 189.39,70.23 285.49,77.08l109.39 0c381.21,-26.82 723.56,-333.19 723.56,-782.53 0,-153.87 -50.79,-288.53 -108.26,-384.45 -51.83,-86.5 -55.43,-76.84 -104.86,-141.49 -19.39,-25.36 -40,-36.66 -64.04,-59.14 -17.44,-16.31 -54.8,-46.38 -77.88,-52.54 0,-47.69 6.64,-1391.71 -2.8,-1424.59 -20.06,-69.9 -113.13,-53.18 -113.13,18.94l0 1427.39c0,62.87 109.44,71.37 229.89,233.83 144.95,195.5 166.92,467.87 60.1,686.52 -17.05,34.9 -37.88,65.94 -61.17,98.23 -65.23,90.46 -161.59,166.42 -265.12,213.09 -208.2,93.85 -446.8,68.85 -633.22,-54.96 -98.82,-65.63 -169.31,-144.92 -226.65,-251.57 -64.82,-120.59 -67.5,-221.06 -67.5,-352.74 0,-167.77 125.4,-384.77 265.03,-481.27 103.91,-71.82 90.01,-27.51 90.01,-228.8l-0 -1717.21c-0.16,-127.72 27.7,-228.94 137.92,-296.82 178.63,-110.01 385.32,-18.61 446.15,133 29.49,73.49 24.57,110.49 24.57,207.29 0,91.56 -18.95,181.14 65.21,181.14 71.91,0 50.72,-165.32 50.72,-246.35 0,-238.05 -182.33,-434.74 -398.51,-434.74 -159.8,0 -280.82,57.22 -365.32,178.1 -122.13,174.71 -76.66,481.97 -76.66,763.83 0,449.23 0,898.46 0,1347.68z"/>
    <path class="fil0" d="M572.24 434.74l0 1441.88c0,86.15 115.93,86.15 115.93,0l0 -840.49 173.89 0 0 1267.98c0,182.47 116.27,225.63 192.69,285.52 74.82,58.62 162.34,186.55 162.34,315.87 0,150.8 -28.05,254.31 -135.67,357.03 -187.75,179.19 -501.28,145.86 -635.52,-27.82 -91.43,-118.3 -112.77,-150.47 -112.77,-329.21 0,-130.92 86.73,-256.63 162.34,-315.87 26.11,-20.46 45.67,-29.17 69.71,-46.22 22.62,-16.03 44.05,-37.87 63,-60.17 75.15,-88.43 59.98,-217.98 59.98,-338.53 0,-47.75 -48.71,-78.7 -88.21,-52.53 -65,43.06 4.67,210.66 -46.77,301.56 -24.83,43.87 -61.69,59.91 -91.82,82.07 -232.38,170.94 -302.87,424.98 -194.67,691.75 45.31,111.72 147.27,210.54 254.7,266.98 209.28,109.96 492.31,63.25 654.22,-106.82 184.4,-193.68 213.4,-500.54 55.03,-711.12 -95.49,-126.97 -93.09,-98.38 -185.62,-169.42 -2.86,-2.2 -8.79,-6.9 -12,-9.74 -55.18,-48.81 -55.15,-86.12 -55.04,-176.82 0.76,-602.09 6.12,-1228.75 0.3,-1826.19 -2.84,-291.54 -406.05,-288.01 -406.05,0.3zm118.14 495.95l170.15 0 0 -522.19c0,-46.99 -38.09,-85.08 -85.08,-85.08 -46.99,0 -85.08,38.09 -85.08,85.08l0 522.19z"/>
    <path class="fil0" d="M1412.73 891.21c0,32.97 17.29,57.97 57.96,57.97l543.42 0c60.11,0 79.79,-75.26 31.37,-103.83 -41.22,-24.32 -488.19,-12.1 -567.54,-12.1 -35.04,0 -65.21,20.58 -65.21,57.96z"/>
    <path class="fil0" d="M1412.73 1898.35c0,35.05 22.92,57.96 57.96,57.96l543.42 0c77.88,0 80.02,-115.93 -7.25,-115.93l-521.68 0c-43.21,0 -72.46,14.78 -72.46,57.97z"/>
    <path class="fil0" d="M1412.73 1391.16c0,32.97 17.29,57.97 57.96,57.97l543.42 0c69.52,0 99.78,-115.93 -36.23,-115.93l-470.96 0c-49.24,0 -94.19,8.31 -94.19,57.96z"/>
    <path class="fil0" d="M1412.73 376.77c0,28.07 9.57,65.21 43.47,65.21l572.4 0c49.37,0 68.79,-108.68 -14.49,-108.68l-557.91 0c-17.45,0 -43.47,26.03 -43.47,43.47z"/>
    <path class="fil0" d="M1412.73 1644.75c0,43.19 29.24,57.96 72.46,57.96l239.11 0c105.3,0 86.72,-115.93 14.49,-115.93l-268.09 0c-35.05,0 -57.96,22.92 -57.96,57.96z"/>
    <path class="fil0" d="M1412.73 637.61c0,32.97 17.29,57.96 57.96,57.96l268.09 0c77.88,0 80.02,-115.93 -7.25,-115.93l-253.6 0c-35.04,0 -65.21,20.58 -65.21,57.96z"/>
    <path class="fil0" d="M1412.73 1130.31c0,42.5 14.73,72.46 65.21,72.46l253.6 0c87.27,0 85.13,-115.93 7.25,-115.93l-268.09 0c-26.48,0 -57.96,20 -57.96,43.47z"/>
    <path class="fil0" d="M1412.73 2137.46c0,48.65 15.85,72.46 79.7,72.46 53.59,0 233.55,6.8 272.52,-10.06 54.44,-23.55 36.73,-105.87 -26.17,-105.87l-268.09 0c-26.48,0 -57.96,19.99 -57.96,43.47z"/>
  </g>
</svg>
