<svg width="48" height="49" viewBox="0 0 48 49" fill="none" xmlns="http://www.w3.org/2000/svg">
<path d="M29.9609 22.3517L32.269 24.9106C32.3792 25.0328 32.5716 25.0307 32.679 24.9061L34.8828 22.3517" stroke="#00A0DC" stroke-width="0.820312" stroke-linecap="round"/>
<path d="M23.2448 10.5975C23.2284 10.3056 23.4518 10.0547 23.7441 10.0494C27.0425 9.98897 30.263 11.0959 32.8315 13.1841C35.5372 15.3838 37.3246 18.514 37.8439 21.9622C38.3632 25.4103 37.577 28.9281 35.6392 31.8271C33.7013 34.7261 30.7514 36.7976 27.3667 37.6362C23.982 38.4747 20.4062 38.02 17.3392 36.361C14.2721 34.7019 11.9345 31.958 10.784 28.6663C9.63347 25.3745 9.75279 21.7719 11.1186 18.5635C12.4152 15.5177 14.7465 13.0353 17.6915 11.5489C17.9525 11.4172 18.2672 11.5348 18.3889 11.8005V11.8005C18.5107 12.0662 18.3933 12.3794 18.1328 12.5119C15.4273 13.888 13.2858 16.1749 12.0925 18.9781C10.83 21.9439 10.7197 25.2742 11.7832 28.317C12.8468 31.3599 15.0076 33.8964 17.8428 35.43C20.6779 36.9636 23.9834 37.3839 27.1122 36.6088C30.241 35.8336 32.9679 33.9187 34.7592 31.2389C36.5505 28.5591 37.2772 25.3072 36.7972 22.1198C36.3172 18.9323 34.6649 16.0388 32.1638 14.0054C29.7999 12.0835 26.8385 11.0608 23.8034 11.107C23.5112 11.1114 23.2612 10.8893 23.2448 10.5975V10.5975Z" fill="#00A0DC"/>
<path d="M31.0912 28.9071C31.318 29.0626 31.3767 29.3735 31.2091 29.5914C30.0367 31.1149 28.4094 32.2324 26.5569 32.777C24.5448 33.3685 22.3903 33.248 20.4568 32.4358C18.5232 31.6236 16.929 30.1694 15.9429 28.3184C14.9568 26.4675 14.6393 24.3331 15.0438 22.2753C15.4484 20.2175 16.5503 18.3621 18.1637 17.0222C19.777 15.6823 21.8031 14.9398 23.9003 14.92C25.9974 14.9002 28.0372 15.6043 29.6756 16.9135C31.184 18.1188 32.2672 19.7692 32.7756 21.6231C32.8483 21.8883 32.6762 22.1538 32.4075 22.2119V22.2119C32.1387 22.27 31.8752 22.0987 31.8007 21.834C31.342 20.204 30.3834 18.7536 29.054 17.6914C27.5946 16.5252 25.7777 15.8981 23.9097 15.9157C22.0417 15.9334 20.2369 16.5947 18.7998 17.7882C17.3627 18.9817 16.3812 20.6344 16.0209 22.4674C15.6605 24.3003 15.9434 26.2015 16.8217 27.8502C17.7 29.499 19.1201 30.7943 20.8424 31.5178C22.5647 32.2412 24.4838 32.3486 26.276 31.8217C27.9087 31.3417 29.345 30.3622 30.3866 29.0271C30.5558 28.8103 30.8645 28.7515 31.0912 28.9071V28.9071Z" fill="#00A0DC"/>
</svg>
