<svg width="202" height="15" viewBox="0 0 202 15" fill="none" xmlns="http://www.w3.org/2000/svg">
<path d="M2.11816 3.9342L7.2622 4.69691C9.26958 4.99454 11.3196 4.64799 13.1177 3.70708V3.70708C15.7826 2.31252 18.9472 2.24841 21.6664 3.5339L22.6744 4.01042C25.2778 5.24116 28.3122 5.15563 30.8422 3.78022V3.78022C33.4733 2.34975 36.6818 2.33794 39.3413 3.71497V3.71497C42.04 5.11224 45.2944 5.10584 47.9693 3.66363L48.6024 3.32227C51.184 1.93035 54.2994 1.961 56.8532 3.40345L57.5772 3.8124C59.9208 5.13617 62.8081 5.03724 65.0557 3.55617V3.55617C67.3489 2.045 70.3034 1.97505 72.6655 3.37599L73.127 3.64971C75.553 5.08851 78.5558 5.14982 81.0385 3.81124L81.9797 3.3038C84.5319 1.92772 87.6188 1.99075 90.1128 3.46986V3.46986C92.7104 5.01045 95.9417 5.01045 98.5393 3.46986V3.46986C101.033 1.99075 104.12 1.92772 106.672 3.3038L107.338 3.6626C110.027 5.11234 113.245 5.19519 116.005 3.88572L117.56 3.14804C120.285 1.85513 123.468 1.96844 126.095 3.4518V3.4518C128.868 5.01833 132.251 5.05162 135.055 3.53997L135.398 3.35494C138.018 1.94269 141.179 1.97379 143.77 3.43731L144.336 3.75743C146.749 5.12037 149.737 5.0409 152.088 3.57331V3.57331C154.512 2.06031 157.609 2.04542 160.033 3.55843V3.55843C162.404 5.03895 165.404 5.07311 167.808 3.64698L168.204 3.41218C170.644 1.9649 173.658 1.87572 176.179 3.17616L177.029 3.61415C179.893 5.09139 183.295 5.09139 186.16 3.61415L186.375 3.50325C189.308 1.99045 192.799 2.02246 195.704 3.5888L200.118 5.96867" stroke="#00B3C3" stroke-width="3" stroke-linecap="round"/>
<path d="M2.11816 10.9674L7.2622 11.7301C9.26958 12.0277 11.3196 11.6812 13.1177 10.7403V10.7403C15.7826 9.34573 18.9472 9.28162 21.6664 10.5671L22.6744 11.0436C25.2778 12.2744 28.3122 12.1888 30.8421 10.8134V10.8134C33.4733 9.38296 36.6818 9.37114 39.3413 10.7482V10.7482C42.04 12.1454 45.2944 12.139 47.9693 10.6968L48.6024 10.3555C51.184 8.96355 54.2994 8.99421 56.8532 10.4367L57.5772 10.8456C59.9208 12.1694 62.8081 12.0704 65.0556 10.5894V10.5894C67.3488 9.0782 70.3034 9.00825 72.6655 10.4092L73.127 10.6829C75.553 12.1217 78.5558 12.183 81.0385 10.8444L81.9797 10.337C84.5319 8.96093 87.6188 9.02396 90.1128 10.5031V10.5031C92.7104 12.0437 95.9417 12.0437 98.5393 10.5031V10.5031C101.033 9.02395 104.12 8.96093 106.672 10.337L107.338 10.6958C110.027 12.1455 113.245 12.2284 116.005 10.9189L117.56 10.1812C120.285 8.88833 123.468 9.00164 126.095 10.485V10.485C128.868 12.0515 132.251 12.0848 135.055 10.5732L135.398 10.3882C138.018 8.97589 141.179 9.00699 143.77 10.4705L144.336 10.7906C146.749 12.1536 149.737 12.0741 152.088 10.6065V10.6065C154.512 9.09351 157.609 9.07862 160.033 10.5916V10.5916C162.404 12.0722 165.404 12.1063 167.808 10.6802L168.204 10.4454C170.644 8.9981 173.658 8.90892 176.179 10.2094L177.029 10.6474C179.893 12.1246 183.295 12.1246 186.16 10.6474L186.375 10.5365C189.308 9.02366 192.799 9.05567 195.704 10.622L200.118 13.0019" stroke="#00B3C3" stroke-width="3" stroke-linecap="round"/>
</svg>
