<svg width="205" height="205" viewBox="0 0 205 205" fill="none" xmlns="http://www.w3.org/2000/svg">
<path d="M51.1646 149.095L60.4002 156.003L65.6534 148.988L56.4177 142.08L51.1646 149.095ZM82.5552 28.5076C78.263 28.5076 74.7823 31.9883 74.7823 36.2805C74.7823 40.5727 78.263 44.0534 82.5552 44.0534C86.8474 44.0534 90.3281 40.5727 90.3281 36.2805C90.3281 31.9776 86.8474 28.5076 82.5552 28.5076ZM118.206 125.466L112.366 129.011C112.366 129.011 114.554 139.613 118.601 143.404C118.601 143.404 120.042 140.286 124.292 139.944C128.541 139.603 118.206 125.466 118.206 125.466Z" fill="white"/>
<path d="M107.155 88.2997C103.792 88.2997 101.069 91.0223 101.069 94.3856C101.069 97.7489 103.792 100.472 107.155 100.472C110.519 100.472 113.241 97.7489 113.241 94.3856C113.241 91.0223 110.519 88.2997 107.155 88.2997ZM72.0704 124.805C70.5115 123.022 68.611 121.409 66.3047 120.886C65.8563 120.79 65.3331 120.747 65.0021 121.057C64.7993 121.249 64.7138 121.527 64.6391 121.794C64.2013 123.481 64.0198 125.274 64.4576 126.961C65.3545 130.453 69.3797 132.46 72.6469 133.175C72.8925 133.229 73.1594 133.272 73.373 133.154C73.5651 133.058 73.6826 132.855 73.768 132.652C74.5047 131.115 74.5688 129.268 73.9495 127.677C73.5331 126.62 72.8284 125.68 72.0704 124.805ZM123.641 159.505C119.754 159.505 116.594 162.655 116.594 166.552C116.594 170.438 119.754 173.599 123.641 173.599C127.538 173.599 130.688 170.438 130.688 166.552C130.698 162.655 127.538 159.505 123.641 159.505Z" fill="white"/>
<path d="M75.156 112.355L87.9472 116.871L92.613 103.674L79.8219 99.1577L75.156 112.355ZM145.881 107.187L130.688 110.518L133.186 121.9L148.379 118.569L145.881 107.187Z" fill="white"/>
<path d="M50.9083 99.0512L64.0304 89.8048L48.9971 87.7548L50.9083 99.0512ZM124.922 92.0363L136.464 97.8126V80.5157L124.922 92.0363Z" fill="white"/>
<path d="M61.1262 64.1586L65.0661 74.3872L75.2947 70.4474L71.3549 60.2188L61.1262 64.1586ZM168.943 72.3693C167.427 70.2339 162.868 70.8531 158.757 73.768C154.647 76.6828 152.533 80.7721 154.049 82.9076C155.565 85.043 160.124 84.4237 164.235 81.5089C168.356 78.6047 170.46 74.5047 168.943 72.3693Z" fill="white"/>
<path d="M96.4035 130.089C92.7733 130.602 89.079 137.264 87.9045 140.243C89.6022 140.969 91.4173 141.492 93.2538 141.407C95.0902 141.332 96.9587 140.585 98.1012 139.133C99.9163 136.816 100.888 129.459 96.4035 130.089ZM109.013 68.5039V76.8641H117.373V68.5039H109.013Z" fill="white"/>
</svg>
