<svg width="50" height="50" viewBox="0 0 50 50" fill="none" xmlns="http://www.w3.org/2000/svg">
<circle cx="25" cy="25" r="25" fill="#F6914C"/>
<path fill-rule="evenodd" clip-rule="evenodd" d="M25 12.5C31.2132 12.5 36.25 17.4822 36.25 23.628C36.25 27.6948 32.8471 31.9947 26.1853 36.6789L25 37.5L24.2847 37.0064C17.313 32.1949 13.75 27.7894 13.75 23.628C13.75 17.4822 18.7868 12.5 25 12.5ZM25 14.9729C20.1675 14.9729 16.25 18.8479 16.25 23.628C16.25 26.6311 19.1209 30.2956 25 34.4773C30.8791 30.2956 33.75 26.6311 33.75 23.628C33.75 18.8479 29.8325 14.9729 25 14.9729ZM25 17.5C27.7614 17.5 30 19.7386 30 22.5C30 25.2614 27.7614 27.5 25 27.5C22.2386 27.5 20 25.2614 20 22.5C20 19.7386 22.2386 17.5 25 17.5ZM25 20C23.6193 20 22.5 21.1193 22.5 22.5C22.5 23.8807 23.6193 25 25 25C26.3807 25 27.5 23.8807 27.5 22.5C27.5 21.1193 26.3807 20 25 20Z" fill="black"/>
</svg>
