<svg width="22" height="13" viewBox="0 0 22 13" fill="none" xmlns="http://www.w3.org/2000/svg">
<path fill-rule="evenodd" clip-rule="evenodd" d="M2.68731 3.70155C2.20062 3.78339 1.7918 3.98334 1.48084 4.27486C1.0688 4.66115 0.860169 5.18017 0.860168 5.70006C0.860168 6.21994 1.0688 6.73897 1.48084 7.12526C1.78604 7.41138 2.1855 7.60929 2.66033 7.6939C2.66095 8.30006 2.66404 8.79739 2.6793 9.2005C2.69814 9.69765 2.73637 10.1063 2.83475 10.4211C2.94306 10.7677 3.14094 11.0497 3.4871 11.2035C3.60544 11.2561 3.732 11.2885 3.86017 11.3085V12.0001C3.86017 12.2983 4.10193 12.5401 4.40017 12.5401C4.6984 12.5401 4.94017 12.2983 4.94017 12.0001V11.3401H17.0602V12.0001C17.0602 12.2983 17.3019 12.5401 17.6002 12.5401C17.8984 12.5401 18.1402 12.2983 18.1402 12.0001V11.3085C18.2683 11.2885 18.3949 11.2561 18.5132 11.2035C18.8594 11.0497 19.0573 10.7677 19.1656 10.4211C19.264 10.1063 19.3022 9.69765 19.321 9.2005C19.3363 8.79739 19.3394 8.30006 19.34 7.6939C19.8148 7.60929 20.2143 7.41138 20.5195 7.12526C20.9315 6.73897 21.1402 6.21994 21.1402 5.70006C21.1402 5.18017 20.9315 4.66115 20.5195 4.27486C20.2085 3.98334 19.7997 3.78339 19.313 3.70155C19.2485 3.08581 19.0608 2.33481 18.6632 1.67223C18.1328 0.788286 17.2211 0.0600586 15.8002 0.0600586H14.0002C12.5792 0.0600586 11.6675 0.788286 11.1371 1.67223C11.0884 1.75349 11.0428 1.83607 11.0002 1.91957C10.9576 1.83607 10.912 1.75349 10.8632 1.67223C10.3328 0.788286 9.42109 0.0600586 8.00017 0.0600586H6.20016C4.77924 0.0600586 3.86748 0.788286 3.33712 1.67223C2.93957 2.33481 2.75181 3.08581 2.68731 3.70155ZM3.77293 3.71469C4.38296 3.83405 4.8704 4.13543 5.23696 4.48344C5.67626 4.90049 5.95457 5.39452 6.08967 5.76413C6.81637 5.50918 7.6474 5.44176 8.41397 5.47558C9.13655 5.50746 9.85722 5.63185 10.4602 5.81431V4.20006C10.4602 3.6689 10.3237 2.87214 9.93712 2.22789C9.56749 1.61183 8.97925 1.14006 8.00017 1.14006H6.20016C5.22108 1.14006 4.63284 1.61183 4.26321 2.22789C3.98208 2.69644 3.83321 3.24565 3.77293 3.71469ZM10.4602 6.95381C9.92948 6.75271 9.16705 6.58986 8.36637 6.55453C7.51651 6.51704 6.71533 6.62738 6.14017 6.91141V7.86006H10.4602V6.95381ZM11.5402 7.86006H15.8602V6.95381C15.3295 6.75271 14.5671 6.58986 13.7664 6.55453C12.9165 6.51704 12.1153 6.62738 11.5402 6.91141V7.86006ZM11.5402 5.74677C12.2547 5.50612 13.0651 5.44254 13.814 5.47558C14.5485 5.50799 15.281 5.63598 15.8899 5.82337C16.0159 5.44856 16.3002 4.9232 16.7634 4.48344C17.1299 4.13544 17.6174 3.83406 18.2274 3.7147C18.1671 3.24565 18.0183 2.69644 17.7371 2.22789C17.3675 1.61183 16.7792 1.14006 15.8002 1.14006H14.0002C13.0211 1.14006 12.4328 1.61183 12.0632 2.22789C11.6767 2.87214 11.5402 3.6689 11.5402 4.20006V5.74677ZM16.9402 6.61178C16.9403 6.60423 16.9403 6.5967 16.9402 6.58918V6.09511C17.03 5.86843 17.2168 5.54214 17.507 5.26668C17.8221 4.96748 18.2444 4.74006 18.8002 4.74006C19.2846 4.74006 19.5956 4.88913 19.7808 5.06276C19.9688 5.23897 20.0602 5.46995 20.0602 5.70006C20.0602 5.93018 19.9688 6.16115 19.7808 6.33736C19.5956 6.51098 19.2846 6.66006 18.8002 6.66006C18.5019 6.66006 18.2602 6.90183 18.2602 7.20006C18.2602 8.04437 18.2601 8.67727 18.2418 9.15962C18.2231 9.65247 18.1864 9.93381 18.1347 10.099C18.1111 10.1746 18.091 10.2027 18.0858 10.2093C18.086 10.209 18.0856 10.2095 18.0858 10.2093C18.0847 10.2108 18.0833 10.2127 18.0746 10.2166C18.0245 10.2389 17.9104 10.2601 17.6002 10.2601H16.9402V6.61178ZM15.8602 10.2601V8.94006H6.14017V10.2601H15.8602ZM5.06017 10.2601V6.09511C4.97036 5.86843 4.78353 5.54214 4.49337 5.26668C4.17822 4.96748 3.75591 4.74006 3.20017 4.74006C2.71577 4.74006 2.4047 4.88913 2.2195 5.06276C2.03154 5.23897 1.94017 5.46995 1.94017 5.70006C1.94017 5.93018 2.03154 6.16115 2.21949 6.33736C2.4047 6.51098 2.71577 6.66006 3.20017 6.66006C3.4984 6.66006 3.74017 6.90183 3.74017 7.20006C3.74017 8.04437 3.74026 8.67727 3.75853 9.15962C3.7772 9.65247 3.81397 9.93381 3.86559 10.099C3.88923 10.1746 3.90931 10.2027 3.91454 10.2093C3.91476 10.2095 3.91437 10.209 3.91454 10.2093C3.91562 10.2108 3.91703 10.2127 3.92573 10.2166C3.97581 10.2389 4.08993 10.2601 4.40017 10.2601H5.06017Z" fill="#B6C3CC"/>
</svg>
