<svg width="18" height="16" viewBox="0 0 18 16" fill="none" xmlns="http://www.w3.org/2000/svg">
<path fill-rule="evenodd" clip-rule="evenodd" d="M3.46853 0.366115C3.65962 0.224316 3.92101 0.224316 4.1121 0.366115C5.73993 1.57403 6.70121 2.87707 7.16911 4.17666C7.63724 5.4769 7.5973 6.73468 7.28674 7.82613C6.97775 8.91203 6.39999 9.83867 5.77844 10.4993C5.46743 10.8298 5.1367 11.1031 4.81107 11.2972C4.65818 11.3883 4.49626 11.4681 4.33032 11.5261V13.1508L5.75489 12.1818C6.00148 12.0141 6.33736 12.078 6.50509 12.3246C6.67282 12.5712 6.60889 12.9071 6.3623 13.0748L4.33032 14.457V15.1998C4.33032 15.498 4.08855 15.7398 3.79032 15.7398C3.49208 15.7398 3.25032 15.498 3.25032 15.1998V14.457L1.21834 13.0748C0.971741 12.9071 0.907809 12.5712 1.07554 12.3246C1.24327 12.078 1.57915 12.0141 1.82575 12.1818L3.25032 13.1508V11.5261C3.08437 11.4681 2.92245 11.3883 2.76957 11.2972C2.44393 11.1031 2.1132 10.8298 1.8022 10.4993C1.18064 9.83867 0.602884 8.91203 0.293895 7.82613C-0.0166718 6.73468 -0.0566074 5.4769 0.411522 4.17666C0.879419 2.87707 1.8407 1.57403 3.46853 0.366115ZM4.33032 10.3246V6.45691C4.33032 6.15868 4.08855 5.91691 3.79032 5.91691C3.49208 5.91691 3.25032 6.15868 3.25032 6.45691V10.3246C3.0449 10.1919 2.81763 10.0024 2.58876 9.75919C2.07621 9.21444 1.59073 8.43751 1.33266 7.53055C1.07617 6.62914 1.04522 5.60478 1.42767 4.54251C1.78186 3.55873 2.50277 2.50907 3.79032 1.48102C5.07786 2.50907 5.79877 3.55873 6.15296 4.54251C6.53541 5.60478 6.50446 6.62914 6.24797 7.53055C5.9899 8.43751 5.50442 9.21444 4.99187 9.75919C4.763 10.0024 4.53574 10.1919 4.33032 10.3246ZM12.8634 0.259766C13.087 0.259765 13.2875 0.3976 13.3676 0.606395L17.9042 12.435C17.9678 12.601 17.9457 12.7877 17.8449 12.9343C17.7442 13.0808 17.5778 13.1683 17.4 13.1683H13.4034L13.4034 15.1998C13.4034 15.498 13.1616 15.7398 12.8634 15.7398C12.5651 15.7398 12.3234 15.498 12.3234 15.1998L12.3234 13.1683H8.32687C8.14905 13.1683 7.98262 13.0808 7.88188 12.9343C7.78114 12.7877 7.759 12.601 7.82267 12.435L12.3592 0.606398C12.4393 0.397602 12.6397 0.259766 12.8634 0.259766ZM13.4034 12.0883V10.5712C13.4034 10.273 13.1616 10.0312 12.8634 10.0312C12.5652 10.0312 12.3234 10.273 12.3234 10.5712V12.0883H9.11232L12.8634 2.30776L16.6145 12.0883H13.4034Z" fill="#B6C3CC"/>
</svg>
