<svg width="16" height="18" viewBox="0 0 16 18" fill="none" xmlns="http://www.w3.org/2000/svg">
<path fill-rule="evenodd" clip-rule="evenodd" d="M8.125 0.666748C12.2671 0.666748 15.625 3.98819 15.625 8.08539C15.625 10.7966 13.3564 13.6632 8.91521 16.786L8.125 17.3334L7.64816 17.0043C3.00035 13.7967 0.625 10.8597 0.625 8.08539C0.625 3.98819 3.98286 0.666748 8.125 0.666748ZM8.125 2.31533C4.90334 2.31533 2.29167 4.89867 2.29167 8.08539C2.29167 10.0875 4.2056 12.5305 8.125 15.3183C12.0444 12.5305 13.9583 10.0875 13.9583 8.08539C13.9583 4.89867 11.3467 2.31533 8.125 2.31533ZM8.125 4.00008C9.96595 4.00008 11.4583 5.49247 11.4583 7.33341C11.4583 9.17436 9.96595 10.6667 8.125 10.6667C6.28405 10.6667 4.79167 9.17436 4.79167 7.33341C4.79167 5.49247 6.28405 4.00008 8.125 4.00008ZM8.125 5.66675C7.20452 5.66675 6.45833 6.41294 6.45833 7.33341C6.45833 8.25389 7.20452 9.00008 8.125 9.00008C9.04547 9.00008 9.79167 8.25389 9.79167 7.33341C9.79167 6.41294 9.04547 5.66675 8.125 5.66675Z" fill="#030E06"/>
</svg>
