<svg width="12" height="16" viewBox="0 0 12 16" fill="none" xmlns="http://www.w3.org/2000/svg">
<path fill-rule="evenodd" clip-rule="evenodd" d="M2.58702 2.46465V7.45977H9.41291V2.46465L9.41281 2.46099C9.41262 2.45531 9.41214 2.44444 9.41103 2.42913C9.40879 2.39834 9.40403 2.35073 9.39407 2.29216C9.37374 2.17248 9.33406 2.02096 9.26006 1.87579C9.18725 1.73297 9.08596 1.60502 8.9427 1.51134C8.8023 1.41955 8.58997 1.33977 8.25881 1.33977H3.74112C3.40996 1.33977 3.19763 1.41955 3.05723 1.51134C2.91397 1.60502 2.81268 1.73297 2.73987 1.87579C2.66587 2.02096 2.62619 2.17248 2.60585 2.29216C2.5959 2.35073 2.59114 2.39834 2.5889 2.42913C2.58778 2.44444 2.58731 2.45531 2.58712 2.46099L2.58702 2.46465ZM9.95291 2.4613C10.4929 2.4613 10.4929 2.46103 10.4929 2.46075L10.4929 2.45883L10.4929 2.45573L10.4928 2.44766L10.4922 2.4243C10.4916 2.40564 10.4904 2.38081 10.4882 2.35069C10.4838 2.29062 10.4753 2.20841 10.4588 2.11122C10.4262 1.91935 10.36 1.6555 10.2222 1.38528C10.0833 1.11272 9.86693 0.825282 9.53373 0.607419C9.19766 0.387678 8.77471 0.259766 8.25881 0.259766H3.74112C3.22522 0.259766 2.80227 0.387678 2.4662 0.607419C2.133 0.825282 1.91664 1.11272 1.77769 1.38528C1.63993 1.6555 1.57372 1.91935 1.54112 2.11122C1.5246 2.20841 1.51613 2.29062 1.51175 2.35069C1.50956 2.38081 1.50838 2.40564 1.50774 2.4243L1.50714 2.44766L1.50704 2.45573L1.50702 2.45883L1.50702 2.46015C1.50702 2.46043 1.50702 2.4613 2.04702 2.4613L1.50702 2.46015L1.50702 7.57529C1.2804 7.67966 1.09815 7.84664 0.965113 8.04234C0.749835 8.35904 0.659926 8.74846 0.65992 9.10745C0.659914 9.46643 0.74981 9.85587 0.965081 10.1726C1.19132 10.5054 1.55993 10.7552 2.04698 10.7552H5.45996V12.9982H2.61252C2.31428 12.9982 2.07176 13.24 2.07176 13.5382V15.1998C2.07176 15.498 2.31353 15.7398 2.61176 15.7398C2.91 15.7398 3.15176 15.498 3.15176 15.1998V14.0782H8.84817V15.199C8.84817 15.4973 9.08993 15.7398 9.38816 15.7398C9.6864 15.7398 9.92817 15.498 9.92817 15.1998V13.5382C9.92817 13.24 9.6864 12.9982 9.38816 12.9982H6.53996V10.7552H9.95287C10.4399 10.7552 10.8085 10.5054 11.0348 10.1726C11.25 9.85588 11.34 9.46646 11.34 9.10747C11.34 8.74849 11.2501 8.35905 11.0348 8.04235C10.9018 7.84664 10.7195 7.67966 10.4929 7.57529V2.46075L9.95291 2.4613ZM1.85827 9.56543C1.91438 9.64798 1.96931 9.67515 2.04698 9.67515H9.95287C10.0305 9.67515 10.0855 9.64797 10.1416 9.56542C10.2087 9.46673 10.26 9.30231 10.26 9.10745C10.26 8.91258 10.2087 8.74817 10.1416 8.64948C10.0855 8.56694 10.0306 8.53977 9.95291 8.53977H2.04702C1.96934 8.53977 1.91441 8.56695 1.85829 8.6495C1.7912 8.74819 1.73992 8.91261 1.73992 9.10747C1.73992 9.30233 1.79119 9.46674 1.85827 9.56543Z" fill="#B6C3CC"/>
</svg>
