<svg width="22" height="16" viewBox="0 0 22 16" fill="none" xmlns="http://www.w3.org/2000/svg">
<path d="M1.40002 14.7498C1.1515 14.7498 0.950024 14.9513 0.950024 15.1998C0.950025 15.4483 1.1515 15.6498 1.40002 15.6498L1.40002 14.7498ZM16.6702 15.1998L16.6702 15.6498L16.6702 15.6498L16.6702 15.1998ZM8.55792 15.1998L8.55792 15.6498H8.55792V15.1998ZM10.9439 6.97123L11.2805 6.67264C11.1951 6.57635 11.0726 6.52123 10.9439 6.52123C10.8152 6.52123 10.6926 6.57635 10.6072 6.67264L10.9439 6.97123ZM15.3901 6.11474C15.5616 6.29461 15.8465 6.30138 16.0264 6.12987C16.2062 5.95836 16.213 5.67352 16.0415 5.49366L15.3901 6.11474ZM10.9439 0.799805L11.2696 0.489261C11.1846 0.400201 11.0669 0.349805 10.9439 0.349805C10.8208 0.349805 10.7031 0.400201 10.6182 0.489261L10.9439 0.799805ZM2.35441 9.66134L1.95914 9.44625C1.92323 9.51226 1.90441 9.5862 1.90441 9.66134H2.35441ZM5.21757 4.3998L5.59747 4.15862C5.51203 4.02403 5.36176 3.9447 5.20243 3.95006C5.0431 3.95542 4.8985 4.04468 4.8223 4.18471L5.21757 4.3998ZM5.84628 5.49366C5.67477 5.67352 5.68155 5.95836 5.86141 6.12987C6.04127 6.30138 6.32612 6.29461 6.49763 6.11474L5.84628 5.49366ZM19.5334 15.1998L19.5334 15.6498C19.7819 15.6498 19.9834 15.4483 19.9834 15.1998H19.5334ZM19.5334 9.66134H19.9834C19.9834 9.5862 19.9645 9.51226 19.9286 9.44625L19.5334 9.66134ZM16.6702 4.3998L17.0655 4.18471C16.9893 4.04468 16.8447 3.95542 16.6853 3.95006C16.526 3.9447 16.3757 4.02403 16.2903 4.15862L16.6702 4.3998ZM20.6 15.6498C20.8486 15.6498 21.05 15.4483 21.05 15.1998C21.05 14.9513 20.8486 14.7498 20.6 14.7498V15.6498ZM15.7158 15.6498H16.6702V14.7498H15.7158V15.6498ZM13.3298 15.6498H15.7158V14.7498H13.3298V15.6498ZM8.55792 15.6498H13.3298V14.7498H8.55792V15.6498ZM9.00792 15.1998V9.66134H8.10792V15.1998H9.00792ZM12.8798 9.66134V15.1998H13.7798V9.66134H12.8798ZM10.6072 7.26983L12.9932 9.95994L13.6665 9.36275L11.2805 6.67264L10.6072 7.26983ZM16.0415 5.49366L11.2696 0.489261L10.6182 1.11035L15.3901 6.11474L16.0415 5.49366ZM1.40002 15.6498L2.35441 15.6498L2.35441 14.7498L1.40002 14.7498L1.40002 15.6498ZM2.35441 15.6498L8.55792 15.6498L8.55792 14.7498L2.35441 14.7498L2.35441 15.6498ZM2.80441 15.1998V9.66134H1.90441V15.1998H2.80441ZM2.74968 9.87643L5.61283 4.6149L4.8223 4.18471L1.95914 9.44625L2.74968 9.87643ZM6.49763 6.11474L11.2696 1.11035L10.6182 0.489261L5.84628 5.49366L6.49763 6.11474ZM8.89458 9.95994L11.2805 7.26983L10.6072 6.67264L8.22126 9.36275L8.89458 9.95994ZM8.93782 9.42016L5.59747 4.15862L4.83766 4.64099L8.17801 9.90253L8.93782 9.42016ZM19.9834 15.1998V9.66134H19.0834V15.1998H19.9834ZM19.9286 9.44625L17.0655 4.18471L16.2749 4.6149L19.1381 9.87643L19.9286 9.44625ZM13.7098 9.90253L17.0501 4.64099L16.2903 4.15862L12.9499 9.42016L13.7098 9.90253ZM19.5334 14.7498L16.6702 14.7498L16.6702 15.6498L19.5334 15.6498L19.5334 14.7498ZM20.6 14.7498H2.35441V15.6498H20.6V14.7498Z" fill="#B6C3CC"/>
</svg>
