<svg width="18" height="17" viewBox="0 0 18 17" fill="none" xmlns="http://www.w3.org/2000/svg">
<path fill-rule="evenodd" clip-rule="evenodd" d="M6.96224 6.69346C7.19407 6.5389 7.33332 6.27871 7.33332 6.00008V2.66675C7.33332 1.28604 6.21404 0.166748 4.83332 0.166748H1.49999C1.03975 0.166748 0.666656 0.539844 0.666656 1.00008C0.666656 9.28435 8.21572 16.8334 16.5 16.8334C16.9602 16.8334 17.3333 16.4603 17.3333 16.0001V12.6667C17.3333 11.286 16.214 10.1667 14.8333 10.1667H11.5C11.2214 10.1667 10.9612 10.306 10.8066 10.5378L9.21883 12.9195C7.48948 11.8013 5.97436 10.3244 4.80894 8.62422L4.58056 8.28124L6.96224 6.69346ZM11.946 11.8334H14.8334C15.2936 11.8334 15.6667 12.2065 15.6667 12.6667V15.1379C14.0523 15.0261 12.4768 14.5944 11.0073 13.9097L10.6701 13.7473L11.946 11.8334ZM2.36222 1.83341H4.83332C5.29356 1.83341 5.66666 2.20651 5.66666 2.66675V5.55409L3.75281 6.83C2.97401 5.26546 2.48252 3.57197 2.36222 1.83341Z" fill="#030E06"/>
</svg>
