<svg width="24" height="24" viewBox="0 0 24 24" fill="none" xmlns="http://www.w3.org/2000/svg">
<path fill-rule="evenodd" clip-rule="evenodd" d="M19.7905 18.6128L19.7073 18.707L16.7072 21.707C16.6802 21.734 16.6517 21.7595 16.6217 21.7833L16.5005 21.866L16.4272 21.9044L16.3401 21.9406L16.2337 21.9725L16.1167 21.9932L16.0331 21.9993L15.9411 21.9982L15.8253 21.9846L15.688 21.9501L15.5769 21.9062L15.4794 21.8539L15.3833 21.7871L15.293 21.707L12.2929 18.707C11.9024 18.3165 11.9024 17.6833 12.2929 17.2928C12.6534 16.9323 13.2206 16.9046 13.6129 17.2096L13.7072 17.2928L15 18.5849L15.0001 8.99989C15.0001 8.48705 15.3861 8.06438 15.8835 8.00661L16.0001 7.99989C16.5524 7.99989 17.0001 8.4476 17.0001 8.99989L17 18.5849L18.2931 17.2928C18.6535 16.9323 19.2208 16.9046 19.6131 17.2096L19.7073 17.2928C20.0378 17.6232 20.0886 18.1274 19.8598 18.5113L19.7905 18.6128ZM4.2929 5.29262L7.29297 2.29262L7.40492 2.19605L7.5158 2.12461L7.62902 2.07084L7.73424 2.03545L7.8253 2.01503L7.94107 2.00146L8.05925 2.00147L8.17476 2.015L8.31285 2.0496L8.36681 2.06912L8.45396 2.10839L8.52079 2.1458L8.60181 2.20086L8.66558 2.25328L8.70724 2.29262L11.7073 5.29262L11.7905 5.38683C12.0701 5.74643 12.0701 6.25303 11.7905 6.61263L11.7073 6.70684L11.6131 6.79003C11.2535 7.06963 10.7469 7.06963 10.3873 6.79003L10.2931 6.70684L9 5.41473L9.00013 14.9997C9.00013 15.5126 8.61409 15.9352 8.11675 15.993L8.00013 15.9997L7.88346 15.993C7.42437 15.9397 7.06013 15.5754 7.00681 15.1164L7.00008 14.9997L7 5.41473L5.70715 6.70684L5.61294 6.79003C5.22064 7.09505 4.65339 7.06732 4.2929 6.70684C3.93241 6.34635 3.90468 5.77912 4.20971 5.38683L4.2929 5.29262Z" fill="#17722C"/>
</svg>
