<svg width="50" height="50" viewBox="0 0 50 50" fill="none" xmlns="http://www.w3.org/2000/svg">
<path d="M0 25C0 11.1929 11.1929 0 25 0C38.8071 0 50 11.1929 50 25C50 38.8071 38.8071 50 25 50C11.1929 50 0 38.8071 0 25Z" fill="#F6914C"/>
<path fill-rule="evenodd" clip-rule="evenodd" d="M14.6091 22.1268C14.0008 22.2291 13.4897 22.479 13.101 22.8435C12.586 23.3263 12.3252 23.9751 12.3252 24.625C12.3252 25.2748 12.586 25.9236 13.101 26.4065C13.4825 26.7641 13.9819 27.0115 14.5754 27.1173C14.5762 27.8749 14.58 28.4966 14.5991 29.0005C14.6227 29.6219 14.6704 30.1328 14.7934 30.5263C14.9288 30.9595 15.1762 31.312 15.6089 31.5043C15.7568 31.57 15.915 31.6106 16.0752 31.6355V32.5C16.0752 32.8727 16.3774 33.175 16.7502 33.175C17.123 33.175 17.4252 32.8727 17.4252 32.5V31.675H32.5752V32.5C32.5752 32.8727 32.8774 33.175 33.2502 33.175C33.623 33.175 33.9252 32.8727 33.9252 32.5V31.6355C34.0854 31.6106 34.2436 31.57 34.3915 31.5043C34.8242 31.312 35.0716 30.9595 35.207 30.5263C35.3299 30.1328 35.3777 29.6219 35.4013 29.0005C35.4204 28.4966 35.4242 27.8749 35.425 27.1173C36.0185 27.0115 36.5179 26.7641 36.8994 26.4065C37.4144 25.9236 37.6752 25.2748 37.6752 24.625C37.6752 23.9751 37.4144 23.3263 36.8994 22.8435C36.5107 22.479 35.9996 22.2291 35.3913 22.1268C35.3106 21.3571 35.0759 20.4184 34.579 19.5902C33.916 18.4852 32.7763 17.575 31.0002 17.575H28.7502C26.974 17.575 25.8343 18.4852 25.1714 19.5902C25.1104 19.6917 25.0534 19.795 25.0002 19.8993C24.9469 19.795 24.8899 19.6917 24.829 19.5902C24.166 18.4852 23.0263 17.575 21.2502 17.575H19.0002C17.224 17.575 16.0843 18.4852 15.4214 19.5902C14.9245 20.4184 14.6898 21.3571 14.6091 22.1268ZM15.9661 22.1432C16.7287 22.2924 17.338 22.6692 17.7962 23.1042C18.3453 23.6255 18.6932 24.243 18.8621 24.705C19.7704 24.3863 20.8092 24.3021 21.7674 24.3444C22.6707 24.3842 23.5715 24.5397 24.3252 24.7678V22.75C24.3252 22.086 24.1546 21.0901 23.6714 20.2847C23.2093 19.5147 22.474 18.925 21.2502 18.925H19.0002C17.7763 18.925 17.041 19.5147 16.579 20.2847C16.2276 20.8704 16.0415 21.5569 15.9661 22.1432ZM24.3252 26.1921C23.6618 25.9408 22.7088 25.7372 21.7079 25.693C20.6456 25.6462 19.6441 25.7841 18.9252 26.1391V27.325H24.3252V26.1921ZM25.6752 27.325H31.0752V26.1921C30.4118 25.9408 29.4588 25.7372 28.4579 25.693C27.3956 25.6462 26.3941 25.7841 25.6752 26.1391V27.325ZM25.6752 24.6833C26.5684 24.3825 27.5814 24.3031 28.5174 24.3444C29.4356 24.3849 30.3512 24.5448 31.1123 24.7791C31.2699 24.3106 31.6252 23.6539 32.2042 23.1042C32.6624 22.6692 33.2717 22.2924 34.0342 22.1432C33.9589 21.5569 33.7728 20.8704 33.4214 20.2847C32.9593 19.5147 32.224 18.925 31.0002 18.925H28.7502C27.5263 18.925 26.791 19.5147 26.329 20.2847C25.8458 21.0901 25.6752 22.086 25.6752 22.75V24.6833ZM32.4252 25.7646C32.4254 25.7552 32.4254 25.7458 32.4252 25.7363V25.1188C32.5375 24.8354 32.771 24.4276 33.1337 24.0832C33.5276 23.7092 34.0555 23.425 34.7502 23.425C35.3557 23.425 35.7445 23.6113 35.976 23.8283C36.211 24.0486 36.3252 24.3373 36.3252 24.625C36.3252 24.9126 36.211 25.2013 35.976 25.4216C35.7445 25.6386 35.3557 25.825 34.7502 25.825C34.3774 25.825 34.0752 26.1272 34.0752 26.5C34.0752 27.5553 34.0751 28.3465 34.0522 28.9494C34.0289 29.5655 33.9829 29.9171 33.9184 30.1236C33.8889 30.2182 33.8638 30.2533 33.8572 30.2615C33.8574 30.2612 33.8569 30.2618 33.8572 30.2615C33.8559 30.2634 33.8541 30.2658 33.8432 30.2706C33.7806 30.2984 33.638 30.325 33.2502 30.325H32.4252V25.7646ZM31.0752 30.325V28.675H18.9252V30.325H31.0752ZM17.5752 30.325V25.1188C17.4629 24.8354 17.2294 24.4276 16.8667 24.0832C16.4728 23.7092 15.9449 23.425 15.2502 23.425C14.6447 23.425 14.2559 23.6113 14.0244 23.8283C13.7894 24.0486 13.6752 24.3373 13.6752 24.625C13.6752 24.9126 13.7894 25.2013 14.0244 25.4216C14.2559 25.6386 14.6447 25.825 15.2502 25.825C15.623 25.825 15.9252 26.1272 15.9252 26.5C15.9252 27.5553 15.9253 28.3465 15.9481 28.9494C15.9715 29.5655 16.0174 29.9171 16.082 30.1236C16.1115 30.2182 16.1366 30.2533 16.1432 30.2615C16.1434 30.2618 16.1429 30.2612 16.1432 30.2615C16.1445 30.2634 16.1463 30.2658 16.1572 30.2706C16.2197 30.2984 16.3624 30.325 16.7502 30.325H17.5752Z" fill="#030E06"/>
</svg>
