<svg width="50" height="50" viewBox="0 0 50 50" fill="none" xmlns="http://www.w3.org/2000/svg">
<path d="M0 25C0 11.1929 11.1929 0 25 0C38.8071 0 50 11.1929 50 25C50 38.8071 38.8071 50 25 50C11.1929 50 0 38.8071 0 25Z" fill="#F6914C"/>
<path fill-rule="evenodd" clip-rule="evenodd" d="M21.5125 16C21.5125 15.6272 21.8147 15.325 22.1875 15.325H27.8125C28.1852 15.325 28.4875 15.6272 28.4875 16C28.4875 16.9247 27.9124 17.7734 27.2854 18.351C26.834 18.7668 26.2604 19.1302 25.675 19.3001V24.5977H29.5C29.8727 24.5977 30.175 24.8999 30.175 25.2727C30.175 26.7761 29.9448 29.0442 29.2328 30.9622C28.5358 32.8396 27.2513 34.675 25 34.675C22.7486 34.675 21.4641 32.8396 20.7672 30.9622C20.0551 29.0442 19.825 26.7761 19.825 25.2727C19.825 24.8999 20.1272 24.5977 20.5 24.5977H24.325V19.3001C23.7395 19.1302 23.1659 18.7668 22.7145 18.351C22.0875 17.7734 21.5125 16.9247 21.5125 16ZM24.325 25.9477H21.1904C21.2503 27.2981 21.4904 29.0315 22.0328 30.4923C22.6858 32.2512 23.6513 33.325 25 33.325C26.3486 33.325 27.3141 32.2512 27.9672 30.4923C28.5095 29.0315 28.7497 27.2981 28.8095 25.9477H25.675V28C25.675 28.3727 25.3727 28.675 25 28.675C24.6272 28.675 24.325 28.3727 24.325 28V25.9477ZM23.0724 16.675C23.2016 16.9017 23.3886 17.1364 23.6292 17.358C24.129 17.8185 24.6756 18.0522 25 18.0522C25.3243 18.0522 25.8709 17.8185 26.3707 17.358C26.6113 17.1364 26.7984 16.9017 26.9275 16.675H23.0724Z" fill="#030E06"/>
</svg>
