<svg width="36" height="36" viewBox="0 0 36 36" fill="none" xmlns="http://www.w3.org/2000/svg">
    <rect width="36" height="36" fill="#030E06"/>
    <path fill-rule="evenodd" clip-rule="evenodd" d="M29.4493 12.4009C29.6163 11.8446 29.4494 11.4358 28.6553 11.4358H26.0297C25.362 11.4358 25.0544 11.7889 24.8875 12.1785C24.8875 12.1785 23.5522 15.4329 21.6607 17.5469C21.0487 18.1589 20.7706 18.3533 20.4367 18.3533C20.2698 18.3533 20.0283 18.1589 20.0283 17.6026V12.4009C20.0283 11.7332 19.8345 11.4358 19.2781 11.4358H15.1521C14.735 11.4358 14.4841 11.7456 14.4841 12.0393C14.4841 12.6723 15.4297 12.8182 15.5272 14.5983V18.4649C15.5272 19.3126 15.3742 19.4664 15.0404 19.4664C14.1503 19.4664 11.9853 16.1972 10.701 12.4566C10.4493 11.7295 10.1969 11.4358 9.52582 11.4358H6.90021C6.15003 11.4358 6 11.7889 6 12.1785C6 12.8739 6.89027 16.3232 10.1447 20.885C12.3146 24.0001 15.3712 25.6891 18.1528 25.6891C19.822 25.6891 20.0283 25.314 20.0283 24.6679V22.3133C20.0283 21.5632 20.1864 21.4135 20.7147 21.4135C21.1044 21.4135 21.7719 21.6082 23.3298 23.1102C25.11 24.8902 25.4033 25.6891 26.4048 25.6891H29.0304C29.7806 25.6891 30.1556 25.314 29.9392 24.5738C29.7025 23.836 28.8526 22.7659 27.7247 21.497C27.1127 20.7736 26.1947 19.9947 25.9168 19.6054C25.5272 19.1046 25.6385 18.8822 25.9168 18.4374C25.9168 18.4374 29.1155 13.9311 29.4493 12.4011V12.4009Z" fill="white"/>
</svg>
