<svg width="35" height="35" viewBox="0 0 35 35" fill="none" xmlns="http://www.w3.org/2000/svg">
<path d="M21.0595 15.0884C20.7839 15.0884 20.5605 15.3118 20.5605 15.5874C20.5605 15.863 20.7839 16.0864 21.0595 16.0864V15.0884ZM33.867 16.0864C34.1425 16.0864 34.366 15.863 34.366 15.5874C34.366 15.3118 34.1425 15.0884 33.867 15.0884V16.0864ZM21.0262 29.1764C20.7506 29.1764 20.5272 29.3998 20.5272 29.6754C20.5272 29.951 20.7506 30.1744 21.0262 30.1744V29.1764ZM33.8669 30.1744C34.1425 30.1744 34.3659 29.951 34.3659 29.6754C34.3659 29.3998 34.1425 29.1764 33.8669 29.1764V30.1744ZM26.3488 31.3054C26.0732 31.3054 25.8498 31.5289 25.8498 31.8044C25.8498 32.08 26.0732 32.3034 26.3488 32.3034V31.3054ZM28.744 32.3034C29.0195 32.3034 29.2429 32.08 29.2429 31.8044C29.2429 31.5289 29.0195 31.3054 28.744 31.3054V32.3034ZM28.0786 11.6452C28.0786 11.9207 28.302 12.1442 28.5776 12.1442C28.8532 12.1442 29.0766 11.9207 29.0766 11.6452H28.0786ZM19.5958 22.4234C19.8714 22.4234 20.0948 22.2 20.0948 21.9244C20.0948 21.6488 19.8714 21.4254 19.5958 21.4254V22.4234ZM3.32856 17.966C3.05297 17.966 2.82956 18.1894 2.82956 18.465C2.82956 18.7406 3.05297 18.964 3.32856 18.964V17.966ZM18.9638 18.964C19.2394 18.964 19.4628 18.7406 19.4628 18.465C19.4628 18.1894 19.2394 17.966 18.9638 17.966V18.964ZM7.32047 26.0161C7.04489 26.0161 6.82148 26.2395 6.82148 26.5151C6.82148 26.7907 7.04489 27.0141 7.32047 27.0141V26.0161ZM19.097 27.0141C19.3726 27.0141 19.596 26.7907 19.596 26.5151C19.596 26.2395 19.3726 26.0161 19.097 26.0161V27.0141ZM12.5101 21.9909C12.5101 21.7153 12.2867 21.4919 12.0111 21.4919C11.7355 21.4919 11.5121 21.7153 11.5121 21.9909H12.5101ZM11.5121 25.9829C11.5121 26.2584 11.7355 26.4819 12.0111 26.4819C12.2867 26.4819 12.5101 26.2584 12.5101 25.9829H11.5121ZM18.0655 21.9577C18.0655 21.6821 17.8421 21.4587 17.5665 21.4587C17.2909 21.4587 17.0675 21.6821 17.0675 21.9577H18.0655ZM17.0675 25.9496C17.0675 26.2252 17.2909 26.4486 17.5665 26.4486C17.8421 26.4486 18.0655 26.2252 18.0655 25.9496H17.0675ZM21.0595 16.0864H33.867V15.0884H21.0595V16.0864ZM21.0262 30.1744H33.8669V29.1764H21.0262V30.1744ZM26.3488 32.3034H28.744V31.3054H26.3488V32.3034ZM1.49899 20.5938V2.33065H0.501008V20.5938H1.49899ZM2.33065 1.49899H27.247V0.501008H2.33065V1.49899ZM28.0786 2.33065V11.6452H29.0766V2.33065H28.0786ZM2.33065 22.4234H19.5958V21.4254H2.33065V22.4234ZM27.247 1.49899C27.7063 1.49899 28.0786 1.87134 28.0786 2.33065H29.0766C29.0766 1.32016 28.2575 0.501008 27.247 0.501008V1.49899ZM1.49899 2.33065C1.49899 1.87134 1.87134 1.49899 2.33065 1.49899V0.501008C1.32016 0.501008 0.501008 1.32017 0.501008 2.33065H1.49899ZM0.501008 20.5938C0.501008 21.6042 1.32016 22.4234 2.33065 22.4234V21.4254C1.87134 21.4254 1.49899 21.0531 1.49899 20.5938H0.501008ZM21.5252 32.6361V14.7389H20.5272V32.6361H21.5252ZM22.3569 13.9073H32.6694V12.9093H22.3569V13.9073ZM33.501 14.7389V32.6361H34.499V14.7389H33.501ZM32.6694 33.4677H22.3569V34.4657H32.6694V33.4677ZM33.501 32.6361C33.501 33.0954 33.1287 33.4677 32.6694 33.4677V34.4657C33.6798 34.4657 34.499 33.6466 34.499 32.6361H33.501ZM32.6694 13.9073C33.1287 13.9073 33.501 14.2796 33.501 14.7389H34.499C34.499 13.7284 33.6798 12.9093 32.6694 12.9093V13.9073ZM21.5252 14.7389C21.5252 14.2796 21.8975 13.9073 22.3569 13.9073V12.9093C21.3464 12.9093 20.5272 13.7284 20.5272 14.7389H21.5252ZM20.5272 32.6361C20.5272 33.6466 21.3464 34.4657 22.3569 34.4657V33.4677C21.8975 33.4677 21.5252 33.0954 21.5252 32.6361H20.5272ZM3.32856 18.964H18.9638V17.966H3.32856V18.964ZM7.32047 27.0141H19.097V26.0161H7.32047V27.0141ZM11.5121 21.9909V25.9829H12.5101V21.9909H11.5121ZM17.0675 21.9577V25.9496H18.0655V21.9577H17.0675Z" fill="#70B62C"/>
</svg>
