<svg width="24" height="25" viewBox="0 0 24 25" fill="none" xmlns="http://www.w3.org/2000/svg">
<path d="M22.7509 4.44099L23.1729 4.17284V4.17284L22.7509 4.44099ZM21.035 1.74056L20.613 2.00872V2.00872L21.035 1.74056ZM5.61252 1.19964C5.61252 0.923495 5.38867 0.699637 5.11252 0.699637C4.83638 0.699637 4.61252 0.923495 4.61252 1.19964H5.61252ZM19.1479 4.63339C19.1479 4.35725 18.9241 4.13339 18.6479 4.13339C18.3718 4.13339 18.1479 4.35725 18.1479 4.63339H19.1479ZM19.1279 1.47882C19.1279 1.20267 18.9041 0.978817 18.6279 0.978817C18.3518 0.978817 18.1279 1.20267 18.1279 1.47882H19.1279ZM18.1279 2.75712C18.1279 3.03326 18.3518 3.25712 18.6279 3.25712C18.9041 3.25712 19.1279 3.03326 19.1279 2.75712H18.1279ZM12.4401 1.19964C12.4401 0.923495 12.2163 0.699637 11.9401 0.699637C11.664 0.699637 11.4401 0.923495 11.4401 1.19964H12.4401ZM11.4401 6.62976C11.4401 6.90591 11.664 7.12976 11.9401 7.12976C12.2163 7.12976 12.4401 6.90591 12.4401 6.62976H11.4401ZM3.93557 17.4102C3.93557 17.134 3.71171 16.9102 3.43557 16.9102C3.15943 16.9102 2.93557 17.134 2.93557 17.4102H3.93557ZM2.93557 23.7187C2.93557 23.9948 3.15943 24.2187 3.43557 24.2187C3.71171 24.2187 3.93557 23.9948 3.93557 23.7187H2.93557ZM19.7849 23.6788C19.7849 23.9549 20.0088 24.1788 20.2849 24.1788C20.5611 24.1788 20.7849 23.9549 20.7849 23.6788H19.7849ZM2.85572 15.6134C2.85572 15.8896 3.07957 16.1134 3.35572 16.1134C3.63186 16.1134 3.85572 15.8896 3.85572 15.6134H2.85572ZM5.35209 15.2731C5.07594 15.2731 4.85209 15.497 4.85209 15.7731C4.85209 16.0493 5.07594 16.2731 5.35209 16.2731V15.2731ZM18.3684 16.2731C18.6446 16.2731 18.8684 16.0493 18.8684 15.7731C18.8684 15.497 18.6446 15.2731 18.3684 15.2731V16.2731ZM5.5118 17.2695C5.23565 17.2695 5.0118 17.4934 5.0118 17.7695C5.0118 18.0457 5.23565 18.2695 5.5118 18.2695V17.2695ZM18.5281 18.2695C18.8043 18.2695 19.0281 18.0457 19.0281 17.7695C19.0281 17.4934 18.8043 17.2695 18.5281 17.2695V18.2695ZM5.43194 19.2659C5.1558 19.2659 4.93194 19.4897 4.93194 19.7659C4.93194 20.042 5.1558 20.2659 5.43194 20.2659V19.2659ZM18.4483 20.2659C18.7244 20.2659 18.9483 20.042 18.9483 19.7659C18.9483 19.4897 18.7244 19.2659 18.4483 19.2659V20.2659ZM5.35209 21.1824C5.07594 21.1824 4.85209 21.4063 4.85209 21.6824C4.85209 21.9585 5.07594 22.1824 5.35209 22.1824V21.1824ZM18.3684 22.1824C18.6446 22.1824 18.8684 21.9585 18.8684 21.6824C18.8684 21.4063 18.6446 21.1824 18.3684 21.1824V22.1824ZM0.5 2.5971V22.6007H1.5V2.5971H0.5ZM2.5971 24.6978H21.4029V23.6978H2.5971V24.6978ZM23.5 22.6007V5.29752H22.5V22.6007H23.5ZM23.1729 4.17284L21.457 1.47241L20.613 2.00872L22.3289 4.70914L23.1729 4.17284ZM19.687 0.5H2.5971V1.5H19.687V0.5ZM21.457 1.47241C21.0722 0.866822 20.4045 0.5 19.687 0.5V1.5C20.0624 1.5 20.4117 1.6919 20.613 2.00872L21.457 1.47241ZM23.5 5.29752C23.5 4.89917 23.3865 4.50905 23.1729 4.17284L22.3289 4.70914C22.4406 4.88504 22.5 5.08912 22.5 5.29752H23.5ZM21.4029 24.6978C22.5611 24.6978 23.5 23.7589 23.5 22.6007H22.5C22.5 23.2066 22.0088 23.6978 21.4029 23.6978V24.6978ZM0.5 22.6007C0.5 23.7589 1.4389 24.6978 2.5971 24.6978V23.6978C1.99119 23.6978 1.5 23.2066 1.5 22.6007H0.5ZM1.5 2.5971C1.5 1.99119 1.99119 1.5 2.5971 1.5V0.5C1.4389 0.5 0.5 1.4389 0.5 2.5971H1.5ZM4.61252 1.19964V5.19238H5.61252V1.19964H4.61252ZM6.70962 7.28947H17.0508V6.28947H6.70962V7.28947ZM19.1479 5.19238V4.63339H18.1479V5.19238H19.1479ZM17.0508 7.28947C18.209 7.28947 19.1479 6.35057 19.1479 5.19238H18.1479C18.1479 5.79829 17.6567 6.28947 17.0508 6.28947V7.28947ZM4.61252 5.19238C4.61252 6.35057 5.55142 7.28947 6.70962 7.28947V6.28947C6.10371 6.28947 5.61252 5.79829 5.61252 5.19238H4.61252ZM18.1279 1.47882V2.75712H19.1279V1.47882H18.1279ZM13.4764 2.99637V4.75318H14.4764V2.99637H13.4764ZM14.3757 5.65245H16.2123V4.65245H14.3757V5.65245ZM17.1116 4.75318V2.99637H16.1116V4.75318H17.1116ZM16.2123 2.0971H14.3757V3.0971H16.2123V2.0971ZM17.1116 2.99637C17.1116 2.49971 16.709 2.0971 16.2123 2.0971V3.0971C16.1567 3.0971 16.1116 3.052 16.1116 2.99637H17.1116ZM16.2123 5.65245C16.709 5.65245 17.1116 5.24983 17.1116 4.75318H16.1116C16.1116 4.69755 16.1567 4.65245 16.2123 4.65245V5.65245ZM13.4764 4.75318C13.4764 5.24983 13.879 5.65245 14.3757 5.65245V4.65245C14.4313 4.65245 14.4764 4.69755 14.4764 4.75318H13.4764ZM14.4764 2.99637C14.4764 3.052 14.4313 3.0971 14.3757 3.0971V2.0971C13.879 2.0971 13.4764 2.49971 13.4764 2.99637H14.4764ZM11.4401 1.19964V6.62976H12.4401V1.19964H11.4401ZM2.93557 17.4102V23.7187H3.93557V17.4102H2.93557ZM19.7849 13.8566V23.6788H20.7849V13.8566H19.7849ZM19.8857 12.9573H3.75499V13.9573H19.8857V12.9573ZM2.85572 13.8566V15.6134H3.85572V13.8566H2.85572ZM3.75499 12.9573C3.25834 12.9573 2.85572 13.36 2.85572 13.8566H3.85572C3.85572 13.9123 3.81062 13.9573 3.75499 13.9573V12.9573ZM20.7849 13.8566C20.7849 13.36 20.3823 12.9573 19.8857 12.9573V13.9573C19.83 13.9573 19.7849 13.9123 19.7849 13.8566H20.7849ZM5.35209 16.2731H18.3684V15.2731H5.35209V16.2731ZM5.5118 18.2695H18.5281V17.2695H5.5118V18.2695ZM5.43194 20.2659H18.4483V19.2659H5.43194V20.2659ZM5.35209 22.1824H18.3684V21.1824H5.35209V22.1824Z" fill="#70B62C"/>
</svg>
