<svg width="34" height="26" viewBox="0 0 34 26" fill="none" xmlns="http://www.w3.org/2000/svg">
<path d="M9.16559 4.67212H16.4901" stroke="#70B62C" stroke-linecap="round"/>
<path d="M21.2882 2.8623V0.92608" stroke="#70B62C" stroke-linecap="round"/>
<path d="M28.3597 5.62219L29.8429 4.37761" stroke="#70B62C" stroke-linecap="round"/>
<path d="M31.3061 12.7959H33.2423" stroke="#70B62C" stroke-linecap="round"/>
<path d="M28.4439 19.9515L29.7301 21.3988" stroke="#70B62C" stroke-linecap="round"/>
<path d="M21.2882 24.8342V22.898" stroke="#70B62C" stroke-linecap="round"/>
<path d="M9.1658 20.8776H16.4903" stroke="#70B62C" stroke-width="1.16" stroke-linecap="round"/>
<path d="M23.1403 10.8596L26.5919 7.57646" stroke="#70B62C" stroke-linecap="round"/>
<path d="M18.847 15.2373L19.773 14.3955" stroke="#70B62C" stroke-linecap="round"/>
<path d="M5.04065 8.79712H15.5644" stroke="#70B62C" stroke-linecap="round"/>
<path d="M5.0408 16.8368H15.5646" stroke="#70B62C" stroke-linecap="round"/>
<path d="M1 12.7959L14.6378 12.7959" stroke="#70B62C" stroke-linecap="round"/>
<path d="M15.0347 2.10777C14.8861 1.845 14.9797 1.51042 15.2497 1.37534C17.0911 0.453906 19.1312 -0.0187394 21.1996 0.000568524C23.4512 0.0215873 25.6583 0.624874 27.602 1.75064C29.5457 2.87641 31.1586 4.48559 32.2808 6.4187C33.403 8.35181 33.9956 10.5418 33.9999 12.7715C34.0042 15.0013 33.4201 17.1934 32.3053 19.1308C31.1905 21.0681 29.5838 22.6834 27.6445 23.8165C25.7051 24.9496 23.5004 25.5612 21.2489 25.5907C19.1806 25.6178 17.1386 25.1529 15.2937 24.2384C15.0232 24.1044 14.9283 23.7702 15.0759 23.5068C15.2217 23.2466 15.5496 23.1538 15.8173 23.2855C17.4971 24.1115 19.3538 24.5313 21.2344 24.5066C23.2952 24.4796 25.3131 23.9198 27.0881 22.8827C28.8631 21.8456 30.3337 20.3672 31.354 18.594C32.3743 16.8208 32.909 14.8144 32.9051 12.7736C32.9012 10.7327 32.3587 8.72834 31.3316 6.95902C30.3044 5.18969 28.8282 3.71686 27.0492 2.68648C25.2702 1.65609 23.2502 1.10392 21.1893 1.08468C19.3086 1.06712 17.4535 1.49392 15.7769 2.32632C15.5097 2.45897 15.1815 2.36744 15.0347 2.10777Z" fill="#70B62C"/>
<path d="M23.9821 12.6697C23.9821 14.0877 22.7949 15.2373 21.3303 15.2373C19.8658 15.2373 18.6786 14.0877 18.6786 12.6697C18.6786 11.2516 19.8658 10.1021 21.3303 10.1021C22.7949 10.1021 23.9821 11.2516 23.9821 12.6697ZM19.6012 12.6697C19.6012 13.5943 20.3754 14.3439 21.3303 14.3439C22.2853 14.3439 23.0595 13.5943 23.0595 12.6697C23.0595 11.745 22.2853 10.9954 21.3303 10.9954C20.3754 10.9954 19.6012 11.745 19.6012 12.6697Z" fill="#70B62C"/>
</svg>
