<svg width="28" height="28" viewBox="0 0 28 28" fill="none" xmlns="http://www.w3.org/2000/svg">
<path d="M19.9609 12.3047L22.269 14.8636C22.3792 14.9858 22.5716 14.9836 22.679 14.8591L24.8828 12.3047" stroke="#70B62C" stroke-width="0.820312" stroke-linecap="round"/>
<path d="M13.2448 0.550426C13.2284 0.258593 13.4518 0.00768127 13.7441 0.00233077C17.0425 -0.0580574 20.263 1.04885 22.8315 3.13705C25.5372 5.33675 27.3246 8.46699 27.8439 11.9151C28.3632 15.3633 27.577 18.8811 25.6392 21.7801C23.7013 24.6791 20.7514 26.7506 17.3667 27.5892C13.982 28.4277 10.4062 27.973 7.33916 26.3139C4.27209 24.6549 1.93453 21.911 0.784004 18.6192C-0.366526 15.3275 -0.247214 11.7249 1.11859 8.51646C2.41516 5.47067 4.74646 2.9883 7.69154 1.50186C7.95248 1.37016 8.26718 1.48775 8.38894 1.75348C8.51068 2.01921 8.39335 2.33236 8.13282 2.46487C5.42725 3.84092 3.2858 6.12785 2.0925 8.93105C0.82996 11.8969 0.719668 15.2271 1.78321 18.27C2.84676 21.3129 5.00757 23.8493 7.84276 25.3829C10.6779 26.9165 13.9834 27.3369 17.1122 26.5617C20.241 25.7866 22.9679 23.8717 24.7592 21.1919C26.5505 18.5121 27.2772 15.2602 26.7972 12.0728C26.3172 8.88532 24.6649 5.99174 22.1638 3.95835C19.7999 2.03647 16.8385 1.01378 13.8034 1.05997C13.5112 1.06441 13.2612 0.842258 13.2448 0.550426Z" fill="#70B62C"/>
<path d="M21.0912 18.8601C21.3179 19.0156 21.3767 19.3265 21.209 19.5444C20.0367 21.0679 18.4093 22.1854 16.5568 22.73C14.5448 23.3215 12.3903 23.201 10.4567 22.3888C8.52317 21.5766 6.92891 20.1224 5.94284 18.2715C4.95676 16.4205 4.63923 14.2861 5.04378 12.2283C5.44833 10.1705 6.55022 8.31516 8.16359 6.97526C9.77696 5.63535 11.8031 4.89288 13.9002 4.87307C15.9973 4.85325 18.0371 5.55731 19.6755 6.86649C21.1839 8.07183 22.2672 9.72219 22.7755 11.5761C22.8482 11.8413 22.6761 12.1068 22.4074 12.1649C22.1386 12.223 21.8752 12.0517 21.8007 11.7871C21.3419 10.157 20.3833 8.70666 19.0539 7.64438C17.5945 6.47824 15.7776 5.8511 13.9096 5.86875C12.0416 5.8864 10.2369 6.54776 8.79976 7.74126C7.36266 8.93477 6.38116 10.5874 6.02081 12.4204C5.66045 14.2534 5.9433 16.1546 6.82164 17.8033C7.69997 19.452 9.12005 20.7473 10.8423 21.4708C12.5646 22.1943 14.4838 22.3016 16.276 21.7747C17.9086 21.2948 19.3449 20.3153 20.3866 18.9802C20.5557 18.7634 20.8644 18.7046 21.0912 18.8601Z" fill="#70B62C"/>
</svg>
